<svg height="514" viewBox="0 0 885 514" width="885" xmlns="http://www.w3.org/2000/svg" xmlns:xlink="http://www.w3.org/1999/xlink"><linearGradient id="a"><stop offset="0" stop-color="#d4eeff"/><stop offset="1" stop-color="#d4eeff"/></linearGradient><linearGradient id="b" x1="2.274077%" x2="97.725811%" xlink:href="#a" y1="40.504189%" y2="59.49577%"/><linearGradient id="c" x1="2.234568%" x2="97.76545%" xlink:href="#a" y1="40.528025%" y2="59.47181%"/><linearGradient id="d" x1="50.810323%" x2="49.700296%" y1="94.268603%" y2="33.6995%"><stop offset="0" stop-color="#00ad45"/><stop offset="1" stop-color="#00ad45"/></linearGradient><mask id="e" fill="#fff"><path d="m0 .09532913h38.3843097v38.39584177h-38.3843097z" fill="#fff" fill-rule="evenodd"/></mask><mask id="f" fill="#fff"><path d="m.14281987 29.6376422 246.17997113 98.7084538 11.730132-29.2720822-246.1799713-98.70845417z" fill="#fff" fill-rule="evenodd"/></mask><mask id="g" fill="#fff"><path d="m.21843039 24.2613945 204.96751361 82.1842135 9.588884-23.9278741-204.96803876-82.18368803z" fill="#fff" fill-rule="evenodd"/></mask><mask id="h" fill="#fff"><path d="m.27991896.40180046h166.74933204v166.79871254h-166.74933204z" fill="#fff" fill-rule="evenodd"/></mask><mask id="i" fill="#fff"><path d="m59.2565933.45379817v10.01087153c-4.011033 2.1161491-7.8550928 4.5694954-11.5458312 7.3637156-15.3011536 11.5813074-27.0155332 28.1680505-35.1541653 49.7444725-8.13338148 21.5869266-12.2021725 47.2496332-12.2021725 76.9875942 0 29.481649 4.11604759 55.07555 12.3649451 76.789057 8.2436468 21.718234 20.0157844 38.299725 35.316938 49.749725 3.5962253 2.689174 7.3347453 5.063211 11.2202859 7.116858v10.057617h42.6411817c20.609117 0 38.508857-5.724475 53.69922-17.174475 15.185638-11.45 26.904743-28.031491 35.154166-49.749725 8.243121-21.713507 12.36547-47.307408 12.36547-76.789057 0-29.737961-4.069316-55.4006676-12.203223-76.9875942-8.138632-21.576422-19.80523-38.1631651-34.990342-49.7444725-15.190889-11.58183255-33.195643-17.37458713-54.025291-17.37458713z" fill="#fff" fill-rule="evenodd"/></mask><mask id="j" fill="#fff"><path d="m.45103775 47.7480757 3.31216075 45.9523165 17.5694691-13.4936674-4.5907136-80.1851904z" fill="#fff" fill-rule="evenodd"/></mask><g fill="none" fill-rule="evenodd"><g opacity=".50393" transform="translate(0 25.334438)"><path d="m231.480184 19.4560711c0 10.602805-8.59282 19.1981835-19.191945 19.1981835-10.599649 0-19.19247-8.5953785-19.19247-19.1981835 0-10.60280504 8.592821-19.19765826 19.19247-19.19765826 10.599125 0 19.191945 8.59485322 19.191945 19.19765826" fill="#80d6a2"/><path d="m767.852537 221.505765c0 10.602805-8.592295 19.197658-19.19247 19.197658-10.599124 0-19.191945-8.594853-19.191945-19.197658s8.592821-19.197658 19.191945-19.197658c10.600175 0 19.19247 8.594853 19.19247 19.197658" fill="#80d6a2"/><path d="m859.146042 19.4560711c0 10.602805-8.592295 19.1981835-19.19247 19.1981835-10.599124 0-19.191945-8.5953785-19.191945-19.1981835 0-10.60280504 8.592821-19.19765826 19.191945-19.19765826 10.600175 0 19.19247 8.59485322 19.19247 19.19765826" fill="#ccefda"/><path d="m38.3843097 19.2929874c0 10.602805-8.5928204 19.1981835-19.1919448 19.1981835-10.59964956 0-19.19246991-8.5953785-19.19246991-19.1981835 0-10.60280506 8.59282035-19.19765827 19.19246991-19.19765827 10.5991244 0 19.1919448 8.59485321 19.1919448 19.19765827" fill="#ccefda" mask="url(#e)" transform="translate(0 175.426606)"/><path d="m413.324163 334.893487c0 .919151-.063009 1.822546-.189026 2.704931-1.202417 8.550734-8.044119 15.294679-16.644816 16.35039-.771857.094016-1.559467.141812-2.357578.141812-10.601224 0-19.191419-8.592753-19.191419-19.197133 0-4.485459 1.533213-8.608509 4.106071-11.875436 3.507488-4.44344 8.926242-7.300688 15.02234-7.321697h.063008c10.601225 0 19.19142 8.592752 19.19142 19.197133" fill="#80d6a2"/><g fill="#ccefda"><path d="m413.134979 337.598365c-1.202417 8.550734-8.044119 15.294679-16.644815 16.35039-.299292-1.107708-.456814-2.274243-.456814-3.477018 0-7.395229 5.996334-13.398601 13.394614-13.398601 1.286954 0 2.530852.18383 3.707015.525229"/><path d="m394.132586 316.746655c0 1.549426-.399056 3.009564-1.097403 4.275367-.871621 1.570436-2.205307 2.851995-3.822532 3.650344-1.181414.588257-2.515099.919151-3.922295.919151-2.436339 0-4.641646-.987431-6.243119-2.573624 3.507488-4.44344 8.926242-7.300688 15.02234-7.321697.042006.341399.063009.693303.063009 1.050459"/><path d="m396.034715 324.414531c0 1.887149-1.529537 3.417142-3.41665 3.417142-1.886587 0-3.416125-1.529993-3.416125-3.417142 0-1.887675 1.529538-3.417668 3.416125-3.417668 1.887113 0 3.41665 1.529993 3.41665 3.417668"/></g></g><g transform="translate(5.248506)"><path d="m.14281987 29.6376422 246.17997113 98.7084538 11.730132-29.2720822-246.1799713-98.70845417z" fill="url(#b)" mask="url(#f)" transform="translate(200.055055 181.327557)"/><path d="m.21843039 24.2613945 204.96751361 82.1842135 9.588884-23.9278741-204.96803876-82.18368803z" fill="url(#c)" mask="url(#g)" transform="translate(374.379305 177.650952)"/><g opacity=".497349" transform="translate(.002225 .123429)"><path d="m596.317737 276.80459c-2.647418 6.607386-10.148612 9.816537-16.754556 7.168331-6.605419-2.648732-9.81414-10.152159-7.166197-16.759544 2.647944-6.607385 10.149137-9.817062 16.755081-7.16833 6.605419 2.648731 9.813615 10.152158 7.165672 16.759543" fill="#ccefda"/><path d="m466.872372 300.780785c-3.239175 8.08328-12.415877 12.00937-20.496751 8.76923-8.081399-3.24014-12.005795-12.419574-8.76662-20.502854 3.239176-8.083279 12.415353-12.009369 20.496752-8.769229 8.080349 3.24014 12.005795 12.419574 8.766619 20.502853" fill="#ccefda"/><path d="m460.665379 298.292091c-1.86506 4.654583-7.14887 6.91517-11.802067 5.049555s-6.913112-7.150998-5.048052-11.80558c1.865059-4.654583 7.148869-6.91517 11.802592-5.049555 4.652672 1.865614 6.913111 7.150997 5.047527 11.80558" fill="#80d6a2"/><path d="m590.789086 274.587755c-1.423474 3.553176-5.45761 5.27908-9.009729 3.854658-3.552119-1.423897-5.277509-5.459234-3.853511-9.01241 1.423998-3.553177 5.457609-5.279081 9.009728-3.854659 3.55212 1.424422 5.27751 5.459234 3.853512 9.012411" fill="#80d6a2"/><path d="m208.585687 272.222962c-3.630355 0-6.574965 8.934152-6.574965 19.952938 0-11.018786-2.943034-19.952938-6.574965-19.952938 3.631931 0 6.574965-8.934151 6.574965-19.952938 0 11.018787 2.94461 19.952938 6.574965 19.952938" fill="#ccefda"/><path d="m89.9927415 314.95993c0 2.619318-2.1228703 4.743346-4.7414096 4.743346-2.6190643 0-4.7419346-2.124028-4.7419346-4.743346 0-2.619319 2.1228703-4.742822 4.7419346-4.742822 2.6185393 0 4.7414096 2.123503 4.7414096 4.742822" fill="#80d6a2"/><path d="m304.32278 303.995767c0 2.619319-2.122871 4.743346-4.74141 4.743346-2.619064 0-4.741934-2.124027-4.741934-4.743346s2.12287-4.742821 4.741934-4.742821c2.618539 0 4.74141 2.123502 4.74141 4.742821" fill="#80d6a2"/><path d="m261.675192 148.926683c0 4.431361-3.590975 8.023404-8.021016 8.023404-4.429516 0-8.021016-3.592043-8.021016-8.023404 0-4.43136 3.5915-8.023403 8.021016-8.023403 4.430041 0 8.021016 3.592043 8.021016 8.023403" fill="#80d6a2"/><g fill="#ccefda"><path d="m322.56807 30.1599303c0 2.6193188-2.12287 4.7428211-4.741409 4.7428211-2.619065 0-4.741935-2.1235023-4.741935-4.7428211s2.12287-4.7428211 4.741935-4.7428211c2.618539 0 4.741409 2.1235023 4.741409 4.7428211"/><path d="m206.752289 77.8688764c0 2.6193188-2.12287 4.7428211-4.741409 4.7428211-2.619065 0-4.741935-2.1235023-4.741935-4.7428211s2.12287-4.7428211 4.741935-4.7428211c2.618539 0 4.741409 2.1235023 4.741409 4.7428211"/><path d="m9.7691415 33.1233268c0 2.6193188-2.12287032 4.7428211-4.74140959 4.7428211-2.61906434 0-4.74193465-2.1235023-4.74193465-4.7428211s2.12287031-4.7433463 4.74193465-4.7433463c2.61853927 0 4.74140959 2.1240275 4.74140959 4.7433463"/><path d="m815.511107 18.8941807c0 2.6193188-2.12287 4.7428211-4.74141 4.7428211-2.619064 0-4.741934-2.1235023-4.741934-4.7428211s2.12287-4.7428211 4.741934-4.7428211c2.61854 0 4.74141 2.1235023 4.74141 4.7428211"/><path d="m871.724692 100.629901c0 2.619318-2.12287 4.742821-4.74141 4.742821-2.619064 0-4.741934-2.123503-4.741934-4.742821 0-2.6193191 2.12287-4.7428214 4.741934-4.7428214 2.61854 0 4.74141 2.1235023 4.74141 4.7428214"/><path d="m625.88334 165.694526c0 2.619318-2.12287 4.742821-4.74141 4.742821-2.619064 0-4.741934-2.123503-4.741934-4.742821 0-2.619319 2.12287-4.742821 4.741934-4.742821 2.61854 0 4.74141 2.123502 4.74141 4.742821"/><path d="m641.149944 28.3801381c0 2.619844-2.122871 4.7433463-4.74141 4.7433463-2.619064 0-4.741934-2.1235023-4.741934-4.7433463 0-2.6193188 2.12287-4.7428211 4.741934-4.7428211 2.618539 0 4.74141 2.1235023 4.74141 4.7428211"/></g><path d="m844.186081 319.077097c0 2.619319-2.12287 4.743347-4.74141 4.743347-2.619064 0-4.741934-2.124028-4.741934-4.743347 0-2.619318 2.12287-4.742821 4.741934-4.742821 2.61854 0 4.74141 2.123503 4.74141 4.742821" fill="#80d6a2"/><path d="m401.466701 33.1233268c-4.346555 0-7.87242 10.6973464-7.87242 23.8900574 0-13.192711-3.523765-23.8900574-7.87242-23.8900574 4.348655 0 7.87242-10.6973463 7.87242-23.89058253 0 13.19323623 3.525865 23.89058253 7.87242 23.89058253" fill="#9fdeb8"/><path d="m650.675609 323.820339c-5.259657 0-9.525875 12.943227-9.525875 28.905997 0-15.96277-4.263068-28.905997-9.524825-28.905997 5.261757 0 9.524825-12.943753 9.524825-28.906523 0 15.96277 4.266218 28.906523 9.525875 28.906523" fill="#9fdeb8"/><path d="m274.88435 379.302312c-4.834873 0-8.757169 11.899596-8.757169 26.57608 0-14.676484-3.920195-26.57608-8.757168-26.57608 4.836973 0 8.757168-11.900122 8.757168-26.576081 0 14.675959 3.922296 26.576081 8.757169 26.576081" fill="#ccefda"/><path d="m866.983125 217.067209c-4.123399 0-7.467589 10.146906-7.467589 22.661546 0-12.51464-3.342615-22.661546-7.467064-22.661546 4.124449 0 7.467064-10.146906 7.467064-22.661546 0 12.51464 3.34419 22.661546 7.467589 22.661546" fill="#ccefda"/><path d="m495.606837 395.510575c0 2.241153-1.816228 4.057922-4.056714 4.057922-2.239437 0-4.055664-1.816769-4.055664-4.057922 0-2.241154 1.816227-4.057922 4.055664-4.057922 2.240486 0 4.056714 1.816768 4.056714 4.057922" fill="#ccefda"/><path d="m442.248337 112.123442c0 3.173436-2.571808 5.746009-5.744299 5.746009-3.173017 0-5.74535-2.572573-5.74535-5.746009s2.572333-5.746534 5.74535-5.746534c3.172491 0 5.744299 2.573098 5.744299 5.746534" fill="#ccefda"/><path d="m352.289042 83.3363564c0 1.9570046-1.586245 3.5431973-3.542142 3.5431973-1.956422 0-3.542143-1.5861927-3.542143-3.5431973s1.585721-3.5431972 3.542143-3.5431972c1.955897 0 3.542142 1.5861926 3.542142 3.5431972" fill="#80d6a2"/><path d="m501.032889 38.7472202c0 5.7418073-4.652672 10.3963899-10.393295 10.3963899-5.740099 0-10.392771-4.6545826-10.392771-10.3963899 0-5.7418074 4.652672-10.3963899 10.392771-10.3963899 5.740623 0 10.393295 4.6545825 10.393295 10.3963899" fill="#ccefda"/><path d="m773.069925 399.568234c0 2.891388-2.343401 5.236011-5.233928 5.236011-2.891052 0-5.234453-2.344623-5.234453-5.236011 0-2.891913 2.343401-5.236012 5.234453-5.236012 2.890527 0 5.233928 2.344099 5.233928 5.236012" fill="#80d6a2"/><path d="m173.288596 388.160935c0 1.818344-1.47388 3.292138-3.291682 3.292138-1.817278 0-3.291158-1.473794-3.291158-3.292138s1.47388-3.292663 3.291158-3.292663c1.817802 0 3.291682 1.474319 3.291682 3.292663" fill="#80d6a2"/><path d="m527.118886 182.000481c0 1.818344-1.473355 3.292663-3.291158 3.292663-1.817278 0-3.291158-1.474319-3.291158-3.292663s1.47388-3.292137 3.291158-3.292137c1.817803 0 3.291158 1.473793 3.291158 3.292137" fill="#80d6a2"/><path d="m383.168116 217.067209c0 1.818344-1.473355 3.292138-3.291158 3.292138s-3.291158-1.473794-3.291158-3.292138 1.473355-3.292137 3.291158-3.292137 3.291158 1.473793 3.291158 3.292137" fill="#ccefda"/><path d="m273.46912 160.452474c0 1.818344-1.473355 3.292138-3.291158 3.292138s-3.291683-1.473794-3.291683-3.292138 1.47388-3.292138 3.291683-3.292138 3.291158 1.473794 3.291158 3.292138" fill="#ccefda"/><path d="m17.2326873 338.892478c0 1.818344-1.4738801 3.292138-3.2911579 3.292138-1.8178029 0-3.2916829-1.473794-3.2916829-3.292138s1.47388-3.292663 3.2916829-3.292663c1.8172778 0 3.2911579 1.474319 3.2911579 3.292663" fill="#ccefda"/><path d="m239.529869 217.067209c0 1.818344-1.473355 3.292138-3.291158 3.292138s-3.291683-1.473794-3.291683-3.292138 1.47388-3.292137 3.291683-3.292137 3.291158 1.473793 3.291158 3.292137" fill="#ccefda"/><path d="m97.9844583 239.728755c0 2.207539-1.7889239 3.996995-3.9958059 3.996995s-3.9958059-1.789456-3.9958059-3.996995 1.7889239-3.996995 3.9958059-3.996995 3.9958059 1.789456 3.9958059 3.996995" fill="#ccefda"/><path d="m73.0475843 166.513621c45.6671777 5.859984 87.4367387-26.421663 93.2949787-72.1024359s-26.4138-87.46276836-72.0809776-93.3227523c-45.6671779-5.85945872-87.43673849 26.4216628-93.29497843 72.1024358-5.85823995 45.6807734 26.41379943 87.4627684 72.08097733 93.3227524" fill="#ccefda" mask="url(#h)" transform="translate(13.651899)"/><path d="m126.987813 48.6155445c6.915212.8871124 13.240767-4.0011973 14.127615-10.9184679.887374-6.9172706-3.999481-13.2447087-10.915218-14.1318211-6.915212-.8876376-13.240767 4.000672-14.127615 10.9184679-.887374 6.9172706 4.000006 13.2447087 10.915218 14.1318211" fill="#9fdeb8"/><path d="m127.907741 67.9238686c2.756633.3534793 5.278559-1.5951216 5.632458-4.3531009.353375-2.7574542-1.595171-5.2801308-4.351805-5.6336101-2.757158-.3534794-5.278559 1.5945963-5.632458 4.3525757-.353375 2.7579793 1.595171 5.2801307 4.351805 5.6341353" fill="#9fdeb8"/><path d="m71.6103018 134.345634c2.7566335.354004 5.2785593-1.595122 5.6324586-4.352576.3533741-2.757979-1.595172-5.280131-4.3518054-5.634135-2.7571586-.35348-5.2785593 1.595121-5.6324586 4.352575-.3533741 2.75798 1.5951719 5.280656 4.3518054 5.634136" fill="#9fdeb8"/><path d="m44.9610596 97.700644c26.036797 21.188803 47.0544208-11.1558715 47.0544208-11.1558715-36.0026834 11.0229885-45.9648942-23.4940344-4.1349502-37.1899152 25.9438588-8.4955848 22.9792968-31.9843669 16.9840128-48.59737152-44.4631855-4.07998165-84.5183826 27.76835092-90.2464044 72.43543122-1.8739857 14.6129312.1517461 28.826163 5.2743587 41.593963 1.746918-2.434438 3.0879545-4.798495 3.7715996-6.707179 3.0396479-8.469323 2.2326106-25.893807 21.2969627-10.379057" fill="#80d6a2"/><path d="m86.6992209 166.515932c45.6698031 5.859984 87.4377881-26.424814 93.2955031-72.1024359 1.638228-12.7741032.293516-25.2425229-3.487535-36.7051284-2.718303 4.4754793-8.100827 8.7198578-18.266241 3.1161857-17.345263-9.5544472-20.888456 17.1960092-6.827525 26.5745046 7.932804 5.2916858 14.936228 14.984268 5.132064 22.044927-10.770298 7.757637-29.231341-26.3954017-46.314068-13.844521-22.941491 16.856186 17.287505 42.180119 1.935945 49.741321-9.59676 4.726539-16.4762673-8.530775-16.4762673-8.530775s-20.9719424 19.532754-39.9654096 3.242241c-6.318729-5.419842-15.073797-6.048542-19.6797377.313036 12.8217587 13.909124 30.4253575 23.555487 50.6532715 26.150645" fill="#80d6a2"/><path d="m792.155123 126.314352c-7.835665 45.589908-51.134239 76.194497-96.710579 68.357025-45.57634-7.837473-76.171821-51.148936-68.336681-96.7393694 7.835665-45.5899083 51.134238-76.1939725 96.710578-68.3565 45.576341 7.8374724 76.171822 51.1489357 68.336682 96.7388444" fill="#ccefda"/><g fill="#9fdeb8"><path d="m793.356017 110.174053c-17.972725 3.561055-62.609184 9.690482-97.626831-7.94672-32.869572-16.5604814-36.146028-32.600986-52.00796-41.7872474 2.630091-3.3562156 5.508017-6.4918349 8.600172-9.3805964 16.634314.8036009 44.142891 5.509656 71.898252 24.9851606 23.565278 16.5394724 48.889551 19.6698394 67.403626 18.9870413 1.029144 4.9319036 1.617225 9.9951149 1.732741 15.1423619"/><path d="m683.074769 116.466301c-1.228671.488463-24.000564 9.186262-57.190956-3.855183-.020478-4.837363.373327-9.743005 1.22342-14.6801609.981886-5.7302523 2.530852-11.2188991 4.568135-16.4291743 11.82517 12.7420642 38.724137 39.5865362 51.399401 34.9645182"/><path d="m787.769398 142.270767c-3.418226 8.897385-8.275151 16.975413-14.245232 24.008234-20.913659-7.747133-60.614432-19.806399-90.396575-12.98367-16.718326 3.828922-32.12922 4.081032-44.652212 2.978051-4.148077-6.680918-7.366775-13.950092-9.509073-21.607936 17.952248-.241606 52.160757-1.806789 80.666447-9.517156 29.247094-7.909954 57.485522 9.233532 78.136645 17.122477"/><path d="m759.189882 179.640783c-3.639281 2.673418-7.498043 5.052707-11.525353 7.106353-20.609117-8.282867-46.988787-17.227522-61.224042-14.722178 1.759519-.378166 31.410394-6.344771 72.749395 7.615825"/><path d="m785.947552 77.630895c-16.040982-1.0924771-49.126359-6.3657799-75.820548-30.3530046-14.697319-13.2042661 11.845123-10.6148854 48.952035-2.7679587 11.682875 8.5612385 20.929412 20.0164908 26.868513 33.1209633"/><path d="m719.053036 195.371508c-7.676568.866628-15.605171.677545-23.607284-.698555-17.989003-3.093601-33.64143-11.712615-45.513331-23.819152 14.501992.940161 43.654572 5.320574 69.120615 24.517707"/><path d="m691.560054 44.6201773c-2.661595-.2416055-13.499628-1.4653899-21.816785-6.1399312 4.300873-2.3372706 8.815976-4.3016284 13.494377-5.8615596 3.024421 5.7932798 6.338157 11.2871789 8.322408 12.0014908"/><path d="m692.174337 44.6673429c-.183776.0472706-.382778.0262615-.603309-.0472707.388554.0315138.603309.0472707.603309.0472707"/></g><path d="m814.737884 113.226214c36.217964 11.653264 58.58135 23.813374 57.025558 32.866752-2.728279 15.875583-77.984373 16.184943-168.089008.690151-90.104109-15.494791-160.935938-40.925871-158.207658-56.8019789 1.598322-9.3002363 28.085107-13.2583647 67.865691-11.8271147" stroke="#80d6a2" stroke-linecap="round" stroke-width="14.7"/></g><g transform="translate(140.973527 122.373429)"><g fill="#2438b7"><path d="m114.148983 175.090113v-97.1233121l-58.5834495 97.1233121zm-7.160421 46.192871h-106.7520754v-36.322761l108.7053474-178.45455282h48.819716v168.58444282h33.522764v46.192871h-33.522764v61.195523h-50.772988z"/><path d="m345.228274 209.833457c8.894212-15.52683 13.344206-36.976672 13.344206-64.354252 0-27.637044-4.393811-49.3516011-13.180908-65.1436722-8.788148-15.7925963-21.430332-23.6888945-37.916575-23.6888945-16.492544 0-29.129477 7.8962982-37.916575 23.6888945-8.788147 15.7920711-13.181433 37.5066282-13.181433 65.1436722 0 27.37758 4.444218 48.827422 13.343681 64.354252 8.894737 15.533133 21.480738 23.293922 37.754327 23.293922 16.273064 0 28.854339-7.760789 37.753277-23.293922m-91.617895 61.393535c-15.296953-11.45-27.069616-28.032017-35.312738-49.746574-8.248372-21.714557-12.36757-47.309509-12.36757-76.790633 0-29.740587 4.068266-55.4032935 12.204798-76.9881192 8.136532-21.5790481 19.853537-38.1615894 35.149965-49.7465734 15.296427-11.57920639 33.360515-17.37143575 54.190163-17.37143575s38.836503 5.79222936 54.026341 17.37143575c15.185112 11.584984 26.851185 28.1675253 34.987717 49.7465734 8.136532 21.5848257 12.204798 47.2475322 12.204798 76.9881192 0 29.481124-4.123924 55.076076-12.367571 76.790633-8.248372 21.714557-19.964852 38.296574-35.149965 49.746574-15.190363 11.449474-33.090628 17.173949-53.70132 17.173949-20.616468 0-38.56819-5.724475-53.864618-17.173949"/><path d="m537.248589 175.090113v-97.1233121l-58.583975 97.1233121zm-7.160421 46.192871h-106.752076v-36.322761l108.704822-178.45455282h48.819717v168.58444282h33.522763v46.192871h-33.522763v61.195523h-50.772463z"/><path d="m264.836125 288.401099h43.258143v-287.81991093h-43.258143z"/></g><g fill="#00ad45"><path d="m114.148983 175.090113v-97.1233121l-58.5834495 97.1233121zm-7.160421 46.192871h-106.7520754v-36.322761l108.7053474-178.45455282h48.819716v168.58444282h33.522764v46.192871h-33.522764v61.195523h-50.772988z"/><path d="m537.248589 175.090113v-97.1233121l-58.583975 97.1233121zm-7.160421 46.192871h-106.752076v-36.322761l108.704822-178.45455282h48.819717v168.58444282h33.522763v46.192871h-33.522763v61.195523h-50.772463z"/></g></g><path d="m679.908808 404.852041h41.924982v-61.195523h-41.924982z" fill="#00ad45"/><path d="m256.805474 404.852041h41.924457v-61.195523h-41.924457z" fill="#00ad45"/><path d="m59.2565933.45379817v10.01087153c-4.011033 2.1161491-7.8550928 4.5694954-11.5458312 7.3637156-15.3011536 11.5813074-27.0155332 28.1680505-35.1541653 49.7444725-8.13338148 21.5869266-12.2021725 47.2496332-12.2021725 76.9875942 0 29.481649 4.11604759 55.07555 12.3649451 76.789057 8.2436468 21.718234 20.0157844 38.299725 35.316938 49.749725 3.5962253 2.689174 7.3347453 5.063211 11.2202859 7.116858v10.057617h42.6411817c20.609117 0 38.508857-5.724475 53.69922-17.174475 15.185638-11.45 26.904743-28.031491 35.154166-49.749725 8.243121-21.713507 12.36547-47.307408 12.36547-76.789057 0-29.737961-4.069316-55.4006676-12.203223-76.9875942-8.138632-21.576422-19.80523-38.1631651-34.990342-49.7444725-15.190889-11.58183255-33.195643-17.37458713-54.025291-17.37458713z" fill="url(#d)" mask="url(#i)" transform="translate(346.550434 122.501869)"/><g transform="translate(99.24103 122.501869)"><path d="m358.38073 145.348769c0 27.380206-4.45262 48.830573-13.342106 64.356353-8.899988 15.531032-21.480738 23.293922-37.758003 23.293922-16.272538 0-28.858014-7.76289-37.753277-23.293922-8.899463-15.52578-13.341581-36.976147-13.341581-64.356353 0-27.632317 4.394337-49.3505509 13.179334-65.1441977 8.789197-15.7883945 21.42298-23.687844 37.915524-23.687844 16.486769 0 29.130528 7.8994495 37.92025 23.687844 8.784472 15.7936468 13.179859 37.5118807 13.179859 65.1441977" fill="#0d0d0f"/><g fill="#fff"><path d="m302.960373 76.0226427c-1.911791 0-3.461282 3.8058119-3.461282 8.4997867 0-4.6939748-1.548965-8.4997867-3.460231-8.4997867 1.911266 0 3.460231-3.8052867 3.460231-8.4997867 0 4.6945 1.549491 8.4997867 3.461282 8.4997867"/><path d="m329.712949 93.2174963c-3.143612 0-5.691791 6.2581078-5.691791 13.9779287 0-7.7198209-2.547655-13.9779287-5.691267-13.9779287 3.143612 0 5.691267-6.2581078 5.691267-13.9779289 0 7.7198211 2.548179 13.9779289 5.691791 13.9779289"/><path d="m294.574326 128.520683c-2.339725 0-4.235764 4.657208-4.235764 10.402167 0-5.744959-1.896564-10.402167-4.235239-10.402167 2.338675 0 4.235239-4.657209 4.235239-10.402168 0 5.744959 1.896039 10.402168 4.235764 10.402168"/><path d="m345.720011 130.274581c-1.421373 0-2.573383 2.829411-2.573383 6.320085 0-3.490674-1.15201-6.320085-2.573383-6.320085 1.421373 0 2.573383-2.829411 2.573383-6.320085 0 3.490674 1.15201 6.320085 2.573383 6.320085"/><path d="m314.168634 204.381292c0-6.844264-2.259389-12.392787-5.045952-12.392787 2.786563 0 5.045952-5.547997 5.045952-12.392261 0 6.844264 2.258865 12.392261 5.046477 12.392261-2.787612 0-5.046477 5.548523-5.046477 12.392787z"/><path d="m277.364375 161.919125c-2.135473 0-3.866113 4.250681-3.866113 9.494045 0-5.243364-1.730641-9.494045-3.865063-9.494045 2.134422 0 3.865063-4.250156 3.865063-9.493521 0 5.243365 1.73064 9.493521 3.866113 9.493521"/></g><g fill="#4dc67d"><path d="m113.956393 174.961672v-97.1233114l-58.58345 97.1233114zm-7.160421 46.192872h-106.75207589v-36.322761l108.70534689-178.45455318h48.819717v168.58444218h33.522763v46.192872h-33.522763v61.195523h-50.772988z"/><path d="m345.038519 209.705017c-8.899988 15.531032-21.480738 23.293922-37.758003 23.293922-16.272013 0-28.858014-7.76289-37.753277-23.293922-8.899463-15.52578-13.341581-36.976147-13.341581-64.356353 0-27.632317 4.394337-49.3505509 13.179334-65.1441977 8.789722-15.7883945 21.42298-23.6878441 37.915524-23.6878441 16.486769 0 29.130528 7.8994496 37.920775 23.6878441 8.783947 15.7936468 13.179334 37.5118807 13.179334 65.1441977 0 27.380206-4.45262 48.830573-13.342106 64.356353m51.257105-142.1323168c-8.132856-21.576422-19.799979-38.1631651-34.985617-49.7444724-15.189838-11.58130739-33.199843-17.3745872-54.029491-17.3745872-20.830172 0-38.89216 5.79327981-54.187538 17.3745872-15.295378 11.5813073-27.015533 28.1680504-35.148389 49.7444724-5.582052 14.8009633-9.246537 31.5190138-11.000281 50.1488988-.803361 8.545482-1.207668 17.490138-1.207668 26.83922 0 12.011996.682595 23.377959 2.052511 34.103143 1.990027 15.588807 5.42978 29.81727 10.31821 42.68539 8.243122 21.718234 20.015785 38.299724 35.311162 49.749724 15.295378 11.45 33.247626 17.175 53.861993 17.175 20.614368 0 38.513583-5.725 53.703946-17.175 15.185112-11.45 26.900017-28.03149 35.148915-49.749724 8.243646-21.712982 12.370196-47.307409 12.370196-76.788533 0-29.738486-4.069317-55.4011922-12.207949-76.9881188"/><path d="m537.056261 174.961672v-97.1233114l-58.583975 97.1233114zm-7.160421 46.192872h-106.752076v-36.322761l108.704822-178.45455318h48.819717v168.58444218h33.522763v46.192872h-33.522763v61.195523h-50.772463z"/></g></g><path d="m.45103775 47.7480757 3.31216075 45.9523165 17.5694691-13.4936674-4.5907136-80.1851904z" mask="url(#j)" transform="translate(458.916065 304.231227)"/></g><g transform="translate(257.285791 154.54086)"><path d="m4.83602775 345.222385 6.31347825-16.672356 12.9698293 8.193578-6.979796 14.926493z" fill="#ef3c86"/><path d="m5.57569814 343.103557-5.50171535 15.847745 55.91240301.120803s-9.9076032-10.931073-35.7291203-14.069844z" fill="#0b096f"/><path d="m44.2788322 163.760264-5.8745172 86.789424-36.359208 89.082576 24.4930823 2.94286 40.1145304-79.355328 17.0144669-90.364661z" fill="#131318"/><path d="m72.9748091 71.3327647 60.9830339-12.2278647s3.336314.4343647 4.45682 4.3583532c1.121031 3.9245138-.639014 6.1877271-.639014 6.1877271l-62.7688072 25.787711z" fill="#ff77ca"/><path d="m66.4582851 88.1580144 37.9396779 11.0860161 8.263074-26.6674702 8.651629 3.3110459-5.618282 44.4990068-53.1226896-8.701475z" fill="#ff77ca"/><path d="m74.375914 69.6511378-40.8900632 10.7220322 49.0864535 12.1926743z" fill="#fe7a00"/><path d="m11.4056367 21.1053963 3.4392284 8.7939152-3.091105 2.3089082-7.57890433-5.1829633" stroke="#0b096f" stroke-width="4.725"/><path d="m61.9090523 19.7445796s16.9257295 12.7741032 1.2249954 21.7528991z" fill="#0b096f"/><path d="m24.9201242 52.6955787c-2.2420619-3.3015918-14.743526-4.758578-15.18143694 4.1608669-.56445352 11.5009473 21.01919904 11.4899175 21.01919904 11.4899175l3.5337416 15.578828 19.2061217-2.49589-3.7190923-13.707961s18.186955-3.5431972 21.3683726-6.5023394c0 0-1.9811006-18.1566537-8.0735232-29.7327087l-18.2704416-9.1589496-23.1126652 8.2660597z" fill="#ff77ca"/><path d="m14.4211837 50.6574787s-12.74299775-1.4921766-3.2181727-18.9964954c9.5253501-17.5048441 23.4004052-13.6286514 23.4004052-13.6286514s-.5381998-15.00055048 8.7566432-17.52900461c13.2423421-3.60307339 20.9372876 16.27423161 20.9372876 16.27423161s3.5909745-12.96213528 7.8214881-12.42167427c4.2299884.54046101 14.5466236 37.43624767-43.0549395 34.00387387 0 0 7.3410462 8.9315252-4.1438764 14.3356101 0 0-3.3042847-3.7643188-10.4988355-2.0378899" fill="#0b096f"/><path d="m51.0437683 59.1958172c-.7498043-1.6828349 1.4702045-4.2711651 4.802318-4.6745413 4.938312-.5987615 8.2467973 3.0405528 6.5187819 5.7008395-1.6545052 2.5473624-4.9131085-.0414932-7.6833939.469555-1.5069596.2778463-3.0680018-.2163945-3.637706-1.4958532" fill="#fff"/><path d="m49.7787623 67.7212876-12.406951.7290184 13.8340995 4.6514312z" fill="#ef3c86"/><path d="m58.4383719 42.9454835 6.7844688 8.7781582-4.8332973 1.4039381z" fill="#0b096f"/><path d="m87.7160773 90.2173862-12.9005196-19.3373692 7.1840494 21.6856697z" fill="#ef3c86"/><path d="m88.3162883 115.9021-4.0189091-22.5312892-.913102 21.7234862z" fill="#ef3c86"/><path d="m54.391634 44.1952142c.6096098 1.266328.0777108 2.786867-1.1882403 3.3966583-1.265426.6097913-2.7860376.0777339-3.3956474-1.1880688-.6096098-1.266328-.0777108-2.7873922 1.1882403-3.3971835 1.2654261-.6092661 2.7860376-.077734 3.3956474 1.188594" fill="#0b096f"/><path d="m66.5957492 41.1979404c.6096098 1.2663279.0777108 2.7868669-1.1882403 3.3966582-1.265426.6097913-2.7860375.077734-3.3951223-1.1880688-.6101348-1.266328-.0782359-2.7873922 1.1877153-3.3971835 1.265426-.6097913 2.7860375-.0777339 3.3956473 1.1885941" fill="#0b096f"/><path d="m43.9021973 167.826957s-40.26732665-59.468044-10.416399-87.4538396c6.951442-6.5175711 50.9782916 9.0391973 50.9782916 9.0391973l-1.4712546 35.0028603-8.6169738-1.786831 16.6033347 26.068184 9.0370318 23.124798s-23.1331427-5.221305-48.9830137-3.795832c-1.7810478.098217-7.131017-.198537-7.131017-.198537" fill="#ffc100"/><path d="m203.945669 193.883743-9.793663-10.612785 11.432416-11.847598 7.889747 13.764686z" fill="#ef3c86"/><path d="m207.329922 168.242939-46.516221-53.943156c-6.230517-6.757076-16.828591-6.977147-23.334246-.483737l-46.5004688 34.880482s-6.5938673 18.120938-43.8772038 19.627296c0 0 14.1407421 32.604663 46.9331289 21.049617 14.7713547-5.205023 56.5718947-40.997828 56.5718947-40.997828l47.021341 45.615119z" fill="#2d2d32"/><path d="m49.5551862 38.0822273-4.3953865 4.0295596" stroke="#0b096f" stroke-width="3.675"/><path d="m61.3424459 35.4107007 7.1982264 1.156555" stroke="#0b096f" stroke-width="3.675"/><path d="m203.945669 193.883743 9.5285 10.00772 10.146512-54.179509s-7.403005 10.237771-14.013675 26.629654z" fill="#0b096f"/><path d="m74.375914 122.628239-20.6631994-5.203447 25.5243257 12.835555z" fill="#fe7a00"/><path d="m122.329365 59.7989906c-.346548.4028509-.771857 1.6723303-.771857 1.6723303s-4.95564 3.8593853-8.481505 9.9368142c-3.525341 6.0774289 7.144669 8.4262546 7.144669 8.4262546s3.293258.5914082 4.236814-.2190207c.943556-.8114793 2.106068-.4117798 2.791813-.8477201.685746-.4359404 1.207668-2.7254152 2.967188-3.7154725 1.75847-.9911078.564979-4.5012156-.197427-5.0957753-.762931-.5945596-5.408253-2.0751811-4.31085-5.7659678.984512-3.3094702-1.528488-6.5412065-3.378845-4.3914427" fill="#ff77ca"/><g stroke="#ef3c86" stroke-width="1.575"><path d="m110.719317 81.0471968 2.62169-8.7723807s.00315-5.3216239 8.873734-10.6910436"/><path d="m125.56287 60.7878924s.773957 1.1801904 0 4.1146468c-.773958 2.9355069 3.38042 4.0190551 4.45577 5.0537569 1.075349 1.0347018 1.051763 2.4496697 1.051763 2.4496697"/><path d="m120.769793 80.2170193.542925-4.7727592"/></g></g></g></svg>