<?xml version="1.0" encoding="UTF-8"?>
<svg width="592px" height="363px" viewBox="0 0 592 363" version="1.1" xmlns="http://www.w3.org/2000/svg" xmlns:xlink="http://www.w3.org/1999/xlink">
    <!-- Generator: Sketch 53.2 (72643) - https://sketchapp.com -->
    <title>14</title>
    <desc>Created with Sketch.</desc>
    <defs>
        <path d="M111.918313,46.0594186 C111.918313,46.0594186 101.063687,47.1216279 66.9699868,50.6252326 C26.5873877,54.772907 9.47778414,74.1793023 1.02135242,98.7686047 C-1.62785463,106.483953 0.93315859,114.954651 9.13518502,115.008605 L46.1087533,115.301977 L95.3714537,115.716744 L103.997489,86.8010465 L138.745859,76.1890698 C153.260529,71.7547674 158.471088,53.9973256 148.630692,42.4984884 L112.440352,0.225930233 L92.060793,13.4951163 L111.918313,46.0594186 Z" id="path-1"></path>
        <path d="M0.252470588,39.2643493 C-2.93411765,61.9801027 32.1661176,98.9627055 32.1661176,98.9627055 L53.1928235,83.6787329 L35.8371765,42.5564384 L57.8464706,0.128835616 L13.2581176,4.05832192 C13.2581176,4.05832192 2.82152941,20.9493493 0.252470588,39.2643493 Z" id="path-3"></path>
    </defs>
    <g id="Page-1" stroke="none" stroke-width="1" fill="none" fill-rule="evenodd">
        <g id="Post-Copy" transform="translate(0.000000, -357.000000)">
            <g id="14" transform="translate(0.000000, 374.000000)">
                <polyline id="Path" stroke="#F2F6F9" stroke-width="33" stroke-linecap="round" stroke-linejoin="round" points="575 123 529.433029 168.294109 492.076444 131.164966 452 171"></polyline>
                <path d="M489,228 L568,306" id="Path" stroke="#F2F6F9" stroke-width="33" stroke-linecap="round" stroke-linejoin="round"></path>
                <path d="M426,340 L467,298" id="Path" stroke="#F2F6F9" stroke-width="33" stroke-linecap="round" stroke-linejoin="round"></path>
                <path d="M0,267 L41,225" id="Path" stroke="#EDF1F4" stroke-width="33" stroke-linecap="round" stroke-linejoin="round"></path>
                <path d="M102,83 L163,22" id="Path" stroke="#F2F6F9" stroke-width="33" stroke-linecap="round" stroke-linejoin="round"></path>
                <polyline id="Path" stroke="#F2F6F9" stroke-width="33" stroke-linecap="round" stroke-linejoin="round" points="384 247 334.518477 247 334.518477 206.093913 291 206.093913 291 161"></polyline>
                <polyline id="Path" stroke="#F2F6F9" stroke-width="33" stroke-linecap="round" stroke-linejoin="round" points="73 175 118.293119 220.568898 81.1644105 257.923296 121 298"></polyline>
                <path d="M222,174 L301,96" id="Path" stroke="#F2F6F9" stroke-width="33" stroke-linecap="round" stroke-linejoin="round"></path>
                <path d="M255,346 L318,283" id="Path" stroke="#EDF1F4" stroke-width="33" stroke-linecap="round" stroke-linejoin="round"></path>
                <path d="M259,266 L218,224" id="Path" stroke="#F2F6F9" stroke-width="33" stroke-linecap="round" stroke-linejoin="round"></path>
                <path d="M528,60 L490,22" id="Path" stroke="#EDF1F4" stroke-width="33" stroke-linecap="round" stroke-linejoin="round"></path>
                <path d="M56,63 L18,25" id="Path" stroke="#F2F6F9" stroke-width="33" stroke-linecap="round" stroke-linejoin="round"></path>
                <path d="M383,85 L297,0" id="Path" stroke="#F2F6F9" stroke-width="33" stroke-linecap="round" stroke-linejoin="round"></path>
                <path d="M43.9880602,130.08648 C44.3099452,122.084842 38.0841616,115.335996 30.0824955,115.012068 C22.0810299,114.688475 15.3336791,120.912194 15.0119278,128.913832 C14.6902099,136.915134 20.9159267,143.66398 28.9176262,143.987908 C36.918958,144.311837 43.6665095,138.087782 43.9880602,130.08648 Z" id="Path" fill="#F2F6F9" fill-rule="nonzero"></path>
                <path d="M446.5,76 C454.50876,76 461,69.5081984 461,61.5 C461,53.4918016 454.50876,47 446.5,47 C438.49124,47 432,53.4918016 432,61.5 C432,69.5081984 438.49124,76 446.5,76 Z" id="Path" fill="#F2F6F9" fill-rule="nonzero"></path>
                <path d="M46.5,348 C54.5080913,348 61,341.507863 61,333.5 C61,325.491802 54.5080913,319 46.5,319 C38.4919087,319 32,325.491802 32,333.5 C32,341.507863 38.4919087,348 46.5,348 Z" id="Path" fill="#F2F6F9" fill-rule="nonzero"></path>
                <path d="M376.5,329 C384.50876,329 391,322.508198 391,314.5 C391,306.491802 384.50876,300 376.5,300 C368.49124,300 362,306.491802 362,314.5 C362,322.508198 368.49124,329 376.5,329 Z" id="Path" fill="#F2F6F9" fill-rule="nonzero"></path>
                <path d="M185.5,114 C193.508091,114 200,107.508198 200,99.5 C200,91.4918016 193.508091,85 185.5,85 C177.491909,85 171,91.4918016 171,99.5 C171,107.508198 177.491909,114 185.5,114 Z" id="Path" fill="#F2F6F9" fill-rule="nonzero"></path>
                <path d="M214.329184,57 L209.015665,52.211308 C209.015665,52.211308 195.599029,56.0891629 194.710037,49.8016681 C194.710037,49.8016681 192.574411,50.3522487 192.046465,49.1661213 C191.518519,47.9799939 195.663745,43.2592748 195.663745,43.2592748 C195.663745,43.2592748 196.147412,38.161306 200.265389,36.0813347 C204.383366,34.0013635 214.625515,31.0649334 215.776777,32.2884459 C216.92804,33.5119584 220.971083,47.527974 220.971083,47.527974 C220.971083,47.527974 221.819202,53.5707663 214.329184,57 Z" id="Path" fill="#FFC62C" fill-rule="nonzero"></path>
                <path d="M169.208,367 L184.215021,243.219674 L191.312936,275.740847 L185.847541,367 L227.083049,367 L232.88644,266.726384 C233.284937,259.851544 232.633281,252.956039 230.953103,246.278697 L209.135463,159.55557 L139.809111,159 L139.545474,261.357003 L129,367 L169.208,367 Z" id="Path" fill="#24272D" fill-rule="nonzero"></path>
                <path d="M183,245 L188,196" id="Path" stroke="#FFFFFF" stroke-width="3" stroke-linecap="square"></path>
                <polyline id="Path" stroke="#FFFFFF" stroke-width="3" stroke-linecap="square" points="193.544444 267 189 273.050684 194 278"></polyline>
                <polygon id="Path" fill="#CFD0D1" fill-rule="nonzero" points="205.043578 129 87 140.427168 94.9564222 222 213 210.573169"></polygon>
                <path d="M150,171 L110,203" id="Path" stroke="#889099" stroke-width="4"></path>
                <path d="M395,161.349596 L395,202 L424,202 L424,161.349596 C424,157.551872 422.478014,153.909178 419.766548,151.219392 C417.058511,148.529945 413.383806,147.012552 409.544563,147 L409.5,147 L408.793853,147.020354 C405.194563,147.192346 401.790662,148.683957 399.243735,151.204466 C396.696809,153.724974 395.191962,157.093906 395.017139,160.654166 C395.003428,160.881453 395,161.115525 395,161.349596 Z" id="Path" fill="#24272D" fill-rule="nonzero"></path>
                <polygon id="Path" fill="#24272D" fill-rule="nonzero" points="434 382 440 382 440 202 434 202"></polygon>
                <polygon id="Path" fill="#54565B" fill-rule="nonzero" points="440 382 446 382 446 202 440 202"></polygon>
                <path d="M394.84257,202 L424,202 L414.170569,214.78888 C412.206061,217.342878 409.679773,219.412314 406.784709,220.836124 C403.889645,222.260278 400.705075,223.000686 397.4757,223 L389.152391,223 C388.190816,222.996909 387.249921,222.726639 386.433099,222.219411 C385.616277,221.712183 384.961442,220.988601 384.534075,220.12937 C384.110155,219.270139 383.930937,218.309942 384.023992,217.356271 C384.117048,216.402256 384.472038,215.493229 385.054497,214.730498 L394.84257,202 Z" id="Path" fill="#8A8B96" fill-rule="nonzero"></path>
                <polygon id="Path" fill="#24272D" fill-rule="nonzero" points="446 202 446 211.832052 440 223 440 202"></polygon>
                <path d="M122,126 C119.749173,129.875606 117.745424,133.88336 116,138 C117.628004,133.832633 119.636053,129.816478 122,126 L122,126 Z" id="Path" fill="#00AD45" fill-rule="nonzero"></path>
                <path d="M224.41946,89.0355631 C224.41946,89.0355631 213.611473,90.1024555 179.664263,93.6215072 C139.455175,97.7874682 122.419086,117.279424 113.998989,141.977138 C111.361164,149.726503 113.911174,158.234547 122.077959,158.288738 L207.943698,159 L216.53267,129.956816 L251.131737,119.298052 C265.584042,114.8442 270.772213,97.0084674 260.974098,85.4589331 L224.939257,43 L204.647262,56.3276884 L224.41946,89.0355631 Z" id="Path" fill="#00AD45" fill-rule="nonzero"></path>
                <g id="Clipped" transform="translate(113.000000, 43.000000)">
                    <mask id="mask-2" fill="white">
                        <use xlink:href="#path-1"></use>
                    </mask>
                    <g id="Path"></g>
                    <g id="Group" mask="url(#mask-2)" fill="#80D6A2" fill-rule="nonzero">
                        <g transform="translate(-6.105727, -0.337209)" id="Path">
                            <path d="M10.4950661,98.819186 C16.2914361,98.819186 20.9901322,94.1481628 20.9901322,88.3859302 C20.9901322,82.6236977 16.2914361,77.9526744 10.4950661,77.9526744 C4.69869604,77.9526744 0,82.6236977 0,88.3859302 C0,94.1481628 4.69869604,98.819186 10.4950661,98.819186 Z"></path>
                            <path d="M55.7724229,98.819186 C61.568793,98.819186 66.267489,94.1481628 66.267489,88.3859302 C66.267489,82.6236977 61.568793,77.9526744 55.7724229,77.9526744 C49.9763921,77.9526744 45.2773568,82.6236977 45.2773568,88.3859302 C45.2773568,94.1481628 49.9763921,98.819186 55.7724229,98.819186 Z"></path>
                            <path d="M101.388987,98.819186 C107.185357,98.819186 111.884053,94.1481628 111.884053,88.3859302 C111.884053,82.6236977 107.185357,77.9526744 101.388987,77.9526744 C95.5926167,77.9526744 90.8939207,82.6236977 90.8939207,88.3859302 C90.8939207,94.1481628 95.5926167,98.819186 101.388987,98.819186 Z"></path>
                            <path d="M33.7680617,73.1036047 C39.5644317,73.1036047 44.2631278,68.4325814 44.2631278,62.6703488 C44.2631278,56.9081163 39.5644317,52.237093 33.7680617,52.237093 C27.9720308,52.237093 23.2729956,56.9081163 23.2729956,62.6703488 C23.2729956,68.4325814 27.9720308,73.1036047 33.7680617,73.1036047 Z"></path>
                            <path d="M79.0488106,73.1036047 C84.8448414,73.1036047 89.5438767,68.4325814 89.5438767,62.6703488 C89.5438767,56.9081163 84.8448414,52.237093 79.0488106,52.237093 C73.2524405,52.237093 68.5537445,56.9081163 68.5537445,62.6703488 C68.5537445,68.4325814 73.2524405,73.1036047 79.0488106,73.1036047 Z"></path>
                            <path d="M124.326167,73.1036047 C130.122537,73.1036047 134.821233,68.4325814 134.821233,62.6703488 C134.821233,56.9081163 130.122537,52.237093 124.326167,52.237093 C118.529797,52.237093 113.831101,56.9081163 113.831101,62.6703488 C113.831101,68.4325814 118.529797,73.1036047 124.326167,73.1036047 Z"></path>
                            <path d="M101.388987,45.567093 C107.185357,45.567093 111.884053,40.8960698 111.884053,35.1338372 C111.884053,29.3716047 107.185357,24.7005814 101.388987,24.7005814 C95.5926167,24.7005814 90.8939207,29.3716047 90.8939207,35.1338372 C90.8939207,40.8960698 95.5926167,45.567093 101.388987,45.567093 Z"></path>
                            <path d="M146.924141,45.567093 C152.720511,45.567093 157.419207,40.8960698 157.419207,35.1338372 C157.419207,29.3716047 152.720511,24.7005814 146.924141,24.7005814 C141.12811,24.7005814 136.429075,29.3716047 136.429075,35.1338372 C136.429075,40.8960698 141.12811,45.567093 146.924141,45.567093 Z"></path>
                            <path d="M124.326167,20.8665116 C130.122537,20.8665116 134.821233,16.1954884 134.821233,10.4332558 C134.821233,4.67102326 130.122537,0 124.326167,0 C118.529797,0 113.831101,4.67102326 113.831101,10.4332558 C113.831101,16.1954884 118.529797,20.8665116 124.326167,20.8665116 Z"></path>
                            <path d="M33.7680617,127.222326 C39.5644317,127.222326 44.2631278,122.551302 44.2631278,116.78907 C44.2631278,111.026837 39.5644317,106.355814 33.7680617,106.355814 C27.9720308,106.355814 23.2729956,111.026837 23.2729956,116.78907 C23.2729956,122.551302 27.9720308,127.222326 33.7680617,127.222326 Z"></path>
                        </g>
                    </g>
                </g>
                <path d="M123,125 C122.664596,125.333333 122.329193,125.666667 122,126 C122.621118,125.348837 122.937888,125.003876 122.937888,125.003876 L123,125 Z" id="Path" fill="#00AD45" fill-rule="nonzero"></path>
                <path d="M184.003889,107 L183.666372,107 C182.226522,106.960191 180.808611,106.634916 179.493306,106.042889 C178.178001,105.450521 176.991627,104.602629 176.001351,103.548207 C175.011074,102.493445 174.236809,101.252229 173.72277,99.8960095 C173.208394,98.5394498 172.964369,97.0940859 173.004196,95.6425976 L174.05725,56.759316 C174.136904,53.8263979 175.36918,51.0459098 177.482715,49.0289331 C179.596249,47.0119564 182.417895,45.9238506 185.326957,46.0041486 C188.236358,46.0844466 190.994888,47.3266837 192.995691,49.4569622 C194.996494,51.587581 196.075538,54.4320352 195.995883,57.3649534 L194.939454,96.248235 C194.861487,99.1219504 193.675789,101.852082 191.634146,103.859192 C189.59284,105.866641 186.855911,106.993195 184.003889,107 Z" id="Path" fill="#FFC62C" fill-rule="nonzero"></path>
                <path d="M190.645745,84.9526242 L192.666591,84.9963573 C195.016822,85.0468185 197.349437,84.5724826 199.497915,83.6066538 C201.646394,82.6408251 203.558221,81.2073885 205.097122,79.4086124 C206.636023,77.6098362 207.764107,75.48979 208.401272,73.199521 C209.038437,70.9089157 209.169061,68.5046042 208.783504,66.1574822 L206.87899,54.5379333 C206.263097,50.7826054 204.359579,47.3670501 201.502808,44.89142 C198.645703,42.4154536 195.018151,41.0381973 191.257317,41.0008559 L191.257317,41.0008559 C189.1567,40.9789894 187.072703,41.3762878 185.123982,42.1698754 C183.175261,42.9631266 181.400373,44.1375286 179.900028,45.6254633 C178.399683,47.1133981 177.203461,48.8855979 176.380166,50.8414769 C175.556538,52.7973558 175.12179,54.8982268 175.100518,57.023992 L175.000805,68.6031719 C174.958594,72.8634489 176.577265,76.9693145 179.50583,80.0296224 C182.434727,83.0902668 186.4372,84.8591026 190.645745,84.9526242 L190.645745,84.9526242 Z" id="Path" fill="#FFC62C" fill-rule="nonzero"></path>
                <path d="M172.226645,72.5496516 C174.20763,75.2524282 177.957606,75.803691 180.602639,73.780667 C183.24801,71.7576431 183.786281,67.9267812 181.805633,65.2236593 L179.773255,62.4504206 C177.792608,59.747644 174.042295,59.1963813 171.397262,61.2190598 C168.752229,63.2420837 168.21362,67.073291 170.194267,69.7760675 L172.226645,72.5496516 Z" id="Path" fill="#FFC62C" fill-rule="nonzero"></path>
                <path d="M172,65 L176,70" id="Path" stroke="#FFFFFF" stroke-width="3" stroke-linecap="square"></path>
                <polyline id="Path" stroke="#FFFFFF" stroke-width="3" stroke-linecap="square" points="200.928355 60 202 69.5510624 199 70"></polyline>
                <path d="M181.917854,69 L184.936821,51.6897744 L185.650581,47.5815255 C186.775522,48.5618803 188.057217,49.353731 189.44478,49.9252698 C194.482083,52.0279433 208.873402,49.7210292 209.935504,39.5860094 C210.816605,31.3192885 202.45639,36.7735162 197.904034,36.6697218 C190.756187,36.5023115 185.459334,32.8594633 176.255584,38.8594486 C165.23499,46.0446989 172.130118,60.6227883 172.130118,60.6227883 C172.130118,60.6227883 177.068383,58.2321692 181.917854,69 Z" id="Path" fill="#24272D" fill-rule="nonzero"></path>
                <polygon id="Path" fill="#24272D" fill-rule="nonzero" points="195 85 189 85.0034435 194.917264 90"></polygon>
                <path d="M196.5,65 C197.328182,65 198,64.3284848 198,63.5 C198,62.6715152 197.328182,62 196.5,62 C195.671515,62 195,62.6715152 195,63.5 C195,64.3284848 195.671515,65 196.5,65 Z" id="Path" fill="#FFFFFF" fill-rule="nonzero"></path>
                <path d="M206.5,65 C207.328485,65 208,64.3284848 208,63.5 C208,62.6715152 207.328485,62 206.5,62 C205.671515,62 205,62.6715152 205,63.5 C205,64.3284848 205.671515,65 206.5,65 Z" id="Path" fill="#FFFFFF" fill-rule="nonzero"></path>
                <path d="M192,72.0071926 C192.157518,72.0071926 197.205251,71.7061053 198,75 L192,72.0071926 Z" id="Path" fill="#FFFFFF" fill-rule="nonzero"></path>
                <path d="M409,147 C412.78811,147.012552 416.413872,148.529945 419.085842,151.219392 C421.761195,153.909178 423.26291,157.551872 423.26291,161.349596 L423.26291,202 L480,202 L480,161.393696 C480,157.575958 478.488138,153.914945 475.795875,151.21566 C473.103611,148.516376 469.450791,147 465.64577,147 L409,147 Z" id="Path" fill="#FFC62C" fill-rule="nonzero"></path>
                <path d="M433,133.071731 L433,179 L438.731629,179 L438.731629,135.706571 L446,135.706571 L446,130.257167 L437.779819,129.046565 C437.187966,128.958059 436.585729,128.996038 436.007721,129.157791 C435.433174,129.319544 434.90016,129.601 434.446752,129.983171 C433.993344,130.36568 433.626464,130.839409 433.377263,131.37248 C433.128062,131.905552 433,132.48542 433,133.071731 Z" id="Path" fill="#24272D" fill-rule="nonzero"></path>
                <path d="M143,216.723344 C143,216.723344 171.528544,236.599473 176.58119,205.611977 C181.049516,178.094862 148.289811,212.785008 148.289811,212.785008" id="Path" fill="#FFC62C" fill-rule="nonzero"></path>
                <polygon id="Path" fill="#E1E2E5" fill-rule="nonzero" points="222 136.616456 106.239298 132 103 211.383544 218.760702 216"></polygon>
                <polyline id="Path" stroke="#889099" stroke-width="4" points="111 136 162.752106 174 217 140.968661"></polyline>
                <path d="M178,171 L212,209" id="Path" stroke="#889099" stroke-width="4"></path>
                <path d="M155.245821,205 C157.382126,205.687696 159.481841,206.496709 161.536575,207.422769 C164.745732,208.892084 167.669556,211.39668 174.584685,211.741773 C181.214481,212.069078 176.95127,217.675956 172.258382,216.722502 C169.106291,216.082123 162.912887,214.12185 161.761484,217 L143,211.930329" id="Path" fill="#FFC62C" fill-rule="nonzero"></path>
                <path d="M110.20172,159.201297 C107.059158,181.955233 141.674448,219 141.674448,219 L162.410648,203.690337 L145.294787,162.498919 L167,120 L123.027681,123.936091 C123.027681,123.936091 112.735285,140.855511 110.20172,159.201297 Z" id="Path" fill="#00AD45" fill-rule="nonzero"></path>
                <g id="Clipped" transform="translate(109.000000, 120.000000)">
                    <mask id="mask-4" fill="white">
                        <use xlink:href="#path-3"></use>
                    </mask>
                    <g id="Path"></g>
                    <g id="Group" mask="url(#mask-4)" fill="#80D6A2" fill-rule="nonzero">
                        <g transform="translate(-2.047059, 0.000000)" id="Path">
                            <path d="M10.6378824,21.1086986 C16.4679059,21.1086986 21.1938824,16.4123014 21.1938824,10.6187671 C21.1938824,4.82523288 16.4679059,0.128835616 10.6378824,0.128835616 C4.8082,0.128835616 0.0818823529,4.82523288 0.0818823529,10.6187671 C0.0818823529,16.4123014 4.8082,21.1086986 10.6378824,21.1086986 Z"></path>
                            <path d="M56.1784588,21.1086986 C62.0081412,21.1086986 66.7344588,16.4123014 66.7344588,10.6187671 C66.7344588,4.82523288 62.0081412,0.128835616 56.1784588,0.128835616 C50.3484353,0.128835616 45.6224588,4.82523288 45.6224588,10.6187671 C45.6224588,16.4123014 50.3484353,21.1086986 56.1784588,21.1086986 Z"></path>
                            <path d="M11.0578706,79.0067466 C16.8875529,79.0067466 21.6138706,74.3103493 21.6138706,68.5168151 C21.6138706,62.7232808 16.8875529,58.0268836 11.0578706,58.0268836 C5.22784706,58.0268836 0.501870588,62.7232808 0.501870588,68.5168151 C0.501870588,74.3103493 5.22784706,79.0067466 11.0578706,79.0067466 Z"></path>
                            <path d="M56.5977647,79.0067466 C62.4277882,79.0067466 67.1537647,74.3103493 67.1537647,68.5168151 C67.1537647,62.7232808 62.4277882,58.0268836 56.5977647,58.0268836 C50.7680824,58.0268836 46.0417647,62.7232808 46.0417647,68.5168151 C46.0417647,74.3103493 50.7680824,79.0067466 56.5977647,79.0067466 Z"></path>
                            <path d="M34.0463412,49.6661301 C39.8760235,49.6661301 44.6023412,44.9697329 44.6023412,39.1761986 C44.6023412,33.3826644 39.8760235,28.6862671 34.0463412,28.6862671 C28.2163176,28.6862671 23.4903412,33.3826644 23.4903412,39.1761986 C23.4903412,44.9697329 28.2163176,49.6661301 34.0463412,49.6661301 Z"></path>
                        </g>
                    </g>
                </g>
            </g>
        </g>
    </g>
</svg>