<svg height="363" viewBox="0 0 592 363" width="592" xmlns="http://www.w3.org/2000/svg" xmlns:xlink="http://www.w3.org/1999/xlink"><mask id="a" fill="#fff"><path d="m111.918313 46.0594186s-10.854626 1.0622093-44.9483262 4.565814c-40.3825991 4.1476744-57.49220266 23.5540697-65.94863438 48.1433721-2.64920705 7.7153483-.08819383 16.1860463 8.1138326 16.2400003l36.97356828.293372 49.2627004.414767 8.6260353-28.9156975 34.74837-10.6119767c14.51467-4.4343024 19.725229-22.1917442 9.884833-33.6905814l-36.19034-42.27255817-20.379559 13.26918607z" fill="#fff" fill-rule="evenodd"/></mask><mask id="b" fill="#fff"><path d="m.25247059 39.2643493c-3.18658824 22.7157534 31.91364701 59.6983562 31.91364701 59.6983562l21.0267059-15.2839726-17.355647-41.1222945 22.0092941-42.42760278-44.588353 3.9294863s-10.43658819 16.89102738-13.00564701 35.20602738z" fill="#fff" fill-rule="evenodd"/></mask><g fill="none" fill-rule="evenodd" transform="translate(0 17)"><path d="m575 123-45.566971 45.294109-37.356585-37.129143-40.076444 39.835034" stroke="#f2f6f9" stroke-linecap="round" stroke-linejoin="round" stroke-width="33"/><path d="m489 228 79 78" stroke="#f2f6f9" stroke-linecap="round" stroke-linejoin="round" stroke-width="33"/><path d="m426 340 41-42" stroke="#f2f6f9" stroke-linecap="round" stroke-linejoin="round" stroke-width="33"/><path d="m0 267 41-42" stroke="#edf1f4" stroke-linecap="round" stroke-linejoin="round" stroke-width="33"/><path d="m102 83 61-61" stroke="#f2f6f9" stroke-linecap="round" stroke-linejoin="round" stroke-width="33"/><path d="m384 247h-49.481523v-40.906087h-43.518477v-45.093913" stroke="#f2f6f9" stroke-linecap="round" stroke-linejoin="round" stroke-width="33"/><path d="m73 175 45.293119 45.568898-37.1287085 37.354398 39.8355895 40.076704" stroke="#f2f6f9" stroke-linecap="round" stroke-linejoin="round" stroke-width="33"/><path d="m222 174 79-78" stroke="#f2f6f9" stroke-linecap="round" stroke-linejoin="round" stroke-width="33"/><path d="m255 346 63-63" stroke="#edf1f4" stroke-linecap="round" stroke-linejoin="round" stroke-width="33"/><path d="m259 266-41-42" stroke="#f2f6f9" stroke-linecap="round" stroke-linejoin="round" stroke-width="33"/><path d="m528 60-38-38" stroke="#edf1f4" stroke-linecap="round" stroke-linejoin="round" stroke-width="33"/><path d="m56 63-38-38" stroke="#f2f6f9" stroke-linecap="round" stroke-linejoin="round" stroke-width="33"/><path d="m383 85-86-85" stroke="#f2f6f9" stroke-linecap="round" stroke-linejoin="round" stroke-width="33"/><path d="m43.9880602 130.08648c.321885-8.001638-5.9038986-14.750484-13.9055647-15.074412-8.0014656-.323593-14.7488164 5.900126-15.0705677 13.901764-.3217179 8.001302 5.9039989 14.750148 13.9056984 15.074076 8.0013318.323929 14.7488833-5.900126 15.070434-13.901428z" fill="#f2f6f9" fill-rule="nonzero"/><path d="m446.5 76c8.00876 0 14.5-6.4918016 14.5-14.5s-6.49124-14.5-14.5-14.5-14.5 6.4918016-14.5 14.5 6.49124 14.5 14.5 14.5z" fill="#f2f6f9" fill-rule="nonzero"/><path d="m46.5 348c8.0080913 0 14.5-6.492137 14.5-14.5 0-8.008198-6.4919087-14.5-14.5-14.5s-14.5 6.491802-14.5 14.5c0 8.007863 6.4919087 14.5 14.5 14.5z" fill="#f2f6f9" fill-rule="nonzero"/><path d="m376.5 329c8.00876 0 14.5-6.491802 14.5-14.5s-6.49124-14.5-14.5-14.5-14.5 6.491802-14.5 14.5 6.49124 14.5 14.5 14.5z" fill="#f2f6f9" fill-rule="nonzero"/><path d="m185.5 114c8.008091 0 14.5-6.491802 14.5-14.5 0-8.0081984-6.491909-14.5-14.5-14.5s-14.5 6.4918016-14.5 14.5c0 8.008198 6.491909 14.5 14.5 14.5z" fill="#f2f6f9" fill-rule="nonzero"/><path d="m214.329184 57-5.313519-4.788692s-13.416636 3.8778549-14.305628-2.4096399c0 0-2.135626.5505806-2.663572-.6355468s3.61728-5.9068465 3.61728-5.9068465.483667-5.0979688 4.601644-7.1779401c4.117977-2.0799712 14.360126-5.0164013 15.511388-3.7928888 1.151263 1.2235125 5.194306 15.2395281 5.194306 15.2395281s.848119 6.0427923-6.641899 9.472026z" fill="#ffc62c" fill-rule="nonzero"/><path d="m169.208 367 15.007021-123.780326 7.097915 32.521173-5.465395 91.259153h41.235508l5.803391-100.273616c.398497-6.87484-.253159-13.770345-1.933337-20.447687l-21.81764-86.723127-69.326352-.55557-.263637 102.357003-10.545474 105.642997z" fill="#24272d" fill-rule="nonzero"/><path d="m183 245 5-49" stroke="#fff" stroke-linecap="square" stroke-width="3"/><path d="m193.544444 267-4.544444 6.050684 5 4.949316" stroke="#fff" stroke-linecap="square" stroke-width="3"/><path d="m205.043578 129-118.043578 11.427168 7.9564222 81.572832 118.0435778-11.426831z" fill="#cfd0d1" fill-rule="nonzero"/><path d="m150 171-40 32" stroke="#889099" stroke-width="4"/><g fill-rule="nonzero"><path d="m395 161.349596v40.650404h29v-40.650404c0-3.797724-1.521986-7.440418-4.233452-10.130204-2.708037-2.689447-6.382742-4.20684-10.221985-4.219392h-.044563l-.706147.020354c-3.59929.171992-7.003191 1.663603-9.550118 4.184112-2.546926 2.520508-4.051773 5.88944-4.226596 9.4497-.013711.227287-.017139.461359-.017139.69543z" fill="#24272d"/><path d="m434 382h6v-180h-6z" fill="#24272d"/><path d="m440 382h6v-180h-6z" fill="#54565b"/><path d="m394.84257 202h29.15743l-9.829431 12.78888c-1.964508 2.553998-4.490796 4.623434-7.38586 6.047244-2.895064 1.424154-6.079634 2.164562-9.309009 2.163876h-8.323309c-.961575-.003091-1.90247-.273361-2.719292-.780589s-1.471657-1.23081-1.899024-2.090041c-.42392-.859231-.603138-1.819428-.510083-2.773099.093056-.954015.448046-1.863042 1.030505-2.625773z" fill="#8a8b96"/><path d="m446 202v9.832052l-6 11.167948v-21z" fill="#24272d"/><path d="m122 126c-2.250827 3.875606-4.254576 7.88336-6 12 1.628004-4.167367 3.636053-8.183522 6-12z" fill="#00ad45"/><path d="m224.41946 89.0355631s-10.807987 1.0668924-44.755197 4.5859441c-40.209088 4.165961-57.245177 23.6579168-65.665274 48.3556308-2.637825 7.749365-.087815 16.257409 8.07897 16.3116l85.865739.711262 8.588972-29.043184 34.599067-10.658764c14.452305-4.453852 19.640476-22.2895846 9.842361-33.8391189l-36.034841-42.4589331-20.291995 13.3276884z" fill="#00ad45"/><g fill="#80d6a2" mask="url(#a)" transform="translate(113 43)"><g transform="translate(-6.105727 -.337209)"><path d="m10.4950661 98.819186c5.79637 0 10.4950661-4.6710232 10.4950661-10.4332558 0-5.7622325-4.6986961-10.4332558-10.4950661-10.4332558-5.79637006 0-10.4950661 4.6710233-10.4950661 10.4332558 0 5.7622326 4.69869604 10.4332558 10.4950661 10.4332558z"/><path d="m55.7724229 98.819186c5.7963701 0 10.4950661-4.6710232 10.4950661-10.4332558 0-5.7622325-4.698696-10.4332558-10.4950661-10.4332558-5.7960308 0-10.4950661 4.6710233-10.4950661 10.4332558 0 5.7622326 4.6990353 10.4332558 10.4950661 10.4332558z"/><path d="m101.388987 98.819186c5.79637 0 10.495066-4.6710232 10.495066-10.4332558 0-5.7622325-4.698696-10.4332558-10.495066-10.4332558-5.7963703 0-10.4950663 4.6710233-10.4950663 10.4332558 0 5.7622326 4.698696 10.4332558 10.4950663 10.4332558z"/><path d="m33.7680617 73.1036047c5.79637 0 10.4950661-4.6710233 10.4950661-10.4332559 0-5.7622325-4.6986961-10.4332558-10.4950661-10.4332558-5.7960309 0-10.4950661 4.6710233-10.4950661 10.4332558 0 5.7622326 4.6990352 10.4332559 10.4950661 10.4332559z"/><path d="m79.0488106 73.1036047c5.7960308 0 10.4950661-4.6710233 10.4950661-10.4332559 0-5.7622325-4.6990353-10.4332558-10.4950661-10.4332558-5.7963701 0-10.4950661 4.6710233-10.4950661 10.4332558 0 5.7622326 4.698696 10.4332559 10.4950661 10.4332559z"/><path d="m124.326167 73.1036047c5.79637 0 10.495066-4.6710233 10.495066-10.4332559 0-5.7622325-4.698696-10.4332558-10.495066-10.4332558s-10.495066 4.6710233-10.495066 10.4332558c0 5.7622326 4.698696 10.4332559 10.495066 10.4332559z"/><path d="m101.388987 45.567093c5.79637 0 10.495066-4.6710232 10.495066-10.4332558 0-5.7622325-4.698696-10.4332558-10.495066-10.4332558-5.7963703 0-10.4950663 4.6710233-10.4950663 10.4332558 0 5.7622326 4.698696 10.4332558 10.4950663 10.4332558z"/><path d="m146.924141 45.567093c5.79637 0 10.495066-4.6710232 10.495066-10.4332558 0-5.7622325-4.698696-10.4332558-10.495066-10.4332558-5.796031 0-10.495066 4.6710233-10.495066 10.4332558 0 5.7622326 4.699035 10.4332558 10.495066 10.4332558z"/><path d="m124.326167 20.8665116c5.79637 0 10.495066-4.6710232 10.495066-10.4332558 0-5.76223254-4.698696-10.4332558-10.495066-10.4332558s-10.495066 4.67102326-10.495066 10.4332558c0 5.7622326 4.698696 10.4332558 10.495066 10.4332558z"/><path d="m33.7680617 127.222326c5.79637 0 10.4950661-4.671024 10.4950661-10.433256 0-5.762233-4.6986961-10.433256-10.4950661-10.433256-5.7960309 0-10.4950661 4.671023-10.4950661 10.433256 0 5.762232 4.6990352 10.433256 10.4950661 10.433256z"/></g></g><path d="m123 125c-.335404.333333-.670807.666667-1 1 .621118-.651163.937888-.996124.937888-.996124z" fill="#00ad45"/><path d="m184.003889 107h-.337517c-1.43985-.039809-2.857761-.365084-4.173066-.957111-1.315305-.592368-2.501679-1.44026-3.491955-2.494682-.990277-1.054762-1.764542-2.295978-2.278581-3.6521975-.514376-1.3565597-.758401-2.8019236-.718574-4.2534119l1.053054-38.8832816c.079654-2.9329181 1.31193-5.7134062 3.425465-7.7303829 2.113534-2.0169767 4.93518-3.1050825 7.844242-3.0247845 2.909401.080298 5.667931 1.3225351 7.668734 3.4528136 2.000803 2.1306188 3.079847 4.975073 3.000192 7.9079912l-1.056429 38.8832816c-.077967 2.8737154-1.263665 5.603847-3.305308 7.610957-2.041306 2.007449-4.778235 3.134003-7.630257 3.140808z" fill="#ffc62c"/><path d="m192.666591 84.9963573c2.350231.0504612 4.682846-.4238747 6.831324-1.3897035 2.148479-.9658287 4.060306-2.3992653 5.599207-4.1980414 1.538901-1.7987762 2.666985-3.9188224 3.30415-6.2090914.637165-2.2906053.767789-4.6949168.382232-7.0420388l-1.904514-11.6195489c-.615893-3.7553279-2.519411-7.1708832-5.376182-9.6465133-2.857105-2.4759664-6.484657-3.8532227-10.245491-3.8905641-2.100617-.0218665-4.184614.3754319-6.133335 1.1690195-1.948721.7932512-3.723609 1.9676532-5.223954 3.4555879-1.500345 1.4879348-2.696567 3.2601346-3.519862 5.2160136-.823628 1.9558789-1.258376 4.0567499-1.279648 6.1825151l-.099713 11.5791799c-.042211 4.260277 1.57646 8.3661426 4.505025 11.4264505 2.928897 3.0606444 6.93137 4.8294802 11.139915 4.9230018z" fill="#ffc62c"/><path d="m172.226645 72.5496516c1.980985 2.7027766 5.730961 3.2540394 8.375994 1.2310154 2.645371-2.0230239 3.183642-5.8538858 1.202994-8.5570077l-2.032378-2.7732387c-1.980647-2.7027766-5.73096-3.2540393-8.375993-1.2313608-2.645033 2.0230239-3.183642 5.8542312-1.202995 8.5570077z" fill="#ffc62c"/><path d="m181.917854 69 3.018967-17.3102256.71376-4.1082489c1.124941.9803548 2.406636 1.7722055 3.794199 2.3437443 5.037303 2.1026735 19.428622-.2042406 20.490724-10.3392604.881101-8.2667209-7.479114-2.8124932-12.03147-2.9162876-7.147847-.1674103-12.4447-3.8102585-21.64845 2.1897268-11.020594 7.1852503-4.125466 21.7633397-4.125466 21.7633397s4.938265-2.3906191 9.787736 8.3772117z" fill="#24272d"/><path d="m195 85-6 .0034435 5.917264 4.9965565z" fill="#24272d"/><path d="m409 147c3.78811.012552 7.413872 1.529945 10.085842 4.219392 2.675353 2.689786 4.177068 6.33248 4.177068 10.130204v40.650404h56.73709v-40.606304c0-3.817738-1.511862-7.478751-4.204125-10.178036-2.692264-2.699284-6.345084-4.21566-10.150105-4.21566z" fill="#ffc62c"/><path d="m433 133.071731v45.928269h5.731629v-43.293429h7.268371v-5.449404l-8.220181-1.210602c-.591853-.088506-1.19409-.050527-1.772098.111226-.574547.161753-1.107561.443209-1.560969.82538-.453408.382509-.820288.856238-1.069489 1.389309-.249201.533072-.377263 1.11294-.377263 1.699251z" fill="#24272d"/><path d="m143 216.723344s28.528544 19.876129 33.58119-11.111367c4.468326-27.517115-28.291379 7.173031-28.291379 7.173031" fill="#ffc62c"/><path d="m222 136.616456-115.760702-4.616456-3.239298 79.383544 115.760702 4.616456z" fill="#e1e2e5"/></g><path d="m111 136 51.752106 38 54.247894-33.031339" stroke="#889099" stroke-width="4"/><path d="m178 171 34 38" stroke="#889099" stroke-width="4"/><path d="m155.245821 205c2.136305.687696 4.23602 1.496709 6.290754 2.422769 3.209157 1.469315 6.132981 3.973911 13.04811 4.319004 6.629796.327305 2.366585 5.934183-2.326303 4.980729-3.152091-.640379-9.345495-2.600652-10.496898.277498l-18.761484-5.069671" fill="#ffc62c" fill-rule="nonzero"/><path d="m110.20172 159.201297c-3.142562 22.753936 31.472728 59.798703 31.472728 59.798703l20.7362-15.309663-17.115861-41.191418 21.705213-42.498919-43.972319 3.936091s-10.292396 16.91942-12.825961 35.265206z" fill="#00ad45" fill-rule="nonzero"/><g fill="#80d6a2" fill-rule="nonzero" mask="url(#b)" transform="translate(109 120)"><g transform="translate(-2.047059)"><path d="m10.6378824 21.1086986c5.8300235 0 10.556-4.6963972 10.556-10.4899315 0-5.79353422-4.7259765-10.48993148-10.556-10.48993148-5.8296824 0-10.55600005 4.69639726-10.55600005 10.48993148 0 5.7935343 4.72631765 10.4899315 10.55600005 10.4899315z"/><path d="m56.1784588 21.1086986c5.8296824 0 10.556-4.6963972 10.556-10.4899315 0-5.79353422-4.7263176-10.48993148-10.556-10.48993148-5.8300235 0-10.556 4.69639726-10.556 10.48993148 0 5.7935343 4.7259765 10.4899315 10.556 10.4899315z"/><path d="m11.0578706 79.0067466c5.8296823 0 10.556-4.6963973 10.556-10.4899315 0-5.7935343-4.7263177-10.4899315-10.556-10.4899315-5.83002354 0-10.55600001 4.6963972-10.55600001 10.4899315 0 5.7935342 4.72597647 10.4899315 10.55600001 10.4899315z"/><path d="m56.5977647 79.0067466c5.8300235 0 10.556-4.6963973 10.556-10.4899315 0-5.7935343-4.7259765-10.4899315-10.556-10.4899315-5.8296823 0-10.556 4.6963972-10.556 10.4899315 0 5.7935342 4.7263177 10.4899315 10.556 10.4899315z"/><path d="m34.0463412 49.6661301c5.8296823 0 10.556-4.6963972 10.556-10.4899315 0-5.7935342-4.7263177-10.4899315-10.556-10.4899315-5.8300236 0-10.556 4.6963973-10.556 10.4899315 0 5.7935343 4.7259764 10.4899315 10.556 10.4899315z"/></g></g></g></svg>