<?xml version="1.0" encoding="UTF-8"?>
<svg width="666px" height="405px" viewBox="0 0 666 405" version="1.1" xmlns="http://www.w3.org/2000/svg" xmlns:xlink="http://www.w3.org/1999/xlink">
    <!-- Generator: Sketch 53.2 (72643) - https://sketchapp.com -->
    <title>20</title>
    <desc>Created with Sketch.</desc>
    <g id="Page-1" stroke="none" stroke-width="1" fill="none" fill-rule="evenodd">
        <g id="Post-Copy" transform="translate(-86.000000, -269.000000)">
            <g id="20" transform="translate(86.000000, 269.000000)">
                <path d="M389,85 L544,85 C544,85 536.532998,62.9265217 517.395819,62.9265217 C503.066817,62.9265217 496.614786,72.2513043 482.858944,72.2513043 C469.103102,72.2513043 456.191079,49 429.32818,49 C402.134919,49 389,85 389,85 Z" id="Path" fill="#F2F6F9" fill-rule="nonzero"></path>
                <path d="M638,41 L485,41 C485,41 495.443618,14.63797 516.885983,15.7487975 C538.328348,16.859625 535.844244,32.845882 548.400548,32.845882 C560.956852,32.845882 569.878857,0 594.404385,0 C627.001253,0 638,41 638,41 Z" id="Path" fill="#F2F6F9" fill-rule="nonzero"></path>
                <path d="M6,58 L170,58 C163.869235,44.8737079 154.549193,33.2871687 141.848039,32.8991995 C126.688983,32.438486 119.866809,50.7215357 105.307241,50.7215357 C90.7476738,50.7215357 82.4907244,6 54.0470125,6 C25.2795372,6 11.974898,35.4573716 6,58 Z" id="Path" fill="#F2F6F9" fill-rule="nonzero"></path>
                <polygon id="Path" fill="#F9D0B5" fill-rule="nonzero" points="91 138.561453 75.7603201 138 75 159.438547 90.2396799 160"></polygon>
                <path d="M322,405 C499.833983,405 644,403.879941 644,402.5 C644,401.120059 499.833983,400 322,400 C144.164422,400 0,401.120059 0,402.5 C0,403.879941 144.164422,405 322,405 Z" id="Path" fill="#E4EFF7" fill-rule="nonzero"></path>
                <polygon id="Path" fill="#162C56" fill-rule="nonzero" points="57 401 20.2533216 401 5 386.124706 14.9591445 370 31.7634476 385.5"></polygon>
                <polygon id="Path" fill="#7F214A" fill-rule="nonzero" points="35.6037285 389 74.8459915 319.272027 70.8527499 387.677366 106.466754 387.677366 110 301.686192 101.153007 207.479505 41.2543834 207 44.3514258 297.338683 8 367.857839"></polygon>
                <path d="M67,334 L74.780083,318.203172 C78.057832,311.571663 79.9693983,304.331582 80.3973029,296.924844 L82,269" id="Path" stroke="#FFFFFF" stroke-width="3" stroke-linecap="square"></path>
                <polygon id="Path" fill="#162C56" fill-rule="nonzero" points="73.3086982 388 68 402 128 402 102.366014 388"></polygon>
                <path d="M87.2705978,142.957322 L89.1134559,142.996769 C91.2553671,143.040951 93.3812355,142.631484 95.3392722,141.797954 C97.2973089,140.964029 99.039797,139.726949 100.442508,138.173893 C101.845219,136.620837 102.873189,134.790464 103.454018,132.812951 C104.034847,130.835437 104.15414,128.759305 103.802845,126.732482 L102.066938,116.693042 C101.507088,113.450441 99.7732381,110.500542 97.1702011,108.362082 C94.567164,106.223622 91.2615373,105.033484 87.8341504,105.000743 L87.8341504,105.000743 C85.919717,104.981808 84.0200923,105.325003 82.2438733,106.01021 C80.4676543,106.695811 78.8498059,107.710011 77.4820597,108.994823 C76.1147248,110.280029 75.0246413,111.8106 74.2739235,113.49975 C73.5232056,115.188901 73.1270734,117.003101 73.1077398,118.838997 L73.0007883,128.838989 C72.9608871,132.520249 74.4372303,136.067781 77.1093745,138.711171 C79.7811074,141.354956 83.4326813,142.880793 87.2705978,142.957322 L87.2705978,142.957322 Z" id="Path" fill="#F9D0B5" fill-rule="nonzero"></path>
                <path d="M77.9427453,133.02467 L77.9458923,133.022419 C80.2121601,131.404978 80.673596,128.341518 78.9773372,126.180929 L77.2326926,123.958823 C75.5360405,121.797859 72.3236915,121.357489 70.0574237,122.975305 L70.0542767,122.977556 C67.7880089,124.595372 67.3261796,127.658457 69.0228317,129.819421 L70.7674764,132.041527 C72.4641285,134.202116 75.6764775,134.642486 77.9427453,133.02467 Z" id="Path" fill="#3361C2" fill-rule="nonzero"></path>
                <path d="M72,127 L74,129" id="Path" stroke="#FFFFFF" stroke-width="3" stroke-linecap="square"></path>
                <polyline id="Path" stroke="#24252D" stroke-width="3" stroke-linecap="square" points="95.2849315 122 96 130.597953 94 131"></polyline>
                <path d="M87.2866105,134.143886 C87.1029044,134.564656 87.0057557,135.016582 87.0002773,135.474238 C86.9944338,135.931535 87.0809912,136.385967 87.2544711,136.810677 C87.427951,137.235387 87.6850665,137.622497 88.0112088,137.949803 C88.337351,138.277467 88.7259461,138.538524 89.1547154,138.718649 C89.58385,138.898775 90.0447587,138.994389 90.5115111,138.99976 C90.9782634,139.005132 91.4413635,138.920261 91.8745154,138.750162 C92.3076674,138.580064 92.7028364,138.327959 93.0366483,138.008531 C93.3704602,137.688746 93.6367063,137.307724 93.8204124,136.886953 C94.5946807,135.117925 92.7247497,134.50915 90.8986452,133.753553 C89.0725407,132.997956 88.0608788,132.374857 87.2866105,134.143886 Z" id="Path" fill="#24272D" fill-rule="nonzero"></path>
                <path d="M78.5047077,136 L81.1626611,120.521181 L81.7964807,116.862847 C82.786875,117.742473 83.9171185,118.452596 85.1414127,118.964357 C89.5822394,120.846366 102.045996,120.078116 102.99877,111.017642 C103.088731,110.147771 98.214454,110.71278 98.0917792,110.155901 C97.2289667,105.965075 96.1494287,107.196715 92.608217,107.115418 C86.3027339,106.96502 81.6329143,103.709103 73.5159338,109.07466 C63.8000921,115.497069 69.8765823,128.528868 69.8765823,128.528868 C69.8765823,128.528868 74.2274475,126.370451 78.5047077,136 Z" id="Path" fill="#24272D" fill-rule="nonzero"></path>
                <polygon id="Path" fill="#24272D" fill-rule="nonzero" points="91 143 86 143 90.9325843 147"></polygon>
                <path d="M89,124 C89.5523288,124 90,123.552329 90,123 C90,122.447671 89.5523288,122 89,122 C88.4476712,122 88,122.447671 88,123 C88,123.552329 88.4476712,124 89,124 Z" id="Path" fill="#24272D" fill-rule="nonzero"></path>
                <path d="M100,124 C100.552329,124 101,123.552329 101,123 C101,122.447671 100.552329,122 100,122 C99.4476712,122 99,122.447671 99,123 C99,123.552329 99.4476712,124 100,124 Z" id="Path" fill="#24272D" fill-rule="nonzero"></path>
                <path d="M66.8545274,121 C65.3835635,116.528647 65.8241324,111.679914 68.0797971,107.520293 C70.3350616,103.360671 74.2205511,100.23107 78.8811377,98.8198311 C83.5417242,97.4085926 88.5956616,97.8312731 92.9313236,99.9953512 C97.2669857,102.159045 100.529036,105.886773 102,110.358126" id="Path" fill="#7F214A" fill-rule="nonzero"></path>
                <path d="M68,121 L115,107" id="Path" stroke="#7F214A" stroke-width="5"></path>
                <polyline id="Path" stroke="#FFFFFF" stroke-width="3" stroke-linecap="square" points="162.637827 300 159 304.95228 163 309"></polyline>
                <polygon id="Path" fill="#EA6F57" fill-rule="nonzero" points="98.273436 266 62 266 64.1986263 193 104 193 98.2422499 265.895977"></polygon>
                <polygon id="Path" fill="#EA6F57" fill-rule="nonzero" points="64 152 47.9982702 152 41 114 59.3132676 114"></polygon>
                <polygon id="Path" fill="#FFBA5F" fill-rule="nonzero" points="83 152 57.8410959 152 53 114 78.4876712 114"></polygon>
                <polygon id="Path" fill="#EA6F57" fill-rule="nonzero" points="93 152 89.3017819 193 62.4936181 193 62 152"></polygon>
                <polygon id="Path" fill="#FFBA5F" fill-rule="nonzero" points="74 152 80.0475524 193 120 193 117.305944 152"></polygon>
                <path d="M58,119.5 L70,119.5" id="Path" stroke="#FFFFFF" stroke-width="4" stroke-linecap="square"></path>
                <path d="M59,124.5 L71,124.5" id="Path" stroke="#FFFFFF" stroke-width="4" stroke-linecap="square"></path>
                <path d="M61,128.5 L73,128.5" id="Path" stroke="#FFFFFF" stroke-width="4" stroke-linecap="square"></path>
                <path d="M80,156.5 L96,156.5" id="Path" stroke="#FFFFFF" stroke-width="4" stroke-linecap="square"></path>
                <path d="M81,160.5 L97,160.5" id="Path" stroke="#FFFFFF" stroke-width="4" stroke-linecap="square"></path>
                <polygon id="Path" fill="#FFBA5F" fill-rule="nonzero" points="125.944876 266 83 266 88.3091412 193.108024 88.2811563 193 135 193"></polygon>
                <polygon id="Path" fill="#ED9A98" fill-rule="nonzero" points="85 219 83.7895461 235 65 235 65 219"></polygon>
                <polygon id="Path" fill="#FFD39F" fill-rule="nonzero" points="132 219 129.882701 235 85 235 86.2421486 219"></polygon>
                <polygon id="Path" fill="#FFFFFF" fill-rule="nonzero" opacity="0.33" points="132 219 132 235 130 235 131.576577 219"></polygon>
                <path d="M99,265.280547 C98.8825758,268.874929 89.7842215,273.583569 81.362069,272.940574 C72.9399164,272.297579 68,263.938645 68,263.938645 L80.1837774,256.003049 C80.1837774,256.003049 82.3743469,255.863267 85.2532654,257.476745 C88.026907,259.030317 96.5421891,258.674872 96.5421891,258.674872 C96.5421891,258.674872 96.5664838,260.583888 93.1652299,261.590315 C90.7964995,262.293217 86.2817398,262.896274 86.3870167,263.938645 C86.613767,265.987442 99,265.280547 99,265.280547 Z" id="Path" fill="#F9D0B5" fill-rule="nonzero"></path>
                <path d="M82,255 C83.8657956,255.383127 85.6677322,256.013754 87.354643,256.87349 C89.9328045,258.241253 96.5884274,257.413699 96.5884274,257.413699 C96.5884274,257.413699 98.1154923,260.245006 86.8945404,262.011221 C85.4785348,262.237266 87.0769949,264.819541 99,263.735292" id="Path" stroke="#FFFFFF" stroke-width="3" stroke-linecap="square"></path>
                <path d="M98.5,206 C100.98505,206 103,203.98546 103,201.5 C103,199.01454 100.98505,197 98.5,197 C96.0145397,197 94,199.01454 94,201.5 C94,203.98546 96.0145397,206 98.5,206 Z" id="Path" stroke="#FFFFFF" stroke-width="4" stroke-linecap="square"></path>
                <path d="M60.4965069,160 C60.4965069,160 10.7766174,192.795894 62.5679974,269 L86,252.266422 C86,252.266422 60.3143108,213.944611 63.2650955,185.743658" id="Path" fill="#7F214A" fill-rule="nonzero"></path>
                <polygon id="Path" fill="#EA6F57" fill-rule="nonzero" points="141.134122 401 96 401 106.230348 328 147 328 141.102177 400.895971"></polygon>
                <polygon id="Path" fill="#FFBA5F" fill-rule="nonzero" points="161.847248 401 120 401 131.683282 328.104029 131.659487 328 178 328"></polygon>
                <path d="M109,200.5 L125,200.5" id="Path" stroke="#FFFFFF" stroke-width="4" stroke-linecap="square"></path>
                <path d="M107,203.5 L123,203.5" id="Path" stroke="#FFFFFF" stroke-width="4" stroke-linecap="square"></path>
                <path d="M77,191.5 L120,191.5" id="Path" stroke="#EF6E45" stroke-width="3"></path>
                <path d="M69,264.996032 L63.5067105,269 C63.5067105,269 49.9758709,252.531746 42,225" id="Path" stroke="#FFFFFF" stroke-width="3" stroke-linecap="square"></path>
                <path d="M142.5,345 C144.98505,345 147,342.98505 147,340.5 C147,338.01454 144.98505,336 142.5,336 C140.01454,336 138,338.01454 138,340.5 C138,342.98505 140.01454,345 142.5,345 Z" id="Path" stroke="#FFFFFF" stroke-width="4" stroke-linecap="square"></path>
                <polygon id="Path" fill="#FFFFFF" fill-rule="nonzero" points="143 333 134 333 134 342 143 342"></polygon>
                <path d="M153,335.5 L169,335.5" id="Path" stroke="#FFFFFF" stroke-width="4" stroke-linecap="square"></path>
                <path d="M153,339.5 L169,339.5" id="Path" stroke="#FFFFFF" stroke-width="4" stroke-linecap="square"></path>
                <path d="M152,344.5 L161,344.5" id="Path" stroke="#FFFFFF" stroke-width="4" stroke-linecap="square"></path>
                <path d="M110,266 C110,266 121.316282,270.5 124,266 L110,266 Z" id="Path" fill="#F9D0B5" fill-rule="nonzero"></path>
                <polygon id="Path" fill="#7F214A" fill-rule="nonzero" points="126 262.743151 130 263 128.674956 238"></polygon>
                <path d="M362.5,401 C375.478954,401 386,390.478554 386,377.5 C386,364.521446 375.478954,354 362.5,354 C349.521446,354 339,364.521446 339,377.5 C339,390.478554 349.521446,401 362.5,401 Z" id="Path" fill="#7F214A" fill-rule="nonzero"></path>
                <path d="M588.5,401 C601.476956,401 612,390.478554 612,377.5 C612,364.521446 601.476956,354 588.5,354 C575.523044,354 565,364.521446 565,377.5 C565,390.478554 575.523044,401 588.5,401 Z" id="Path" fill="#7F214A" fill-rule="nonzero"></path>
                <polygon id="Path" fill="#EA6F57" fill-rule="nonzero" points="622 375 228.743034 375 225.132978 350.579851 216.024163 288.917982 185 79 514.63472 79 616.25021 359.148742"></polygon>
                <polygon id="Path" fill="#7F214A" fill-rule="nonzero" points="397 286 260.134579 286 242 163 378.865421 163"></polygon>
                <polygon id="Path" fill="#FFC774" fill-rule="nonzero" points="621 375 560.489683 375 453 79 513.514306 79"></polygon>
                <polygon id="Path" fill="#FFFFFF" fill-rule="nonzero" points="596 310 550.117886 310 485 130 530.882114 130"></polygon>
                <polygon id="Path" fill="#FFFFFF" fill-rule="nonzero" points="513 310 467.824708 310 441 130 447.16227 130"></polygon>
                <polygon id="Path" fill="#EA6F57" fill-rule="nonzero" points="595 327 512 327 512 375 595 375"></polygon>
                <polygon id="Path" fill="#FFC774" fill-rule="nonzero" points="666 375 578.238819 375 571 327 658.757184 327"></polygon>
                <path d="M243,376 C243,360.534953 255.983035,348 272,348 C288.016965,348 301,360.534953 301,376" id="Path" fill="#FFFFFF" fill-rule="nonzero"></path>
                <path d="M470,376 C470,360.534953 482.983035,348 499,348 C515.016965,348 528,360.534953 528,376" id="Path" fill="#FFFFFF" fill-rule="nonzero"></path>
                <path d="M498.5,401 C511.480952,401 522,390.478554 522,377.5 C522,364.521446 511.480952,354 498.5,354 C485.523044,354 475,364.521446 475,377.5 C475,390.478554 485.523044,401 498.5,401 Z" id="Path" fill="#7F214A" fill-rule="nonzero"></path>
                <path d="M455,357 C457.206661,348.136 462.238162,340.2764 469.300261,334.6624 C476.36236,329.0484 485.052067,326.0004 494,326" id="Path" stroke="#FFFFFF" stroke-width="3"></path>
                <path d="M646,361 C650.416465,361 654,356.522682 654,351 C654,345.477318 650.416465,341 646,341 C641.583535,341 638,345.477318 638,351 C638,356.522682 641.583535,361 646,361 Z" id="Path" fill="#FFFFFF" fill-rule="nonzero"></path>
                <path d="M594,361 C598.420339,361 602,356.522682 602,351 C602,345.477318 598.420339,341 594,341 C589.583535,341 586,345.477318 586,351 C586,356.522682 589.583535,361 594,361 Z" id="Path" fill="#FFFFFF" fill-rule="nonzero"></path>
                <polygon id="Path" fill="#FFFFFF" fill-rule="nonzero" points="239 351 227.097214 351 218 289 229.902786 289"></polygon>
                <path d="M231,325.5 L422,325.5" id="Path" stroke="#FFFFFF" stroke-width="3"></path>
                <path d="M202,114.5 L526,114.5" id="Path" stroke="#FFFFFF" stroke-width="3"></path>
                <path d="M455,357 L419,116" id="Path" stroke="#FFFFFF" stroke-width="3"></path>
                <path d="M482.722338,221 L496,221 L496,268 L482.722338,268 C480.939457,268 479.231733,267.314659 477.970772,266.0943 C476.709812,264.874344 476,263.219586 476,261.494111 L476,227.505889 C476,225.780414 476.709812,224.125656 477.970772,222.9057 C479.231733,221.685341 480.939457,221 482.722338,221 L482.722338,221 Z" id="Path" fill="#7F214A" fill-rule="nonzero"></path>
                <polygon id="Path" fill="#7F214A" fill-rule="nonzero" points="503 247 494 247 494 267 503 267"></polygon>
                <path d="M548,276 L575,311" id="Path" stroke="#3361C2" stroke-width="3"></path>
                <path d="M564,276 L591,311" id="Path" stroke="#3361C2" stroke-width="3"></path>
                <polyline id="Path" stroke="#FFFFFF" stroke-width="3" points="242 163 318.220242 232 379 163"></polyline>
                <path d="M301,231 L268,273" id="Path" stroke="#FFFFFF" stroke-width="3"></path>
                <path d="M334,229 L381,272" id="Path" stroke="#FFFFFF" stroke-width="3"></path>
                <path d="M272.5,401 C285.478554,401 296,390.478554 296,377.5 C296,364.521446 285.478554,354 272.5,354 C259.521446,354 249,364.521446 249,377.5 C249,390.478554 259.521446,401 272.5,401 Z" id="Path" fill="#7F214A" fill-rule="nonzero"></path>
                <path d="M484.5,268 L484.5,221" id="Path" stroke="#FFFFFF" stroke-width="3"></path>
                <polygon id="Path" fill="#EA6F57" fill-rule="nonzero" points="630 346 613 346 613 355 630 355"></polygon>
            </g>
        </g>
    </g>
</svg>