<svg height="590" viewBox="0 0 963 590" width="963" xmlns="http://www.w3.org/2000/svg"><g fill="none" fill-rule="evenodd"><g opacity=".3" transform="translate(7)"><path d="m213.683538 328.025675h-49.112535v-102.088443l49.112535-40.799706z" fill="#4dc67d" fill-opacity=".995247"/><path d="m460.618493 480.151343h54.655582v-177.919942h-54.655582z" fill="#80d6a2"/><path d="m429.315788 366.352802h54.655582v-177.919942h-54.655582z" fill="#80d6a2"/><path d="m183.639589 482.779426h132.615137v-184.018332h-132.615137z" fill="#4dc67d" fill-opacity=".995247"/><path d="m87.947637 479.868659h132.615137v-184.018915h-132.615137z" fill="#4dc67d" fill-opacity=".995247"/><path d="m1.97712329 482.377258h132.61513671v-62.667766h-132.61513671z" fill="#4dc67d" fill-opacity=".995247"/><path d="m305.684452 481.507641h132.615137v-102.878207h-132.615137z" fill="#4dc67d" fill-opacity=".995247"/><path d="m526.559339 89.1758013v41.4274387" stroke="#80d6a2" stroke-width="5.6"/><path d="m729.481644 482.377258h73.625137v-232.642839h-73.625137z" fill="#4dc67d" fill-opacity=".995247"/><path d="m768.438425 369.080554h63.411164v-164.193755h-63.411164z" fill="#4dc67d" fill-opacity=".995247"/><path d="m785.252705 209.871357h28.46161v-12.516767h-28.46161z" fill="#4dc67d" fill-opacity=".995247"/><path d="m622.330935 184.76654v299.860355h-115.535959v-384.513916l45.381849 33.25176v48.889705h39.408562v-20.01517z" fill="#4dc67d" fill-opacity=".995247"/><path d="m679.720606 193.551417v40.889465" stroke="#80d6a2" stroke-width="5.6"/><path d="m539.994521 482.377258h99.353938v-263.538708h-99.353938z" fill="#ccefda"/><path d="m639.348459 482.377258h62.983836v-263.538708h-62.983836z" fill="#80d6a2"/><path d="m539.995103 252.983824h23.618938v-12.26614h-23.618938z" fill="#4dc67d" fill-opacity=".995247"/><path d="m563.614041 265.126399h23.618356v-12.265557h-23.618356z" fill="#4dc67d" fill-opacity=".995247"/><path d="m587.232397 252.983824h23.618356v-12.26614h-23.618356z" fill="#4dc67d" fill-opacity=".995247"/><path d="m539.995103 265.126399h23.618938v-12.265557h-23.618938z" fill="#edfaf2"/><path d="m563.614041 347.917746h23.618356v-12.26614h-23.618356z" fill="#edfaf2"/><path d="m647.444418 265.126399h18.29887v-12.265557h-18.29887z" fill="#edfaf2"/><path d="m610.851336 409.789918h23.618938v-12.26614h-23.618938z" fill="#edfaf2"/><g fill="#4dc67d" fill-opacity=".995247"><path d="m610.851336 277.39254h23.618938v-12.266141h-23.618938z"/><path d="m563.614041 335.651606h23.618356v-12.265558h-23.618356z"/><path d="m610.851336 347.917746h23.618938v-12.26614h-23.618938z"/><path d="m647.449075 252.983824h18.294213v-12.26614h-18.294213z"/><path d="m684.038082 265.249381h18.294213v-12.265557h-18.294213z"/><path d="m647.446747 312.595109h18.294212v-12.265557h-18.294212z"/><path d="m587.232397 409.789918h23.618356v-12.26614h-23.618356z"/><path d="m539.995103 441.253485h23.618938v-12.26614h-23.618938z"/><path d="m563.614041 453.519626h23.618356v-12.266141h-23.618356z"/><path d="m539.995103 277.39254h23.618938v-12.266141h-23.618938z"/></g><path d="m342.945308 273.81324h9.645171v-17.231465h-9.645171z" fill="#edfaf2"/><path d="m342.945308 239.350311h9.645171v-17.231465h-9.645171z" fill="#edfaf2"/><path d="m333.457329 482.377258h83.014726v-443.2369341h-83.014726z" fill="#ccefda"/><path d="m416.472055 482.377258h52.625479v-443.2369341h-52.625479z" fill="#4dc67d" fill-opacity=".995247"/><path d="m333.457329 28.9176661h83.014726v-20.26579697h-83.014726z" fill="#ccefda"/><path d="m348.504658 20.8474842h33.492328v-20.26579696h-33.492328z" fill="#ccefda"/><path d="m424.577911 20.8474842h33.491747v-20.26579696h-33.491747z" fill="#ccefda"/><path d="m416.472055 28.9176661h52.625479v-20.26579697h-52.625479z" fill="#4dc67d" fill-opacity=".995247"/><path d="m325.794521 39.139741h92.393835v-10.2220749h-92.393835z" fill="#ccefda"/><path d="m418.188938 39.139741h58.570822v-10.2220749h-58.570822z" fill="#80d6a2"/><path d="m342.945308 482.377258h9.645171v-433.193795h-9.645171z" fill="#80d6a2"/><path d="m396.84637 482.377258h9.645753v-433.193795h-9.645753z" fill="#80d6a2"/><path d="m378.879349 482.377258h9.645172v-433.193795h-9.645172z" fill="#80d6a2"/><path d="m360.912329 482.377258h9.645171v-433.193795h-9.645171z" fill="#80d6a2"/><path d="m360.912329 256.581775h9.645171v-17.231464h-9.645171z" fill="#edfaf2"/><path d="m378.879349 415.318861h9.645172v-17.231465h-9.645172z" fill="#edfaf2"/><path d="m378.879349 398.087396h9.645172v-17.231464h-9.645172z" fill="#edfaf2"/><path d="m396.84637 346.348123h9.645753v-17.231464h-9.645753z" fill="#4dc67d" fill-opacity=".995247"/><path d="m342.945308 363.833129h9.645171v-17.231465h-9.645171z" fill="#4dc67d" fill-opacity=".995247"/><path d="m396.84637 203.952486h9.645753v-17.231465h-9.645753z" fill="#4dc67d" fill-opacity=".995247"/><path d="m342.945308 176.871972h9.645171v-17.231464h-9.645171z" fill="#4dc67d" fill-opacity=".995247"/><path d="m378.879349 363.624467h9.645172v-17.231464h-9.645172z" fill="#4dc67d" fill-opacity=".995247"/><path d="m342.945308 435.120707h9.645171v-17.231465h-9.645171z" fill="#edfaf2"/><path d="m378.879349 239.350311h9.645172v-17.231465h-9.645172z" fill="#edfaf2"/><path d="m342.945308 291.044704h9.645171v-17.231464h-9.645171z" fill="#edfaf2"/><path d="m396.84637 139.219089h9.645753v-17.231465h-9.645753z" fill="#edfaf2"/><path d="m342.945308 112.437579h9.645171v-17.2314646h-9.645171z" fill="#edfaf2"/><path d="m342.945308 129.669043h9.645171v-17.231464h-9.645171z" fill="#edfaf2"/><path d="m378.879349 222.118263h9.645172v-17.231464h-9.645172z" fill="#edfaf2"/><path d="m940.348596 480.151343h68.265484v-84.798693h-68.265484z" fill="#4dc67d" fill-opacity=".995247"/><path d="m931.585678 265.780244v42.934696" stroke="#80d6a2" stroke-width="5.6"/><path d="m848.180651 487.89163h70.012637v-196.733269h-70.012637z" fill="#80d6a2"/><path d="m857.300103 482.377258h10.956267v-178.77149h-10.956267z" fill="#4dc67d" fill-opacity=".995247"/><path d="m877.709418 482.377258h10.956267v-178.77149h-10.956267z" fill="#4dc67d" fill-opacity=".995247"/><path d="m898.118151 482.377258h10.956267v-178.77149h-10.956267z" fill="#4dc67d" fill-opacity=".995247"/><path d="m918.19387 487.89163h44.382808v-196.733269h-44.382808z" fill="#4dc67d" fill-opacity=".995247"/><path d="m926.823699 482.377258h9.507774v-178.77149h-9.507774z" fill="#ccefda"/><path d="m945.021849 482.377258h9.508356v-178.77149h-9.508356z" fill="#ccefda"/><path d="m945.021849 400.688669h9.508356v-16.559435h-9.508356z" fill="#80d6a2"/><path d="m945.021849 352.211041h9.508356v-16.559435h-9.508356z" fill="#80d6a2"/><path d="m926.823699 352.211041h9.507774v-16.559435h-9.507774z" fill="#80d6a2"/><path d="m926.831267 368.770476h9.508356v-16.559435h-9.508356z" fill="#80d6a2"/><path d="m926.831267 417.247521h9.508356v-16.558852h-9.508356z" fill="#80d6a2"/><path d="m945.021849 417.247521h9.508356v-16.558852h-9.508356z" fill="#80d6a2"/><path d="m254.093818 225.83261v34.022293" stroke="#80d6a2" stroke-width="5.6"/><path d="m149.120274 273.81324h29.377979v-25.107557h-29.377979z" fill="#80d6a2"/><path d="m120.816438 482.377258h105.119384v-222.522763h-105.119384z" fill="#ccefda"/><path d="m131.564863 482.377258h12.181199v-211.53074h-12.181199z" fill="#4dc67d" fill-opacity=".995247"/><path d="m154.255205 482.377258h12.181199v-211.53074h-12.181199z" fill="#4dc67d" fill-opacity=".995247"/><path d="m176.94613 482.377258h12.181199v-211.53074h-12.181199z" fill="#4dc67d" fill-opacity=".995247"/><path d="m199.636473 482.377258h12.181198v-211.53074h-12.181198z" fill="#4dc67d" fill-opacity=".995247"/><path d="m237.043459 273.81324h29.378562v-25.107557h-29.378562z" fill="#80d6a2"/><path d="m225.935822 482.377258h66.638253v-222.522763h-66.638253z" fill="#80d6a2"/><path d="m248.374075 482.377258h12.181199v-149.120595h-12.181199z" fill="#ccefda"/><path d="m271.065 482.377258h12.181199v-149.120595h-12.181199z" fill="#ccefda"/><path d="m40.2055822 483.949212h90.9971578v-125.226538h-90.9971578z" fill="#ccefda"/><path d="m131.20274 483.949212h57.68589v-125.226538h-57.68589z" fill="#80d6a2"/><g fill="#4dc67d" fill-opacity=".995247" transform="translate(40.171233 363.338869)"><path d="m.03434932 104.422768h130.76900668v-10.8008479h-130.76900668z"/><path d="m.03434932 85.7971193h130.76900668v-10.8008479h-130.76900668z"/><path d="m.03434932 67.1720534h130.76900668v-10.8008479h-130.76900668z"/><path d="m.03434932 48.5464047h130.76900668v-10.8008479h-130.76900668z"/><path d="m.03434932 29.920756h130.76900668v-10.8002651h-130.76900668z"/><path d="m.03434932 11.2956901h130.76900668v-10.80084795h-130.76900668z"/></g><path d="m96.2526027 467.761637h19.2571573v-10.800847h-19.2571573z" fill="#edfaf2"/><path d="m96.2526027 449.135989h19.2571573v-10.800848h-19.2571573z" fill="#edfaf2"/><path d="m76.9954452 467.761637h19.2571575v-10.800847h-19.2571575z" fill="#edfaf2"/><path d="m95.9615068 411.885274h19.2571572v-10.800848h-19.2571572z" fill="#edfaf2"/><path d="m49.0281164 393.259625h19.2571576v-10.800265h-19.2571576z" fill="#edfaf2"/><path d="m68.2846918 393.259625h19.2571575v-10.800265h-19.2571575z" fill="#edfaf2"/><path d="m784.813733 482.377258h94.072294v-132.935351h-94.072294z" fill="#ccefda"/><path d="m679.720548 482.377258h105.093185v-132.935351h-105.093185z" fill="#edfaf2"/><path d="m792.99411 363.833129h104.168664v-26.631134h-104.168664z" fill="#80d6a2"/><path d="m679.720548 370.433938h199.165479v-6.600809h-199.165479z" fill="#4dc67d" fill-opacity=".995247"/><path d="m679.720548 382.352115h199.165479v-6.600226h-199.165479z" fill="#80d6a2"/><path d="m679.720548 444.950522h199.165479v-6.60081h-199.165479z" fill="#4dc67d" fill-opacity=".995247"/><path d="m679.720548 456.868116h199.165479v-6.60081h-199.165479z" fill="#80d6a2"/><path d="m660.379555 363.833129h132.615137v-26.631134h-132.615137z" fill="#ccefda"/><path d="m792.99411 438.349712h104.168664v-44.962442h-104.168664z" fill="#80d6a2"/><path d="m660.379555 438.349712h132.615137v-44.962442h-132.615137z" fill="#ccefda"/><path d="m-.00005822 483.949154h1019.64194822z" fill="#edfaf2"/><path d="m1019.6416 483.949387h-1019.64136712" stroke="#ccefda" stroke-linecap="round" stroke-width="14"/></g><g transform="translate(242 42)"><path d="m603.81389 545.892182c0 1.164209-135.120294 2.107468-301.800517 2.107468-166.679641 0-301.80051601-.943259-301.80051601-2.107468 0-1.163625 135.12087501-2.107468 301.80051601-2.107468 166.680223 0 301.800517.943843 301.800517 2.107468" fill="#afb4c8"/><path d="m589.170596 545.892182h-565.6205077c-.0058142-.308979-.0116283-.623204-.0116283-.938013 0-16.691263 0-37.310055 20.1914712-49.866251 30.9442088-19.243544 63.6111578 11.838549 63.0913708-26.548851-.540137-39.889153-18.3669828-248.258574-18.3669828-248.258574l5.2891561-15.812715s41.3655387 166.150685 51.9851317 222.815051c11.362644 60.629787 23.782306-1.571128 63.929193-3.408677 37.896219-1.733778 55.547477 19.791545 62.783219 46.279766 21.925259-6.457655 42.140568-9.865749 57.434759 4.923839 20.842659-52.81729 55.191068-7.255754 51.206032-56.73549-4.687389-58.190604-22.982276-237.525353-22.982276-237.525353l7.777623-9.919966s39.225922 165.261643 55.345725 238.525745c11.417298 51.8956 40.770167-3.66577 91.244194 22.479659 39.558492 20.490537 29.671485 68.207928 29.671485 68.207928s43.29352-4.305298 47.032035 45.781902" fill="#b5babd"/><path d="m236.68337 518.493873c0 10.135668-3.041395 19.556021-8.261363 27.398251h-82.048492c-4.731577-7.110009-7.676457-15.519477-8.180546-24.579549-.052328-.934515-.080817-1.872528-.080817-2.818702 0-27.289817 22.06538-49.418524 49.285609-49.418524 5.497885 0 10.78239.901868 15.719788 2.568605 19.511794 6.576583 33.565821 25.069251 33.565821 46.849919" fill="#d7dbde"/><path d="m395.272353 544.997776c0 .296153-.005814.598136-.011628.89429h-75.196486c-.005814-.296154-.011628-.598137-.011628-.89429 0-17.559319 11.97604-32.319757 28.185964-36.520119 3.012324-.775362 6.167096-1.191026 9.423035-1.191026 1.876235 0 3.723398.137 5.525212.404588 18.154184 2.678787 32.085531 18.362664 32.085531 37.306557" fill="#d7dbde"/><path d="m287.765793 544.731355c0 .384766-.007559.776528-.014536 1.160711h-97.55897c-.007559-.384183-.014536-.775945-.014536-1.160711 0-22.779894 15.536642-41.930162 36.56768-47.379264 3.90829-1.005638 8.000888-1.545477 12.22605-1.545477 2.433814 0 4.829836.177226 7.167135.525264 23.553228 3.474553 41.627177 23.822843 41.627177 48.399477" fill="#d7dbde"/><path d="m149.471541 545.263673c0 .208123-.00407.420327-.00814.628451h-52.835164c-.00407-.208124-.0081399-.420328-.0081399-.628451 0-12.337579 8.4142759-22.70877 19.8042469-25.660392 2.11636-.543919 4.333306-.836574 6.621184-.836574 1.318074 0 2.615798.096191 3.882126.284493 12.755721 1.882439 22.543887 12.901903 22.543887 26.212473" fill="#d7dbde"/><path d="m75.2428828 545.587634c0 .101438-.0017443.204043-.00407.304315h-25.5893525c-.0017442-.100272-.0034885-.202877-.0034885-.304315 0-5.974949 4.0751562-10.997894 9.5916466-12.427357 1.0250393-.26409 2.0983362-.405754 3.2065182-.405754.6383965 0 1.266909.046639 1.8803046.138166 6.1775622.911196 10.9184416 6.248366 10.9184416 12.694945" fill="#bec2c7"/><g fill="#d7dbde"><path d="m554.67503 545.263673c0 .208123-.00407.420327-.00814.628451h-52.835745c-.00407-.208124-.007558-.420328-.007558-.628451 0-12.337579 8.414276-22.70877 19.804247-25.660392 2.11636-.543919 4.332724-.836574 6.621184-.836574 1.317492 0 2.615798.096191 3.882125.284493 12.75514 1.882439 22.543887 12.901903 22.543887 26.212473"/><path d="m491.166492 520.201826c0 9.2338-2.170432 17.963906-6.027556 25.690123h-102.691725c-3.865265-7.726217-6.035697-16.456323-6.035697-25.690123 0-31.773507 25.692264-57.535337 57.381269-57.535337 6.87817 0 13.479004 1.212013 19.586215 3.444239 22.042705 8.021787 37.787494 29.214229 37.787494 54.091098"/><path d="m95.6103491 473.141684c0 4.358932-3.5245536 7.892366-7.8718132 7.892366s-7.8712318-3.533434-7.8712318-7.892366c0-4.359515 3.5239722-7.892366 7.8712318-7.892366s7.8718132 3.532851 7.8718132 7.892366"/><path d="m11.1705443 519.540844c0 2.509724-2.02914756 4.544319-4.53215043 4.544319s-4.53215038-2.034595-4.53215038-4.544319c0-2.510306 2.02914751-4.544319 4.53215038-4.544319s4.53215043 2.034013 4.53215043 4.544319"/><path d="m363.957026 426.921849c0 6.24137-5.046124 11.301042-11.270781 11.301042s-11.270199-5.059672-11.270199-11.301042c0-6.241371 5.045542-11.301043 11.270199-11.301043s11.270781 5.059672 11.270781 11.301043"/><path d="m445.176591 416.697509c0 2.5756-2.082638 4.66383-4.651341 4.66383-2.569285 0-4.651341-2.08823-4.651341-4.66383 0-2.576183 2.082056-4.663829 4.651341-4.663829 2.568703 0 4.651341 2.087646 4.651341 4.663829"/><path d="m606.542134 501.363801c0 5.944051-4.805998 10.762953-10.734133 10.762953-5.927552 0-10.73355-4.818902-10.73355-10.762953s4.805998-10.762953 10.73355-10.762953c5.928135 0 10.734133 4.818902 10.734133 10.762953"/></g><path d="m109.987993 224.100169-33.8728094 4.549566s-10.6352912-79.612157-14.3790393-107.638859c-3.1716331-23.7394769 11.8138248-40.6172939 11.8138248-40.6172939s18.8867701 12.3282511 22.0584032 36.0683109c3.5792069 26.794285 14.3796207 107.638276 14.3796207 107.638276" fill="#5ecc62"/><path d="m106.963633 201.463047-33.872228 4.549566-10.0875958-75.509736 33.872228-4.549566z" fill="#00ad45"/><path d="m108.052105 234.898393-27.2347645 3.657608-1.3831925-10.351953 27.234764-3.658191z" fill="#00ad45"/><path d="m60.3917324 235.518041 15.7232768-6.868655-2.646613-19.813698-13.8505307 20.887544z" fill="#00ad45"/><path d="m126.959806 226.577537-16.97158-2.477659-2.647195-19.813115 18.844908 16.495966z" fill="#00ad45"/><path d="m353.65448 162.37275-260.7192915 35.0172-8.028796-60.102192 120.2139085-93.453238 140.504801 58.436038z" fill="#5ecc62"/><path d="m287.177572 94.0017047 10.143994 75.9353103-148.056254 19.885988-10.143994-75.935311c-1.404704-10.512272 2.875111-20.9796554 11.234733-27.4787022l54.765471-42.5731872 64.004777 26.6211404c9.770724 4.0633617 16.646568 13.0324893 18.051273 23.5447617" fill="#00ad45"/><path d="m380.701737 184.561794-33.87281 4.549566s-10.635291-79.612157-14.379039-107.6382762c-3.171633-23.7400595 11.813825-40.6178766 11.813825-40.6178766s18.88677 12.3282511 22.058985 36.0683107c3.579207 26.7942851 14.379039 107.6382761 14.379039 107.6382761" fill="#5ecc62"/><path d="m377.677668 161.924672-33.87281 4.549566-10.087014-75.5097359 33.872228-4.548983z" fill="#00ad45"/><path d="m378.766139 195.360018-27.235345 3.657608-1.383193-10.351953 27.235346-3.658191z" fill="#00ad45"/><path d="m331.105825 195.979957 15.723277-6.868655-2.646613-19.813698-13.851112 20.887545z" fill="#00ad45"/><path d="m397.67355 187.039163-16.971581-2.47766-2.647194-19.813115 18.844908 16.495966z" fill="#00ad45"/><path d="m175.921217 333.059417 9.733512 10.580481s-22.513072 20.740051-24.441052 36.521868l48.443716-31.740276-23.782888-32.898073z" fill="#0b096f"/><path d="m187.903885 318.637515 10.970188 15.288617-13.219111 9.714174-9.733513-10.581063z" fill="#ef3c86"/><path d="m277.390511 381.317405 10.33935 9.986426s-9.624206 33.112608-10.619012 48.981289l33.698966-47.962243-24.516056-29.099966z" fill="#0b096f"/><path d="m288.502739 366.211202 10.688782 12.280447-11.461486 12.812123-10.339349-9.986425z" fill="#ef3c86"/><path d="m122.442482 208.151096s55.102692-1.086673 58.337119-8.975541c6.358964-15.512481-1.208768-67.076949-1.208768-67.076949l-32.40066 5.621664 5.5694 46.805613-37.463063 8.148877" fill="#ff77ca"/><path d="m180.217137 186.466736-7.995655-34.212107-26.48241 5.008954s-.546533-41.898098 6.242681-52.29669c5.843247-8.9487232 15.723858-20.5925573 40.592253-25.6895402 36.976417-7.5793064 45.948272-3.6914213 58.32956 5.7889787 10.697503 8.1908511 25.411439 33.7019995 25.411439 33.7019995l-27.713853 15.182515 9.322451 32.104056z" fill="#ffc100"/><path d="m196.13234 3.22667064 1.666924 11.32202976 4.63041.5684043 4.844372-10.01324257" stroke="#0b096f" stroke-width="6.3"/><path d="m142.307487 32.1899864s-10.099805 23.6257957 11.76673 23.6228808z" fill="#0b096f"/><path d="m185.688917 89.8462323-3.605371-13.8976297s-19.470514 6.6348808-24.585244 5.4362765c0 0-8.815454-20.2946553-9.367801-36.1406l13.681338-20.6322 29.219143-5.2135787 9.87189 25.1975064c.372688-4.822983 12.620251-13.8795574 18.43152-4.7588553 7.493891 11.7604298-14.004025 24.1557234-14.004025 24.1557234l5.527537 18.1516255" fill="#ff77ca"/><path d="m185.688393 80.7941468-6.364197 2.3144255s-3.473389 19.2709447 15.775604 15.2728766c15.554666-3.230868 18.175115-22.4650851 18.175115-22.4650851l-8.594515.9753234" fill="#ff77ca"/><path d="m210.699817 36.1333711s12.479548-9.2390468-8.021238-21.9229149c-20.500785-12.68445109-32.738463-.2553447-32.738463-.2553447s-8.435789-16.10653618-19.709477-13.17240427c-16.060499 4.17937447-12.20977 29.72317017-12.20977 29.72317017s-11.547535-11.4759361-15.662809-8.3616638c-4.115855 3.1142724 7.195043 48.1418 65.593792 9.863417 0 0-2.34602 13.8148468 12.951078 12.5888426 0 0 1.20993-5.9492979 9.796887-8.4631021" fill="#0b096f"/><path d="m223.563158 75.2754953s1.82507-1.1199021 12.295239 1.5857021c0 0-8.027633 29.1535996 15.587225 83.2056386l-3.921662 3.707161s-29.428453-37.071034-23.960802-88.4985017" fill="#1e202d"/><path d="m160.715809 94.3637928s6.704326-6.9094639 11.08182-7.8853702c0 0-10.591685 23.6018934 4.251325 82.1545274l3.307685 14.15006s-25.336436-38.023039-18.64083-88.4192172" fill="#1e202d"/><path d="m169.446143 72.3199098c.6727 2.1465276 5.833363 2.8525149 8.832315.5981362 6.642115-4.9926298 4.601921-11.6030256.515136-11.4951745-5.098451.1346681-3.890846 4.8142383-6.261286 6.3941106-2.712895 1.8072341-3.578044 2.933549-3.086165 4.5029277" fill="#fff"/><path d="m182.116687 76.0287038 15.203489-7.2831532-13.47319 13.8031873z" fill="#ef3c86"/><path d="m163.566964 56.3067668-1.853559 13.3193149 5.915343-1.4317957z" fill="#0b096f"/><path d="m168.330752 56.1749553c.304662 2.1785915 1.85007 3.7625447 3.451876 3.5369319 1.602387-.2250298 2.65359-2.1739276 2.349509-4.3525191-.304663-2.1785915-1.850653-3.7625447-3.452458-3.5369319-1.601806.2250298-2.65359 2.1739276-2.348927 4.3525191" fill="#0b096f"/><path d="m154.190442 59.312197c.304663 2.1785915 1.850071 3.7625447 3.451877 3.5369319 1.602387-.2250298 2.654171-2.1739276 2.349508-4.3525191-.304662-2.1785915-1.850652-3.7625447-3.451876-3.5369319-1.602387.2250298-2.654171 2.1739276-2.349509 4.3525191" fill="#0b096f"/><path d="m180.217137 186.466736s-70.684685 37.733881-78.002407 58.834795c-7.8718131 22.698277 71.410876 97.402337 71.410876 97.402337l24.490473-17.758115-44.829043-70.496119 83.74158-46.298422-17.994875-31.880774z" fill="#2b2b3b"/><path d="m213.238402 177.792654s-5.161244 103.773127 0 125.059429c2.766967 11.412392 65.801359 90.885217 65.801359 90.885217l20.275195-24.634931-43.263286-82.0356 5.337414-122.694869z" fill="#2b2b3b"/><path d="m228.490963 174.836485s51.412435 8.317941 58.410959 1.687141c11.206244-10.617792-14.460438-55.633077-14.460438-55.633077l-25.00619 13.740225 9.835842 20.67126-30.36221.255345" fill="#ff77ca"/><path d="m99.2925251 179.170932 26.3574049 35.158281" stroke="#1c2127" stroke-width="14"/><path d="m220.570311 182.941813-9.302682-43.983413" stroke="#1c2127" stroke-width="12.6"/><path d="m115.88194 198.219645c5.304273 5.428115 7.209578 12.52763 4.255395 15.857021-2.954183 3.329975-9.648625 1.62826-14.952898-3.799855-5.3042731-5.428115-7.2095787-12.52763-4.255396-15.857021 2.954183-3.329392 9.648626-1.62826 14.952899 3.799855" fill="#ff77ca"/><path d="m114.893414 193.734906c-.269197 4.429473-4.989145 4.709303-4.989145 4.709303l-.703515-11.119737 14.644165 3.486213-.821543 7.633524z" fill="#ff77ca"/><path d="m231.245604 157.751011s-14.176706-9.626145-17.636141-9.35914c-4.16295.321221-10.23702 3.384191-12.422569 5.011868-2.184967 1.627676-.44711 5.877591.908756 6.806859 0 0-2.559982 3.640702.715725 7.340868 0 0-.229079 3.679762 3.211751 5.619915 0 0 .786658 3.789945 4.825185 3.922281s13.468539-1.590949 20.840333-2.9866" fill="#ff77ca"/><path d="m99.2925251 179.170932 68.0595839-90.0364001" stroke="#1c2127" stroke-width="3.5"/><path d="m229.187385 75.6472609-17.919872 63.3109061" stroke="#1c2127" stroke-width="3.5"/><path d="m211.564268 222.040097.607582-11.796574-30.865136 28.421379z" fill="#151b21"/><path d="m247.435061 134.630891 25.006772-13.740225-20.996734 22.168348z" fill="#ef3c86"/><path d="m149.413108 156.568847 1.104112 9.280438 17.633815-6.615642-1.975657-5.835617z" fill="#ef3c86"/></g></g></svg>