<?xml version="1.0" encoding="UTF-8"?>
<svg width="963px" height="590px" viewBox="0 0 963 590" version="1.1" xmlns="http://www.w3.org/2000/svg" xmlns:xlink="http://www.w3.org/1999/xlink">
    <!-- Generator: Sketch 53.2 (72643) - https://sketchapp.com -->
    <title>28</title>
    <desc>Created with Sketch.</desc>
    <g id="Page-1" stroke="none" stroke-width="1" fill="none" fill-rule="evenodd">
        <g id="Home" transform="translate(-437.000000, -88.000000)">
            <g id="28" transform="translate(444.000000, 88.000000)">
                <g id="BG" opacity="0.3">
                    <polygon id="Fill-1" fill-opacity="0.995246941" fill="#4DC67D" points="213.683538 328.025675 164.571003 328.025675 164.571003 225.937232 213.683538 185.137526"></polygon>
                    <polygon id="Fill-2" fill="#80D6A2" points="460.618493 480.151343 515.274075 480.151343 515.274075 302.231401 460.618493 302.231401"></polygon>
                    <polygon id="Fill-3" fill="#80D6A2" points="429.315788 366.352802 483.97137 366.352802 483.97137 188.43286 429.315788 188.43286"></polygon>
                    <polygon id="Fill-4" fill-opacity="0.995246941" fill="#4DC67D" points="183.639589 482.779426 316.254726 482.779426 316.254726 298.761094 183.639589 298.761094"></polygon>
                    <polygon id="Fill-5" fill-opacity="0.995246941" fill="#4DC67D" points="87.947637 479.868659 220.562774 479.868659 220.562774 295.849744 87.947637 295.849744"></polygon>
                    <polygon id="Fill-6" fill-opacity="0.995246941" fill="#4DC67D" points="1.97712329 482.377258 134.59226 482.377258 134.59226 419.709492 1.97712329 419.709492"></polygon>
                    <polygon id="Fill-7" fill-opacity="0.995246941" fill="#4DC67D" points="305.684452 481.507641 438.299589 481.507641 438.299589 378.629434 305.684452 378.629434"></polygon>
                    <path d="M526.559339,89.1758013 L526.559339,130.60324" id="Stroke-8" stroke="#80D6A2" stroke-width="5.6"></path>
                    <polygon id="Fill-9" fill-opacity="0.995246941" fill="#4DC67D" points="729.481644 482.377258 803.106781 482.377258 803.106781 249.734419 729.481644 249.734419"></polygon>
                    <polygon id="Fill-10" fill-opacity="0.995246941" fill="#4DC67D" points="768.438425 369.080554 831.849589 369.080554 831.849589 204.886799 768.438425 204.886799"></polygon>
                    <polygon id="Fill-11" fill-opacity="0.995246941" fill="#4DC67D" points="785.252705 209.871357 813.714315 209.871357 813.714315 197.35459 785.252705 197.35459"></polygon>
                    <polygon id="Fill-12" fill-opacity="0.995246941" fill="#4DC67D" points="622.330935 184.76654 622.330935 484.626895 506.794976 484.626895 506.794976 100.112979 552.176825 133.364739 552.176825 182.254444 591.585387 182.254444 591.585387 162.239274"></polygon>
                    <path d="M679.720606,193.551417 L679.720606,234.440882" id="Stroke-13" stroke="#80D6A2" stroke-width="5.6"></path>
                    <polygon id="Fill-14" fill="#CCEFDA" points="539.994521 482.377258 639.348459 482.377258 639.348459 218.83855 539.994521 218.83855"></polygon>
                    <polygon id="Fill-15" fill="#80D6A2" points="639.348459 482.377258 702.332295 482.377258 702.332295 218.83855 639.348459 218.83855"></polygon>
                    <polygon id="Fill-16" fill-opacity="0.995246941" fill="#4DC67D" points="539.995103 252.983824 563.614041 252.983824 563.614041 240.717684 539.995103 240.717684"></polygon>
                    <polygon id="Fill-17" fill-opacity="0.995246941" fill="#4DC67D" points="563.614041 265.126399 587.232397 265.126399 587.232397 252.860842 563.614041 252.860842"></polygon>
                    <polygon id="Fill-18" fill-opacity="0.995246941" fill="#4DC67D" points="587.232397 252.983824 610.850753 252.983824 610.850753 240.717684 587.232397 240.717684"></polygon>
                    <polygon id="Fill-19" fill="#EDFAF2" points="539.995103 265.126399 563.614041 265.126399 563.614041 252.860842 539.995103 252.860842"></polygon>
                    <polygon id="Fill-20" fill="#EDFAF2" points="563.614041 347.917746 587.232397 347.917746 587.232397 335.651606 563.614041 335.651606"></polygon>
                    <polygon id="Fill-21" fill="#EDFAF2" points="647.444418 265.126399 665.743288 265.126399 665.743288 252.860842 647.444418 252.860842"></polygon>
                    <polygon id="Fill-22" fill="#EDFAF2" points="610.851336 409.789918 634.470274 409.789918 634.470274 397.523778 610.851336 397.523778"></polygon>
                    <polygon id="Fill-23" fill-opacity="0.995246941" fill="#4DC67D" points="610.851336 277.39254 634.470274 277.39254 634.470274 265.126399 610.851336 265.126399"></polygon>
                    <polygon id="Fill-24" fill-opacity="0.995246941" fill="#4DC67D" points="563.614041 335.651606 587.232397 335.651606 587.232397 323.386048 563.614041 323.386048"></polygon>
                    <polygon id="Fill-25" fill-opacity="0.995246941" fill="#4DC67D" points="610.851336 347.917746 634.470274 347.917746 634.470274 335.651606 610.851336 335.651606"></polygon>
                    <polygon id="Fill-26" fill-opacity="0.995246941" fill="#4DC67D" points="647.449075 252.983824 665.743288 252.983824 665.743288 240.717684 647.449075 240.717684"></polygon>
                    <polygon id="Fill-27" fill-opacity="0.995246941" fill="#4DC67D" points="684.038082 265.249381 702.332295 265.249381 702.332295 252.983824 684.038082 252.983824"></polygon>
                    <polygon id="Fill-28" fill-opacity="0.995246941" fill="#4DC67D" points="647.446747 312.595109 665.740959 312.595109 665.740959 300.329552 647.446747 300.329552"></polygon>
                    <polygon id="Fill-29" fill-opacity="0.995246941" fill="#4DC67D" points="587.232397 409.789918 610.850753 409.789918 610.850753 397.523778 587.232397 397.523778"></polygon>
                    <polygon id="Fill-30" fill-opacity="0.995246941" fill="#4DC67D" points="539.995103 441.253485 563.614041 441.253485 563.614041 428.987345 539.995103 428.987345"></polygon>
                    <polygon id="Fill-31" fill-opacity="0.995246941" fill="#4DC67D" points="563.614041 453.519626 587.232397 453.519626 587.232397 441.253485 563.614041 441.253485"></polygon>
                    <polygon id="Fill-32" fill-opacity="0.995246941" fill="#4DC67D" points="539.995103 277.39254 563.614041 277.39254 563.614041 265.126399 539.995103 265.126399"></polygon>
                    <polygon id="Fill-33" fill="#EDFAF2" points="342.945308 273.81324 352.590479 273.81324 352.590479 256.581775 342.945308 256.581775"></polygon>
                    <polygon id="Fill-34" fill="#EDFAF2" points="342.945308 239.350311 352.590479 239.350311 352.590479 222.118846 342.945308 222.118846"></polygon>
                    <polygon id="Fill-35" fill="#CCEFDA" points="333.457329 482.377258 416.472055 482.377258 416.472055 39.1403239 333.457329 39.1403239"></polygon>
                    <polygon id="Fill-36" fill-opacity="0.995246941" fill="#4DC67D" points="416.472055 482.377258 469.097534 482.377258 469.097534 39.1403239 416.472055 39.1403239"></polygon>
                    <polygon id="Fill-37" fill="#CCEFDA" points="333.457329 28.9176661 416.472055 28.9176661 416.472055 8.65186913 333.457329 8.65186913"></polygon>
                    <polygon id="Fill-38" fill="#CCEFDA" points="348.504658 20.8474842 381.996986 20.8474842 381.996986 0.58168724 348.504658 0.58168724"></polygon>
                    <polygon id="Fill-39" fill="#CCEFDA" points="424.577911 20.8474842 458.069658 20.8474842 458.069658 0.58168724 424.577911 0.58168724"></polygon>
                    <polygon id="Fill-40" fill-opacity="0.995246941" fill="#4DC67D" points="416.472055 28.9176661 469.097534 28.9176661 469.097534 8.65186913 416.472055 8.65186913"></polygon>
                    <polygon id="Fill-41" fill="#CCEFDA" points="325.794521 39.139741 418.188356 39.139741 418.188356 28.9176661 325.794521 28.9176661"></polygon>
                    <polygon id="Fill-42" fill="#80D6A2" points="418.188938 39.139741 476.75976 39.139741 476.75976 28.9176661 418.188938 28.9176661"></polygon>
                    <polygon id="Fill-43" fill="#80D6A2" points="342.945308 482.377258 352.590479 482.377258 352.590479 49.183463 342.945308 49.183463"></polygon>
                    <polygon id="Fill-44" fill="#80D6A2" points="396.84637 482.377258 406.492123 482.377258 406.492123 49.183463 396.84637 49.183463"></polygon>
                    <polygon id="Fill-45" fill="#80D6A2" points="378.879349 482.377258 388.524521 482.377258 388.524521 49.183463 378.879349 49.183463"></polygon>
                    <polygon id="Fill-46" fill="#80D6A2" points="360.912329 482.377258 370.5575 482.377258 370.5575 49.183463 360.912329 49.183463"></polygon>
                    <polygon id="Fill-47" fill="#EDFAF2" points="360.912329 256.581775 370.5575 256.581775 370.5575 239.350311 360.912329 239.350311"></polygon>
                    <polygon id="Fill-48" fill="#EDFAF2" points="378.879349 415.318861 388.524521 415.318861 388.524521 398.087396 378.879349 398.087396"></polygon>
                    <polygon id="Fill-49" fill="#EDFAF2" points="378.879349 398.087396 388.524521 398.087396 388.524521 380.855932 378.879349 380.855932"></polygon>
                    <polygon id="Fill-50" fill-opacity="0.995246941" fill="#4DC67D" points="396.84637 346.348123 406.492123 346.348123 406.492123 329.116659 396.84637 329.116659"></polygon>
                    <polygon id="Fill-52" fill-opacity="0.995246941" fill="#4DC67D" points="342.945308 363.833129 352.590479 363.833129 352.590479 346.601664 342.945308 346.601664"></polygon>
                    <polygon id="Fill-53" fill-opacity="0.995246941" fill="#4DC67D" points="396.84637 203.952486 406.492123 203.952486 406.492123 186.721021 396.84637 186.721021"></polygon>
                    <polygon id="Fill-54" fill-opacity="0.995246941" fill="#4DC67D" points="342.945308 176.871972 352.590479 176.871972 352.590479 159.640508 342.945308 159.640508"></polygon>
                    <polygon id="Fill-55" fill-opacity="0.995246941" fill="#4DC67D" points="378.879349 363.624467 388.524521 363.624467 388.524521 346.393003 378.879349 346.393003"></polygon>
                    <polygon id="Fill-57" fill="#EDFAF2" points="342.945308 435.120707 352.590479 435.120707 352.590479 417.889242 342.945308 417.889242"></polygon>
                    <polygon id="Fill-58" fill="#EDFAF2" points="378.879349 239.350311 388.524521 239.350311 388.524521 222.118846 378.879349 222.118846"></polygon>
                    <polygon id="Fill-59" fill="#EDFAF2" points="342.945308 291.044704 352.590479 291.044704 352.590479 273.81324 342.945308 273.81324"></polygon>
                    <polygon id="Fill-60" fill="#EDFAF2" points="396.84637 139.219089 406.492123 139.219089 406.492123 121.987624 396.84637 121.987624"></polygon>
                    <polygon id="Fill-61" fill="#EDFAF2" points="342.945308 112.437579 352.590479 112.437579 352.590479 95.2061144 342.945308 95.2061144"></polygon>
                    <polygon id="Fill-62" fill="#EDFAF2" points="342.945308 129.669043 352.590479 129.669043 352.590479 112.437579 342.945308 112.437579"></polygon>
                    <polygon id="Fill-63" fill="#EDFAF2" points="378.879349 222.118263 388.524521 222.118263 388.524521 204.886799 378.879349 204.886799"></polygon>
                    <polygon id="Fill-64" fill-opacity="0.995246941" fill="#4DC67D" points="940.348596 480.151343 1008.61408 480.151343 1008.61408 395.35265 940.348596 395.35265"></polygon>
                    <path d="M931.585678,265.780244 L931.585678,308.71494" id="Stroke-67" stroke="#80D6A2" stroke-width="5.6"></path>
                    <polygon id="Fill-68" fill="#80D6A2" points="848.180651 487.89163 918.193288 487.89163 918.193288 291.158361 848.180651 291.158361"></polygon>
                    <polygon id="Fill-69" fill-opacity="0.995246941" fill="#4DC67D" points="857.300103 482.377258 868.25637 482.377258 868.25637 303.605768 857.300103 303.605768"></polygon>
                    <polygon id="Fill-70" fill-opacity="0.995246941" fill="#4DC67D" points="877.709418 482.377258 888.665685 482.377258 888.665685 303.605768 877.709418 303.605768"></polygon>
                    <polygon id="Fill-71" fill-opacity="0.995246941" fill="#4DC67D" points="898.118151 482.377258 909.074418 482.377258 909.074418 303.605768 898.118151 303.605768"></polygon>
                    <polygon id="Fill-72" fill-opacity="0.995246941" fill="#4DC67D" points="918.19387 487.89163 962.576678 487.89163 962.576678 291.158361 918.19387 291.158361"></polygon>
                    <polygon id="Fill-73" fill="#CCEFDA" points="926.823699 482.377258 936.331473 482.377258 936.331473 303.605768 926.823699 303.605768"></polygon>
                    <polygon id="Fill-74" fill="#CCEFDA" points="945.021849 482.377258 954.530205 482.377258 954.530205 303.605768 945.021849 303.605768"></polygon>
                    <polygon id="Fill-75" fill="#80D6A2" points="945.021849 400.688669 954.530205 400.688669 954.530205 384.129234 945.021849 384.129234"></polygon>
                    <polygon id="Fill-76" fill="#80D6A2" points="945.021849 352.211041 954.530205 352.211041 954.530205 335.651606 945.021849 335.651606"></polygon>
                    <polygon id="Fill-77" fill="#80D6A2" points="926.823699 352.211041 936.331473 352.211041 936.331473 335.651606 926.823699 335.651606"></polygon>
                    <polygon id="Fill-78" fill="#80D6A2" points="926.831267 368.770476 936.339623 368.770476 936.339623 352.211041 926.831267 352.211041"></polygon>
                    <polygon id="Fill-81" fill="#80D6A2" points="926.831267 417.247521 936.339623 417.247521 936.339623 400.688669 926.831267 400.688669"></polygon>
                    <polygon id="Fill-82" fill="#80D6A2" points="945.021849 417.247521 954.530205 417.247521 954.530205 400.688669 945.021849 400.688669"></polygon>
                    <path d="M254.093818,225.83261 L254.093818,259.854903" id="Stroke-83" stroke="#80D6A2" stroke-width="5.6"></path>
                    <polygon id="Fill-84" fill="#80D6A2" points="149.120274 273.81324 178.498253 273.81324 178.498253 248.705683 149.120274 248.705683"></polygon>
                    <polygon id="Fill-85" fill="#CCEFDA" points="120.816438 482.377258 225.935822 482.377258 225.935822 259.854495 120.816438 259.854495"></polygon>
                    <polygon id="Fill-86" fill-opacity="0.995246941" fill="#4DC67D" points="131.564863 482.377258 143.746062 482.377258 143.746062 270.846518 131.564863 270.846518"></polygon>
                    <polygon id="Fill-87" fill-opacity="0.995246941" fill="#4DC67D" points="154.255205 482.377258 166.436404 482.377258 166.436404 270.846518 154.255205 270.846518"></polygon>
                    <polygon id="Fill-88" fill-opacity="0.995246941" fill="#4DC67D" points="176.94613 482.377258 189.127329 482.377258 189.127329 270.846518 176.94613 270.846518"></polygon>
                    <polygon id="Fill-89" fill-opacity="0.995246941" fill="#4DC67D" points="199.636473 482.377258 211.817671 482.377258 211.817671 270.846518 199.636473 270.846518"></polygon>
                    <polygon id="Fill-90" fill="#80D6A2" points="237.043459 273.81324 266.422021 273.81324 266.422021 248.705683 237.043459 248.705683"></polygon>
                    <polygon id="Fill-91" fill="#80D6A2" points="225.935822 482.377258 292.574075 482.377258 292.574075 259.854495 225.935822 259.854495"></polygon>
                    <polygon id="Fill-92" fill="#CCEFDA" points="248.374075 482.377258 260.555274 482.377258 260.555274 333.256663 248.374075 333.256663"></polygon>
                    <polygon id="Fill-93" fill="#CCEFDA" points="271.065 482.377258 283.246199 482.377258 283.246199 333.256663 271.065 333.256663"></polygon>
                    <polygon id="Fill-94" fill="#CCEFDA" points="40.2055822 483.949212 131.20274 483.949212 131.20274 358.722674 40.2055822 358.722674"></polygon>
                    <polygon id="Fill-95" fill="#80D6A2" points="131.20274 483.949212 188.88863 483.949212 188.88863 358.722674 131.20274 358.722674"></polygon>
                    <g id="Group-108" transform="translate(40.171233, 363.338869)" fill="#4DC67D" fill-opacity="0.995246941">
                        <polygon id="Fill-96" points="0.0343493151 104.422768 130.803356 104.422768 130.803356 93.6219201 0.0343493151 93.6219201"></polygon>
                        <polygon id="Fill-98" points="0.0343493151 85.7971193 130.803356 85.7971193 130.803356 74.9962714 0.0343493151 74.9962714"></polygon>
                        <polygon id="Fill-100" points="0.0343493151 67.1720534 130.803356 67.1720534 130.803356 56.3712055 0.0343493151 56.3712055"></polygon>
                        <polygon id="Fill-102" points="0.0343493151 48.5464047 130.803356 48.5464047 130.803356 37.7455568 0.0343493151 37.7455568"></polygon>
                        <polygon id="Fill-104" points="0.0343493151 29.920756 130.803356 29.920756 130.803356 19.1204909 0.0343493151 19.1204909"></polygon>
                        <polygon id="Fill-106" points="0.0343493151 11.2956901 130.803356 11.2956901 130.803356 0.494842151 0.0343493151 0.494842151"></polygon>
                    </g>
                    <polygon id="Fill-109" fill="#EDFAF2" points="96.2526027 467.761637 115.50976 467.761637 115.50976 456.96079 96.2526027 456.96079"></polygon>
                    <polygon id="Fill-110" fill="#EDFAF2" points="96.2526027 449.135989 115.50976 449.135989 115.50976 438.335141 96.2526027 438.335141"></polygon>
                    <polygon id="Fill-111" fill="#EDFAF2" points="76.9954452 467.761637 96.2526027 467.761637 96.2526027 456.96079 76.9954452 456.96079"></polygon>
                    <polygon id="Fill-112" fill="#EDFAF2" points="95.9615068 411.885274 115.218664 411.885274 115.218664 401.084426 95.9615068 401.084426"></polygon>
                    <polygon id="Fill-113" fill="#EDFAF2" points="49.0281164 393.259625 68.285274 393.259625 68.285274 382.45936 49.0281164 382.45936"></polygon>
                    <polygon id="Fill-114" fill="#EDFAF2" points="68.2846918 393.259625 87.5418493 393.259625 87.5418493 382.45936 68.2846918 382.45936"></polygon>
                    <polygon id="Fill-115" fill="#CCEFDA" points="784.813733 482.377258 878.886027 482.377258 878.886027 349.441907 784.813733 349.441907"></polygon>
                    <polygon id="Fill-116" fill="#EDFAF2" points="679.720548 482.377258 784.813733 482.377258 784.813733 349.441907 679.720548 349.441907"></polygon>
                    <polygon id="Fill-117" fill="#80D6A2" points="792.99411 363.833129 897.162774 363.833129 897.162774 337.201995 792.99411 337.201995"></polygon>
                    <polygon id="Fill-118" fill-opacity="0.995246941" fill="#4DC67D" points="679.720548 370.433938 878.886027 370.433938 878.886027 363.833129 679.720548 363.833129"></polygon>
                    <polygon id="Fill-119" fill="#80D6A2" points="679.720548 382.352115 878.886027 382.352115 878.886027 375.751889 679.720548 375.751889"></polygon>
                    <polygon id="Fill-120" fill-opacity="0.995246941" fill="#4DC67D" points="679.720548 444.950522 878.886027 444.950522 878.886027 438.349712 679.720548 438.349712"></polygon>
                    <polygon id="Fill-121" fill="#80D6A2" points="679.720548 456.868116 878.886027 456.868116 878.886027 450.267306 679.720548 450.267306"></polygon>
                    <polygon id="Fill-122" fill="#CCEFDA" points="660.379555 363.833129 792.994692 363.833129 792.994692 337.201995 660.379555 337.201995"></polygon>
                    <polygon id="Fill-123" fill="#80D6A2" points="792.99411 438.349712 897.162774 438.349712 897.162774 393.38727 792.99411 393.38727"></polygon>
                    <polygon id="Fill-124" fill="#CCEFDA" points="660.379555 438.349712 792.994692 438.349712 792.994692 393.38727 660.379555 393.38727"></polygon>
                    <path d="M-5.82191783e-05,483.949154 L1019.64189,483.949154 L-5.82191783e-05,483.949154 Z" id="Fill-125" fill="#EDFAF2"></path>
                    <path d="M1019.6416,483.949387 L0.000232876713,483.949387" id="Stroke-126" stroke="#CCEFDA" stroke-width="14" stroke-linecap="round"></path>
                </g>
                <g id="Man" transform="translate(235.000000, 42.000000)">
                    <path d="M603.81389,545.892182 C603.81389,547.056391 468.693596,547.99965 302.013373,547.99965 C135.333732,547.99965 0.212856992,547.056391 0.212856992,545.892182 C0.212856992,544.728557 135.333732,543.784714 302.013373,543.784714 C468.693596,543.784714 603.81389,544.728557 603.81389,545.892182" id="Fill-128" fill="#AFB4C8"></path>
                    <path d="M589.170596,545.892182 L23.5500883,545.892182 C23.5442741,545.583203 23.53846,545.268978 23.53846,544.954169 C23.53846,528.262906 23.53846,507.644114 43.7299312,495.087918 C74.67414,475.844374 107.341089,506.926467 106.821302,468.539067 C106.281165,428.649914 88.4543192,220.280493 88.4543192,220.280493 L93.7434753,204.467778 C93.7434753,204.467778 135.109014,370.618463 145.728607,427.282829 C157.091251,487.912616 169.510913,425.711701 209.6578,423.874152 C247.554019,422.140374 265.205277,443.665697 272.441019,470.153918 C294.366278,463.696263 314.581587,460.288169 329.875778,475.077757 C350.718437,422.260467 385.066846,467.822003 381.08181,418.342267 C376.394421,360.151663 358.099534,180.816914 358.099534,180.816914 L365.877157,170.896948 C365.877157,170.896948 405.103079,336.158591 421.222882,409.422693 C432.64018,461.318293 461.993049,405.756923 512.467076,431.902352 C552.025568,452.392889 542.138561,500.11028 542.138561,500.11028 C542.138561,500.11028 585.432081,495.804982 589.170596,545.892182" id="Fill-130" fill="#B5BABD"></path>
                    <path d="M236.68337,518.493873 C236.68337,528.629541 233.641975,538.049894 228.422007,545.892124 L146.373515,545.892124 C141.641938,538.782115 138.697058,530.372647 138.192969,521.312575 C138.140641,520.37806 138.112152,519.440047 138.112152,518.493873 C138.112152,491.204056 160.177532,469.075349 187.397761,469.075349 C192.895646,469.075349 198.180151,469.977217 203.117549,471.643954 C222.629343,478.220537 236.68337,496.713205 236.68337,518.493873" id="Fill-132" fill="#D7DBDE"></path>
                    <path d="M395.272353,544.997776 C395.272353,545.293929 395.266539,545.595912 395.260725,545.892066 L320.064239,545.892066 C320.058425,545.595912 320.052611,545.293929 320.052611,544.997776 C320.052611,527.438457 332.028651,512.678019 348.238575,508.477657 C351.250899,507.702295 354.405671,507.286631 357.66161,507.286631 C359.537845,507.286631 361.385008,507.423631 363.186822,507.691219 C381.341006,510.370006 395.272353,526.053883 395.272353,544.997776" id="Fill-134" fill="#D7DBDE"></path>
                    <path d="M287.765793,544.731355 C287.765793,545.116121 287.758234,545.507883 287.751257,545.892066 L190.192287,545.892066 C190.184728,545.507883 190.177751,545.116121 190.177751,544.731355 C190.177751,521.951461 205.714393,502.801193 226.745431,497.352091 C230.653721,496.346453 234.746319,495.806614 238.971481,495.806614 C241.405295,495.806614 243.801317,495.98384 246.138616,496.331878 C269.691844,499.806431 287.765793,520.154721 287.765793,544.731355" id="Fill-136" fill="#D7DBDE"></path>
                    <path d="M149.471541,545.263673 C149.471541,545.471796 149.467471,545.684 149.463401,545.892124 L96.628237,545.892124 C96.624167,545.684 96.6200971,545.471796 96.6200971,545.263673 C96.6200971,532.926094 105.034373,522.554903 116.424344,519.603281 C118.540704,519.059362 120.75765,518.766707 123.045528,518.766707 C124.363602,518.766707 125.661326,518.862898 126.927654,519.0512 C139.683375,520.933639 149.471541,531.953103 149.471541,545.263673" id="Fill-138" fill="#D7DBDE"></path>
                    <path d="M75.2428828,545.587634 C75.2428828,545.689072 75.2411385,545.791677 75.2388128,545.891949 L49.6494603,545.891949 C49.6477161,545.791677 49.6459718,545.689072 49.6459718,545.587634 C49.6459718,539.612685 53.721128,534.58974 59.2376184,533.160277 C60.2626577,532.896187 61.3359546,532.754523 62.4441366,532.754523 C63.0825331,532.754523 63.7110456,532.801162 64.3244412,532.892689 C70.5020034,533.803885 75.2428828,539.141055 75.2428828,545.587634" id="Fill-140" fill="#BEC2C7"></path>
                    <path d="M554.67503,545.263673 C554.67503,545.471796 554.67096,545.684 554.66689,545.892124 L501.831145,545.892124 C501.827075,545.684 501.823587,545.471796 501.823587,545.263673 C501.823587,532.926094 510.237863,522.554903 521.627834,519.603281 C523.744194,519.059362 525.960558,518.766707 528.249018,518.766707 C529.56651,518.766707 530.864816,518.862898 532.131143,519.0512 C544.886283,520.933639 554.67503,531.953103 554.67503,545.263673" id="Fill-142" fill="#D7DBDE"></path>
                    <path d="M491.166492,520.201826 C491.166492,529.435626 488.99606,538.165732 485.138936,545.891949 L382.447211,545.891949 C378.581946,538.165732 376.411514,529.435626 376.411514,520.201826 C376.411514,488.428319 402.103778,462.666489 433.792783,462.666489 C440.670953,462.666489 447.271787,463.878502 453.378998,466.110728 C475.421703,474.132515 491.166492,495.324957 491.166492,520.201826" id="Fill-144" fill="#D7DBDE"></path>
                    <path d="M95.6103491,473.141684 C95.6103491,477.500616 92.0857955,481.03405 87.7385359,481.03405 C83.3912763,481.03405 79.8673041,477.500616 79.8673041,473.141684 C79.8673041,468.782169 83.3912763,465.249318 87.7385359,465.249318 C92.0857955,465.249318 95.6103491,468.782169 95.6103491,473.141684" id="Fill-146" fill="#D7DBDE"></path>
                    <path d="M11.1705443,519.540844 C11.1705443,522.050568 9.14139674,524.085163 6.63839387,524.085163 C4.135391,524.085163 2.10624349,522.050568 2.10624349,519.540844 C2.10624349,517.030538 4.135391,514.996525 6.63839387,514.996525 C9.14139674,514.996525 11.1705443,517.030538 11.1705443,519.540844" id="Fill-148" fill="#D7DBDE"></path>
                    <path d="M363.957026,426.921849 C363.957026,433.163219 358.910902,438.222891 352.686245,438.222891 C346.461588,438.222891 341.416046,433.163219 341.416046,426.921849 C341.416046,420.680478 346.461588,415.620806 352.686245,415.620806 C358.910902,415.620806 363.957026,420.680478 363.957026,426.921849" id="Fill-150" fill="#D7DBDE"></path>
                    <path d="M445.176591,416.697509 C445.176591,419.273109 443.093953,421.361339 440.52525,421.361339 C437.955965,421.361339 435.873909,419.273109 435.873909,416.697509 C435.873909,414.121326 437.955965,412.03368 440.52525,412.03368 C443.093953,412.03368 445.176591,414.121326 445.176591,416.697509" id="Fill-152" fill="#D7DBDE"></path>
                    <path d="M606.542134,501.363801 C606.542134,507.307852 601.736136,512.126754 595.808001,512.126754 C589.880449,512.126754 585.074451,507.307852 585.074451,501.363801 C585.074451,495.41975 589.880449,490.600848 595.808001,490.600848 C601.736136,490.600848 606.542134,495.41975 606.542134,501.363801" id="Fill-154" fill="#D7DBDE"></path>
                    <path d="M109.987993,224.100169 L76.1151836,228.649735 C76.1151836,228.649735 65.4798924,149.037578 61.7361443,121.010876 C58.5645112,97.2713991 73.5499691,80.3935821 73.5499691,80.3935821 C73.5499691,80.3935821 92.4367392,92.7218332 95.6083723,116.461893 C99.1875792,143.256178 109.987993,224.100169 109.987993,224.100169" id="Fill-156" fill="#5ECC62"></path>
                    <polygon id="Fill-158" fill="#00AD45" points="106.963633 201.463047 73.091405 206.012613 63.0038092 130.502877 96.8760372 125.953311"></polygon>
                    <polygon id="Fill-160" fill="#00AD45" points="108.052105 234.898393 80.8173405 238.556001 79.434148 228.204048 106.668912 224.545857"></polygon>
                    <polygon id="Fill-162" fill="#00AD45" points="60.3917324 235.518041 76.1150092 228.649386 73.4683962 208.835688 59.6178655 229.723232"></polygon>
                    <polygon id="Fill-164" fill="#00AD45" points="126.959806 226.577537 109.988226 224.099878 107.341031 204.286763 126.185939 220.782729"></polygon>
                    <polygon id="Fill-166" fill="#5ECC62" points="353.65448 162.37275 92.9351885 197.38995 84.9063925 137.287758 205.120301 43.83452 345.625102 102.270558"></polygon>
                    <path d="M287.177572,94.0017047 L297.321566,169.937015 L149.265312,189.823003 L139.121318,113.887692 C137.716614,103.37542 141.996429,92.9080366 150.356051,86.4089898 L205.121522,43.8358026 L269.126299,70.456943 C278.897023,74.5203047 285.772867,83.4894323 287.177572,94.0017047" id="Fill-168" fill="#00AD45"></path>
                    <path d="M380.701737,184.561794 L346.828927,189.11136 C346.828927,189.11136 336.193636,109.499203 332.449888,81.4730838 C329.278255,57.7330243 344.263713,40.8552072 344.263713,40.8552072 C344.263713,40.8552072 363.150483,53.1834583 366.322698,76.9235179 C369.901905,103.717803 380.701737,184.561794 380.701737,184.561794" id="Fill-170" fill="#5ECC62"></path>
                    <polygon id="Fill-172" fill="#00AD45" points="377.677668 161.924672 343.804858 166.474238 333.717844 90.9645021 367.590072 86.4155191"></polygon>
                    <polygon id="Fill-174" fill="#00AD45" points="378.766139 195.360018 351.530794 199.017626 350.147601 188.665673 377.382947 185.007482"></polygon>
                    <polygon id="Fill-176" fill="#00AD45" points="331.105825 195.979957 346.829102 189.111302 344.182489 169.297604 330.331377 190.185149"></polygon>
                    <polygon id="Fill-178" fill="#00AD45" points="397.67355 187.039163 380.701969 184.561503 378.054775 164.748388 396.899683 181.244354"></polygon>
                    <path d="M175.921217,333.059417 L185.654729,343.639898 C185.654729,343.639898 163.141657,364.379949 161.213677,380.161766 L209.657393,348.42149 L185.874505,315.523417 L175.921217,333.059417 Z" id="Fill-180" fill="#0B096F"></path>
                    <polygon id="Fill-182" fill="#EF3C86" points="187.903885 318.637515 198.874073 333.926132 185.654962 343.640306 175.921449 333.059243"></polygon>
                    <path d="M277.390511,381.317405 L287.729861,391.303831 C287.729861,391.303831 278.105655,424.416439 277.110849,440.28512 L310.809815,392.322877 L286.293759,363.222911 L277.390511,381.317405 Z" id="Fill-184" fill="#0B096F"></path>
                    <polygon id="Fill-186" fill="#EF3C86" points="288.502739 366.211202 299.191521 378.491649 287.730035 391.303772 277.390686 381.317347"></polygon>
                    <path d="M122.442482,208.151096 C122.442482,208.151096 177.545174,207.064423 180.779601,199.175555 C187.138565,183.663074 179.570833,132.098606 179.570833,132.098606 L147.170173,137.72027 L152.739573,184.525883 L115.27651,192.67476" id="Fill-188" fill="#FF77CA"></path>
                    <path d="M180.217137,186.466736 L172.221482,152.254629 L145.739072,157.263583 C145.739072,157.263583 145.192539,115.365485 151.981753,104.966893 C157.825,96.0181698 167.705611,84.3743357 192.574006,79.2773528 C229.550423,71.6980464 238.522278,75.5859315 250.903566,85.0663315 C261.601069,93.2571826 276.315005,118.768331 276.315005,118.768331 L248.601152,133.950846 L257.923603,166.054902 L180.217137,186.466736 Z" id="Fill-190" fill="#FFC100"></path>
                    <polyline id="Stroke-192" stroke="#0B096F" stroke-width="6.3" points="196.13234 3.22667064 197.799264 14.5487004 202.429674 15.1171047 207.274046 5.10386213"></polyline>
                    <path d="M142.307487,32.1899864 C142.307487,32.1899864 132.207682,55.8157821 154.074217,55.8128672 L142.307487,32.1899864 Z" id="Fill-194" fill="#0B096F"></path>
                    <path d="M185.688917,89.8462323 L182.083546,75.9486026 C182.083546,75.9486026 162.613032,82.5834834 157.498302,81.3848791 C157.498302,81.3848791 148.682848,61.0902238 148.130501,45.2442791 L161.811839,24.6120791 L191.030982,19.3985004 L200.902872,44.5960068 C201.27556,39.7730238 213.523123,30.7164494 219.334392,39.8371515 C226.828283,51.5975813 205.330367,63.9928749 205.330367,63.9928749 L210.857904,82.1445004" id="Fill-196" fill="#FF77CA"></path>
                    <path d="M185.688393,80.7941468 L179.324196,83.1085723 C179.324196,83.1085723 175.850807,102.379517 195.0998,98.3814489 C210.654466,95.1505809 213.274915,75.9163638 213.274915,75.9163638 L204.6804,76.8916872" id="Fill-198" fill="#FF77CA"></path>
                    <path d="M210.699817,36.1333711 C210.699817,36.1333711 223.179365,26.8943243 202.678579,14.2104562 C182.177794,1.52600511 169.940116,13.9551115 169.940116,13.9551115 C169.940116,13.9551115 161.504327,-2.15142468 150.230639,0.782707234 C134.17014,4.9620817 138.020869,30.5058774 138.020869,30.5058774 C138.020869,30.5058774 126.473334,19.0299413 122.35806,22.1442136 C118.242205,25.258486 129.553103,70.2860136 187.951852,32.0076306 C187.951852,32.0076306 185.605832,45.8224774 200.90293,44.5964732 C200.90293,44.5964732 202.11286,38.6471753 210.699817,36.1333711" id="Fill-200" fill="#0B096F"></path>
                    <path d="M223.563158,75.2754953 C223.563158,75.2754953 225.388228,74.1555932 235.858397,76.8611974 C235.858397,76.8611974 227.830764,106.014797 251.445622,160.066836 L247.52396,163.773997 C247.52396,163.773997 218.095507,126.702963 223.563158,75.2754953" id="Fill-202" fill="#1E202D"></path>
                    <path d="M160.715809,94.3637928 C160.715809,94.3637928 167.420135,87.4543289 171.797629,86.4784226 C171.797629,86.4784226 161.205944,110.080316 176.048954,168.63295 L179.356639,182.78301 C179.356639,182.78301 154.020203,144.759971 160.715809,94.3637928" id="Fill-204" fill="#1E202D"></path>
                    <path d="M169.446143,72.3199098 C170.118843,74.4664374 175.279506,75.1724247 178.278458,72.918046 C184.920573,67.9254162 182.880379,61.3150204 178.793594,61.4228715 C173.695143,61.5575396 174.902748,66.2371098 172.532308,67.8169821 C169.819413,69.6242162 168.954264,70.7505311 169.446143,72.3199098" id="Fill-206" fill="#FFFFFF"></path>
                    <polygon id="Fill-208" fill="#EF3C86" points="182.116687 76.0287038 197.320176 68.7455506 183.846986 82.5487379"></polygon>
                    <polygon id="Fill-210" fill="#0B096F" points="163.566964 56.3067668 161.713405 69.6260817 167.628748 68.194286"></polygon>
                    <path d="M168.330752,56.1749553 C168.635414,58.3535468 170.180822,59.9375 171.782628,59.7118872 C173.385015,59.4868574 174.436218,57.5379596 174.132137,55.3593681 C173.827474,53.1807766 172.281484,51.5968234 170.679679,51.8224362 C169.077873,52.047466 168.026089,53.9963638 168.330752,56.1749553" id="Fill-212" fill="#0B096F"></path>
                    <path d="M154.190442,59.312197 C154.495105,61.4907885 156.040513,63.0747417 157.642319,62.8491289 C159.244706,62.6240991 160.29649,60.6752013 159.991827,58.4966098 C159.687165,56.3180183 158.141175,54.7340651 156.539951,54.9596779 C154.937564,55.1847077 153.88578,57.1336055 154.190442,59.312197" id="Fill-214" fill="#0B096F"></path>
                    <path d="M180.217137,186.466736 C180.217137,186.466736 109.532452,224.200617 102.21473,245.301531 C94.3429169,267.999808 173.625606,342.703868 173.625606,342.703868 L198.116079,324.945753 L153.287036,254.449634 L237.028616,208.151212 L219.033741,176.270438 L180.217137,186.466736 Z" id="Fill-216" fill="#2B2B3B"></path>
                    <path d="M213.238402,177.792654 C213.238402,177.792654 208.077158,281.565781 213.238402,302.852083 C216.005369,314.264475 279.039761,393.7373 279.039761,393.7373 L299.314956,369.102369 L256.05167,287.066769 L261.389084,164.3719 L213.238402,177.792654 Z" id="Fill-218" fill="#2B2B3B"></path>
                    <path d="M228.490963,174.836485 C228.490963,174.836485 279.903398,183.154426 286.901922,176.523626 C298.108166,165.905834 272.441484,120.890549 272.441484,120.890549 L247.435294,134.630774 L257.271136,155.302034 L226.908926,155.557379" id="Fill-220" fill="#FF77CA"></path>
                    <path d="M99.2925251,179.170932 L125.64993,214.329213" id="Stroke-222" stroke="#1C2127" stroke-width="14"></path>
                    <path d="M220.570311,182.941813 L211.267629,138.9584" id="Stroke-224" stroke="#1C2127" stroke-width="12.6"></path>
                    <path d="M115.88194,198.219645 C121.186213,203.64776 123.091518,210.747275 120.137335,214.076666 C117.183152,217.406641 110.48871,215.704926 105.184437,210.276811 C99.8801639,204.848696 97.9748583,197.749181 100.929041,194.41979 C103.883224,191.090398 110.577667,192.79153 115.88194,198.219645" id="Fill-226" fill="#FF77CA"></path>
                    <path d="M114.893414,193.734906 C114.624217,198.164379 109.904269,198.444209 109.904269,198.444209 L109.200754,187.324472 L123.844919,190.810685 L123.023376,198.444209 L114.893414,193.734906 Z" id="Fill-228" fill="#FF77CA"></path>
                    <path d="M231.245604,157.751011 C231.245604,157.751011 217.068898,148.124866 213.609463,148.391871 C209.446513,148.713092 203.372443,151.776062 201.186894,153.403739 C199.001927,155.031415 200.739784,159.28133 202.09565,160.210598 C202.09565,160.210598 199.535668,163.8513 202.811375,167.551466 C202.811375,167.551466 202.582296,171.231228 206.023126,173.171381 C206.023126,173.171381 206.809784,176.961326 210.848311,177.093662 C214.886838,177.225998 224.31685,175.502713 231.688644,174.107062" id="Fill-230" fill="#FF77CA"></path>
                    <path d="M99.2925251,179.170932 L167.352109,89.1345319" id="Stroke-232" stroke="#1C2127" stroke-width="3.5"></path>
                    <path d="M229.187385,75.6472609 L211.267513,138.958167" id="Stroke-234" stroke="#1C2127" stroke-width="3.5"></path>
                    <polygon id="Fill-236" fill="#151B21" points="211.564268 222.040097 212.17185 210.243523 181.306714 238.664902"></polygon>
                    <polygon id="Fill-238" fill="#EF3C86" points="247.435061 134.630891 272.441833 120.890666 251.445099 143.059014"></polygon>
                    <polygon id="Fill-240" fill="#EF3C86" points="149.413108 156.568847 150.51722 165.849285 168.151035 159.233643 166.175378 153.398026"></polygon>
                </g>
            </g>
        </g>
    </g>
</svg>