<svg height="52" viewBox="0 0 82 52" width="82" xmlns="http://www.w3.org/2000/svg"><g fill="none" fill-rule="evenodd" transform="translate(1 1)"><path d="m70.850554 49.7893346h-61.74460095c-1.45971831 0-2.64319249-1.1963878-2.64319249-2.6722433v-44.44467685c0-1.47604563 1.18347418-2.67243346 2.64319249-2.67243346h61.74460095c1.4597183 0 2.6430047 1.19638783 2.6430047 2.67243346v44.44467685c0 1.4758555-1.1832864 2.6722433-2.6430047 2.6722433" fill="#fff"/><path d="m70.850554 49.7893346h-61.74460095c-1.45971831 0-2.64319249-1.1963878-2.64319249-2.6722433v-44.44467685c0-1.47604563 1.18347418-2.67243346 2.64319249-2.67243346h61.74460095c1.4597183 0 2.6430047 1.19638783 2.6430047 2.67243346v44.44467685c0 1.4758555-1.1832864 2.6722433-2.6430047 2.6722433" fill="#e6f5f9"/><path d="m61.8940657 43.4418631h-53.15586852c-1.25652582 0-2.27549295-.9659696-2.27549295-2.1574144v-35.87984794c0-1.19144487 1.01896713-2.15722433 2.27549295-2.15722433h53.15586852c1.2565258 0 2.275493.96577946 2.275493 2.15722433v35.87984794c0 1.1914448-1.0189672 2.1574144-2.275493 2.1574144" fill="#fff"/><path d="m70.850554 49.7893346h-61.74460095c-1.45971831 0-2.64319249-1.1963878-2.64319249-2.6722433v-44.44467685c0-1.47604563 1.18347418-2.67243346 2.64319249-2.67243346h61.74460095c1.4597183 0 2.6430047 1.19638783 2.6430047 2.67243346v44.44467685c0 1.4758555-1.1832864 2.6722433-2.6430047 2.6722433z" stroke="#2b3554" stroke-width=".75"/><path d="m73.493784 13.2593916v-10.58707221c0-1.47585551-1.1834741-2.67224334-2.6433802-2.67224334h-61.74441319c-1.4599061 0-2.64319249 1.19638783-2.64319249 2.67224334v10.58707221z" fill="#5ecc62"/><path d="m73.493784 13.2593916v-10.58707221c0-1.47585551-1.1834741-2.67224334-2.6433802-2.67224334h-61.74441319c-1.4599061 0-2.64319249 1.19638783-2.64319249 2.67224334v10.58707221z" stroke="#2b3554" stroke-width=".75"/><path d="m73.5126761 4.72756654v-2.05532319c0-1.47585552-1.1817841-2.67224335-2.6396245-2.67224335h-61.77070418c-1.45784038 0-2.63962442 1.19638783-2.63962442 2.67224335v2.05532319z" fill="#ff6161"/><path d="m73.5126761 4.72756654v-2.05532319c0-1.47585552-1.1817841-2.67224335-2.6396245-2.67224335h-61.77070418c-1.45784038 0-2.63962442 1.19638783-2.63962442 2.67224335v2.05532319z" stroke="#2b3554" stroke-linecap="round" stroke-linejoin="round" stroke-width=".75"/><path d="m29.4393615 2.31446768h26.531831" stroke="#2b3554" stroke-linecap="round" stroke-linejoin="round" stroke-width=".75"/><path d="m68.0653897 2.31446768h.9949295" stroke="#2b3554" stroke-linecap="round" stroke-linejoin="round" stroke-width=".75"/><path d="m65.6163756 2.31446768h.9947418" stroke="#2b3554" stroke-linecap="round" stroke-linejoin="round" stroke-width=".75"/><path d="m62.8799812 2.31446768h1.2146479" stroke="#2b3554" stroke-linecap="round" stroke-linejoin="round" stroke-width=".75"/><path d="m10.4250892 2.32467681c0 .47072243-.3844131.85209125-.85859155.85209125-.47436619 0-.85896713-.38136882-.85896713-.85209125 0-.47072244.38460094-.85209126.85896713-.85209126.47417845 0 .85859155.38136882.85859155.85209126" fill="#3f4853"/><path d="m13.0815211 2.32467681c0 .47072243-.3844131.85209125-.8585915.85209125-.4743662 0-.8587794-.38136882-.8587794-.85209125 0-.47072244.3844132-.85209126.8587794-.85209126.4741784 0 .8585915.38136882.8585915.85209126" fill="#3f4853"/><path d="m15.6794554 2.32467681c0 .47072243-.3844131.85209125-.8585916.85209125-.4743661 0-.8587793-.38136882-.8587793-.85209125 0-.47072244.3844132-.85209126.8587793-.85209126.4741785 0 .8585916.38136882.8585916.85209126" fill="#3f4853"/><path d="m16.9540282 26.5030608c-.5447888 0-.9866667-.4471483-.9866667-.9986692v-7.5986692c0-.5458175.4369953-.9882129.9761502-.9882129h8.3613146c.5391549 0 .9761502.4423954.9761502.9882129v7.5986692c0 .5515209-.4418779.9986692-.9866666.9986692z" fill="#efefef"/><path d="m24.7910986 25.4539924h-8.4600939c-.2007512 0-.3635681-.1648289-.3635681-.3680608v-7.688213c0-.2032319.1628169-.3682509.3635681-.3682509h8.4600939c.2007512 0 .3637559.165019.3637559.3682509v7.688213c0 .2032319-.1630047.3680608-.3637559.3680608" fill="#00ad45"/><path d="m24.7910986 25.4539924h-8.4600939c-.2007512 0-.3635681-.1648289-.3635681-.3680608v-7.688213c0-.2032319.1628169-.3682509.3635681-.3682509h8.4600939c.2007512 0 .3637559.165019.3637559.3682509v7.688213c0 .2032319-.1630047.3680608-.3637559.3680608z" stroke="#2b3554" stroke-linecap="round" stroke-linejoin="round" stroke-width=".75"/><path d="m62.3681315 31.4281939h-13.0375587c-.9949296 0-1.8013146-.8515209-1.8013146-1.9020912v-.0384031c0-1.0505703.806385-1.9020912 1.8013146-1.9020912h13.0375587c.9949295 0 1.8015023.8515209 1.8015023 1.9020912v.0384031c0 1.0505703-.8065728 1.9020912-1.8015023 1.9020912" fill="#efefef"/><path d="m61.3543474 30.2608745h-12.3239436c-.8974648 0-1.6251644-.768441-1.6251644-1.7161597v-.0346007c0-.9477187.7276996-1.7161597 1.6251644-1.7161597h12.3239436c.8976526 0 1.6251643.768441 1.6251643 1.7161597v.0346007c0 .9477187-.7275117 1.7161597-1.6251643 1.7161597" fill="#5ecc62"/><path d="m61.3543474 30.2608745h-12.3239436c-.8974648 0-1.6251644-.768441-1.6251644-1.7161597v-.0346007c0-.9477187.7276996-1.7161597 1.6251644-1.7161597h12.3239436c.8976526 0 1.6251643.768441 1.6251643 1.7161597v.0346007c0 .9477187-.7275117 1.7161597-1.6251643 1.7161597z" stroke="#2b3554" stroke-width=".75"/><path d="m62.3681315 47.9432319h-13.0375587c-.9949296 0-1.8013146-.8515209-1.8013146-1.9020912v-.0385932c0-1.0503802.806385-1.9019011 1.8013146-1.9019011h13.0375587c.9949295 0 1.8015023.8515209 1.8015023 1.9019011v.0385932c0 1.0505703-.8065728 1.9020912-1.8015023 1.9020912" fill="#efefef"/><path d="m61.3543474 46.7758175h-12.3239436c-.8974648 0-1.6251644-.768251-1.6251644-1.7159696v-.0347909c0-.9477186.7276996-1.7159695 1.6251644-1.7159695h12.3239436c.8976526 0 1.6251643.7682509 1.6251643 1.7159695v.0347909c0 .9477186-.7275117 1.7159696-1.6251643 1.7159696" fill="#5ecc62"/><path d="m61.3543474 46.7758175h-12.3239436c-.8974648 0-1.6251644-.768251-1.6251644-1.7159696v-.0347909c0-.9477186.7276996-1.7159695 1.6251644-1.7159695h12.3239436c.8976526 0 1.6251643.7682509 1.6251643 1.7159695v.0347909c0 .9477186-.7275117 1.7159696-1.6251643 1.7159696z" stroke="#2b3554" stroke-width=".75"/><path d="m19.4826479 1.42787072-1.1562441.92737643 1.1562441.84581749" stroke="#2b3554" stroke-linecap="round" stroke-linejoin="round" stroke-width=".75"/><path d="m21.0288263 1.42787072 1.1562441.92737643-1.1562441.84581749" stroke="#2b3554" stroke-linecap="round" stroke-linejoin="round" stroke-width=".75"/><path d="m31.0807136 17.5725095c3.6099531.013308 26.2067606.0228137 32.4841315-.0087452" stroke="#2b3554" stroke-linecap="round" stroke-linejoin="round" stroke-width=".75"/><path d="m31.0864038 19.650038h22.7804694" stroke="#2b3554" stroke-linecap="round" stroke-linejoin="round" stroke-width=".75"/><path d="m31.164169 21.8524905h27.913615" stroke="#2b3554" stroke-linecap="round" stroke-linejoin="round" stroke-width=".75"/><path d="m31.0807136 23.9345627c4.943662.0180609 4.5357747.0159696 9.4796244-.0087452" stroke="#2b3554" stroke-linecap="round" stroke-linejoin="round" stroke-width=".75"/><path d="m16.9540282 43.2845247c-.5447888 0-.9866667-.4471483-.9866667-.9986692v-7.5986692c0-.5458175.4369953-.9882129.9761502-.9882129h8.3613146c.5391549 0 .9761502.4423954.9761502.9882129v7.5986692c0 .5515209-.4418779.9986692-.9866666.9986692z" fill="#efefef"/><path d="m24.7910986 42.2354563h-8.4600939c-.2007512 0-.3635681-.1648289-.3635681-.368251v-7.6880228c0-.203422.1628169-.3682509.3635681-.3682509h8.4600939c.2007512 0 .3637559.1648289.3637559.3682509v7.6880228c0 .2034221-.1630047.368251-.3637559.368251" fill="#00ad45"/><g stroke="#2b3554" stroke-width=".75"><path d="m24.7910986 42.2354563h-8.4600939c-.2007512 0-.3635681-.1648289-.3635681-.368251v-7.6880228c0-.203422.1628169-.3682509.3635681-.3682509h8.4600939c.2007512 0 .3637559.1648289.3637559.3682509v7.6880228c0 .2034221-.1630047.368251-.3637559.368251z" stroke-linecap="round" stroke-linejoin="round"/><path d="m31.0807136 34.3956654c3.6099531.013308 26.2067606.0228137 32.4841315-.0087452" stroke-linecap="round" stroke-linejoin="round"/><path d="m31.0864038 36.4731749h29.1785915" stroke-linecap="round" stroke-linejoin="round"/><path d="m31.164169 38.6756464h24.6978404" stroke-linecap="round" stroke-linejoin="round"/><path d="m31.0807136 40.7576996c4.943662.0180609 22.4319249.0159696 27.3755869-.0087452" stroke-linecap="round" stroke-linejoin="round"/><path d="m11.26723 7.03028517h9.1874179" stroke-linecap="round" stroke-linejoin="round"/><path d="m63.9267793 7.03028517h4.5936151" stroke-linecap="round" stroke-linejoin="round"/><path d="m51.441446 7.03028517h4.593615" stroke-linecap="round" stroke-linejoin="round"/><path d="m58.3274554 7.03028517h3.5322066" stroke-linecap="round" stroke-linejoin="round"/><path d="m-.00001878 49.7893346h79.97539908" stroke-linecap="round" stroke-linejoin="round"/></g></g></svg>