<svg height="288" viewBox="0 0 434 288" width="434" xmlns="http://www.w3.org/2000/svg" xmlns:xlink="http://www.w3.org/1999/xlink"><defs><path id="a" d="m354.019119 216.086877c82.54839-44.18866 106.22095-183.5479783 15.117003-210.82502123-91.105817-27.07621407-113.528642 57.89492893-154.685613 57.88041353-41.454766.0145154-56.726607-43.7111209-111.443953-43.8487981-54.8735179.1376772-120.5266476 42.6869981-98.78785746 134.7035078 21.89048666 91.920352 267.11241846 106.578048 349.80042046 62.089898z"/><linearGradient id="b" x1="50%" x2="50%" y1="0%" y2="100%"><stop offset="0" stop-color="#a7a7ee" stop-opacity="0"/><stop offset="1" stop-color="#403f9f" stop-opacity=".3"/></linearGradient><path id="c" d="m31.5365006 95.4171726h33.5388181v59.4483954h-33.5388181z"/><linearGradient id="d" x1="50%" x2="50%" y1="0%" y2="100%"><stop offset="0" stop-color="#403f9f" stop-opacity="0"/><stop offset="1" stop-opacity=".2"/></linearGradient><path id="e" d="m77.5753187 52.4544666h56.5944383c6.903559 0 12.5 5.5964406 12.5 12.5v30.462706h-81.5944383v-30.462706c0-6.9035594 5.5964406-12.5 12.5-12.5z"/><path id="f" d="m42.298957 113.901127h35.791425v41.214224h-35.791425z"/><path id="g" d="m31.6616454 95.4171726c6.0130562 0 10.8876014 4.8745454 10.8876014 10.8876014v48.560794h-19.2752028c-1.3807118 0-2.5-1.119288-2.5-2.5v-46.060794c0-6.013056 4.8745452-10.8876014 10.8876014-10.8876014z"/><linearGradient id="h" x1="50%" x2="50%" y1="0%" y2="100%"><stop offset="0" stop-color="#403f9f" stop-opacity="0"/><stop offset="1" stop-opacity=".1"/></linearGradient><path id="i" d="m27.7821553 161.110147c-4.5569712-1.889047-.5626633-8.292423 4.004635-8.992194 4.5999318-.76807 7.5886213-1.596603 7.5086906-4.74588.0799307-3.104496 8.6354836-.678611 8.760139.749349-.1246554 1.551007 1.8452747 6.830107 0 7.743279-2.0945856.866651-15.6699288 6.96919-20.2734646 5.245446z"/><path id="j" d="m56.3151796 147.372073c1.178714.507322 2.7255194.762347 4.7555041.749349 1.4850909.012998 2.7570325-.143244 3.7543453-.499566.0813191 2.221997.4559863 3.826855 3.0034762 6.494363 3.2184709 3.167861 2.7309751 11.707577-3.0034762 12.988725-5.6389373.880435-9.5824259-9.820864-9.0104288-13.987858.6521541-2.465644.6596444-4.336185.5005794-5.745013z"/><linearGradient id="k" x1="77.330835%" x2="-8.654086%" y1="23.235004%" y2="45.932972%"><stop offset="0" stop-opacity=".5"/><stop offset="1" stop-color="#1f1845"/></linearGradient><path id="l" d="m74.2342823 98.4266026c-11.0343315 0-43.0739328-.6058546-47.0965751 6.7807914-4.0226424 7.386646 7.4169403 40.76098 7.4169403 42.28105 0 1.520069 13.1413047 1.070417 15.3956605 1.070417s-6.8768407-30.573033-5.6765662-32.309592 38.8159406 1.010902 41.6401708-4.275893c2.8242301-5.286794-.6452989-13.5467734-11.6796303-13.5467734z"/><linearGradient id="m" x1="50%" x2="50%" y1="0%" y2="100%"><stop offset="0" stop-color="#c74d75" stop-opacity="0"/><stop offset="1" stop-color="#af3b6e" stop-opacity=".05"/></linearGradient><linearGradient id="n" x1="100%" x2="50%" y1="74.959366%" y2="25.040635%"><stop offset="0" stop-opacity=".5"/><stop offset="1" stop-color="#ff6663" stop-opacity="0"/></linearGradient><path id="o" d="m73.1426955 92.0398716c.3434626-.7944553.9480715-4.9447591 2.075682-10.3607736 1.7173323 1.0527934 3.6396642 1.7841067 5.7669959 2.19394.0362101.0069759.0723718.0139121.1084852.0208085-.1974949 2.8831106-.322955 6.0391943-.3763803 9.4682509-2.1912289.4310943-4.1192405.898291-4.963309 1.3405432-.6669721.349462-3.0296126 2.3230391-3.9454317 3.7524637l-1.434073-5.8862254c1.5870223-.118847 2.6518918-.2603689 2.7680309-.5290073z"/><path id="p" d="m124.894554 95.4171726v-32.0971379c0-6.0008876 4.874545-10.8655681 10.887601-10.8655681s10.887602 4.8646805 10.887602 10.8655681v32.0971379z"/><path id="q" d="m68.5793743 0v56.9483955c0 1.3807119-1.1192881 2.5-2.5 2.5h-55.1066744v-59.4483955z"/><path id="r" d="m10.8480101 0c5.9911906 0 10.8480101 4.85681956 10.8480101 10.8480101v48.6003854h-21.6960202v-48.6003854c0-5.99119054 4.85681956-10.8480101 10.8480101-10.8480101z"/><path id="s" d="m80.4371205 99.4078977h-8.6151243l-.2391457-.9793221c.9207928-1.4338734 3.2962643-3.4135928 3.9668586-3.7641425 2.4601007-1.2860046 14.0782883-2.7822762 14.7534832-2.9971116 6.7932596-.7105278 9.9124587-1.3585443 23.7556087-1.9980744.001644-3.6539231-7.727626-30.460946-3.500827-30.4706348 4.105127.0096888 14.767109.0379259 16.003779 12.4879651 1.236669 12.4500392 3.843517 28.2606356-5.001181 27.9730418-5.386392.0895366-20.207153-3.2931382-28.0403975-4.2478703h-4.5294908c-3.5156427 0-6.5583377 1.5571291-8.5535632 3.9961488z"/><linearGradient id="t" x1="50%" x2="50%" y1="0%" y2="100%"><stop offset="0" stop-color="#c74d75" stop-opacity="0"/><stop offset="1" stop-color="#af3b6e" stop-opacity=".1"/></linearGradient><path id="u" d="m1.00115875 0h16.01853995l-1.0011587 19.4830876c-.0968873 4.4756015-3.8083339 7.9930616-8.2595597 7.9930616-4.3110272 0-7.7589803-3.4196463-7.7589803-7.7432784 0-.0103678.00264852-.1260054 0-.2497832z"/><linearGradient id="v"><stop offset="0" stop-opacity=".1"/><stop offset="1" stop-color="#ff6663" stop-opacity="0"/></linearGradient><linearGradient id="w" x1="4.007917%" x2="95.992083%" xlink:href="#v" y1="84.059659%" y2="0%"/><linearGradient id="x" x1="50%" x2="50%" y1="0%" y2="100%"><stop offset="0" stop-color="#1f1845" stop-opacity="0"/><stop offset="1" stop-opacity=".2"/></linearGradient><path id="y" d="m33.5703619 45.7498611.2935747-5.7167388-.2489995-4.2597649c-2.5245578-1.4002395-4.2329921-4.0900194-4.2329921-7.17827 0-.6889651.0850291-1.3580983.2451797-1.9975056-.1225367.0055017-.2457829.0082821-.3696794.0082821-4.1674448 0-7.5991286-3.1457822-8.0437418-7.1891706-1.2519418.6226525-2.6636354.9728473-4.1572354.9728473-2.2200622 0-4.2591657-.7736978-5.8616726-2.0658111-.7046724.3666392-1.50575505.5738935-2.35531204.5738935-1.13861401 0-2.19015581-.3722816-3.03922315-1.001603-1.25430637 1.7668145-2.14244833 3.8111131-2.55400199 6.0226251-1.98625813-1.6875365-3.24625832-4.2019515-3.24625832-7.0102456 0-4.7823866 3.65405252-8.71251152 8.32620347-9.15808979 1.3384155-3.51328889 4.74239503-6.00973917 8.73026463-6.00973917 1.6655618 0 3.2292714.43547432 4.5831813 1.19862584 2.0119826-1.82617045 4.6847275-2.93919638 7.6177959-2.93919638 6.0168091 0 10.9381458 4.68374648 11.3072572 10.5992984 4.4041205.8080501 7.7412071 4.6613265 7.7412071 9.2929363 0 2.5970142-1.0491853 4.9493191-2.7473688 6.6572848.1680249.6539117.2573735 1.3393201.2573735 2.0455679 0 2.7240354-1.3292256 5.1380456-3.3753016 6.630508.0908878.5113234.1383076 1.037651.1383076 1.5750388 0 4.8755996-4.1455577 8.8407852-9.0085584 8.9492269z"/><linearGradient id="z"><stop offset="0" stop-opacity=".2"/><stop offset="1" stop-color="#ff6663" stop-opacity="0"/></linearGradient><linearGradient id="A" x1="100%" x2="0%" xlink:href="#z" y1=".1391%" y2="99.8609%"/><linearGradient id="B" x1="64.01621%" x2="0%" xlink:href="#v" y1="43.055589%" y2="62.843757%"/><path id="C" d="m109.877173 2.74761492c-12.4099752 2.87103874-25.9987802 13.62687338-18.7717269 44.46140498 4.8517598 20.4494175 25.4589439 38.8501113 61.8215529 55.2020811l-16.26883-85.9254115c-9.415774-11.15285693-18.342773-15.73221512-26.780996-13.73807458z"/><linearGradient id="D" x1="50%" x2="50%" y1="0%" y2="100%"><stop offset="0" stop-color="#a7a7ee" stop-opacity="0"/><stop offset="1" stop-color="#4c55a0" stop-opacity=".2"/></linearGradient><path id="E" d="m24.5420726 87.7002851c6.729715-3.5794399 1.0612518 15.3492349 7.003242 25.2524169 3.9613267 6.602121 7.0078838 12.130596 9.1396711 16.585425l-7.644074 13.240353c-2.0775261-12.56425-4.8322017-19.167881-8.2640268-19.810892-5.1477377-.964518-8.1940684-5.32304-5.9947171-12.406282 2.1993513-7.083241-.9698103-19.281581 5.7599048-22.8610209z"/><path id="F" d="m153.804875 113.964912c-4.212044 13.026706-24.831493 9.622759-38.364309 9.622759-4.19846 0-29.2699286-28.5245701-30.8420208-28.5245701-1.0480616 0-14.906505 7.8224931-41.5753303 23.4674791-4.170179.074349-7.5666101-1.44754-10.1892933-4.565668-2.6226831-3.118128-3.4806481-6.205471-2.573895-9.262028 28.9485002-23.3422523 47.0613397-35.0133784 54.3385186-35.0133784 10.9157682 0 38.6279668 28.8585058 43.9073548 28.8585058 13.973102 0 29.51102 2.3901946 25.298975 15.4169006z"/><linearGradient id="G" x1="54.174055%" x2="31.995015%" y1="63.581767%" y2="50%"><stop offset="0" stop-color="#464d89" stop-opacity=".6"/><stop offset="1" stop-color="#a7a7ee" stop-opacity="0"/></linearGradient><path id="H" d="m124.073148 60.4597571c-7.098588 0-9.029519 33.6416727-9.029519 35.9950824s9.326708 4.6149595 10.432348 3.4351098c1.105639-1.1798501 9.77632-16.7916082 10.611701-23.6712366.835381-6.8796283-4.915942-15.7589556-12.01453-15.7589556z"/><linearGradient id="I" x1="50%" x2="50%" y1="0%" y2="100%"><stop offset="0" stop-color="#ffc62c" stop-opacity="0"/><stop offset="1" stop-color="#ff6663" stop-opacity=".1"/></linearGradient><path id="J" d="m88.2831886 107.99894c-4.6334419 1.846537-8.9411153 3.869059-10.1676146 5.105556-1.2264994 1.236496-1.7297839 3.882256-1.7297839 6.255236 0 2.372979-.1281355 6.691534 4.5384025 5.756445 4.6665379-.935088 12.2714828-9.435592 12.2714828-12.011681 0-2.57609-.2790449-6.952092-4.9124868-5.105556z"/><path id="K" d="m.81047218 12.7717833c0-26.8050493 36.09839302-9.20889436 38.10859822 37.9342011 1.8962449 47.3197927-47.10663783 12.962414-33.28852835 4.246314 7.22398325-4.6172039 4.17933871-17.1586241-1.20966114-22.3771393-6.61845254-6.4090733-3.61040873-7.5447403-3.61040873-19.8033758z"/><linearGradient id="L" x1="21.110376%" x2="78.889624%" y1="0%" y2="100%"><stop offset="0" stop-color="#464d89" stop-opacity=".3"/><stop offset="1" stop-color="#a7a7ee" stop-opacity="0"/></linearGradient><path id="M" d="m.21736773 8.85985179 13.55254467-8.81324626 4.6610643 7.94856121c2.4407131 4.16217336 1.9000452 9.42239956-1.3365432 13.00339566-2.2711769 2.5128545-6.1535315 2.7124989-8.67148158.4459181-.41916446-.3773188-.78418668-.8105234-1.08475131-1.2873716z"/><linearGradient id="N" x1="61.615436%" x2="8.564278%" xlink:href="#v" y1="22.96581%" y2="100%"/><path id="O" d="m140.850248 54.9292333c-8.236312 0-15.328718 29.1021163-15.328718 32.0618295 0 1.9731422-13.709722 9.5194792-41.1291657 22.6390112 1.6743749.362683 3.0267509 1.637548 4.057128 3.824596 1.030377 2.187048 2.2140436 3.382198 3.5509995 3.585451 30.8536492-10.618597 47.1369012-17.004928 48.8497562-19.1589936 2.569283-3.2310984 9.871852-13.5886234 10.140278-26.3412852.268425-12.7526618-1.903966-16.6106089-10.140278-16.6106089z"/><path id="P" d="m132.152955 41.4640069c-5.037163 12.0011692-4.906499 27.5042629 1.501738 41.9635733 6.492478 14.4975735 42.667408 30.5105848 31.78679-3.4969644-11.252172-34.1345676-7.261095-46.0510643-16.01854-61.9462272-8.775725-15.70770745-23.138389-22.49679178-43.049826-14.23764099-19.5326389 8.31658079 30.536974 25.73006299 25.779838 37.71725929z"/><path id="Q" d="m104.621089 21.481353c.417527 0 11.587634 6.8689808 26.530707 7.7432784 1.589076-1.2207384 5.478454-1.2207384 5.756663 3.9965308.210895 3.7031155-1.058067 7.6325507-4.254925 7.9930616-2.030174 6.9625064-5.247979 12.6430741-13.765933 13.9878577-8.517953 1.3447836-13.906487-4.4851595-15.76825-8.2428447-2.324525-3.7046469-4.4118398-18.4532834-4.2549246-19.982654 2.5002286-1.2094559 5.1839366-5.4952298 5.7566626-5.4952298z"/><linearGradient id="R" x1="100%" x2="0%" xlink:href="#z" y1=".202166%" y2="99.797834%"/><path id="S" d="m60.2798276 193.910269c-5.0994487-7.572792 16.5374835-14.711093 17.1502498-22.172769.4085109-4.974451.983301-7.802537 1.7243703-8.484257l9.4435029-1.124816c.0177331 6.664106.7736757 11.60039 2.2678276 14.808851 2.2412279 4.812691-.7750337 10.042539-8.4794176 10.440485-7.7043839.397947-17.0070843 14.105298-22.106533 6.532506z"/><path id="T" d="m136.912815 134.632733c-8.024125 0-25.474972 0-30.569608 0 0 0-4.975748 11.161045-14.9272462 33.483134-1.5577591 1.793917-4.1452782 2.690876-7.7625575 2.690876-3.6172792 0-5.8921864-.896959-6.8247215-2.690876 2.1656411-37.42554 8.4236187-57.273768 18.7739328-59.544684 23.9007264-5.243951 44.7973254-6.373532 62.6897984-3.388744 1.385721 19.63353-5.740812 29.450294-21.379598 29.450294z"/><mask id="U" fill="#fff"><use fill="#fff" fill-rule="evenodd" xlink:href="#a"/></mask><mask id="V" fill="#fff"><use fill="#fff" fill-rule="evenodd" xlink:href="#K"/></mask></defs><g fill="none" fill-rule="evenodd" transform="translate(1)"><g opacity=".696243"><g transform="translate(0 47.708586)"><use fill="#f2f5f9" xlink:href="#a"/><path d="m29.1793316 204.510794c-10.0931484 0-42.8718467-32.730506-39.726078-54.021719 4.83189765-34.068393 31.3260336 18.437337 40.7807526 11.225292 9.3424238-7.175786-38.57280357-37.639038-24.60907481-54.372509 14.10316491-16.639934 40.18189271 48.536933 30.58556441 13.330034-9.4476225-34.7775899-6.0005535-61.3121676 12.3045374-58.2312035 18.4036774 2.99404 18.0799464 39.8744185 2.8124657 61.0375275-15.1702764 20.97473 26.6976584-12.850043 33.3980302 5.261855 7.1739921 18.51631-36.6416725 24.208801-32.3433555 36.832991 4.581509 12.339194 21.9349635-14.118785 34.4527047-2.806323 12.6160047 11.13245-47.501198 41.744055-57.6555467 41.744055z" fill="#e2eaf5" mask="url(#U)" transform="matrix(-1 0 0 1 77.694364 0)"/></g><path d="m35.0405577 243.628584c30.8064006-27.698353 60.2476055-35.59962 88.3236143-23.703803 60.187518 25.612129 98.518473 69.616443 181.087831 29.123355 34.212301-16.878512 64.130385-23.274304 89.754254-19.187374-11.029125 13.78151-24.54713 25.558275-40.174868 33.924493-67.942521 36.557319-245.597909 33.18746-318.9908328-20.156669z" fill="#d3e0f1"/><path d="m229.509277 249.676631c-.307659-25.713409 5.015661-62.507118 13.038381-56.739549 14.055781 9.846016 16.516762 37.386891-1.760327 73.574569-2.712569 5.405157-4.885833 7.287705-6.572935 6.620033-.923854.47221-2.546964-.304347-5.045222-2.766127-18.517153-18.357194-22.923906-36.016614-16.899137-45.546162 3.095569-4.49825 11.514461 10.418977 17.23924 24.857236z" fill="#b6c5d9"/><path d="m325.170998 275.011275c-104.417387-66.526088-15.984197-88.343807-9.488102-102.076889 6.73911-13.938805-34.586313-45.705677-21.084671-64.192683 13.397625-17.4813954 49.00301 8.427905 49.197566-12.277289-.194556-20.7540045-32.39386-26.4534025-43.223576-62.0880046-9.813807-35.63749128 57.623143-53.4015582 74.499172-3.8585766 16.423303 49.2058956-10.427404 70.2572282 10.190925 72.9621752 20.761739 3.601299 44.214248-6.8317492 46.737688 15.785086 2.047672 23.005725-57.154976 36.658993-56.928613 57.878648-.226363 20.502463 75.347744 70.082809-49.900389 97.867533z" fill="#e2eaf5"/><path d="m179.759149 56.6923986c6.889006 25.1057334 31.683054 35.9004432 41.741743 28.0293602 9.910341-8.1951141 4.586098-30.3652698-5.261564-42.3944073-10.121368-11.8234077-43.569494-11.0457698-36.480179 14.3650471z" fill="#f2f5f9"/><path d="m309.11956 224.642433c2.191345-3.637646 6.060181-8.015742 10.975423-12.146861 9.285392-7.804105 18.788909-11.771565 21.226699-8.861571s-3.113288 11.595488-12.39868 19.399592c-7.529314 6.328172-15.20205 10.133666-19.134678 9.795213-.04403 10.857071-4.103931 20.760829-13.267835 30.44266l-1.276233-1.204996c8.9091-9.412626 12.788196-18.942216 12.788196-29.416439 0-.143889-.000722-.287947-.002162-.432187-.064828-.050781-.126503-.104708-.184952-.161812-1.943249 3.185763-11.963925 1.11878-22.494211-4.659576-10.606253-5.820041-17.713121-13.201267-15.873635-16.486428 1.839486-3.285162 11.928751-1.230235 22.535004 4.589807 7.589785 4.164795 13.387618 9.129036 15.39751 12.819682.086594-.295445.192271-.601929.316402-.918466-.32063-2.821419-.891119-5.75624-1.701675-8.888545-1.021152-3.946126-2.146677-7.380159-4.456145-13.903261-2.636888-7.447905-3.485679-9.974569-4.497999-13.698607-.073233-.269405-.144558-.536961-.213967-.802735-2.165846 2.968541-12.033328.876056-22.394148-4.809308-10.606253-5.820041-17.713121-13.201267-15.873635-16.486428 1.839486-3.285162 11.928751-1.230235 22.535004 4.589807 6.747114 3.70239 12.078097 8.036561 14.590703 11.546137-.470942-2.663491-.710291-5.169379-.710291-7.603755 0-6.213098.871204-12.34398 2.551917-18.914209.738411-2.886594 1.520581-5.526579 2.595801-8.752802-3.568023.539562-10.146727-6.49752-15.251656-16.524199-5.454419-10.713119-7.160886-20.78235-3.8115-22.490257 3.349386-1.707908 10.48628 5.592258 15.940699 16.305376 3.074584 6.038843 4.958283 11.873096 5.416842 16.120508.22002-.613695.449369-1.250267.688813-1.912271 1.856615-5.133099 2.155733-5.968056 2.90191-8.146467 1.775859-5.184501 3.071534-9.661589 3.915775-13.834154-3.206272-1.827574-5.640559-10.79656-5.640559-21.5856099 0-12.1093785 3.066543-21.9259693 6.849314-21.9259693 3.782772 0 6.849314 9.8165908 6.849314 21.9259693 0 11.5408019-2.785333 20.9990699-6.321452 21.8618229-.860649 4.274432-2.182025 8.845391-3.99071 14.125724-.750844 2.192038-1.050971 3.029811-2.911833 8.17465-.100951.279106-.200091.553646-.297478.823814 2.770934-2.983586 6.935884-6.280394 11.917067-9.246158 10.388467-6.185228 20.393224-8.588367 22.346249-5.367561s-4.885253 10.845903-15.27372 17.031131c-9.740002 5.799135-19.142702 8.273614-21.888261 5.905413-.947105 2.881493-1.659452 5.312063-2.33304 7.945247-1.646404 6.43611-2.497257 12.423783-2.497257 18.480002 0 2.171748.200366 4.412958.596407 6.790466 1.923419-3.903164 6.193707-8.983636 11.849433-13.737111 9.285392-7.804105 18.788909-11.771565 21.226699-8.861571s-3.113288 11.595488-12.39868 19.399592c-7.567333 6.360127-15.279541 10.172033-19.193966 9.789768.964948 3.520155 1.828885 6.082119 4.38397 13.29897 2.325847 6.569367 3.463001 10.03888 4.500741 14.049108.589159 2.27674 1.055357 4.456118 1.394466 6.568855z" fill="#b6c5d9" fill-rule="nonzero"/><path d="m339.392816 270.35035c-32.185479 12.45055-79.427067 18.510098-128.39861 17.55119 35.331919-36.08785 65.307585-47.978609 89.927009-35.672288 12.693436 6.349398 25.710978 12.611789 38.471601 18.121098z" fill="#d3e0f1"/></g><g transform="translate(101.617613 95.417173)"><path d="m24.8734142 137.786646c-44.1373763 15.518082-24.23690268 42.05724 18.4042644 42.05724 42.6411671 0 117.8819754-8.840197 124.1470734-25.448719 6.265098-16.608521-98.4139615-32.126604-142.5513378-16.608521z" fill="#f0f0f6"/><use fill="#a7a7ee" xlink:href="#c"/><use fill="url(#b)" xlink:href="#c"/><use fill="#403f9f" xlink:href="#e"/><use fill="url(#d)" xlink:href="#e"/><path d="m86.7424946 84.6764961c6.4814022-12.0044495 11.8628796-26.2272333 6.973449-26.2272333-8.3855704 0-13.7171367 4.434299-16.3839717 13.8870168-.9175262 3.2522137-1.6532792 6.4575794-2.2450658 9.3129449 1.7183367 1.0582127 3.641793 1.7932905 5.7703689 2.2052334s4.0903158.6859556 5.8852196.8220382z" fill="#f2f5f9"/><use fill="#a7a7ee" xlink:href="#f"/><use fill="url(#b)" xlink:href="#f"/><use fill="#403f9f" xlink:href="#g"/><use fill="url(#d)" xlink:href="#g"/><use fill="#1f1845" xlink:href="#i"/><use fill="url(#h)" xlink:href="#i"/><use fill="#1f1845" xlink:href="#j"/><use fill="url(#h)" xlink:href="#j"/><use fill="#1f1845" xlink:href="#l"/><use fill="url(#k)" xlink:href="#l"/><path d="m96.2492923 100.331434c-11.0384478 0-31.2750848-3.6830049-35.2992278 3.707231-4.024143 7.390235-7.1377818 41.445713-7.1377818 42.966522 0 1.520808 12.200978 2.614934 14.4561747 2.614934 2.2551968 0 6.9109067-32.931633 10.3705518-34.190297s28.9673088 5.289364 31.7925928 0c2.825283-5.289363-3.143862-15.09839-14.1823097-15.09839z" fill="#1f1845"/><path d="m100.933153 59.1986123h9.78519c9.11501 0 7.56958 9.4879817 7.56958 18.6263822 0 6.0922669-1.44357 13.5382864-4.33071 22.3380585l-33.3523272-.3233694c-.0800376-9.0294271.2538721-16.4879364 1.001729-22.3755278 1.1217853-8.8313871 7.256207-18.2655435 19.3265382-18.2655435z" fill="#f2f5f9"/><use fill="#ffc42d" xlink:href="#o"/><use fill="url(#m)" xlink:href="#o"/><use fill="url(#n)" xlink:href="#o"/><g transform="translate(28.783314 72.437121)"><path d="m2.6761657 0h32.7328467l7.4807773 30.7233304h-35.32018163c-.34487227 0-.64505311-.2361664-.72677272-.5717865l-6.58924541-27.06183549c-.32632967-1.34022628.49375198-2.69168655 1.83170362-3.01857101.19341623-.04725489.391786-.0711374.59087214-.0711374z" fill="#d6dfea"/><ellipse cx="20.447458" cy="15.486557" fill="#f2f5f9" rx="2.244233" ry="2.248049"/><path d="m43.224296 26.9765828h21.9831458c1.0328798 0 1.8701944.8387381 1.8701944 1.8733738 0 1.0346358-.8373146 1.8733738-1.8701944 1.8733738h-24.0631668v-2.048222l-6.6866228-27.46176123c-.1281516-.52631496.1938994-1.05704158.7193211-1.18541108.0759558-.01855728.1538568-.02793609.2320391-.02793609.7318287 0 1.3688209.50115195 1.5422323 1.21334717z" fill="#b6c5d9"/></g><use fill="#a7a7ee" xlink:href="#p"/><use fill="url(#b)" xlink:href="#p"/><g transform="translate(78.090382 95.417173)"><use fill="#a7a7ee" xlink:href="#q"/><use fill="url(#b)" xlink:href="#q"/></g><g transform="translate(78.090382 95.417173)"><use fill="#403f9f" xlink:href="#r"/><use fill="url(#d)" xlink:href="#r"/></g><use fill="#ffc42d" xlink:href="#s"/><use fill="url(#m)" xlink:href="#s"/><path d="m113.103751 84.5975145c-1.924827-8.8354273-6.078798-25.3912975-2.689124-25.3989022 4.184334.0096658 15.052037.0378358 16.312568 12.4583217.383467 3.778449.896183 7.8671603 1.170213 11.719612.042729.6007007-2.113229 1.6834949-7.407962 1.9833026-3.529823.1998717-5.991721-.0542396-7.385695-.7623341z" fill="#f2f5f9"/><g transform="translate(92.857474 39.965308)"><use fill="#ffc42d" xlink:href="#u"/><use fill="url(#t)" xlink:href="#u"/><path d="m16.5191194 9.7415438c-3.2975315 4.6097203-9.05827844 7.7432784-12.76477409 7.7432784-.93805945 0-2.18510928-.2726171-3.50405562-.7493495l.75086906-16.7354727h16.01853995z" fill="url(#w)"/></g><g transform="translate(75.837775)"><path d="m18.3014658 11.438035c8.4573966 0 15.3134713 6.8465311 15.3134713 15.2921554v12.9299525c0 8.4456243-10.0293755 15.2921555-15.3134713 15.2921555-5.2840959 0-15.31347139-6.8465312-15.31347139-15.2921555.49799907-3.9007986.7469986-5.9988842.7469986-6.2942568s-.24899953-2.5072712-.7469986-6.6356957c0-8.4456243 6.85607465-15.2921554 15.31347139-15.2921554z" fill="#ffc42d"/><use fill="#444a87" xlink:href="#y"/><use fill="url(#x)" xlink:href="#y"/><g transform="translate(29.630945 30.584311)"><path d="m2.24099581 11.189382c-3.083916-.0530297-2.88859429-11.24139353 0-11.189382 3.13223436.05306731 5.5289331 2.60025948 5.47798975 5.47036454-.05692985 3.30905766-2.5410771 5.77106656-5.47798975 5.71901746z" fill="#ffc42d"/><ellipse cx="2.987994" cy="5.719017" fill="url(#A)" rx="1.991996" ry="1.989223"/></g><path d="m29.9686103 31.5740735c-.2310191.0032239-.6164428.0048491-.711165.0048491-4.1674448 0-7.5991286-3.1457822-8.0437418-7.1891706-1.2519418.6226525-2.6636354.9728472-4.1572354.9728472-2.2200622 0-4.2591657-.7736977-5.8616726-2.065811-.7046724.3666392-1.50575505.5738934-2.35531204.5738934-1.13861401 0-2.19015581-.3722815-3.03922315-1.0016029-1.25398897 1.7663674-2.14199883 3.8100785-2.55368948 6.0209463-.07707102-.6497405-.16326316-1.3696853-.25857642-2.1598346 0-3.291036 1.04106367-6.339257 2.81226654-8.8341714.8490667.6293224 1.9006085 1.001604 3.03922251 1.001604.84955699 0 1.65063964-.2072543 2.35531204-.5738935 1.6025069 1.2921133 3.6416104 2.0658111 5.8616726 2.0658111 1.4936 0 2.9052936-.3501948 4.1572354-.9728473.4446132 4.0433884 3.876297 7.1891706 8.0437418 7.1891706.1238965 0 .2471427-.0027804.3696794-.0082821-.1601506.6394073-.0542985 1.3381379 0 2.0265589.2451797 3.1084958.4126389 2.9489399.3414856 2.9499328z" fill="url(#B)"/></g><g stroke="#fff" stroke-linecap="round" stroke-linejoin="round" stroke-width=".5"><path d="m80.5932793 93.169124c.0973234-6.1192462.4310429-11.3646928 1.0011587-15.73634"/><path d="m114.132097 89.6311088c.00064-1.4323591-1.174841-6.4124893-2.35572-11.9485416"/></g></g><g transform="matrix(-1 0 0 1 422.739281 45.710321)"><use fill="#464d89" xlink:href="#C"/><use fill="url(#d)" xlink:href="#C"/><g transform="matrix(-.17364818 -.98480775 .98480775 -.17364818 -78.797796 163.915291)"><use fill="#a7a7ee" xlink:href="#E"/><use fill="url(#D)" xlink:href="#E"/></g><use fill="#464d89" xlink:href="#F"/><use fill="url(#d)" xlink:href="#F"/><use fill="#a7a7ee" xlink:href="#H"/><use fill="url(#D)" xlink:href="#H"/><use fill="url(#G)" xlink:href="#H"/><use fill="#ffc62c" xlink:href="#J"/><use fill="url(#I)" xlink:href="#J"/><g transform="translate(21.024334 88.173461)"><path d="m3.11344832 0h40.86007738l9.3381777 38.2168257h-44.08982107c-.43050053 0-.80521319-.2937681-.90722295-.7112467l-8.22528757-33.66228317c-.40735398-1.66711074.61634553-3.34819547 2.28649687-3.75480784.2414395-.05878048.48906246-.08848799.73757964-.08848799z" fill="#d6dfea"/><ellipse cx="25.279258" cy="19.233304" fill="#f2f5f9" rx="2.753187" ry="2.747615"/><path d="m53.5392198 33.5562372h27.4702424c1.2906915 0 2.3370036 1.0433082 2.3370036 2.3302942s-1.0463121 2.3302943-2.3370036 2.3302943h-30.0694464v-2.5477884l-8.3556352-34.15975179c-.1601388-.65468447.2422976-1.3148566.898867-1.47453574.0949147-.02308345.1922601-.03474977.2899571-.03474977.9144966 0 1.7104851.62338413 1.9271807 1.50928551z" fill="#b6c5d9"/></g><g transform="translate(119.514302 52.204683)"><use fill="#a7a7ee" xlink:href="#K"/><use fill="url(#D)" xlink:href="#K"/><path d="m37.2932895 37.1131779c.8516371 4.2075782 1.4190212 8.7439015 1.6257809 13.5928065.4694859 11.7157717-2.1811137 18.4247828-6.2258751 21.755799-5.3280635 1.1273315-10.800498 1.3827201-16.4173036.7661657-3.58622-1.5726505-6.89517256-3.943596-9.29091231-6.5126907 2.7544483-23.4950523 9.29808701-35.2425784 19.63091621-35.2425784 4.1378958 0 7.7773778 2.2297968 10.6773939 5.6404979z" fill="url(#L)" mask="url(#V)"/><g fill="#fff"><ellipse cx="-.750869" cy="2.37294" mask="url(#V)" rx="8.25956" ry="9.117086"/><ellipse cx="11.513326" cy="6.369471" mask="url(#V)" rx="8.25956" ry="9.117086"/></g></g><g transform="translate(115.133256 36.718127)"><use fill="#ffc62c" xlink:href="#M"/><use fill="url(#I)" xlink:href="#M"/><path d="m19.2048608 9.59637652c-1.870438 5.26069748-6.0448486 9.43283668-11.31223263 11.30786928-.20326403-.2343994-.38865015-.4841297-.55442756-.7471369l-7.12083288-11.29725711 13.55254467-8.81324626 4.6610643 7.94856121c.3040424.51848663.5618198 1.0540128.7738841 1.60120978z" fill="url(#N)"/></g><use fill="#a7a7ee" xlink:href="#O"/><use fill="url(#D)" xlink:href="#O"/><path d="m140.850248 54.3047754c.207347 0 .375435.1677476.375435.3746747 0 .2069272-.168088.3746748-.375435.3746748-3.405381 0-7.059342 5.5608138-10.400394 14.6750722-2.387594 6.5132637-4.552889 15.0928933-4.552889 17.0120826 0 1.21292-3.122157 3.422927-9.66268 7.0304133-5.153977 2.8427237-12.40524 6.514028-21.7630433 11.018254-.0578134.027827-.1157072.055687-.1736814.083578-2.0662745.994075-2.4280519.336394-.3853562-.64621.0628398-.030228.1255852-.060418.1882364-.090572 9.3634755-4.5065551 16.6207625-8.1804385 21.7706355-11.020899 6.084611-3.3560233 9.27502-5.6143422 9.27502-6.3745643 0-2.0303538 2.182794-10.6793224 4.598595-17.269532 3.461053-9.441618 7.223132-15.1669723 11.105557-15.1669723z" fill="#fff" fill-rule="nonzero"/><use fill="#464d89" xlink:href="#P"/><use fill="url(#d)" xlink:href="#P"/><use fill="#ffc62c" xlink:href="#Q"/><use fill="url(#I)" xlink:href="#Q"/><ellipse cx="132.844253" cy="34.910194" fill="url(#R)" rx="2.193036" ry="2.188598"/><use fill="#a7a7ee" xlink:href="#S"/><use fill="url(#D)" xlink:href="#S"/><use fill="#464d89" xlink:href="#T"/><use fill="url(#d)" xlink:href="#T"/></g></g></svg>