<?xml version="1.0" encoding="UTF-8"?>
<svg width="404px" height="316px" viewBox="0 0 404 316" version="1.1" xmlns="http://www.w3.org/2000/svg" xmlns:xlink="http://www.w3.org/1999/xlink">
    <!-- Generator: Sketch 53.2 (72643) - https://sketchapp.com -->
    <title>Group</title>
    <desc>Created with Sketch.</desc>
    <defs>
        <linearGradient x1="50%" y1="0%" x2="50%" y2="100%" id="linearGradient-1">
            <stop stop-color="#FEEC80" stop-opacity="0" offset="0%"></stop>
            <stop stop-color="#FFC42D" stop-opacity="0.7" offset="100%"></stop>
        </linearGradient>
        <path d="M39.4547244,50 C47.1515748,39.6053055 51,31.5957622 51,25.9713701 C51,11.6277785 39.5832611,0 25.5,0 C11.4167389,0 0,11.6277785 0,25.9713701 C0,32.10157 3.8484252,40.1111133 11.5452756,50 L39.4547244,50 Z" id="path-2"></path>
        <linearGradient x1="50%" y1="0%" x2="50%" y2="100%" id="linearGradient-3">
            <stop stop-color="#D6DFEA" stop-opacity="0" offset="0%"></stop>
            <stop stop-color="#B6C5D9" stop-opacity="0.1" offset="100%"></stop>
        </linearGradient>
        <path d="M29.9352518,71.3180077 C29.9352518,73.9038006 27.8390524,76 25.2532595,76 L24.7467405,76 C22.1609476,76 20.0647482,73.9038006 20.0647482,71.3180077 L18.5,71.3180077 C14.3578644,71.3180077 11,67.9601433 11,63.8180077 L11,50 L39,50 L39,63.8180077 C39,67.9601433 35.6421356,71.3180077 31.5,71.3180077 L29.9352518,71.3180077 Z" id="path-4"></path>
        <linearGradient x1="50%" y1="0%" x2="50%" y2="100%" id="linearGradient-5">
            <stop stop-color="#B6C5D9" stop-opacity="0" offset="0%"></stop>
            <stop stop-color="#403F9F" stop-opacity="0.05" offset="100%"></stop>
        </linearGradient>
        <path d="M10.5,54 L39.5,54 C40.8807119,54 42,55.1192881 42,56.5 L42,56.5 C42,57.8807119 40.8807119,59 39.5,59 L10.5,59 C9.11928813,59 8,57.8807119 8,56.5 L8,56.5 C8,55.1192881 9.11928813,54 10.5,54 Z" id="path-6"></path>
        <path d="M10.5,63 L39.5,63 C40.8807119,63 42,64.1192881 42,65.5 L42,65.5 C42,66.8807119 40.8807119,68 39.5,68 L10.5,68 C9.11928813,68 8,66.8807119 8,65.5 L8,65.5 C8,64.1192881 9.11928813,63 10.5,63 Z" id="path-7"></path>
        <linearGradient x1="50%" y1="0%" x2="50%" y2="100%" id="linearGradient-8">
            <stop stop-color="#FFC62C" stop-opacity="0" offset="0%"></stop>
            <stop stop-color="#FF6663" stop-opacity="0.1" offset="100%"></stop>
        </linearGradient>
        <path d="M81.7828942,109.475985 C83.1044147,112.783652 84.9259559,116.823787 83.4515954,120.610079 C81.9772348,124.39637 78.6878834,126.596737 78.6878834,123.603408 C78.6878834,120.610079 79.364598,118.252183 79.0302667,117.015561 C78.6959355,115.778939 78.6959355,118.717459 77.6552871,118.717459 C76.9615214,118.717459 76.8186336,115.902672 77.2266234,110.273099 C79.3831236,107.536578 80.9018806,107.270873 81.7828942,109.475985 Z" id="path-9"></path>
        <linearGradient x1="50%" y1="0%" x2="50%" y2="100%" id="linearGradient-10">
            <stop stop-color="#A7A7EE" stop-opacity="0" offset="0%"></stop>
            <stop stop-color="#4C55A0" stop-opacity="0.2" offset="100%"></stop>
        </linearGradient>
        <linearGradient x1="47.8378833%" y1="45.0846073%" x2="52.7681661%" y2="50%" id="linearGradient-11">
            <stop stop-color="#464D89" stop-opacity="0.6" offset="0%"></stop>
            <stop stop-color="#A7A7EE" stop-opacity="0" offset="100%"></stop>
        </linearGradient>
        <path d="M73.1742866,88.6421232 C73.6219924,91.3226451 75.2719384,109.0513 76.5659651,110.549088 C78.2373349,112.483637 81.0189634,112.483637 82.8422276,110.549088 C86.2971465,106.883296 84.8808344,82.7841749 83.5463234,75.3270012 C82.6566494,70.3555521 80.7646939,65.579885 77.8704569,61 C74.0092632,75.0549216 72.4438732,84.2689627 73.1742866,88.6421232 Z" id="path-12"></path>
        <linearGradient x1="50%" y1="0%" x2="50%" y2="100%" id="linearGradient-13">
            <stop stop-color="#A7A7EE" stop-opacity="0" offset="0%"></stop>
            <stop stop-color="#4C55A0" stop-opacity="0.2" offset="100%"></stop>
        </linearGradient>
        <path d="M43.4173369,101.418346 C35.0026007,99.9031003 30.9333333,98.109759 30.9333333,94.6598693 C30.9333333,92.1548134 35.4764285,90.795442 39.0027598,91.5595608 C46.3164046,95.7516907 50.2986486,97.8103075 50.949492,97.7354111 C50.8502778,100.807804 49.8881108,102.583541 43.4173369,101.418346 Z" id="path-14"></path>
        <linearGradient x1="50%" y1="0%" x2="50%" y2="100%" id="linearGradient-15">
            <stop stop-color="#A7A7EE" stop-opacity="0" offset="0%"></stop>
            <stop stop-color="#4C55A0" stop-opacity="0.2" offset="100%"></stop>
        </linearGradient>
        <path d="M12.4840035,101.152027 C4.06926737,99.6367818 0,97.8434404 0,94.3935508 C0,92.2472757 3.33493788,90.9420103 6.50803893,91.0927279 C6.47208383,91.5078616 18.5588049,97.347625 20.0251646,96.9967166 C19.9996754,100.355759 19.2796634,102.375725 12.4840035,101.152027 Z" id="path-16"></path>
        <linearGradient x1="50%" y1="0%" x2="50%" y2="100%" id="linearGradient-17">
            <stop stop-color="#403F9F" stop-opacity="0" offset="0%"></stop>
            <stop stop-color="#000000" stop-opacity="0.2" offset="100%"></stop>
        </linearGradient>
        <path d="M53.3333333,10.6704608 C55.1111111,20.4165366 56,48.5283184 56,95.0058061 C55.6116898,96.9378873 52.8116898,97.9039279 47.6,97.9039279 C42.3883102,97.9039279 39.5883102,96.9378873 39.2,95.0058061 L35.7333333,34.4350598 L23.2,95.0058061 C21.9329562,96.942945 18.9942986,97.6537582 14.3840273,97.1382459 C9.77375608,96.6227335 7.11241363,95.0241918 6.4,92.3426207 C10.9904113,39.1316191 14.6348558,10.1686927 17.3333333,5.4538415 C21.237135,-1.34538338 50.6666667,-3.94865292 53.3333333,10.6704608 Z" id="path-18"></path>
        <linearGradient x1="50%" y1="0%" x2="50%" y2="100%" id="linearGradient-20">
            <stop stop-color="#FFC62C" stop-opacity="0" offset="0%"></stop>
            <stop stop-color="#FF6663" stop-opacity="0.1" offset="100%"></stop>
        </linearGradient>
        <polygon id="path-21" points="54 44 67 44 67 56 54 56"></polygon>
        <linearGradient x1="50%" y1="0%" x2="50%" y2="100%" id="linearGradient-22">
            <stop stop-color="#FFC62C" stop-opacity="0" offset="0%"></stop>
            <stop stop-color="#FF6663" stop-opacity="0.1" offset="100%"></stop>
        </linearGradient>
        <path d="M9.8,48.7692308 C9.21230046,46.0993405 8.79236112,44.225836 8.46666667,43.6538462 C7.23112157,41.8869057 3.60200392,38.1326134 5.53333333,35.5769231 C7.73239838,33.1535142 10.9184316,33.488138 10.8666667,32.0769231 C10.9184316,30.721614 7.662188,24.8655363 9,24 C10.3845797,23.2990202 14.0766337,33.3625333 15.4,33.9615385 C16.6288759,34.5664061 18.4246171,33.6871732 18.3333333,35.5769231 C18.4246171,37.5989545 15.5412475,41.54262 15.9333333,43.6538462 C16.0560037,44.2671278 16.3814815,45.3767756 16.7333333,46.8846154 C14.4221229,45.9075605 11.1345432,46.7107403 9.8,48.7692308 Z" id="path-23"></path>
        <path d="M33.2924046,9.7663766 C35.5366899,8.72268205 39.0476356,7.66470998 43.0566011,7.1433306 L43.0566011,4.50054842 C43.0566013,4.05966747 43.4113956,3.70226298 43.8490565,3.70226315 C43.9062698,3.70226317 43.9633149,3.70850471 44.019194,3.72087862 C45.6347732,4.07863336 47.9554192,4.25751073 50.9811321,4.25751073 C54.0068443,4.25751073 56.3274899,4.07863344 57.943069,3.72087886 C58.3705231,3.62622191 58.7932165,3.89855806 58.8871809,4.32915742 C58.8994644,4.38544769 58.9056604,4.44291247 58.9056604,4.50054672 L58.9056604,8.77199134 C62.150246,10.1142495 65.099169,12.240634 67.3584906,15.4334764 C72.4082779,22.5697669 68.7634612,48.6322721 63.6603774,56.1459227 C58.3158459,63.9096754 32.6906154,63.9096754 26.4150943,56.1459227 C23.290685,52.4872154 24.1415327,41.7769337 25.9929653,31.6650974 C20.6420485,33.1692689 14.4348695,34.1575343 10.5660377,33.2618026 C4.7685298,32.0645195 0.0632455148,9.11696734 0.0632455148,4.63978097 C0.0632455148,0.162594604 7.44179983,-1.36376878 9.81008606,2.26839567 C12.1783723,5.90056011 15.4990279,16.2183472 15.4990279,17.5841871 C15.4990279,18.9500271 26.9475494,12.4439017 33.1317227,9.82991755 C33.1858267,9.8070484 33.2393864,9.78587698 33.2924035,9.766377 L33.2924046,9.7663766 Z" id="path-24"></path>
        <linearGradient x1="55.0711932%" y1="0%" x2="44.9288068%" y2="100%" id="linearGradient-26">
            <stop stop-color="#464D89" stop-opacity="0.3" offset="0%"></stop>
            <stop stop-color="#A7A7EE" stop-opacity="0" offset="100%"></stop>
        </linearGradient>
        <linearGradient x1="50%" y1="0%" x2="50%" y2="100%" id="linearGradient-27">
            <stop stop-color="#FFC62C" stop-opacity="0" offset="0%"></stop>
            <stop stop-color="#FF6663" stop-opacity="0.1" offset="100%"></stop>
        </linearGradient>
        <path d="M70.1353836,4.89817633 C78.9015223,7.53929479 83.9538031,18.0958009 81.2866888,26.6927254 C78.8233367,33.4260534 75.9895803,38.4305511 72.7854198,41.7062185 C67.979179,46.6197196 60.4738652,49.414759 53.2956934,47.2692318 C46.1175216,45.1237045 41.313709,37.1150383 43.5554155,31.1241911 C45.797122,25.1333439 46.7639616,24.3400723 47.5938417,20.3920942 C47.8691809,19.0822268 46.9158278,16.2654378 49.7034874,11.0237597 C52.491147,5.78208152 61.369245,2.25705787 70.1353836,4.89817633 Z" id="path-28"></path>
        <linearGradient x1="35.9861592%" y1="0%" x2="64.0138408%" y2="50%" id="linearGradient-29">
            <stop stop-color="#FFC62C" stop-opacity="0" offset="0%"></stop>
            <stop stop-color="#000000" stop-opacity="0.2" offset="100%"></stop>
        </linearGradient>
        <linearGradient x1="50%" y1="0%" x2="50%" y2="100%" id="linearGradient-30">
            <stop stop-color="#403F9F" stop-opacity="0" offset="0%"></stop>
            <stop stop-color="#000000" stop-opacity="0.2" offset="100%"></stop>
        </linearGradient>
        <path d="M53.9484873,0.976323458 C44.2821257,-4.21846601 46.6994972,12.8319684 49.3923858,16.5419016 C52.0776308,20.5697118 55.5251689,23.5006652 60.6486367,23.4013089 C65.3146489,23.5006652 64.8530147,29.0968324 62.2566725,31.3160097 C59.4422031,33.6559284 56.3936368,38.9254041 58.7725948,42.6604141 C61.1515529,46.395424 66.1575668,47.7776503 74.0489353,42.6604141 C81.9880283,37.7616944 90.2368117,21.9046838 80.7490847,11.2654344 C71.4710057,0.856469044 63.4446552,5.9314041 53.9484873,0.976323458 Z" id="path-31"></path>
    </defs>
    <g id="Page-1" stroke="none" stroke-width="1" fill="none" fill-rule="evenodd">
        <g id="Home" transform="translate(-862.000000, -731.000000)">
            <g id="Body" transform="translate(181.000000, 721.000000)">
                <g id="Group-2" transform="translate(651.000000, 0.000000)">
                    <g id="Group">
                        <g id="Spot-01" opacity="0.608189174" transform="translate(223.500000, 165.500000) rotate(11.000000) translate(-223.500000, -165.500000) translate(21.000000, 37.000000)">
                            <path d="M75.3730703,257 C41.006764,257 5.42031904,222.492241 28.829331,168.995907 C52.0310145,115.452837 17.4329942,101.570039 3.12607204,68.7203274 C-11.5629005,36.1567156 26.6919752,-29.2374807 109.759863,14.7257844 C192.570472,58.6433424 200.259973,90.5339313 256.685249,74.680764 C312.908803,58.6433424 350.500519,25.0377258 391.453688,46.9822647 C432.422921,68.8633772 361.531187,129.913977 376.51801,164.78854 C391.404477,199.65898 432.422921,257 376.51801,257 C320.512743,257 109.66596,257 75.3730703,257 Z" id="Details" fill="#F2F5F9"></path>
                            <circle id="Details" fill="#E2EAF5" cx="378" cy="132" r="14"></circle>
                            <circle id="Details" fill="#E2EAF5" cx="63.5" cy="91.5" r="17.5"></circle>
                            <ellipse id="Details" fill="#E2EAF5" cx="42" cy="133.5" rx="12" ry="12.5"></ellipse>
                            <ellipse id="Details" fill="#E2EAF5" cx="26.5" cy="104" rx="8.5" ry="9"></ellipse>
                        </g>
                        <g id="Detail" transform="translate(209.000000, 14.000000)">
                            <g>
                                <use fill="#FEEC80" xlink:href="#path-2"></use>
                                <use fill="url(#linearGradient-1)" xlink:href="#path-2"></use>
                            </g>
                            <g>
                                <use fill="#D6DFEA" xlink:href="#path-4"></use>
                                <use fill="url(#linearGradient-3)" xlink:href="#path-4"></use>
                            </g>
                            <g>
                                <use fill="#B6C5D9" xlink:href="#path-6"></use>
                                <use fill="url(#linearGradient-5)" xlink:href="#path-6"></use>
                            </g>
                            <g>
                                <use fill="#B6C5D9" xlink:href="#path-7"></use>
                                <use fill="url(#linearGradient-5)" xlink:href="#path-7"></use>
                            </g>
                            <rect fill="#FFFFFF" x="20" y="47" width="10" height="3"></rect>
                            <path d="M28.3733209,45.9842225 L32.0310082,21.923556 L28.6987537,19.0917082 L25.4868348,21.060372 C24.8739814,21.4360049 24.1142546,21.4302884 23.5066078,21.0454722 L20.3016149,19.015784 L16.9689907,21.9158147 L20.6278548,45.9842225 L28.3733209,45.9842225 Z M19.6827192,18.2341996 C20.0001303,17.9579903 20.4495589,17.9227329 20.8026501,18.1463418 L24.007643,20.17603 C24.3114664,20.3684381 24.6913298,20.3712963 24.9977565,20.1834799 L28.2096754,18.2148162 C28.5578301,18.0014237 28.995666,18.0364047 29.3089505,18.3026431 L32.6412049,21.1344909 C32.9102336,21.3631193 33.042409,21.7248855 32.9879055,22.0834157 L29.2001022,47 L19.8010735,47 L16.0120934,22.0756744 C15.958222,21.7213026 16.0867077,21.3634285 16.3500951,21.1342303 L19.6827192,18.2341996 Z" fill="#FFFFFF" fill-rule="nonzero"></path>
                        </g>
                        <g id="Man" transform="translate(242.000000, 90.000000)">
                            <path d="M0.143510149,193.945585 C4.02285631,178.178993 38.9093881,169 62.9042739,169 C86.9459596,169 103.610886,185.353736 81.9913103,196.155954 C60.4970468,206.962497 -3.42368357,209.668016 0.143510149,193.945585 Z" id="Sh" fill="#F0F0F6"></path>
                            <g id="Hand">
                                <use fill="#FFC62C" xlink:href="#path-9"></use>
                                <use fill="url(#linearGradient-8)" xlink:href="#path-9"></use>
                            </g>
                            <g id="Hand-R">
                                <use fill="#A7A7EE" xlink:href="#path-12"></use>
                                <use fill="url(#linearGradient-10)" xlink:href="#path-12"></use>
                                <use fill="url(#linearGradient-11)" xlink:href="#path-12"></use>
                            </g>
                            <g id="Legs" transform="translate(20.000000, 92.000000)">
                                <g id="Leg-R">
                                    <use fill="#A7A7EE" xlink:href="#path-14"></use>
                                    <use fill="url(#linearGradient-13)" xlink:href="#path-14"></use>
                                </g>
                                <g id="Leg-L">
                                    <use fill="#A7A7EE" xlink:href="#path-16"></use>
                                    <use fill="url(#linearGradient-15)" xlink:href="#path-16"></use>
                                </g>
                                <mask id="mask-19" fill="white">
                                    <use xlink:href="#path-18"></use>
                                </mask>
                                <g>
                                    <use fill="#464D89" xlink:href="#path-18"></use>
                                    <use fill="url(#linearGradient-17)" xlink:href="#path-18"></use>
                                </g>
                                <path d="M35.1069671,40.5297188 C35.0830176,40.6748447 34.9458012,40.7731029 34.8004856,40.7491847 C34.65517,40.7252665 34.5567833,40.5882292 34.5807328,40.4431033 L37.1307847,24.9906348 C37.1547342,24.8455089 37.2919506,24.7472507 37.4372662,24.7711689 C37.5825818,24.7950871 37.6809685,24.9321244 37.657019,25.0772503 L35.1069671,40.5297188 Z" id="Line" fill="#FFFFFF" fill-rule="nonzero" mask="url(#mask-19)"></path>
                            </g>
                            <g id="Neck">
                                <use fill="#FFC62C" xlink:href="#path-21"></use>
                                <use fill="url(#linearGradient-20)" xlink:href="#path-21"></use>
                            </g>
                            <g id="Combined-Shape">
                                <use fill="#FFC62C" xlink:href="#path-23"></use>
                                <use fill="url(#linearGradient-22)" xlink:href="#path-23"></use>
                            </g>
                            <g id="Body" transform="translate(10.000000, 46.000000)">
                                <mask id="mask-25" fill="white">
                                    <use xlink:href="#path-24"></use>
                                </mask>
                                <use fill="#A7A7EE" xlink:href="#path-24"></use>
                                <path d="M26.4033438,56.1398528 C23.7043877,53.3197977 23.5303622,45.3401518 25.8812673,32.2009151 C27.7335347,31.5693818 30.0344321,30.5648956 32.7839596,29.1874563 C33.5773461,28.7899911 33.9932799,64.0703403 26.4033438,56.1398528 Z" id="Sh" fill="url(#linearGradient-26)" mask="url(#mask-25)"></path>
                                <path d="M22.7042426,33.0533955 C22.5624887,33.0881272 22.4196246,33.0005231 22.3851466,32.8577264 C22.3506685,32.7149296 22.4376328,32.5710143 22.5793866,32.5362826 C26.6149823,31.5475045 31.1451517,30.1143284 32.5365878,29.2033785 C32.658911,29.1232956 32.8225193,29.1582677 32.9020173,29.2814908 C32.9815153,29.4047139 32.9467987,29.569526 32.8244756,29.6496089 C31.361723,30.6072485 26.807429,32.0480567 22.7042426,33.0533955 Z" id="Line" fill="#FFFFFF" fill-rule="nonzero" mask="url(#mask-25)"></path>
                            </g>
                            <g id="Face">
                                <use fill="#FFC62C" xlink:href="#path-28"></use>
                                <use fill="url(#linearGradient-27)" xlink:href="#path-28"></use>
                            </g>
                            <path d="M60.8868883,29.0355972 C55.8585128,29.1359843 52.4749614,26.1746212 49.8395549,22.1050209 C49.1333694,21.1034411 48.4464897,19.139522 48,16.8991757 C48.0840785,16.0767474 48.2583879,15.1159951 48.6119968,14 C48.9798114,15.1814696 49.4060456,16.1589639 49.8395549,16.7738083 C52.4749614,20.8434087 55.8585128,23.8047718 60.8868883,23.7043847 C64.6493802,23.7868638 65.0147295,27.6184303 63.6120803,30.226405 C63.0543131,29.5259317 62.167319,29.0636661 60.8868883,29.0355972 Z" id="Sh" fill="url(#linearGradient-29)"></path>
                            <g id="Hair">
                                <use fill="#464D89" xlink:href="#path-31"></use>
                                <use fill="url(#linearGradient-30)" xlink:href="#path-31"></use>
                            </g>
                        </g>
                    </g>
                </g>
            </g>
        </g>
    </g>
</svg>