<?xml version="1.0" encoding="UTF-8"?>
<svg width="399px" height="231px" viewBox="0 0 399 231" version="1.1" xmlns="http://www.w3.org/2000/svg" xmlns:xlink="http://www.w3.org/1999/xlink">
    <!-- Generator: Sketch 53.2 (72643) - https://sketchapp.com -->
    <title>Group</title>
    <desc>Created with Sketch.</desc>
    <defs>
        <path d="M396.316143,112.661061 C418.001599,170.589539 300.127318,223.777811 247.213004,228.310479 C194.448603,233.069747 96.4332944,239.744262 29.5224215,165.554981 C-37.197862,91.0921548 10.0906014,-42.966817 160.733184,13.4476067 C311.496654,70.01828 374.763938,54.9213171 396.316143,112.661061 Z" id="path-1"></path>
        <linearGradient x1="50%" y1="0%" x2="50%" y2="100%" id="linearGradient-3">
            <stop stop-color="#F7F7F8" stop-opacity="0" offset="0%"></stop>
            <stop stop-color="#000000" stop-opacity="0.05" offset="100%"></stop>
        </linearGradient>
        <polygon id="path-4" points="87.8510998 8.35942029 154.558376 8.35942029 154.558376 25.973913 87.8510998 25.973913"></polygon>
        <linearGradient x1="50%" y1="0%" x2="50%" y2="100%" id="linearGradient-5">
            <stop stop-color="#757DC0" stop-opacity="0" offset="0%"></stop>
            <stop stop-color="#5B64B0" stop-opacity="0.2" offset="100%"></stop>
        </linearGradient>
        <path d="M156.930273,8.35942029 L97.2318105,8.35942029 C92.3799282,8.35942029 88.4467005,12.3025588 88.4467005,17.1666667 C88.4467005,22.0307745 92.3799282,25.973913 97.2318105,25.973913 L156.930273,25.973913 C159.238663,25.973913 161.109983,27.845233 161.109983,30.1536232 L161.109983,30.1536232 C161.109983,32.4620134 159.238663,34.3333333 156.930273,34.3333333 L17.1235195,34.3333333 C7.6664608,34.3333333 0,26.6475549 0,17.1666667 C0,7.68577846 7.6664608,0 17.1235195,0 L156.930273,1.77635684e-15 C159.238663,1.35231244e-15 161.109983,1.87131997 161.109983,4.17971014 L161.109983,4.17971014 C161.109983,6.48810032 159.238663,8.35942029 156.930273,8.35942029 Z" id="path-6"></path>
        <polygon id="path-7" points="87.8510998 8.35942029 154.558376 8.35942029 154.558376 25.973913 87.8510998 25.973913"></polygon>
        <linearGradient x1="50%" y1="0%" x2="50%" y2="100%" id="linearGradient-8">
            <stop stop-color="#E8799D" stop-opacity="0" offset="0%"></stop>
            <stop stop-color="#D4527D" stop-opacity="0.2" offset="100%"></stop>
        </linearGradient>
        <path d="M156.940778,8.35942029 L97.2318105,8.35942029 C92.3799282,8.35942029 88.4467005,12.3025588 88.4467005,17.1666667 C88.4467005,22.0307745 92.3799282,25.973913 97.2318105,25.973913 L156.940778,25.973913 C159.243367,25.973913 161.109983,27.845233 161.109983,30.1536232 C161.109983,32.4620134 159.243367,34.3333333 156.940778,34.3333333 L17.1235195,34.3333333 C7.6664608,34.3333333 0,26.6475549 0,17.1666667 C0,7.68577846 7.6664608,0 17.1235195,0 L156.940778,0 C159.243367,-4.24044395e-16 161.109983,1.87131997 161.109983,4.17971014 C161.109983,6.48810032 159.243367,8.35942029 156.940778,8.35942029 Z" id="path-9"></path>
        <polygon id="path-10" points="87.8510998 8.35942029 154.558376 8.35942029 154.558376 25.973913 87.8510998 25.973913"></polygon>
        <linearGradient x1="50%" y1="0%" x2="50%" y2="100%" id="linearGradient-11">
            <stop stop-color="#8964A8" stop-opacity="0" offset="0%"></stop>
            <stop stop-color="#000000" stop-opacity="0.1" offset="100%"></stop>
        </linearGradient>
        <path d="M156.930273,8.35942029 L97.2318105,8.35942029 C92.3799282,8.35942029 88.4467005,12.3025588 88.4467005,17.1666667 C88.4467005,22.0307745 92.3799282,25.973913 97.2318105,25.973913 L156.930273,25.973913 C159.238663,25.973913 161.109983,27.845233 161.109983,30.1536232 L161.109983,30.1536232 C161.109983,32.4620134 159.238663,34.3333333 156.930273,34.3333333 L17.1235195,34.3333333 C7.6664608,34.3333333 0,26.6475549 0,17.1666667 C0,7.68577846 7.6664608,0 17.1235195,0 L156.930273,8.8817842e-16 C159.238663,4.64134024e-16 161.109983,1.87131997 161.109983,4.17971014 L161.109983,4.17971014 C161.109983,6.48810032 159.238663,8.35942029 156.930273,8.35942029 Z" id="path-12"></path>
        <linearGradient x1="64.8672042%" y1="0%" x2="35.1327958%" y2="100%" id="linearGradient-13">
            <stop stop-color="#000000" stop-opacity="0.5" offset="0%"></stop>
            <stop stop-color="#8964A8" stop-opacity="0" offset="100%"></stop>
        </linearGradient>
        <linearGradient x1="50%" y1="0%" x2="50%" y2="100%" id="linearGradient-14">
            <stop stop-color="#8964A8" stop-opacity="0" offset="0%"></stop>
            <stop stop-color="#000000" stop-opacity="0.1" offset="100%"></stop>
        </linearGradient>
        <polygon id="path-15" points="117.333333 20.3014493 129.543147 20.3014493 129.543147 40.0057971 123.43824 34.0347826 117.333333 40.0057971"></polygon>
    </defs>
    <g id="Page-1" stroke="none" stroke-width="1" fill="none" fill-rule="evenodd">
        <g id="Home" transform="translate(-832.000000, -1196.000000)">
            <g id="Body" transform="translate(181.000000, 721.000000)">
                <g id="Group-2" transform="translate(650.000000, 475.000000)">
                    <g id="Group" transform="translate(1.000000, 0.000000)">
                        <g id="Tables" opacity="0.55952381" transform="translate(0.000000, 0.000000)">
                            <mask id="mask-2" fill="white">
                                <use xlink:href="#path-1"></use>
                            </mask>
                            <use id="Detail" fill="#F2F5F9" xlink:href="#path-1"></use>
                            <g id="Detail" mask="url(#mask-2)">
                                <g transform="translate(-54.571749, 146.837209)">
                                    <path d="M40.8542601,0 L161.926009,0 C163.572957,-9.08664895e-15 164.908072,1.33620443 164.908072,2.98449612 L164.908072,86.8488372 C164.908072,88.4971289 163.572957,89.8333333 161.926009,89.8333333 L40.8542601,89.8333333 C39.2073123,89.8333333 37.8721973,88.4971289 37.8721973,86.8488372 L37.8721973,2.98449612 C37.8721973,1.33620443 39.2073123,3.02786272e-16 40.8542601,0 Z" fill="#D3E0F1"></path>
                                    <path d="M2.98206278,13.4302326 L148.506726,13.4302326 C150.153674,13.4302326 151.488789,14.766437 151.488789,16.4147287 L151.488789,55.2131783 C151.488789,56.86147 150.153674,58.1976744 148.506726,58.1976744 L2.98206278,58.1976744 C1.33511498,58.1976744 2.01692935e-16,56.86147 0,55.2131783 L0,16.4147287 C-2.01692935e-16,14.766437 1.33511498,13.4302326 2.98206278,13.4302326 Z" fill="#E2EAF5"></path>
                                </g>
                            </g>
                            <g id="Detail" mask="url(#mask-2)">
                                <g transform="translate(288.663677, 146.837209)">
                                    <path d="M2.98206278,0 L124.053812,0 C125.700759,-9.08664895e-15 127.035874,1.33620443 127.035874,2.98449612 L127.035874,86.8488372 C127.035874,88.4971289 125.700759,89.8333333 124.053812,89.8333333 L2.98206278,89.8333333 C1.33511498,89.8333333 2.01692935e-16,88.4971289 0,86.8488372 L0,2.98449612 C-2.01692935e-16,1.33620443 1.33511498,3.02786272e-16 2.98206278,0 Z" fill="#D3E0F1"></path>
                                    <path d="M16.4013453,13.4302326 L161.926009,13.4302326 C163.572957,13.4302326 164.908072,14.766437 164.908072,16.4147287 L164.908072,55.2131783 C164.908072,56.86147 163.572957,58.1976744 161.926009,58.1976744 L16.4013453,58.1976744 C14.7543975,58.1976744 13.4192825,56.86147 13.4192825,55.2131783 L13.4192825,16.4147287 C13.4192825,14.766437 14.7543975,13.4302326 16.4013453,13.4302326 Z" fill="#E2EAF5"></path>
                                </g>
                            </g>
                            <g id="Detail" mask="url(#mask-2)">
                                <g transform="translate(110.336323, 121.170543)">
                                    <path d="M2.98206278,0 L175.345291,0 C176.992239,-3.02786272e-16 178.327354,1.33620443 178.327354,2.98449612 L178.327354,158.178295 C178.327354,159.826586 176.992239,161.162791 175.345291,161.162791 L2.98206278,161.162791 C1.33511498,161.162791 2.01692935e-16,159.826586 0,158.178295 L0,2.98449612 C-2.01692935e-16,1.33620443 1.33511498,3.02786272e-16 2.98206278,0 Z" fill="#E2EAF5"></path>
                                    <path d="M16.4013453,13.4302326 L161.926009,13.4302326 C163.572957,13.4302326 164.908072,14.766437 164.908072,16.4147287 L164.908072,55.2131783 C164.908072,56.86147 163.572957,58.1976744 161.926009,58.1976744 L16.4013453,58.1976744 C14.7543975,58.1976744 13.4192825,56.86147 13.4192825,55.2131783 L13.4192825,16.4147287 C13.4192825,14.766437 14.7543975,13.4302326 16.4013453,13.4302326 Z" fill="#D3E0F1"></path>
                                    <ellipse fill="#E2EAF5" cx="89.1636771" cy="35.8139535" rx="6.56053812" ry="6.56589147"></ellipse>
                                    <path d="M16.4013453,67.1511628 L161.926009,67.1511628 C163.572957,67.1511628 164.908072,68.4873672 164.908072,70.1356589 L164.908072,108.934109 C164.908072,110.5824 163.572957,111.918605 161.926009,111.918605 L16.4013453,111.918605 C14.7543975,111.918605 13.4192825,110.5824 13.4192825,108.934109 L13.4192825,70.1356589 C13.4192825,68.4873672 14.7543975,67.1511628 16.4013453,67.1511628 Z" fill="#D3E0F1"></path>
                                    <ellipse fill="#E2EAF5" cx="89.1636771" cy="89.5348837" rx="6.56053812" ry="6.56589147"></ellipse>
                                </g>
                            </g>
                        </g>
                        <g id="Books" transform="translate(105.000000, 17.000000)">
                            <g id="Book" transform="translate(0.000000, 34.333333)">
                                <g id="Detail">
                                    <use fill="#F7F7F8" xlink:href="#path-4"></use>
                                    <use fill="url(#linearGradient-3)" xlink:href="#path-4"></use>
                                </g>
                                <rect id="Detail" fill="#D6DFEA" x="87.8510998" y="8.35942029" width="5.95600677" height="17.6144928"></rect>
                                <g id="Detail">
                                    <use fill="#757DC0" xlink:href="#path-6"></use>
                                    <use fill="url(#linearGradient-5)" xlink:href="#path-6"></use>
                                </g>
                                <path d="M51.6683587,34.3333333 L34.2507748,34.3333333 C27.5054175,34.3333333 22.037225,26.6475549 22.037225,17.1666667 C22.037225,7.68577846 27.5054175,0 34.2507748,0 L51.6683587,0 C44.9230015,0 39.454809,7.68577846 39.454809,17.1666667 C39.454809,26.6475549 44.9230015,34.3333333 51.6683587,34.3333333 Z" id="Detail" fill="#5B64B0"></path>
                                <ellipse id="Detail" fill="#5B64B0" cx="67.749577" cy="17.1666667" rx="11.1675127" ry="9.70289855"></ellipse>
                                <path d="M144.436916,11.6434783 L154.260575,11.6434783 L154.260575,14.6289855 L144.436916,14.6289855 C143.612491,14.6289855 142.944162,13.9606569 142.944162,13.1362319 L142.944162,13.1362319 C142.944162,12.3118068 143.612491,11.6434783 144.436916,11.6434783 Z" id="Detail" fill="#5B64B0"></path>
                                <path d="M120.370135,17.6144928 L147.054569,17.6144928 C147.744924,17.6144928 148.304569,18.1741368 148.304569,18.8644928 L148.304569,19.35 C148.304569,20.0403559 147.744924,20.6 147.054569,20.6 L120.370135,20.6 C119.679779,20.6 119.120135,20.0403559 119.120135,19.35 L119.120135,18.8644928 C119.120135,18.1741368 119.679779,17.6144928 120.370135,17.6144928 Z" id="Detail" fill="#5B64B0"></path>
                            </g>
                            <g id="Book" transform="translate(14.890017, 68.666667)">
                                <g id="Detail">
                                    <use fill="#F7F7F8" xlink:href="#path-7"></use>
                                    <use fill="url(#linearGradient-3)" xlink:href="#path-7"></use>
                                </g>
                                <rect id="Detail" fill="#D6DFEA" x="87.8510998" y="8.35942029" width="5.95600677" height="17.6144928"></rect>
                                <g id="Detail">
                                    <use fill="#5ECC62" xlink:href="#path-9"></use>
                                    <use fill="url(#linearGradient-8)" xlink:href="#path-9"></use>
                                </g>
                                <path d="M51.6683587,34.3333333 L34.2507748,34.3333333 C27.5054175,34.3333333 22.037225,26.6475549 22.037225,17.1666667 C22.037225,7.68577846 27.5054175,0 34.2507748,0 L51.6683587,0 C44.9230015,0 39.454809,7.68577846 39.454809,17.1666667 C39.454809,26.6475549 44.9230015,34.3333333 51.6683587,34.3333333 Z" id="Detail" fill="#00AD45"></path>
                                <ellipse id="Detail" fill="#00AD45" cx="67.749577" cy="17.1666667" rx="11.1675127" ry="9.70289855"></ellipse>
                                <path d="M147.411168,20.6 L154.260575,20.6 L154.260575,23.5855072 L147.411168,23.5855072 C146.588815,23.5855072 145.922166,22.9171787 145.922166,22.0927536 C145.922166,21.2683286 146.588815,20.6 147.411168,20.6 Z" id="Detail" fill="#00AD45"></path>
                                <path d="M108.697124,15.5246377 L131.92555,15.5246377 C132.747903,15.5246377 133.414552,16.1929662 133.414552,17.0173913 C133.414552,17.8418164 132.747903,18.5101449 131.92555,18.5101449 L108.697124,18.5101449 C107.874771,18.5101449 107.208122,17.8418164 107.208122,17.0173913 C107.208122,16.1929662 107.874771,15.5246377 108.697124,15.5246377 Z" id="Detail" fill="#00AD45"></path>
                            </g>
                            <g id="Book" transform="translate(14.890017, 0.000000)">
                                <g id="Detail">
                                    <use fill="#F7F7F8" xlink:href="#path-10"></use>
                                    <use fill="url(#linearGradient-3)" xlink:href="#path-10"></use>
                                </g>
                                <rect id="Detail" fill="#D6DFEA" x="87.8510998" y="8.35942029" width="5.95600677" height="17.6144928"></rect>
                                <g id="Detail">
                                    <use fill="#8964A8" xlink:href="#path-12"></use>
                                    <use fill="url(#linearGradient-11)" xlink:href="#path-12"></use>
                                </g>
                                <path d="M51.6683587,34.3333333 L34.2507748,34.3333333 C27.5054175,34.3333333 22.037225,26.6475549 22.037225,17.1666667 C22.037225,7.68577846 27.5054175,0 34.2507748,0 L51.6683587,0 C44.9230015,0 39.454809,7.68577846 39.454809,17.1666667 C39.454809,26.6475549 44.9230015,34.3333333 51.6683587,34.3333333 Z" id="Detail" fill="#6F4B8D"></path>
                                <ellipse id="Detail" fill="#6F4B8D" cx="67.749577" cy="17.1666667" rx="11.1675127" ry="9.70289855"></ellipse>
                                <path d="M147.411168,14.6289855 L154.260575,14.6289855 L154.260575,17.6144928 L147.411168,17.6144928 C146.588815,17.6144928 145.922166,16.9461642 145.922166,16.1217391 C145.922166,15.2973141 146.588815,14.6289855 147.411168,14.6289855 Z" id="Detail" fill="#6F4B8D"></path>
                                <path d="M99.7631134,17.6144928 L140.85956,17.6144928 C141.681913,17.6144928 142.348562,18.2828213 142.348562,19.1072464 C142.348562,19.9316714 141.681913,20.6 140.85956,20.6 L99.7631134,20.6 C98.9407604,20.6 98.2741117,19.9316714 98.2741117,19.1072464 C98.2741117,18.2828213 98.9407604,17.6144928 99.7631134,17.6144928 Z" id="Detail" fill="#6F4B8D"></path>
                            </g>
                            <polygon id="Detail" fill="url(#linearGradient-13)" points="114.35533 20.6 126.565144 20.6 126.565144 42.9913043 120.460237 37.0202899 114.35533 42.9913043"></polygon>
                            <g id="Detail">
                                <use fill="#6F4B8D" xlink:href="#path-15"></use>
                                <use fill="url(#linearGradient-14)" xlink:href="#path-15"></use>
                            </g>
                        </g>
                    </g>
                </g>
            </g>
        </g>
    </g>
</svg>