<svg height="316" viewBox="0 0 404 316" width="404" xmlns="http://www.w3.org/2000/svg" xmlns:xlink="http://www.w3.org/1999/xlink"><defs><linearGradient id="a" x1="50%" x2="50%" y1="0%" y2="100%"><stop offset="0" stop-color="#feec80" stop-opacity="0"/><stop offset="1" stop-color="#ffc42d" stop-opacity=".7"/></linearGradient><path id="b" d="m39.4547244 50c7.6968504-10.3946945 11.5452756-18.4042378 11.5452756-24.0286299 0-14.3435916-11.4167389-25.9713701-25.5-25.9713701s-25.5 11.6277785-25.5 25.9713701c0 6.1301999 3.8484252 14.1397432 11.5452756 24.0286299z"/><linearGradient id="c" x1="50%" x2="50%" y1="0%" y2="100%"><stop offset="0" stop-color="#d6dfea" stop-opacity="0"/><stop offset="1" stop-color="#b6c5d9" stop-opacity=".1"/></linearGradient><path id="d" d="m29.9352518 71.3180077c0 2.5857929-2.0961994 4.6819923-4.6819923 4.6819923h-.506519c-2.5857929 0-4.6819923-2.0961994-4.6819923-4.6819923h-1.5647482c-4.1421356 0-7.5-3.3578644-7.5-7.5v-13.8180077h28v13.8180077c0 4.1421356-3.3578644 7.5-7.5 7.5z"/><linearGradient id="e" x1="50%" x2="50%" y1="0%" y2="100%"><stop offset="0" stop-color="#b6c5d9" stop-opacity="0"/><stop offset="1" stop-color="#403f9f" stop-opacity=".05"/></linearGradient><path id="f" d="m10.5 54h29c1.3807119 0 2.5 1.1192881 2.5 2.5s-1.1192881 2.5-2.5 2.5h-29c-1.38071187 0-2.5-1.1192881-2.5-2.5s1.11928813-2.5 2.5-2.5z"/><path id="g" d="m10.5 63h29c1.3807119 0 2.5 1.1192881 2.5 2.5s-1.1192881 2.5-2.5 2.5h-29c-1.38071187 0-2.5-1.1192881-2.5-2.5s1.11928813-2.5 2.5-2.5z"/><linearGradient id="h" x1="50%" x2="50%" y1="0%" y2="100%"><stop offset="0" stop-color="#ffc62c" stop-opacity="0"/><stop offset="1" stop-color="#ff6663" stop-opacity=".1"/></linearGradient><path id="i" d="m81.7828942 109.475985c1.3215205 3.307667 3.1430617 7.347802 1.6687012 11.134094-1.4743606 3.786291-4.763712 5.986658-4.763712 2.993329s.6767146-5.351225.3423833-6.587847c-.3343312-1.236622-.3343312 1.701898-1.3749796 1.701898-.6937657 0-.8366535-2.814787-.4286637-8.44436 2.1565002-2.736521 3.6752572-3.002226 4.5562708-.797114z"/><linearGradient id="j" x1="50%" x2="50%" y1="0%" y2="100%"><stop offset="0" stop-color="#a7a7ee" stop-opacity="0"/><stop offset="1" stop-color="#4c55a0" stop-opacity=".2"/></linearGradient><linearGradient id="k" x1="47.837883%" x2="52.768166%" y1="45.084607%" y2="50%"><stop offset="0" stop-color="#464d89" stop-opacity=".6"/><stop offset="1" stop-color="#a7a7ee" stop-opacity="0"/></linearGradient><path id="l" d="m73.1742866 88.6421232c.4477058 2.6805219 2.0976518 20.4091768 3.3916785 21.9069648 1.6713698 1.934549 4.4529983 1.934549 6.2762625 0 3.4549189-3.665792 2.0386068-27.7649131.7040958-35.2220868-.889674-4.9714491-2.7816295-9.7471162-5.6758665-14.3270012-3.8611937 14.0549216-5.4265837 23.2689627-4.6961703 27.6421232z"/><path id="m" d="m43.4173369 101.418346c-8.4147362-1.5152457-12.4840036-3.308587-12.4840036-6.7584767 0-2.5050559 4.5430952-3.8644273 8.0694265-3.1003085 7.3136448 4.1921299 11.2958888 6.2507467 11.9467322 6.1758503-.0992142 3.0723929-1.0613812 4.8481299-7.5321551 3.6829349z"/><path id="n" d="m12.4840035 101.152027c-8.41473613-1.5152452-12.4840035-3.3085866-12.4840035-6.7584762 0-2.1462751 3.33493788-3.4515405 6.50803893-3.3008229-.0359551.4151337 12.05076597 6.2548971 13.51712567 5.9039887-.0254892 3.3590424-.7455012 5.3790084-7.5411611 4.1553104z"/><linearGradient id="o" x1="50%" x2="50%" y1="0%" y2="100%"><stop offset="0" stop-color="#403f9f" stop-opacity="0"/><stop offset="1" stop-opacity=".2"/></linearGradient><path id="p" d="m53.3333333 10.6704608c1.7777778 9.7460758 2.6666667 37.8578576 2.6666667 84.3353453-.3883102 1.9320812-3.1883102 2.8981218-8.4 2.8981218s-8.0116898-.9660406-8.4-2.8981218l-3.4666667-60.5707463-12.5333333 60.5707463c-1.2670438 1.9371389-4.2057014 2.6479521-8.8159727 2.1324398-4.61027122-.5155124-7.27161367-2.1140541-7.9840273-4.7956252 4.5904113-53.2110016 8.2348558-82.173928 10.9333333-86.8887792 3.9038017-6.79922488 33.3333334-9.40249442 36 5.2166193z"/><path id="q" d="m54 44h13v12h-13z"/><path id="r" d="m9.8 48.7692308c-.58769954-2.6698903-1.00763888-4.5433948-1.33333333-5.1153846-1.2355451-1.7669405-4.86466275-5.5212328-2.93333334-8.0769231 2.19906505-2.4234089 5.38509827-2.0887851 5.33333337-3.5.0517649-1.3553091-3.2044787-7.2113868-1.8666667-8.0769231 1.3845797-.7009798 5.0766337 9.3625333 6.4 9.9615385 1.2288759.6048676 3.0246171-.2743653 2.9333333 1.6153846.0912838 2.0220314-2.7920858 5.9656969-2.4 8.0769231.1226704.6132816.4481482 1.7229294.8 3.2307692-2.3112104-.9770549-5.5987901-.1738751-6.9333333 1.8846154z"/><path id="s" d="m33.2924046 9.7663766c2.2442853-1.04369455 5.755231-2.10166662 9.7641965-2.623046v-2.64278218c.0000002-.44088095.3547945-.79828544.7924554-.79828527.0572133.00000002.1142584.00624156.1701375.01861547 1.6155792.35775474 3.9362252.53663211 6.9619381.53663211 3.0257122 0 5.3463578-.17887729 6.9619369-.53663187.4274541-.09465695.8501475.1776792.9441119.60827856.0122835.05629027.0184795.11375505.0184795.1713893v4.27144462c3.2445856 1.34225816 6.1935086 3.46864266 8.4528302 6.66148506 5.0497873 7.1362905 1.4049706 33.1987957-3.6981132 40.7124463-5.3445315 7.7637527-30.969762 7.7637527-37.2452831 0-3.1244093-3.6587073-2.2735616-14.368989-.422129-24.4808253-5.3509168 1.5041715-11.5580958 2.4924369-15.4269276 1.5967052-5.7975079-1.1972831-10.50279219-24.14483526-10.50279219-28.62202163 0-4.47718637 7.37855432-6.00354975 9.74684055-2.3713853 2.36828624 3.63216444 5.68894184 13.94995153 5.68894184 15.31579143 0 1.36584 11.4485215-5.1402854 17.6326948-7.75426955.054104-.02286915.1076637-.04404057.1606808-.06354055z"/><linearGradient id="t" x1="55.071193%" x2="44.928807%" y1="0%" y2="100%"><stop offset="0" stop-color="#464d89" stop-opacity=".3"/><stop offset="1" stop-color="#a7a7ee" stop-opacity="0"/></linearGradient><path id="u" d="m70.1353836 4.89817633c8.7661387 2.64111846 13.8184195 13.19762457 11.1513052 21.79454907-2.4633521 6.733328-5.2971085 11.7378257-8.501269 15.0134931-4.8062408 4.9135011-12.3115546 7.7085405-19.4897264 5.5630133-7.1781718-2.1455273-11.9819844-10.1541935-9.7402779-16.1450407s3.2085461-6.7841188 4.0384262-10.7320969c.2753392-1.3098674-.6780139-4.1266564 2.1096457-9.3683345 2.7876596-5.24167818 11.6657576-8.76670183 20.4318962-6.12558337z"/><linearGradient id="v" x1="35.986159%" x2="64.013841%" y1="0%" y2="50%"><stop offset="0" stop-color="#ffc62c" stop-opacity="0"/><stop offset="1" stop-opacity=".2"/></linearGradient><path id="w" d="m53.9484873.97632346c-9.6663616-5.19478947-7.2489901 11.85564494-4.5561015 15.56557814 2.685245 4.0278102 6.1327831 6.9587636 11.2562509 6.8594073 4.6660122.0993563 4.204378 5.6955235 1.6080358 7.9147008-2.8144694 2.3399187-5.8630357 7.6093944-3.4840777 11.3444044 2.3789581 3.7350099 7.384972 5.1172362 15.2763405 0 7.939093-4.8987197 16.1878764-20.7557303 6.7001494-31.3949797-9.278079-10.40896536-17.3044295-5.3340303-26.8005974-10.28911094z"/><mask id="x" fill="#fff"><use fill="#fff" fill-rule="evenodd" xlink:href="#p"/></mask><mask id="y" fill="#fff"><use fill="#fff" fill-rule="evenodd" xlink:href="#s"/></mask></defs><g fill="none" fill-rule="evenodd" transform="translate(-30 -10)"><g opacity=".695894" transform="matrix(.98162718 .190809 -.190809 .98162718 49.239451 .722085)"><path d="m75.3730703 257c-34.3663063 0-69.95275126-34.507759-46.5437393-88.004093 23.2016835-53.54307-11.3963368-67.425868-25.70325896-100.2755796-14.68897254-32.5636118 23.56590316-97.9578081 106.63379096-53.994543 82.810609 43.917558 90.50011 75.8081469 146.925386 59.9549796 56.223554-16.0374216 93.81527-49.6430382 134.768439-27.6984993 40.969233 21.8811125-29.922501 82.9317123-14.935678 117.8062753 14.886467 34.87044 55.904911 92.21146 0 92.21146-56.005267 0-266.85205 0-301.1449397 0z" fill="#f2f5f9"/><g fill="#e2eaf5"><circle cx="378" cy="132" r="14"/><circle cx="63.5" cy="91.5" r="17.5"/><ellipse cx="42" cy="133.5" rx="12" ry="12.5"/><ellipse cx="26.5" cy="104" rx="8.5" ry="9"/></g></g><g transform="translate(209 14)"><use fill="#feec80" xlink:href="#b"/><use fill="url(#a)" xlink:href="#b"/><use fill="#d6dfea" xlink:href="#d"/><use fill="url(#c)" xlink:href="#d"/><use fill="#b6c5d9" xlink:href="#f"/><use fill="url(#e)" xlink:href="#f"/><use fill="#b6c5d9" xlink:href="#g"/><use fill="url(#e)" xlink:href="#g"/><g fill="#fff"><path d="m20 47h10v3h-10z"/><path d="m28.3733209 45.9842225 3.6576873-24.0606665-3.3322545-2.8318478-3.2119189 1.9686638c-.6128534.3756329-1.3725802.3699164-1.980227-.0148998l-3.2049929-2.0296882-3.3326242 2.9000307 3.6588641 24.0684078zm-8.6906017-27.7500229c.3174111-.2762093.7668397-.3114667 1.1199309-.0878578l3.2049929 2.0296882c.3038234.1924081.6836868.1952663.9901135.0074499l3.2119189-1.9686637c.3481547-.2133925.7859906-.1784115 1.0992751.0878269l3.3322544 2.8318478c.2690287.2286284.4012041.5903946.3467006.9489248l-3.7878033 24.9165843h-9.3990287l-3.7889801-24.9243256c-.0538714-.3543718.0746143-.7122459.3380017-.9414441z" fill-rule="nonzero"/></g></g><g transform="translate(242 90)"><path d="m.14351015 193.945585c3.87934616-15.766592 38.76587795-24.945585 62.76076375-24.945585 24.0416857 0 40.7066121 16.353736 19.0870364 27.155954-21.4942635 10.806543-85.41499387 13.512062-81.84780015-2.210369z" fill="#f0f0f6"/><use fill="#ffc62c" xlink:href="#i"/><use fill="url(#h)" xlink:href="#i"/><use fill="#a7a7ee" xlink:href="#l"/><use fill="url(#j)" xlink:href="#l"/><use fill="url(#k)" xlink:href="#l"/><g transform="translate(20 92)"><use fill="#a7a7ee" xlink:href="#m"/><use fill="url(#j)" xlink:href="#m"/><use fill="#a7a7ee" xlink:href="#n"/><use fill="url(#j)" xlink:href="#n"/><use fill="#464d89" xlink:href="#p"/><use fill="url(#o)" xlink:href="#p"/><path d="m35.1069671 40.5297188c-.0239495.1451259-.1611659.2433841-.3064815.2194659s-.2437023-.1609555-.2197528-.3060814l2.5500519-15.4524685c.0239495-.1451259.1611659-.2433841.3064815-.2194659s.2437023.1609555.2197528.3060814z" fill="#fff" fill-rule="nonzero" mask="url(#x)"/></g><use fill="#ffc62c" xlink:href="#q"/><use fill="url(#h)" xlink:href="#q"/><use fill="#ffc62c" xlink:href="#r"/><use fill="url(#h)" xlink:href="#r"/><g transform="translate(10 46)"><use fill="#a7a7ee" xlink:href="#s"/><path d="m26.4033438 56.1398528c-2.6989561-2.8200551-2.8729816-10.799701-.5220765-23.9389377 1.8522674-.6315333 4.1531648-1.6360195 6.9026923-3.0134588.7933865-.3974652 1.2093203 34.882884-6.3806158 26.9523965z" fill="url(#t)" mask="url(#y)"/><path d="m22.7042426 33.0533955c-.1417539.0347317-.284618-.0528724-.319096-.1956691-.0344781-.1427968.0524862-.2867121.19424-.3214438 4.0355957-.9887781 8.5657651-2.4219542 9.9572012-3.3329041.1223232-.0800829.2859315-.0451108.3654295.0781123s.0447814.2880352-.0775417.3681181c-1.4627526.9576396-6.0170466 2.3984478-10.120233 3.4037866z" fill="#fff" fill-rule="nonzero" mask="url(#y)"/></g><use fill="#ffc62c" xlink:href="#u"/><use fill="url(#h)" xlink:href="#u"/><path d="m60.8868883 29.0355972c-5.0283755.1003871-8.4119269-2.860976-11.0473334-6.9305763-.7061855-1.0015798-1.3930652-2.9654989-1.8395549-5.2058452.0840785-.8224283.2583879-1.7831806.6119968-2.8991757.3678146 1.1814696.7940488 2.1589639 1.2275581 2.7738083 2.6354065 4.0696004 6.0189579 7.0309635 11.0473334 6.9305764 3.7624919.0824791 4.1278412 3.9140456 2.725192 6.5220203-.5577672-.7004733-1.4447613-1.1627389-2.725192-1.1908078z" fill="url(#v)"/><use fill="#464d89" xlink:href="#w"/><use fill="url(#o)" xlink:href="#w"/></g></g></svg>