<?xml version="1.0" encoding="UTF-8"?>
<svg width="148px" height="194px" viewBox="0 0 148 194" version="1.1" xmlns="http://www.w3.org/2000/svg" xmlns:xlink="http://www.w3.org/1999/xlink">
    <!-- Generator: Sketch 53.2 (72643) - https://sketchapp.com -->
    <title>iPhone</title>
    <desc>Created with Sketch.</desc>
    <defs>
        <polygon id="path-1" points="0 193.800987 147.951 193.800987 147.951 0 0 0"></polygon>
    </defs>
    <g id="Page-1" stroke="none" stroke-width="1" fill="none" fill-rule="evenodd">
        <g id="Post-Copy" transform="translate(-1074.000000, -464.000000)">
            <g id="Group" transform="translate(1074.000000, 464.000000)">
                <g id="iPhone">
                    <path d="M106.9597,192.798353 L35.7562,192.798353 C29.3967,192.798353 24.2407,187.629531 24.2407,181.253097 L24.2407,13.2039809 C24.2407,6.46561395 29.6892,1.00253385 36.4107,1.00253385 L107.6142,1.00253385 C113.9742,1.00253385 119.1297,6.17185685 119.1297,12.548291 L119.1297,180.596906 C119.1297,187.335774 113.6812,192.798353 106.9597,192.798353 Z" id="Fill-1" fill="#FFFFFF"></path>
                    <path d="M105.79345,192.798353 L37.57695,192.798353 C29.84995,192.798353 24.24095,186.518668 24.24095,178.771702 L24.24095,15.0296863 C24.24095,7.2827199 29.84995,1.00253385 37.57695,1.00253385 L105.79345,1.00253385 C113.52045,1.00253385 119.12945,7.2827199 119.12945,15.0296863 L119.12945,178.771702 C119.12945,186.518668 113.52045,192.798353 105.79345,192.798353" id="Fill-3" fill="#797571"></path>
                    <path d="M105.79345,192.798353 L37.57695,192.798353 C29.84995,192.798353 24.24095,186.518668 24.24095,178.771702 L24.24095,15.0296863 C24.24095,7.2827199 29.84995,1.00253385 37.57695,1.00253385 L105.79345,1.00253385 C113.52045,1.00253385 119.12945,7.2827199 119.12945,15.0296863 L119.12945,178.771702 C119.12945,186.518668 113.52045,192.798353 105.79345,192.798353 Z" id="Stroke-5" stroke="#2B3554" stroke-width="2" stroke-linecap="round" stroke-linejoin="round"></path>
                    <path d="M110.8862,192.798353 L39.6827,192.798353 C33.3227,192.798353 28.1672,187.629531 28.1672,181.253097 L28.1672,13.2039809 C28.1672,6.46561395 33.6157,1.00253385 40.3372,1.00253385 L111.5407,1.00253385 C117.9002,1.00253385 123.0562,6.17185685 123.0562,12.548291 L123.0562,180.596906 C123.0562,187.335774 117.6072,192.798353 110.8862,192.798353" id="Fill-7" fill="#FFFFFF"></path>
                    <path d="M51.48145,70.2664491 C73.81145,47.9569504 96.13045,25.635922 118.43145,3.29734832 C116.50995,1.85613385 114.12495,1.00293488 111.54045,1.00293488 L99.06445,1.00293488 L70.14595,29.9961597 C56.15295,44.024816 42.15995,58.0544749 28.16745,72.0836326 L28.16745,93.5559736 C35.93895,85.7929659 43.71045,78.0304594 51.48145,70.2664491" id="Fill-9" fill="#F3FCFF"></path>
                    <path d="M49.2617,98.7292568 C73.8597,74.0676961 98.4582,49.4056341 123.0562,24.7440734 L123.0562,12.5481406 C123.0562,10.9224506 122.7122,9.38097778 122.1067,7.97836279 C112.0887,18.0222491 102.0712,28.0661354 92.0532,38.1100217 C70.7577,59.4605488 49.4622,80.8105747 28.1672,102.161102 L28.1672,119.878265 L49.2617,98.7292568 Z" id="Fill-11" fill="#F3FCFF"></path>
                    <polygon id="Fill-13" fill="#E4F3F9" points="115.9531 141.47638 115.9531 162.702587 123.0561 155.581233 123.0561 134.355026"></polygon>
                    <polygon id="Fill-15" fill="#F3FCFF" points="87.8674 169.634653 64.7634 192.798353 85.9349 192.798353 109.0389 169.634653"></polygon>
                    <path d="M43.30245,187.228798 C36.94245,187.228798 31.78695,182.059475 31.78695,175.683543 L31.78695,7.63442636 C31.78695,6.02076744 32.10645,4.4838062 32.67445,3.07417313 C29.92595,5.31143928 28.16695,8.72222997 28.16695,12.5480904 L28.16695,180.597207 C28.16695,186.97314 33.32295,192.142463 39.68245,192.142463 L110.88595,192.142463 C115.99795,192.142463 120.36595,188.978809 122.16845,184.501269 C120.07595,186.204659 117.41145,187.228798 114.50595,187.228798 L43.30245,187.228798 Z" id="Fill-17" fill="#C4DCE9"></path>
                    <mask id="mask-2" fill="white">
                        <use xlink:href="#path-1"></use>
                    </mask>
                    <g id="Clip-20"></g>
                    <polygon id="Fill-19" fill="#FFFFFF" mask="url(#mask-2)" points="34.057 124.722951 117.1665 124.722951 117.1665 40.9555556 34.057 40.9555556"></polygon>
                    <path d="M109.71995,192.798353 L41.50345,192.798353 C33.77645,192.798353 28.16745,186.518668 28.16745,178.771702 L28.16745,15.0296863 C28.16745,7.2827199 33.77645,1.00253385 41.50345,1.00253385 L109.71995,1.00253385 C117.44695,1.00253385 123.05595,7.2827199 123.05595,15.0296863 L123.05595,178.771702 C123.05595,186.518668 117.44695,192.798353 109.71995,192.798353 Z" id="Stroke-21" stroke="#2B3554" stroke-width="2" stroke-linecap="round" stroke-linejoin="round" mask="url(#mask-2)"></path>
                    <path d="M109.11425,191.026937 L42.10925,191.026937 C34.66775,191.026937 29.91975,185.519242 29.91975,177.915645 L29.91975,15.8860434 C29.91975,8.28244651 34.66775,2.77425013 42.10925,2.77425013 L109.11425,2.77425013 C116.55525,2.77425013 121.30325,8.28244651 121.30325,15.8860434 L121.30325,177.915645 C121.30325,185.519242 116.55525,191.026937 109.11425,191.026937 Z" id="Stroke-22" stroke="#2B3554" stroke-width="0.8" stroke-linecap="round" stroke-linejoin="round" mask="url(#mask-2)"></path>
                    <polygon id="Stroke-23" stroke="#2B3554" stroke-width="2" stroke-linecap="round" stroke-linejoin="round" mask="url(#mask-2)" points="34.057 171.002729 117.1665 171.002729 117.1665 123.810098 34.057 123.810098"></polygon>
                    <path d="M62.5813,12.2850124 C62.5813,13.1382114 61.8918,13.829493 61.0408,13.829493 C60.1898,13.829493 59.5003,13.1382114 59.5003,12.2850124 C59.5003,11.4318134 60.1898,10.7405318 61.0408,10.7405318 C61.8918,10.7405318 62.5813,11.4318134 62.5813,12.2850124" id="Fill-24" fill="#3F4853" mask="url(#mask-2)"></path>
                    <path d="M79.10275,7.03367804 C79.10275,7.51742481 78.71175,7.90943514 78.22925,7.90943514 C77.74675,7.90943514 77.35575,7.51742481 77.35575,7.03367804 C77.35575,6.54993127 77.74675,6.15792093 78.22925,6.15792093 C78.71175,6.15792093 79.10275,6.54993127 79.10275,7.03367804" id="Fill-25" fill="#3F4853" mask="url(#mask-2)"></path>
                    <path d="M69.87085,12.1146233 L86.08185,12.1146233" id="Stroke-26" stroke="#2B3554" stroke-width="2" stroke-linecap="round" stroke-linejoin="round" mask="url(#mask-2)"></path>
                    <path d="M83.4646,180.513742 C83.4646,183.775147 80.8276,186.41846 77.5751,186.41846 C74.3221,186.41846 71.6851,183.775147 71.6851,180.513742 C71.6851,177.252837 74.3221,174.609023 77.5751,174.609023 C80.8276,174.609023 83.4646,177.252837 83.4646,180.513742" id="Fill-27" fill="#EFEFEF" mask="url(#mask-2)"></path>
                    <path d="M83.4646,180.513742 C83.4646,183.775147 80.8276,186.41846 77.5751,186.41846 C74.3221,186.41846 71.6851,183.775147 71.6851,180.513742 C71.6851,177.252837 74.3221,174.609023 77.5751,174.609023 C80.8276,174.609023 83.4646,177.252837 83.4646,180.513742 Z" id="Stroke-28" stroke="#2B3554" stroke-width="2" stroke-linecap="round" stroke-linejoin="round" mask="url(#mask-2)"></path>
                    <path d="M83.4646,180.513742 C83.4646,183.775147 80.8276,186.41846 77.5751,186.41846 C74.3221,186.41846 71.6851,183.775147 71.6851,180.513742 C71.6851,177.252837 74.3221,174.609023 77.5751,174.609023 C80.8276,174.609023 83.4646,177.252837 83.4646,180.513742" id="Fill-29" fill="#FFFFFF" mask="url(#mask-2)"></path>
                    <path d="M83.4646,180.513742 C83.4646,183.775147 80.8276,186.41846 77.5751,186.41846 C74.3221,186.41846 71.6851,183.775147 71.6851,180.513742 C71.6851,177.252837 74.3221,174.609023 77.5751,174.609023 C80.8276,174.609023 83.4646,177.252837 83.4646,180.513742 Z" id="Stroke-30" stroke="#2B3554" stroke-width="2" stroke-linecap="round" stroke-linejoin="round" mask="url(#mask-2)"></path>
                    <polygon id="Fill-31" fill="#FFFFFF" mask="url(#mask-2)" points="34.057 29.0523773 117.1665 29.0523773 117.1665 22.826832 34.057 22.826832"></polygon>
                    <polygon id="Stroke-32" stroke="#2B3554" stroke-width="2" stroke-linecap="round" stroke-linejoin="round" mask="url(#mask-2)" points="34.057 29.0523773 117.1665 29.0523773 117.1665 22.826832 34.057 22.826832"></polygon>
                    <polygon id="Fill-33" fill="#EFEFEF" mask="url(#mask-2)" points="34.057 40.9560568 117.1665 40.9560568 117.1665 29.0523773 34.057 29.0523773"></polygon>
                    <polygon id="Stroke-34" stroke="#2B3554" stroke-width="2" stroke-linecap="round" stroke-linejoin="round" mask="url(#mask-2)" points="34.057 40.9560568 117.1665 40.9560568 117.1665 29.0523773 34.057 29.0523773"></polygon>
                    <path d="M52.16085,36.7548289 L37.47985,36.7548289 C37.11585,36.7548289 36.82035,36.4806222 36.82035,36.1417488 L36.82035,33.1415163 C36.82035,32.8031442 37.11585,32.5284362 37.47985,32.5284362 L52.16085,32.5284362 C52.52535,32.5284362 52.82035,32.8031442 52.82035,33.1415163 L52.82035,36.1417488 C52.82035,36.4806222 52.52535,36.7548289 52.16085,36.7548289" id="Fill-35" fill="#3F4853" mask="url(#mask-2)"></path>
                    <path d="M113.12425,36.7548289 L98.31675,36.7548289 C97.94975,36.7548289 97.65175,36.4806222 97.65175,36.1417488 L97.65175,33.1415163 C97.65175,32.8031442 97.94975,32.5284362 98.31675,32.5284362 L113.12425,32.5284362 C113.49125,32.5284362 113.78925,32.8031442 113.78925,33.1415163 L113.78925,36.1417488 C113.78925,36.4806222 113.49125,36.7548289 113.12425,36.7548289" id="Fill-36" fill="#3F4853" mask="url(#mask-2)"></path>
                    <path d="M65.78025,35.2178677 L86.49375,35.2178677" id="Stroke-37" stroke="#2B3554" stroke-width="2" stroke-linecap="round" stroke-linejoin="round" mask="url(#mask-2)"></path>
                    <path d="M26.644,22.8265814 L26.644,30.802137" id="Stroke-38" stroke="#2B3554" stroke-width="2" stroke-linecap="round" stroke-linejoin="round" mask="url(#mask-2)"></path>
                    <path d="M26.644,35.9840424 L26.644,45.9276703" id="Stroke-39" stroke="#2B3554" stroke-width="2" stroke-linecap="round" stroke-linejoin="round" mask="url(#mask-2)"></path>
                    <path d="M123.71045,35.9840424 L123.71045,45.9276703" id="Stroke-40" stroke="#2B3554" stroke-width="2" stroke-linecap="round" stroke-linejoin="round" mask="url(#mask-2)"></path>
                    <path d="M26.644,50.2270512 L26.644,60.1706791" id="Stroke-41" stroke="#2B3554" stroke-width="2" stroke-linecap="round" stroke-linejoin="round" mask="url(#mask-2)"></path>
                    <path d="M113.7893,25.939354 L107.0318,25.939354" id="Stroke-42" stroke="#2B3554" stroke-width="2" stroke-linecap="round" stroke-linejoin="round" mask="url(#mask-2)"></path>
                    <path d="M81.0603,25.939354 L74.3028,25.939354" id="Stroke-43" stroke="#2B3554" stroke-width="2" stroke-linecap="round" stroke-linejoin="round" mask="url(#mask-2)"></path>
                    <path d="M48.8132,25.939354 L38.1292,25.939354" id="Stroke-44" stroke="#2B3554" stroke-width="2" stroke-linecap="round" stroke-linejoin="round" mask="url(#mask-2)"></path>
                    <path d="M106.551,56.8456594 C106.551,52.1034372 102.7165,48.2590289 97.986,48.2590289 L73.123,48.2590289 C68.3925,48.2590289 64.558,52.1034372 64.558,56.8456594 C64.558,61.5883829 68.3925,65.4327912 73.123,65.4327912 L97.986,65.4327912 C99.9065,65.4327912 101.6735,64.7911375 103.102,63.7208791 L103.102,63.7329101 C104.8935,66.0228119 106.653,67.1141245 110.075,67.1943313 C108.09,64.9881452 106.4565,61.5863778 106.551,56.8456594" id="Fill-45" fill="#00AD45" mask="url(#mask-2)"></path>
                    <path d="M106.551,56.8456594 C106.551,52.1034372 102.7165,48.2590289 97.986,48.2590289 L73.123,48.2590289 C68.3925,48.2590289 64.558,52.1034372 64.558,56.8456594 C64.558,61.5883829 68.3925,65.4327912 73.123,65.4327912 L97.986,65.4327912 C99.9065,65.4327912 101.6735,64.7911375 103.102,63.7208791 L103.102,63.7329101 C104.8935,66.0228119 106.653,67.1141245 110.075,67.1943313 C108.09,64.9881452 106.4565,61.5863778 106.551,56.8456594 Z" id="Stroke-46" stroke="#2B3554" stroke-width="2" stroke-linecap="round" stroke-linejoin="round" mask="url(#mask-2)"></path>
                    <path d="M106.551,106.927135 C106.551,102.184913 102.7165,98.3400036 97.986,98.3400036 L86.2465,98.3400036 C81.516,98.3400036 77.6815,102.184913 77.6815,106.927135 C77.6815,111.669358 81.516,115.514267 86.2465,115.514267 L97.986,115.514267 C99.9065,115.514267 101.6735,114.872613 103.102,113.802355 L103.102,113.814386 C104.8935,116.104288 106.653,117.195099 110.075,117.275306 C108.09,115.069621 106.4565,111.667854 106.551,106.927135" id="Fill-47" fill="#00AD45" mask="url(#mask-2)"></path>
                    <path d="M106.551,106.927135 C106.551,102.184913 102.7165,98.3400036 97.986,98.3400036 L86.2465,98.3400036 C81.516,98.3400036 77.6815,102.184913 77.6815,106.927135 C77.6815,111.669358 81.516,115.514267 86.2465,115.514267 L97.986,115.514267 C99.9065,115.514267 101.6735,114.872613 103.102,113.802355 L103.102,113.814386 C104.8935,116.104288 106.653,117.195099 110.075,117.275306 C108.09,115.069621 106.4565,111.667854 106.551,106.927135 Z" id="Stroke-48" stroke="#2B3554" stroke-width="2" stroke-linecap="round" stroke-linejoin="round" mask="url(#mask-2)"></path>
                    <path d="M42.78025,81.9146703 C42.78025,77.1724481 46.61475,73.3275385 51.34525,73.3275385 L94.48425,73.3275385 C99.21475,73.3275385 103.04925,77.1724481 103.04925,81.9146703 C103.04925,86.6568925 99.21475,90.5018021 94.48425,90.5018021 L51.34525,90.5018021 C49.42475,90.5018021 47.65775,89.8601483 46.22925,88.7898899 L46.22925,88.8019209 C44.43775,91.0918227 42.67825,92.1826341 39.25625,92.2628408 C41.24125,90.0571561 42.87475,86.6553886 42.78025,81.9146703" id="Fill-49" fill="#00AD45" mask="url(#mask-2)"></path>
                    <path d="M42.78025,81.9146703 C42.78025,77.1724481 46.61475,73.3275385 51.34525,73.3275385 L94.48425,73.3275385 C99.21475,73.3275385 103.04925,77.1724481 103.04925,81.9146703 C103.04925,86.6568925 99.21475,90.5018021 94.48425,90.5018021 L51.34525,90.5018021 C49.42475,90.5018021 47.65775,89.8601483 46.22925,88.7898899 L46.22925,88.8019209 C44.43775,91.0918227 42.67825,92.1826341 39.25625,92.2628408 C41.24125,90.0571561 42.87475,86.6553886 42.78025,81.9146703 Z" id="Stroke-50" stroke="#2B3554" stroke-width="2" stroke-linecap="round" stroke-linejoin="round" mask="url(#mask-2)"></path>
                    <path d="M51.5781,144.873084 C51.5781,147.995131 49.0541,150.525653 45.9406,150.525653 L45.7526,150.525653 C42.6391,150.525653 40.1146,147.995131 40.1146,144.873084 L40.1146,144.75879 C40.1146,141.637244 42.6391,139.106722 45.7526,139.106722 L45.9406,139.106722 C49.0541,139.106722 51.5781,141.637244 51.5781,144.75879 L51.5781,144.873084 Z" id="Fill-51" fill="#00BCFB" mask="url(#mask-2)"></path>
                    <path d="M51.5781,144.873084 C51.5781,147.995131 49.0541,150.525653 45.9406,150.525653 L45.7526,150.525653 C42.6391,150.525653 40.1146,147.995131 40.1146,144.873084 L40.1146,144.75879 C40.1146,141.637244 42.6391,139.106722 45.7526,139.106722 L45.9406,139.106722 C49.0541,139.106722 51.5781,141.637244 51.5781,144.75879 L51.5781,144.873084 Z" id="Stroke-52" stroke="#2B3554" stroke-width="2" mask="url(#mask-2)"></path>
                    <path d="M110.8647,144.873084 C110.8647,147.995131 108.3407,150.525653 105.2272,150.525653 L105.0392,150.525653 C101.9257,150.525653 99.4012,147.995131 99.4012,144.873084 L99.4012,144.75879 C99.4012,141.637244 101.9257,139.106722 105.0392,139.106722 L105.2272,139.106722 C108.3407,139.106722 110.8647,141.637244 110.8647,144.75879 L110.8647,144.873084 Z" id="Fill-53" fill="#FFD46B" mask="url(#mask-2)"></path>
                    <path d="M110.8647,144.873084 C110.8647,147.995131 108.3407,150.525653 105.2272,150.525653 L105.0392,150.525653 C101.9257,150.525653 99.4012,147.995131 99.4012,144.873084 L99.4012,144.75879 C99.4012,141.637244 101.9257,139.106722 105.0392,139.106722 L105.2272,139.106722 C108.3407,139.106722 110.8647,141.637244 110.8647,144.75879 L110.8647,144.873084 Z" id="Stroke-54" stroke="#2B3554" stroke-width="2" stroke-linecap="round" stroke-linejoin="round" mask="url(#mask-2)"></path>
                    <path d="M71.35275,144.873084 C71.35275,147.995131 68.82875,150.525653 65.71525,150.525653 L65.52725,150.525653 C62.41375,150.525653 59.88925,147.995131 59.88925,144.873084 L59.88925,144.75879 C59.88925,141.637244 62.41375,139.106722 65.52725,139.106722 L65.71525,139.106722 C68.82875,139.106722 71.35275,141.637244 71.35275,144.75879 L71.35275,144.873084 Z" id="Fill-55" fill="#FF9E47" mask="url(#mask-2)"></path>
                    <path d="M71.35275,144.873084 C71.35275,147.995131 68.82875,150.525653 65.71525,150.525653 L65.52725,150.525653 C62.41375,150.525653 59.88925,147.995131 59.88925,144.873084 L59.88925,144.75879 C59.88925,141.637244 62.41375,139.106722 65.52725,139.106722 L65.71525,139.106722 C68.82875,139.106722 71.35275,141.637244 71.35275,144.75879 L71.35275,144.873084 Z" id="Stroke-56" stroke="#2B3554" stroke-width="2" mask="url(#mask-2)"></path>
                    <path d="M91.36155,144.873084 C91.36155,147.995131 88.83755,150.525653 85.72355,150.525653 L85.53605,150.525653 C82.42205,150.525653 79.89805,147.995131 79.89805,144.873084 L79.89805,144.75879 C79.89805,141.637244 82.42205,139.106722 85.53605,139.106722 L85.72355,139.106722 C88.83755,139.106722 91.36155,141.637244 91.36155,144.75879 L91.36155,144.873084 Z" id="Fill-57" fill="#00AC8F" mask="url(#mask-2)"></path>
                    <path d="M91.36155,144.873084 C91.36155,147.995131 88.83755,150.525653 85.72355,150.525653 L85.53605,150.525653 C82.42205,150.525653 79.89805,147.995131 79.89805,144.873084 L79.89805,144.75879 C79.89805,141.637244 82.42205,139.106722 85.53605,139.106722 L85.72355,139.106722 C88.83755,139.106722 91.36155,141.637244 91.36155,144.75879 L91.36155,144.873084 Z" id="Stroke-58" stroke="#2B3554" stroke-width="2" stroke-linecap="round" stroke-linejoin="round" mask="url(#mask-2)"></path>
                    <path d="M99.40135,160.77953 C99.40135,163.901577 101.92535,166.432099 105.03885,166.432099 L105.22685,166.432099 C108.34035,166.432099 110.86485,163.901577 110.86485,160.77953 L110.86485,160.665236 C110.86485,157.54369 108.34035,155.013168 105.22685,155.013168 L105.03885,155.013168 C101.92535,155.013168 99.40135,157.54369 99.40135,160.665236 L99.40135,160.77953 Z" id="Fill-59" fill="#F34040" mask="url(#mask-2)"></path>
                    <path d="M99.40135,160.77953 C99.40135,163.901577 101.92535,166.432099 105.03885,166.432099 L105.22685,166.432099 C108.34035,166.432099 110.86485,163.901577 110.86485,160.77953 L110.86485,160.665236 C110.86485,157.54369 108.34035,155.013168 105.22685,155.013168 L105.03885,155.013168 C101.92535,155.013168 99.40135,157.54369 99.40135,160.665236 L99.40135,160.77953 Z" id="Stroke-60" stroke="#2B3554" stroke-width="2" stroke-linecap="round" stroke-linejoin="round" mask="url(#mask-2)"></path>
                    <path d="M40.11475,160.77953 C40.11475,163.901577 42.63875,166.432099 45.75225,166.432099 L45.94025,166.432099 C49.05425,166.432099 51.57825,163.901577 51.57825,160.77953 L51.57825,160.665236 C51.57825,157.54369 49.05425,155.013168 45.94025,155.013168 L45.75225,155.013168 C42.63875,155.013168 40.11475,157.54369 40.11475,160.665236 L40.11475,160.77953 Z" id="Fill-61" fill="#00AC8F" mask="url(#mask-2)"></path>
                    <path d="M40.11475,160.77953 C40.11475,163.901577 42.63875,166.432099 45.75225,166.432099 L45.94025,166.432099 C49.05425,166.432099 51.57825,163.901577 51.57825,160.77953 L51.57825,160.665236 C51.57825,157.54369 49.05425,155.013168 45.94025,155.013168 L45.75225,155.013168 C42.63875,155.013168 40.11475,157.54369 40.11475,160.665236 L40.11475,160.77953 Z" id="Stroke-62" stroke="#2B3554" stroke-width="2" stroke-linecap="round" stroke-linejoin="round" mask="url(#mask-2)"></path>
                    <path d="M79.6267,160.77953 C79.6267,163.901577 82.1507,166.432099 85.2642,166.432099 L85.4522,166.432099 C88.5662,166.432099 91.0902,163.901577 91.0902,160.77953 L91.0902,160.665236 C91.0902,157.54369 88.5662,155.013168 85.4522,155.013168 L85.2642,155.013168 C82.1507,155.013168 79.6267,157.54369 79.6267,160.665236 L79.6267,160.77953 Z" id="Fill-63" fill="#0091DE" mask="url(#mask-2)"></path>
                    <path d="M79.6267,160.77953 C79.6267,163.901577 82.1507,166.432099 85.2642,166.432099 L85.4522,166.432099 C88.5662,166.432099 91.0902,163.901577 91.0902,160.77953 L91.0902,160.665236 C91.0902,157.54369 88.5662,155.013168 85.4522,155.013168 L85.2642,155.013168 C82.1507,155.013168 79.6267,157.54369 79.6267,160.665236 L79.6267,160.77953 Z" id="Stroke-64" stroke="#2B3554" stroke-width="2" stroke-linecap="round" stroke-linejoin="round" mask="url(#mask-2)"></path>
                    <path d="M59.61815,160.77953 C59.61815,163.901577 62.14215,166.432099 65.25565,166.432099 L65.44365,166.432099 C68.55715,166.432099 71.08165,163.901577 71.08165,160.77953 L71.08165,160.665236 C71.08165,157.54369 68.55715,155.013168 65.44365,155.013168 L65.25565,155.013168 C62.14215,155.013168 59.61815,157.54369 59.61815,160.665236 L59.61815,160.77953 Z" id="Fill-65" fill="#FFF8DC" mask="url(#mask-2)"></path>
                    <path d="M59.61815,160.77953 C59.61815,163.901577 62.14215,166.432099 65.25565,166.432099 L65.44365,166.432099 C68.55715,166.432099 71.08165,163.901577 71.08165,160.77953 L71.08165,160.665236 C71.08165,157.54369 68.55715,155.013168 65.44365,155.013168 L65.25565,155.013168 C62.14215,155.013168 59.61815,157.54369 59.61815,160.665236 L59.61815,160.77953 Z" id="Stroke-66" stroke="#2B3554" stroke-width="2" stroke-linecap="round" stroke-linejoin="round" mask="url(#mask-2)"></path>
                    <path d="M97.7563,131.478663 C97.7563,133.094828 96.4493,134.405205 94.8373,134.405205 L50.9403,134.405205 C49.3283,134.405205 48.0213,133.094828 48.0213,131.478663 L48.0213,131.41951 C48.0213,129.803345 49.3283,128.492466 50.9403,128.492466 L94.8373,128.492466 C96.4493,128.492466 97.7563,129.803345 97.7563,131.41951 L97.7563,131.478663 Z" id="Stroke-67" stroke="#2B3554" stroke-width="2" stroke-linecap="round" stroke-linejoin="round" mask="url(#mask-2)"></path>
                    <path d="M112.8652,131.478663 C112.8652,133.094828 111.5582,134.405205 109.9462,134.405205 L104.6592,134.405205 C103.0472,134.405205 101.7402,133.094828 101.7402,131.478663 L101.7402,131.41951 C101.7402,129.803345 103.0472,128.492466 104.6592,128.492466 L109.9462,128.492466 C111.5582,128.492466 112.8652,129.803345 112.8652,131.41951 L112.8652,131.478663 Z" id="Fill-68" fill="#EFEFEF" mask="url(#mask-2)"></path>
                    <path d="M112.8652,131.478663 C112.8652,133.094828 111.5582,134.405205 109.9462,134.405205 L104.6592,134.405205 C103.0472,134.405205 101.7402,133.094828 101.7402,131.478663 L101.7402,131.41951 C101.7402,129.803345 103.0472,128.492466 104.6592,128.492466 L109.9462,128.492466 C111.5582,128.492466 112.8652,129.803345 112.8652,131.41951 L112.8652,131.478663 Z" id="Stroke-69" stroke="#2B3554" stroke-width="2" stroke-linecap="round" stroke-linejoin="round" mask="url(#mask-2)"></path>
                    <path d="M44.09375,131.385924 C44.09375,133.059737 42.74025,134.416234 41.07125,134.416234 C39.40175,134.416234 38.04825,133.059737 38.04825,131.385924 C38.04825,129.71211 39.40175,128.355613 41.07125,128.355613 C42.74025,128.355613 44.09375,129.71211 44.09375,131.385924" id="Fill-70" fill="#EFEFEF" mask="url(#mask-2)"></path>
                    <path d="M44.09375,131.385924 C44.09375,133.059737 42.74025,134.416234 41.07125,134.416234 C39.40175,134.416234 38.04825,133.059737 38.04825,131.385924 C38.04825,129.71211 39.40175,128.355613 41.07125,128.355613 C42.74025,128.355613 44.09375,129.71211 44.09375,131.385924 Z" id="Stroke-71" stroke="#2B3554" stroke-width="2" stroke-linecap="round" stroke-linejoin="round" mask="url(#mask-2)"></path>
                    <path d="M50.62865,81.6843266 L94.78815,81.6843266" id="Stroke-72" stroke="#2B3554" stroke-width="2" stroke-linecap="round" stroke-linejoin="round" mask="url(#mask-2)"></path>
                    <path d="M73.05075,56.8104186 L97.75625,56.8104186" id="Stroke-73" stroke="#2B3554" stroke-width="2" stroke-linecap="round" stroke-linejoin="round" mask="url(#mask-2)"></path>
                    <path d="M85.3862,107.357896 L97.4487,107.357896" id="Stroke-74" stroke="#2B3554" stroke-width="2" stroke-linecap="round" stroke-linejoin="round" mask="url(#mask-2)"></path>
                    <polygon id="Stroke-75" stroke="#2B3554" stroke-width="2" stroke-linecap="round" stroke-linejoin="round" mask="url(#mask-2)" points="34.057 171.002729 117.1665 171.002729 117.1665 22.826832 34.057 22.826832"></polygon>
                    <path d="M0.96335,192.798353 L146.98785,192.798353" id="Stroke-76" stroke="#2B3554" stroke-width="1.9265" stroke-linecap="round" stroke-linejoin="round" mask="url(#mask-2)"></path>
                </g>
            </g>
        </g>
    </g>
</svg>