<?xml version="1.0" encoding="UTF-8"?>
<svg width="434px" height="288px" viewBox="0 0 434 288" version="1.1" xmlns="http://www.w3.org/2000/svg" xmlns:xlink="http://www.w3.org/1999/xlink">
    <!-- Generator: Sketch 53.2 (72643) - https://sketchapp.com -->
    <title>Group 2</title>
    <desc>Created with Sketch.</desc>
    <defs>
        <path d="M354.019119,216.086877 C436.567509,171.898217 460.240069,32.5388987 369.136122,5.26185577 C278.030305,-21.8143583 255.60748,63.1567847 214.450509,63.1422693 C172.995743,63.1567847 157.723902,19.4311484 103.006556,19.2934712 C48.1330381,19.4311484 -17.5200916,61.9804693 4.21869854,153.996979 C26.1091852,245.917331 271.331117,260.575027 354.019119,216.086877 Z" id="path-1"></path>
        <linearGradient x1="50%" y1="0%" x2="50%" y2="100%" id="linearGradient-3">
            <stop stop-color="#A7A7EE" stop-opacity="0" offset="0%"></stop>
            <stop stop-color="#403F9F" stop-opacity="0.3" offset="100%"></stop>
        </linearGradient>
        <polygon id="path-4" points="31.5365006 95.4171726 65.0753187 95.4171726 65.0753187 154.865568 31.5365006 154.865568"></polygon>
        <linearGradient x1="50%" y1="0%" x2="50%" y2="100%" id="linearGradient-5">
            <stop stop-color="#403F9F" stop-opacity="0" offset="0%"></stop>
            <stop stop-color="#000000" stop-opacity="0.2" offset="100%"></stop>
        </linearGradient>
        <path d="M77.5753187,52.4544666 L134.169757,52.4544666 C141.073316,52.4544666 146.669757,58.0509072 146.669757,64.9544666 L146.669757,95.4171726 L65.0753187,95.4171726 L65.0753187,64.9544666 C65.0753187,58.0509072 70.6717593,52.4544666 77.5753187,52.4544666 Z" id="path-6"></path>
        <linearGradient x1="50%" y1="0%" x2="50%" y2="100%" id="linearGradient-7">
            <stop stop-color="#A7A7EE" stop-opacity="0" offset="0%"></stop>
            <stop stop-color="#403F9F" stop-opacity="0.3" offset="100%"></stop>
        </linearGradient>
        <rect id="path-8" x="42.2989571" y="113.901127" width="35.7914253" height="41.2142238"></rect>
        <linearGradient x1="50%" y1="0%" x2="50%" y2="100%" id="linearGradient-9">
            <stop stop-color="#403F9F" stop-opacity="0" offset="0%"></stop>
            <stop stop-color="#000000" stop-opacity="0.2" offset="100%"></stop>
        </linearGradient>
        <path d="M31.6616454,95.4171726 L31.6616454,95.4171726 C37.6747016,95.4171726 42.5492468,100.291718 42.5492468,106.304774 L42.5492468,154.865568 L23.274044,154.865568 C21.8933322,154.865568 20.774044,153.74628 20.774044,152.365568 L20.774044,106.304774 C20.774044,100.291718 25.6485892,95.4171726 31.6616454,95.4171726 Z" id="path-10"></path>
        <linearGradient x1="50%" y1="0%" x2="50%" y2="100%" id="linearGradient-11">
            <stop stop-color="#403F9F" stop-opacity="0" offset="0%"></stop>
            <stop stop-color="#000000" stop-opacity="0.1" offset="100%"></stop>
        </linearGradient>
        <path d="M27.7821553,161.110147 C23.2251841,159.2211 27.219492,152.817724 31.7867903,152.117953 C36.3867221,151.349883 39.3754116,150.52135 39.2954809,147.372073 C39.3754116,144.267577 47.9309645,146.693462 48.0556199,148.121422 C47.9309645,149.672429 49.9008946,154.951529 48.0556199,155.864701 C45.9610343,156.731352 32.3856911,162.833891 27.7821553,161.110147 Z" id="path-12"></path>
        <linearGradient x1="50%" y1="0%" x2="50%" y2="100%" id="linearGradient-13">
            <stop stop-color="#403F9F" stop-opacity="0" offset="0%"></stop>
            <stop stop-color="#000000" stop-opacity="0.1" offset="100%"></stop>
        </linearGradient>
        <path d="M56.3151796,147.372073 C57.4938936,147.879395 59.040699,148.13442 61.0706837,148.121422 C62.5557746,148.13442 63.8277162,147.978178 64.825029,147.621856 C64.9063481,149.843853 65.2810153,151.448711 67.8285052,154.116219 C71.0469761,157.28408 70.5594803,165.823796 64.825029,167.104944 C59.1860917,167.985379 55.2426031,157.28408 55.8146002,153.117086 C56.4667543,150.651442 56.4742446,148.780901 56.3151796,147.372073 Z" id="path-14"></path>
        <linearGradient x1="77.3308348%" y1="23.2350036%" x2="-8.6540859%" y2="45.9329722%" id="linearGradient-15">
            <stop stop-color="#000000" stop-opacity="0.5" offset="0%"></stop>
            <stop stop-color="#1F1845" offset="100%"></stop>
        </linearGradient>
        <path d="M74.2342823,98.4266026 C63.1999508,98.4266026 31.1603495,97.820748 27.1377072,105.207394 C23.1150648,112.59404 34.5546475,145.968374 34.5546475,147.488444 C34.5546475,149.008513 47.6959522,148.558861 49.950308,148.558861 C52.2046638,148.558861 43.0734673,117.985828 44.2737418,116.249269 C45.4740163,114.51271 83.0896824,117.260171 85.9139126,111.973376 C88.7381427,106.686582 85.2686137,98.4266026 74.2342823,98.4266026 Z" id="path-16"></path>
        <linearGradient x1="50%" y1="0%" x2="50%" y2="100%" id="linearGradient-17">
            <stop stop-color="#C74D75" stop-opacity="0" offset="0%"></stop>
            <stop stop-color="#AF3B6E" stop-opacity="0.05" offset="100%"></stop>
        </linearGradient>
        <linearGradient x1="100%" y1="74.9593655%" x2="50%" y2="25.0406345%" id="linearGradient-18">
            <stop stop-color="#000000" stop-opacity="0.5" offset="0%"></stop>
            <stop stop-color="#FF6663" stop-opacity="0" offset="100%"></stop>
        </linearGradient>
        <path d="M73.1426955,92.0398716 C73.4861581,91.2454163 74.090767,87.0951125 75.2183775,81.679098 C76.9357098,82.7318914 78.8580417,83.4632047 80.9853734,83.873038 C81.0215835,83.8800139 81.0577452,83.8869501 81.0938586,83.8938465 C80.8963637,86.7769571 80.7709036,89.9330408 80.7174783,93.3620974 C78.5262494,93.7931917 76.5982378,94.2603884 75.7541693,94.7026406 C75.0871972,95.0521026 72.7245567,97.0256797 71.8087376,98.4551043 L70.3746646,92.5688789 C71.9616869,92.4500319 73.0265564,92.30851 73.1426955,92.0398716 Z" id="path-19"></path>
        <linearGradient x1="50%" y1="0%" x2="50%" y2="100%" id="linearGradient-20">
            <stop stop-color="#A7A7EE" stop-opacity="0" offset="0%"></stop>
            <stop stop-color="#403F9F" stop-opacity="0.3" offset="100%"></stop>
        </linearGradient>
        <path d="M124.894554,95.4171726 L124.894554,63.3200347 C124.894554,57.3191471 129.769099,52.4544666 135.782155,52.4544666 C141.795211,52.4544666 146.669757,57.3191471 146.669757,63.3200347 L146.669757,95.4171726 L124.894554,95.4171726 Z" id="path-21"></path>
        <linearGradient x1="50%" y1="0%" x2="50%" y2="100%" id="linearGradient-22">
            <stop stop-color="#A7A7EE" stop-opacity="0" offset="0%"></stop>
            <stop stop-color="#403F9F" stop-opacity="0.3" offset="100%"></stop>
        </linearGradient>
        <path d="M68.5793743,0 L68.5793743,56.9483955 C68.5793743,58.3291074 67.4600862,59.4483955 66.0793743,59.4483955 L10.9726999,59.4483955 L10.9726999,0 L68.5793743,0 Z" id="path-23"></path>
        <linearGradient x1="50%" y1="0%" x2="50%" y2="100%" id="linearGradient-24">
            <stop stop-color="#403F9F" stop-opacity="0" offset="0%"></stop>
            <stop stop-color="#000000" stop-opacity="0.2" offset="100%"></stop>
        </linearGradient>
        <path d="M10.8480101,0 L10.8480101,0 C16.8392007,-1.10056385e-15 21.6960202,4.85681956 21.6960202,10.8480101 L21.6960202,59.4483955 L0,59.4483955 L0,10.8480101 C-7.33709233e-16,4.85681956 4.85681956,1.10056385e-15 10.8480101,0 Z" id="path-25"></path>
        <linearGradient x1="50%" y1="0%" x2="50%" y2="100%" id="linearGradient-26">
            <stop stop-color="#C74D75" stop-opacity="0" offset="0%"></stop>
            <stop stop-color="#AF3B6E" stop-opacity="0.05" offset="100%"></stop>
        </linearGradient>
        <path d="M80.4371205,99.4078977 L71.8219962,99.4078977 L71.5828505,98.4285756 C72.5036433,96.9947022 74.8791148,95.0149828 75.5497091,94.6644331 C78.0098098,93.3784285 89.6279974,91.8821569 90.3031923,91.6673215 C97.0964519,90.9567937 100.215651,90.3087772 114.058801,89.6692471 C114.060445,86.015324 106.331175,59.2083011 110.557974,59.1986123 C114.663101,59.2083011 125.325083,59.2365382 126.561753,71.6865774 C127.798422,84.1366166 130.40527,99.947213 121.560572,99.6596192 C116.17418,99.7491558 101.353419,96.366481 93.5201745,95.4117489 L88.9906837,95.4117489 C85.475041,95.4117489 82.432346,96.968878 80.4371205,99.4078977 L80.4371205,99.4078977 Z" id="path-27"></path>
        <linearGradient x1="50%" y1="0%" x2="50%" y2="100%" id="linearGradient-28">
            <stop stop-color="#C74D75" stop-opacity="0" offset="0%"></stop>
            <stop stop-color="#AF3B6E" stop-opacity="0.1" offset="100%"></stop>
        </linearGradient>
        <path d="M1.00115875,0 L17.0196987,0 L16.01854,19.4830876 C15.9216527,23.9586891 12.2102061,27.4761492 7.7589803,27.4761492 C3.4479531,27.4761492 5.17279549e-16,24.0565029 0,19.7328708 C-1.39805283e-17,19.722503 0.00264851546,19.6068654 0,19.4830876 L1.00115875,0 Z" id="path-29"></path>
        <linearGradient x1="4.00791697%" y1="84.0596594%" x2="95.992083%" y2="0%" id="linearGradient-30">
            <stop stop-color="#000000" stop-opacity="0.1" offset="0%"></stop>
            <stop stop-color="#FF6663" stop-opacity="0" offset="100%"></stop>
        </linearGradient>
        <linearGradient x1="50%" y1="0%" x2="50%" y2="100%" id="linearGradient-31">
            <stop stop-color="#1F1845" stop-opacity="0" offset="0%"></stop>
            <stop stop-color="#000000" stop-opacity="0.2" offset="100%"></stop>
        </linearGradient>
        <path d="M33.5703619,45.7498611 L33.8639366,40.0331223 L33.6149371,35.7733574 C31.0903793,34.3731179 29.381945,31.683338 29.381945,28.5950874 C29.381945,27.9061223 29.4669741,27.2369891 29.6271247,26.5975818 C29.504588,26.6030835 29.3813418,26.6058639 29.2574453,26.6058639 C25.0900005,26.6058639 21.6583167,23.4600817 21.2137035,19.4166933 C19.9617617,20.0393458 18.5500681,20.3895406 17.0564681,20.3895406 C14.8364059,20.3895406 12.7973024,19.6158428 11.1947955,18.3237295 C10.4901231,18.6903687 9.68904045,18.897623 8.83948346,18.897623 C7.70086945,18.897623 6.64932765,18.5253414 5.80026031,17.89602 C4.54595394,19.6628345 3.65781198,21.7071331 3.24625832,23.9186451 C1.26000019,22.2311086 0,19.7166936 0,16.9083995 C0,12.1260129 3.65405252,8.19588798 8.32620347,7.75030971 C9.66461897,4.23702082 13.0685985,1.74057054 17.0564681,1.74057054 C18.7220299,1.74057054 20.2857395,2.17604486 21.6396494,2.93919638 C23.651632,1.11302593 26.3243769,0 29.2574453,0 C35.2742544,0 40.1955911,4.68374648 40.5647025,10.5992984 C44.968823,11.4073485 48.3059096,15.2606249 48.3059096,19.8922347 C48.3059096,22.4892489 47.2567243,24.8415538 45.5585408,26.5495195 C45.7265657,27.2034312 45.8159143,27.8888396 45.8159143,28.5950874 C45.8159143,31.3191228 44.4866887,33.733133 42.4406127,35.2255954 C42.5315005,35.7369188 42.5789203,36.2632464 42.5789203,36.8006342 C42.5789203,41.6762338 38.4333626,45.6414194 33.5703619,45.7498611 L33.5703619,45.7498611 Z" id="path-32"></path>
        <linearGradient x1="100%" y1="0.139100325%" x2="0%" y2="99.8608997%" id="linearGradient-33">
            <stop stop-color="#000000" stop-opacity="0.2" offset="0%"></stop>
            <stop stop-color="#FF6663" stop-opacity="0" offset="100%"></stop>
        </linearGradient>
        <linearGradient x1="64.0162101%" y1="43.0555887%" x2="0%" y2="62.8437568%" id="linearGradient-34">
            <stop stop-color="#000000" stop-opacity="0.1" offset="0%"></stop>
            <stop stop-color="#FF6663" stop-opacity="0" offset="100%"></stop>
        </linearGradient>
        <linearGradient x1="50%" y1="0%" x2="50%" y2="100%" id="linearGradient-35">
            <stop stop-color="#403F9F" stop-opacity="0" offset="0%"></stop>
            <stop stop-color="#000000" stop-opacity="0.2" offset="100%"></stop>
        </linearGradient>
        <path d="M109.877173,2.74761492 C97.4671978,5.61865366 83.8783928,16.3744883 91.1054461,47.2090199 C95.9572059,67.6584374 116.56439,86.0591312 152.926999,102.411101 L136.658169,16.4856895 C127.242395,5.33283257 118.315396,0.753474377 109.877173,2.74761492 Z" id="path-36"></path>
        <linearGradient x1="50%" y1="0%" x2="50%" y2="100%" id="linearGradient-37">
            <stop stop-color="#A7A7EE" stop-opacity="0" offset="0%"></stop>
            <stop stop-color="#4C55A0" stop-opacity="0.2" offset="100%"></stop>
        </linearGradient>
        <path d="M24.5420726,87.7002851 C31.2717876,84.1208452 25.6033244,103.04952 31.5453146,112.952702 C35.5066413,119.554823 38.5531984,125.083298 40.6849857,129.538127 L33.0409117,142.77848 C30.9633856,130.21423 28.20871,123.610599 24.7768849,122.967588 C19.6291472,122.00307 16.5828165,117.644548 18.7821678,110.561306 C20.9815191,103.478065 17.8123575,91.279725 24.5420726,87.7002851 Z" id="path-38"></path>
        <linearGradient x1="50%" y1="0%" x2="50%" y2="100%" id="linearGradient-39">
            <stop stop-color="#403F9F" stop-opacity="0" offset="0%"></stop>
            <stop stop-color="#000000" stop-opacity="0.2" offset="100%"></stop>
        </linearGradient>
        <path d="M153.804875,113.964912 C149.592831,126.991618 128.973382,123.587671 115.440566,123.587671 C111.242106,123.587671 86.1706374,95.0631009 84.5985452,95.0631009 C83.5504836,95.0631009 69.6920402,102.885594 43.0232149,118.53058 C38.8530359,118.604929 35.4566048,117.08304 32.8339216,113.964912 C30.2112385,110.846784 29.3532735,107.759441 30.2600266,104.702884 C59.2085268,81.3606317 77.3213663,69.6895056 84.5985452,69.6895056 C95.5143134,69.6895056 123.226512,98.5480114 128.5059,98.5480114 C142.479002,98.5480114 158.01692,100.938206 153.804875,113.964912 Z" id="path-40"></path>
        <linearGradient x1="50%" y1="0%" x2="50%" y2="100%" id="linearGradient-41">
            <stop stop-color="#A7A7EE" stop-opacity="0" offset="0%"></stop>
            <stop stop-color="#4C55A0" stop-opacity="0.2" offset="100%"></stop>
        </linearGradient>
        <linearGradient x1="54.1740547%" y1="63.5817666%" x2="31.995015%" y2="50%" id="linearGradient-42">
            <stop stop-color="#464D89" stop-opacity="0.6" offset="0%"></stop>
            <stop stop-color="#A7A7EE" stop-opacity="0" offset="100%"></stop>
        </linearGradient>
        <path d="M124.073148,60.4597571 C116.97456,60.4597571 115.043629,94.1014298 115.043629,96.4548395 C115.043629,98.8082492 124.370337,101.069799 125.475977,99.8899493 C126.581616,98.7100992 135.252297,83.0983411 136.087678,76.2187127 C136.923059,69.3390844 131.171736,60.4597571 124.073148,60.4597571 Z" id="path-43"></path>
        <linearGradient x1="50%" y1="0%" x2="50%" y2="100%" id="linearGradient-44">
            <stop stop-color="#FFC62C" stop-opacity="0" offset="0%"></stop>
            <stop stop-color="#FF6663" stop-opacity="0.1" offset="100%"></stop>
        </linearGradient>
        <path d="M88.2831886,107.99894 C83.6497467,109.845477 79.3420733,111.867999 78.115574,113.104496 C76.8890746,114.340992 76.3857901,116.986752 76.3857901,119.359732 C76.3857901,121.732711 76.2576546,126.051266 80.9241926,125.116177 C85.5907305,124.181089 93.1956754,115.680585 93.1956754,113.104496 C93.1956754,110.528406 92.9166305,106.152404 88.2831886,107.99894 Z" id="path-45"></path>
        <linearGradient x1="50%" y1="0%" x2="50%" y2="100%" id="linearGradient-46">
            <stop stop-color="#A7A7EE" stop-opacity="0" offset="0%"></stop>
            <stop stop-color="#4C55A0" stop-opacity="0.2" offset="100%"></stop>
        </linearGradient>
        <path d="M0.810472178,12.7717833 C0.810472178,-14.033266 36.9088652,3.56288894 38.9190704,50.7059844 C40.8153153,98.0257771 -8.18756743,63.6683984 5.63054205,54.9522984 C12.8545253,50.3350945 9.80988076,37.7936743 4.42088091,32.5751591 C-2.19757163,26.1660858 0.810472178,25.0304188 0.810472178,12.7717833 Z" id="path-47"></path>
        <linearGradient x1="21.110376%" y1="0%" x2="78.889624%" y2="100%" id="linearGradient-49">
            <stop stop-color="#464D89" stop-opacity="0.3" offset="0%"></stop>
            <stop stop-color="#A7A7EE" stop-opacity="0" offset="100%"></stop>
        </linearGradient>
        <linearGradient x1="50%" y1="0%" x2="50%" y2="100%" id="linearGradient-50">
            <stop stop-color="#FFC62C" stop-opacity="0" offset="0%"></stop>
            <stop stop-color="#FF6663" stop-opacity="0.1" offset="100%"></stop>
        </linearGradient>
        <path d="M0.217367734,8.85985179 L13.7699124,0.0466055283 L18.4309767,7.99516674 C20.8716898,12.1573401 20.3310219,17.4175663 17.0944335,20.9985624 C14.8232566,23.5114169 10.940902,23.7110613 8.42295192,21.4444805 C8.00378746,21.0671617 7.63876524,20.6339571 7.33820061,20.1571089 L0.217367734,8.85985179 Z" id="path-51"></path>
        <linearGradient x1="61.6154358%" y1="22.9658099%" x2="8.56427762%" y2="100%" id="linearGradient-53">
            <stop stop-color="#000000" stop-opacity="0.1" offset="0%"></stop>
            <stop stop-color="#FF6663" stop-opacity="0" offset="100%"></stop>
        </linearGradient>
        <path d="M19.2048608,9.59637652 C17.3344228,14.857074 13.1600122,19.0292132 7.89262817,20.9042458 C7.68936414,20.6698464 7.50397802,20.4201161 7.33820061,20.1571089 L0.217367734,8.85985179 L13.7699124,0.0466055283 L18.4309767,7.99516674 C18.7350191,8.51365337 18.9927965,9.04917954 19.2048608,9.59637652 L19.2048608,9.59637652 Z" id="path-54"></path>
        <linearGradient x1="50%" y1="0%" x2="50%" y2="100%" id="linearGradient-56">
            <stop stop-color="#A7A7EE" stop-opacity="0" offset="0%"></stop>
            <stop stop-color="#4C55A0" stop-opacity="0.2" offset="100%"></stop>
        </linearGradient>
        <path d="M140.850248,54.9292333 C132.613936,54.9292333 125.52153,84.0313496 125.52153,86.9910628 C125.52153,88.964205 111.811808,96.510542 84.3923643,109.630074 C86.0667392,109.992757 87.4191152,111.267622 88.4494923,113.45467 C89.4798693,115.641718 90.6635359,116.836868 92.0004918,117.040121 C122.854141,106.421524 139.137393,100.035193 140.850248,97.8811274 C143.419531,94.650029 150.7221,84.292504 150.990526,71.5398422 C151.258951,58.7871804 149.08656,54.9292333 140.850248,54.9292333 Z" id="path-57"></path>
        <linearGradient x1="50%" y1="0%" x2="50%" y2="100%" id="linearGradient-58">
            <stop stop-color="#403F9F" stop-opacity="0" offset="0%"></stop>
            <stop stop-color="#000000" stop-opacity="0.2" offset="100%"></stop>
        </linearGradient>
        <path d="M132.152955,41.4640069 C127.115792,53.4651761 127.246456,68.9682698 133.654693,83.4275802 C140.147171,97.9251537 176.322101,113.938165 165.441483,79.9306158 C154.189311,45.7960482 158.180388,33.8795515 149.422943,17.9843886 C140.647218,2.27668115 126.284554,-4.51240318 106.373117,3.74674761 C86.8404781,12.0633284 136.910091,29.4768106 132.152955,41.4640069 Z" id="path-59"></path>
        <linearGradient x1="50%" y1="0%" x2="50%" y2="100%" id="linearGradient-60">
            <stop stop-color="#FFC62C" stop-opacity="0" offset="0%"></stop>
            <stop stop-color="#FF6663" stop-opacity="0.1" offset="100%"></stop>
        </linearGradient>
        <path d="M104.621089,21.481353 C105.038616,21.481353 116.208723,28.3503338 131.151796,29.2246314 C132.740872,28.003893 136.63025,28.003893 136.908459,33.2211622 C137.119354,36.9242777 135.850392,40.8537129 132.653534,41.2142238 C130.62336,48.1767302 127.405555,53.8572979 118.887601,55.2020815 C110.369648,56.5468651 104.981114,50.716922 103.119351,46.9592368 C100.794826,43.2545899 98.7075112,28.5059534 98.8644264,26.9765828 C101.364655,25.7671269 104.048363,21.481353 104.621089,21.481353 Z" id="path-61"></path>
        <linearGradient x1="100%" y1="0.202165858%" x2="0%" y2="99.7978341%" id="linearGradient-62">
            <stop stop-color="#000000" stop-opacity="0.2" offset="0%"></stop>
            <stop stop-color="#FF6663" stop-opacity="0" offset="100%"></stop>
        </linearGradient>
        <linearGradient x1="50%" y1="0%" x2="50%" y2="100%" id="linearGradient-63">
            <stop stop-color="#A7A7EE" stop-opacity="0" offset="0%"></stop>
            <stop stop-color="#4C55A0" stop-opacity="0.2" offset="100%"></stop>
        </linearGradient>
        <path d="M60.2798276,193.910269 C55.1803789,186.337477 76.8173111,179.199176 77.4300774,171.7375 C77.8385883,166.763049 78.4133784,163.934963 79.1544477,163.253243 L88.5979506,162.128427 C88.6156837,168.792533 89.3716263,173.728817 90.8657782,176.937278 C93.1070061,181.749969 90.0907445,186.979817 82.3863606,187.377763 C74.6819767,187.77571 65.3792763,201.483061 60.2798276,193.910269 Z" id="path-64"></path>
        <linearGradient x1="50%" y1="0%" x2="50%" y2="100%" id="linearGradient-65">
            <stop stop-color="#403F9F" stop-opacity="0" offset="0%"></stop>
            <stop stop-color="#000000" stop-opacity="0.2" offset="100%"></stop>
        </linearGradient>
        <path d="M136.912815,134.632733 C128.88869,134.632733 111.437843,134.632733 106.343207,134.632733 C106.343207,134.632733 101.367459,145.793778 91.4159608,168.115867 C89.8582017,169.909784 87.2706826,170.806743 83.6534033,170.806743 C80.0361241,170.806743 77.7612169,169.909784 76.8286818,168.115867 C78.9943229,130.690327 85.2523005,110.842099 95.6026146,108.571183 C119.503341,103.327232 140.39994,102.197651 158.292413,105.182439 C159.678134,124.815969 152.551601,134.632733 136.912815,134.632733 Z" id="path-66"></path>
    </defs>
    <g id="Page-1" stroke="none" stroke-width="1" fill="none" fill-rule="evenodd">
        <g id="Home" transform="translate(-180.000000, -1196.000000)">
            <g id="Body" transform="translate(181.000000, 721.000000)">
                <g id="Group-2" transform="translate(0.000000, 475.000000)">
                    <g>
                        <g id="Aquarium" opacity="0.500302269">
                            <g id="Bg" transform="translate(0.000000, 47.708586)">
                                <mask id="mask-2" fill="white">
                                    <use xlink:href="#path-1"></use>
                                </mask>
                                <use fill="#F2F5F9" xlink:href="#path-1"></use>
                                <path d="M29.1793316,204.510794 C19.0861832,204.510794 -13.6925151,171.780288 -10.5467464,150.489075 C-5.71484875,116.420682 20.7792872,168.926412 30.2340062,161.714367 C39.57643,154.538581 -8.33879737,124.075329 5.62493139,107.341858 C19.7280963,90.701924 45.8068241,155.878791 36.2104958,120.671892 C26.7628733,85.8943021 30.2099423,59.3597244 48.5150332,62.4406885 C66.9187106,65.4347285 66.5949796,102.315107 51.3274989,123.478216 C36.1572225,144.452946 78.0251573,110.628173 84.7255291,128.740071 C91.8995212,147.256381 48.0838566,152.948872 52.3821736,165.573062 C56.9636826,177.912256 74.3171371,151.454277 86.8348783,162.766739 C99.450883,173.899189 39.3336803,204.510794 29.1793316,204.510794 Z" id="Flowers" fill="#E2EAF5" mask="url(#mask-2)" transform="translate(38.847182, 133.300346) scale(-1, 1) translate(-38.847182, -133.300346) "></path>
                            </g>
                            <path d="M35.0405577,243.628584 C65.8469583,215.930231 95.2881632,208.028964 123.364172,219.924781 C183.55169,245.53691 221.882645,289.541224 304.452003,249.048136 C338.664304,232.169624 368.582388,225.773832 394.206257,229.860762 C383.177132,243.642272 369.659127,255.419037 354.031389,263.785255 C286.088868,300.342574 108.43348,296.972715 35.0405562,243.628586 L35.0405577,243.628584 Z" id="Detail" fill="#D3E0F1"></path>
                            <path d="M229.509277,249.676631 C229.201618,223.963222 234.524938,187.169513 242.547658,192.937082 C256.603439,202.783098 259.06442,230.323973 240.787331,266.511651 C238.074762,271.916808 235.901498,273.799356 234.214396,273.131684 C233.290542,273.603894 231.667432,272.827337 229.169174,270.365557 C210.652021,252.008363 206.245268,234.348943 212.270037,224.819395 C215.365606,220.321145 223.784498,235.238372 229.509277,249.676631 L229.509277,249.676631 Z" id="Flowers" fill="#B6C5D9"></path>
                            <path d="M325.170998,275.011275 C220.753611,208.485187 309.186801,186.667468 315.682896,172.934386 C322.422006,158.995581 281.096583,127.228709 294.598225,108.741703 C307.99585,91.2603076 343.601235,117.169608 343.795791,96.464414 C343.601235,75.7104095 311.401931,70.0110115 300.572215,34.3764094 C290.758408,-1.26108188 358.195358,-19.0251488 375.071387,30.5178328 C391.49469,79.7237284 364.643983,100.775061 385.262312,103.480008 C406.024051,107.081307 429.47656,96.6482588 432,119.265094 C434.047672,142.270819 374.845024,155.924087 375.071387,177.143742 C374.845024,197.646205 450.419131,247.226551 325.170998,275.011275 Z" id="Flower" fill="#E2EAF5"></path>
                            <path d="M179.759149,56.6923986 C186.648155,81.798132 211.442203,92.5928418 221.500892,84.7217588 C231.411233,76.5266447 226.08699,54.356489 216.239328,42.3273515 C206.11796,30.5039438 172.669834,31.2815817 179.759149,56.6923986 Z" id="Bg" fill="#F2F5F9"></path>
                            <path d="M309.11956,224.642433 C311.310905,221.004787 315.179741,216.626691 320.094983,212.495572 C329.380375,204.691467 338.883892,200.724007 341.321682,203.634001 C343.759472,206.543995 338.208394,215.229489 328.923002,223.033593 C321.393688,229.361765 313.720952,233.167259 309.788324,232.828806 C309.744294,243.685877 305.684393,253.589635 296.520489,263.271466 L295.244256,262.06647 C304.153356,252.653844 308.032452,243.124254 308.032452,232.650031 C308.032452,232.506142 308.03173,232.362084 308.03029,232.217844 C307.965462,232.167063 307.903787,232.113136 307.845338,232.056032 C305.902089,235.241795 295.881413,233.174812 285.351127,227.396456 C274.744874,221.576415 267.638006,214.195189 269.477492,210.910028 C271.316978,207.624866 281.406243,209.679793 292.012496,215.499835 C299.602281,219.66463 305.400114,224.628871 307.410006,228.319517 C307.4966,228.024072 307.602277,227.717588 307.726408,227.401051 C307.405778,224.579632 306.835289,221.644811 306.024733,218.512506 C305.003581,214.56638 303.878056,211.132347 301.568588,204.609245 C298.9317,197.16134 298.082909,194.634676 297.070589,190.910638 C296.997356,190.641233 296.926031,190.373677 296.856622,190.107903 C294.690776,193.076444 284.823294,190.983959 274.462474,185.298595 C263.856221,179.478554 256.749353,172.097328 258.588839,168.812167 C260.428325,165.527005 270.51759,167.581932 281.123843,173.401974 C287.870957,177.104364 293.20194,181.438535 295.714546,184.948111 C295.243604,182.28462 295.004255,179.778732 295.004255,177.344356 C295.004255,171.131258 295.875459,165.000376 297.556172,158.430147 C298.294583,155.543553 299.076753,152.903568 300.151973,149.677345 C296.58395,150.216907 290.005246,143.179825 284.900317,133.153146 C279.445898,122.440027 277.739431,112.370796 281.088817,110.662889 C284.438203,108.954981 291.575097,116.255147 297.029516,126.968265 C300.1041,133.007108 301.987799,138.841361 302.446358,143.088773 C302.666378,142.475078 302.895727,141.838506 303.135171,141.176502 C304.991786,136.043403 305.290904,135.208446 306.037081,133.030035 C307.81294,127.845534 309.108615,123.368446 309.952856,119.195881 C306.746584,117.368307 304.312297,108.399321 304.312297,97.6102711 C304.312297,85.5008926 307.37884,75.6843018 311.161611,75.6843018 C314.944383,75.6843018 318.010925,85.5008926 318.010925,97.6102711 C318.010925,109.151073 315.225592,118.609341 311.689473,119.472094 C310.828824,123.746526 309.507448,128.317485 307.698763,133.597818 C306.947919,135.789856 306.647792,136.627629 304.78693,141.772468 C304.685979,142.051574 304.586839,142.326114 304.489452,142.596282 C307.260386,139.612696 311.425336,136.315888 316.406519,133.350124 C326.794986,127.164896 336.799743,124.761757 338.752768,127.982563 C340.705793,131.203369 333.867515,138.828466 323.479048,145.013694 C313.739046,150.812829 304.336346,153.287308 301.590787,150.919107 C300.643682,153.8006 299.931335,156.23117 299.257747,158.864354 C297.611343,165.300464 296.76049,171.288137 296.76049,177.344356 C296.76049,179.516104 296.960856,181.757314 297.356897,184.134822 C299.280316,180.231658 303.550604,175.151186 309.20633,170.397711 C318.491722,162.593606 327.995239,158.626146 330.433029,161.53614 C332.870819,164.446134 327.319741,173.131628 318.034349,180.935732 C310.467016,187.295859 302.754808,191.107765 298.840383,190.7255 C299.805331,194.245655 300.669268,196.807619 303.224353,204.02447 C305.5502,210.593837 306.687354,214.06335 307.725094,218.073578 C308.314253,220.350318 308.780451,222.529696 309.11956,224.642433 L309.11956,224.642433 Z" id="Flowers" fill="#B6C5D9" fill-rule="nonzero"></path>
                            <path d="M339.392816,270.35035 C307.207337,282.8009 259.965749,288.860448 210.994206,287.90154 C246.326125,251.81369 276.301791,239.922931 300.921215,252.229252 C313.614651,258.57865 326.632193,264.841041 339.392816,270.35035 L339.392816,270.35035 Z" id="Detail" fill="#D3E0F1"></path>
                        </g>
                        <g id="Man-and-Macbook" transform="translate(101.617613, 95.417173)">
                            <path d="M24.8734142,137.786646 C-19.2639621,153.304728 0.636511522,179.843886 43.2776786,179.843886 C85.9188457,179.843886 161.159654,171.003689 167.424752,154.395167 C173.68985,137.786646 69.0107905,122.268563 24.8734142,137.786646 Z" id="Sh" fill="#F0F0F6"></path>
                            <g id="Detail">
                                <use fill="#A7A7EE" xlink:href="#path-4"></use>
                                <use fill="url(#linearGradient-3)" xlink:href="#path-4"></use>
                            </g>
                            <g id="Detail">
                                <use fill="#403F9F" xlink:href="#path-6"></use>
                                <use fill="url(#linearGradient-5)" xlink:href="#path-6"></use>
                            </g>
                            <path d="M86.7424946,84.6764961 C93.2238968,72.6720466 98.6053742,58.4492628 93.7159436,58.4492628 C85.3303732,58.4492628 79.9988069,62.8835618 77.3319719,72.3362796 C76.4144457,75.5884933 75.6786927,78.793859 75.0869061,81.6492245 C76.8052428,82.7074372 78.7286991,83.442515 80.857275,83.8544579 C82.9858509,84.2664008 84.9475908,84.5404135 86.7424946,84.6764961 Z" id="Blouse" fill="#F2F5F9"></path>
                            <g id="Detail">
                                <use fill="#A7A7EE" xlink:href="#path-8"></use>
                                <use fill="url(#linearGradient-7)" xlink:href="#path-8"></use>
                            </g>
                            <g id="Detail">
                                <use fill="#403F9F" xlink:href="#path-10"></use>
                                <use fill="url(#linearGradient-9)" xlink:href="#path-10"></use>
                            </g>
                            <g id="Leg-L">
                                <use fill="#1F1845" xlink:href="#path-12"></use>
                                <use fill="url(#linearGradient-11)" xlink:href="#path-12"></use>
                            </g>
                            <g id="Leg-R">
                                <use fill="#1F1845" xlink:href="#path-14"></use>
                                <use fill="url(#linearGradient-13)" xlink:href="#path-14"></use>
                            </g>
                            <g id="Leg-L">
                                <use fill="#1F1845" xlink:href="#path-16"></use>
                                <use fill="url(#linearGradient-15)" xlink:href="#path-16"></use>
                            </g>
                            <path d="M96.2492923,100.331434 C85.2108445,100.331434 64.9742075,96.6484291 60.9500645,104.038665 C56.9259215,111.4289 53.8122827,145.484378 53.8122827,147.005187 C53.8122827,148.525995 66.0132607,149.620121 68.2684574,149.620121 C70.5236542,149.620121 75.1793641,116.688488 78.6390092,115.429824 C82.0986543,114.17116 107.606318,120.719188 110.431602,115.429824 C113.256885,110.140461 107.28774,100.331434 96.2492923,100.331434 Z" id="Leg-R" fill="#1F1845"></path>
                            <path d="M100.933153,59.1986123 L110.718343,59.1986123 C119.833353,59.1986123 118.287923,68.686594 118.287923,77.8249945 C118.287923,83.9172614 116.844353,91.3632809 113.957213,100.163053 L80.6048858,99.8396836 C80.5248482,90.8102565 80.8587579,83.3517472 81.6066148,77.4641558 C82.7284001,68.6327687 88.8628218,59.1986123 100.933153,59.1986123 Z" id="Blouse" fill="#F2F5F9"></path>
                            <g id="Hand-L">
                                <use fill="#FFC42D" xlink:href="#path-19"></use>
                                <use fill="url(#linearGradient-17)" xlink:href="#path-19"></use>
                                <use fill="url(#linearGradient-18)" xlink:href="#path-19"></use>
                            </g>
                            <g id="Macbook" transform="translate(28.783314, 72.437121)">
                                <path d="M2.6761657,1.61789078e-15 L35.4090124,0 L42.8897897,30.7233304 L7.56960807,30.7233304 C7.2247358,30.7233304 6.92455496,30.487164 6.84283535,30.1515439 L0.253589944,3.08970841 C-0.0727397252,1.74948213 0.747341919,0.39802186 2.08529356,0.0711374018 C2.27870979,0.0238825109 2.47707956,2.25515395e-15 2.6761657,1.61789078e-15 Z" id="Detail" fill="#D6DFEA"></path>
                                <ellipse id="Logo" fill="#F2F5F9" cx="20.4474579" cy="15.4865568" rx="2.24423318" ry="2.24804857"></ellipse>
                                <path d="M43.224296,26.9765828 L65.2074418,26.9765828 C66.2403216,26.9765828 67.0776362,27.8153209 67.0776362,28.8499566 C67.0776362,29.8845924 66.2403216,30.7233304 65.2074418,30.7233304 L41.144275,30.7233304 L41.144275,28.6751084 L34.4576522,1.21334717 C34.3295006,0.68703221 34.6515516,0.15630559 35.1769733,0.0279360877 C35.2529291,0.0093788064 35.3308301,1.43862771e-17 35.4090124,0 C36.1408411,-1.34663305e-16 36.7778333,0.501151949 36.9512447,1.21334717 L43.224296,26.9765828 Z" id="Detail" fill="#B6C5D9"></path>
                            </g>
                            <g id="Detail">
                                <use fill="#A7A7EE" xlink:href="#path-21"></use>
                                <use fill="url(#linearGradient-20)" xlink:href="#path-21"></use>
                            </g>
                            <g id="Detail" transform="translate(78.090382, 95.417173)">
                                <g>
                                    <use fill="#A7A7EE" xlink:href="#path-23"></use>
                                    <use fill="url(#linearGradient-22)" xlink:href="#path-23"></use>
                                </g>
                                <g>
                                    <use fill="#403F9F" xlink:href="#path-25"></use>
                                    <use fill="url(#linearGradient-24)" xlink:href="#path-25"></use>
                                </g>
                            </g>
                            <g id="Hand-R">
                                <use fill="#FFC42D" xlink:href="#path-27"></use>
                                <use fill="url(#linearGradient-26)" xlink:href="#path-27"></use>
                            </g>
                            <path d="M113.103751,84.5975145 C111.178924,75.7620872 107.024953,59.206217 110.414627,59.1986123 C114.598961,59.2082781 125.466664,59.2364481 126.727195,71.656934 C127.110662,75.435383 127.623378,79.5240943 127.897408,83.376546 C127.940137,83.9772467 125.784179,85.0600409 120.489446,85.3598486 C116.959623,85.5597203 114.497725,85.305609 113.103751,84.5975145 Z" id="Blouse" fill="#F2F5F9"></path>
                            <g id="Nack" transform="translate(92.857474, 39.965308)">
                                <g>
                                    <use fill="#FFC42D" xlink:href="#path-29"></use>
                                    <use fill="url(#linearGradient-28)" xlink:href="#path-29"></use>
                                </g>
                                <path d="M16.5191194,9.7415438 C13.2215879,14.3512641 7.46084096,17.4848222 3.75434531,17.4848222 C2.81628586,17.4848222 1.56923603,17.2122051 0.250289687,16.7354727 L1.00115875,0 L17.0196987,0 L16.5191194,9.7415438 L16.5191194,9.7415438 Z" id="Sh" fill="url(#linearGradient-30)"></path>
                            </g>
                            <g id="Face" transform="translate(75.837775, 0.000000)">
                                <path d="M18.3014658,11.438035 C26.7588624,11.438035 33.6149371,18.2845661 33.6149371,26.7301904 L33.6149371,39.6601429 C33.6149371,48.1057672 23.5855616,54.9522984 18.3014658,54.9522984 C13.0173699,54.9522984 2.98799441,48.1057672 2.98799441,39.6601429 C3.48599348,35.7593443 3.73499301,33.6612587 3.73499301,33.3658861 C3.73499301,33.0705135 3.48599348,30.8586149 2.98799441,26.7301904 C2.98799441,18.2845661 9.84406906,11.438035 18.3014658,11.438035 Z" fill="#FFC42D"></path>
                                <g id="Hair">
                                    <use fill="#1F1845" xlink:href="#path-32"></use>
                                    <use fill="url(#linearGradient-31)" xlink:href="#path-32"></use>
                                </g>
                                <g id="Ear" transform="translate(29.630945, 30.584311)">
                                    <path d="M2.24099581,11.189382 C-0.842920189,11.1363523 -0.647598484,-0.0520115338 2.24099581,-2.65017804e-14 C5.37323017,0.0530673082 7.76992891,2.60025948 7.71898556,5.47036454 C7.66205571,8.7794222 5.17790846,11.2414311 2.24099581,11.189382 Z" fill="#FFC42D"></path>
                                    <ellipse id="Sh" fill="url(#linearGradient-33)" cx="2.98799441" cy="5.71901748" rx="1.99199627" ry="1.98922347"></ellipse>
                                </g>
                                <path d="M29.9686103,31.5740735 C29.7375912,31.5772974 29.3521675,31.5789226 29.2574453,31.5789226 C25.0900005,31.5789226 21.6583167,28.4331404 21.2137035,24.389752 C19.9617617,25.0124045 18.5500681,25.3625992 17.0564681,25.3625992 C14.8364059,25.3625992 12.7973024,24.5889015 11.1947955,23.2967882 C10.4901231,23.6634274 9.68904045,23.8706816 8.83948346,23.8706816 C7.70086945,23.8706816 6.64932765,23.4984001 5.80026031,22.8690787 C4.54627134,24.6354461 3.65826148,26.6791572 3.24657083,28.890025 C3.16949981,28.2402845 3.08330767,27.5203397 2.98799441,26.7301904 C2.98799441,23.4391544 4.02905808,20.3909334 5.80026095,17.896019 C6.64932765,18.5253414 7.70086945,18.897623 8.83948346,18.897623 C9.68904045,18.897623 10.4901231,18.6903687 11.1947955,18.3237295 C12.7973024,19.6158428 14.8364059,20.3895406 17.0564681,20.3895406 C18.5500681,20.3895406 19.9617617,20.0393458 21.2137035,19.4166933 C21.6583167,23.4600817 25.0900005,26.6058639 29.2574453,26.6058639 C29.3813418,26.6058639 29.504588,26.6030835 29.6271247,26.5975818 C29.4669741,27.2369891 29.5728262,27.9357197 29.6271247,28.6241407 C29.8723044,31.7326365 30.0397636,31.5730806 29.9686103,31.5740735 Z" id="Sh" fill="url(#linearGradient-34)"></path>
                            </g>
                            <path d="M80.5932793,93.169124 C80.6906027,87.0498778 81.0243222,81.8044312 81.594438,77.432784" id="Line" stroke="#FFFFFF" stroke-width="0.5" stroke-linecap="round" stroke-linejoin="round"></path>
                            <path d="M114.132097,89.6311088 C114.132737,88.1987497 112.957256,83.2186195 111.776377,77.6825672" id="Line" stroke="#FFFFFF" stroke-width="0.5" stroke-linecap="round" stroke-linejoin="round"></path>
                        </g>
                        <g id="Girl-and-Macbook" transform="translate(338.892236, 143.875108) scale(-1, 1) translate(-338.892236, -143.875108) translate(255.045191, 45.710321)">
                            <g id="Hair">
                                <use fill="#464D89" xlink:href="#path-36"></use>
                                <use fill="url(#linearGradient-35)" xlink:href="#path-36"></use>
                            </g>
                            <g id="Hand-L" transform="translate(29.371732, 115.017246) rotate(-100.000000) translate(-29.371732, -115.017246) ">
                                <use fill="#A7A7EE" xlink:href="#path-38"></use>
                                <use fill="url(#linearGradient-37)" xlink:href="#path-38"></use>
                            </g>
                            <g id="Hand-L">
                                <use fill="#464D89" xlink:href="#path-40"></use>
                                <use fill="url(#linearGradient-39)" xlink:href="#path-40"></use>
                            </g>
                            <g id="Hand-L">
                                <use fill="#A7A7EE" xlink:href="#path-43"></use>
                                <use fill="url(#linearGradient-41)" xlink:href="#path-43"></use>
                                <use fill="url(#linearGradient-42)" xlink:href="#path-43"></use>
                            </g>
                            <g id="Hand-R">
                                <use fill="#FFC62C" xlink:href="#path-45"></use>
                                <use fill="url(#linearGradient-44)" xlink:href="#path-45"></use>
                            </g>
                            <g id="Macbook" transform="translate(21.024334, 88.173461)">
                                <path d="M3.11344832,2.01249828e-15 L43.9735257,0 L53.3117034,38.2168257 L9.22188233,38.2168257 C8.7913818,38.2168257 8.41666914,37.9230576 8.31465938,37.505579 L0.0893718096,3.84329583 C-0.317982175,2.17618509 0.705717344,0.495100362 2.37586868,0.0884879876 C2.61730818,0.0297075136 2.86493114,2.8051915e-15 3.11344832,2.01249828e-15 Z" id="Detail" fill="#D6DFEA"></path>
                                <ellipse id="Logo" fill="#F2F5F9" cx="25.2792584" cy="19.2333044" rx="2.75318656" ry="2.74761492"></ellipse>
                                <path d="M53.5392198,33.5562372 L81.0094622,33.5562372 C82.3001537,33.5562372 83.3464658,34.5995454 83.3464658,35.8865314 C83.3464658,37.1735174 82.3001537,38.2168257 81.0094622,38.2168257 L50.9400158,38.2168257 L50.9400158,35.6690373 L42.5843806,1.50928551 C42.4242418,0.854601042 42.8266782,0.194428905 43.4832476,0.0347497677 C43.5781623,0.0116663202 43.6755077,1.78951252e-17 43.7732047,0 C44.6877013,-1.67508014e-16 45.4836898,0.623384131 45.7003854,1.50928551 L53.5392198,33.5562372 Z" id="Detail" fill="#B6C5D9"></path>
                            </g>
                            <g id="Group" transform="translate(119.514302, 52.204683)">
                                <mask id="mask-48" fill="white">
                                    <use xlink:href="#path-47"></use>
                                </mask>
                                <g id="Body">
                                    <use fill="#A7A7EE" xlink:href="#path-47"></use>
                                    <use fill="url(#linearGradient-46)" xlink:href="#path-47"></use>
                                </g>
                                <path d="M37.2932895,37.1131779 C38.1449266,41.3207561 38.7123107,45.8570794 38.9190704,50.7059844 C39.3885563,62.4217561 36.7379567,69.1307672 32.6931953,72.4617834 C27.3651318,73.5891149 21.8926973,73.8445035 16.2758917,73.2279491 C12.6896717,71.6552986 9.38071914,69.2843531 6.98497939,66.7152584 C9.73942769,43.2202061 16.2830664,31.47268 26.6158956,31.47268 C30.7537914,31.47268 34.3932734,33.7024768 37.2932895,37.1131779 Z" id="Sh" fill="url(#linearGradient-49)" mask="url(#mask-48)"></path>
                                <ellipse id="Detail" fill="#FFFFFF" mask="url(#mask-48)" cx="-0.750869061" cy="2.37294016" rx="8.25955968" ry="9.11708586"></ellipse>
                                <ellipse id="Detail" fill="#FFFFFF" mask="url(#mask-48)" cx="11.5133256" cy="6.36947095" rx="8.25955968" ry="9.11708586"></ellipse>
                            </g>
                            <g id="Neck" transform="translate(115.133256, 36.718127)">
                                <mask id="mask-52" fill="white">
                                    <use xlink:href="#path-51"></use>
                                </mask>
                                <g>
                                    <use fill="#FFC62C" xlink:href="#path-51"></use>
                                    <use fill="url(#linearGradient-50)" xlink:href="#path-51"></use>
                                </g>
                                <mask id="mask-55" fill="white">
                                    <use xlink:href="#path-54"></use>
                                </mask>
                                <use id="Sh" fill="url(#linearGradient-53)" xlink:href="#path-54"></use>
                            </g>
                            <g id="Hand-R">
                                <use fill="#A7A7EE" xlink:href="#path-57"></use>
                                <use fill="url(#linearGradient-56)" xlink:href="#path-57"></use>
                            </g>
                            <path d="M140.850248,54.3047754 C141.057595,54.3047754 141.225683,54.472523 141.225683,54.6794501 C141.225683,54.8863773 141.057595,55.0541249 140.850248,55.0541249 C137.444867,55.0541249 133.790906,60.6149387 130.449854,69.7291971 C128.06226,76.2424608 125.896965,84.8220904 125.896965,86.7412797 C125.896965,87.9541997 122.774808,90.1642067 116.234285,93.771693 C111.080308,96.6144167 103.829045,100.285721 94.4712417,104.789947 C94.4134283,104.817774 94.3555345,104.845634 94.2975603,104.873525 C92.2312858,105.8676 91.8695084,105.209919 93.9122041,104.227315 C93.9750439,104.197087 94.0377893,104.166897 94.1004405,104.136743 C103.463916,99.6301879 110.721203,95.9563045 115.871076,93.115844 C121.955687,89.7598207 125.146096,87.5015018 125.146096,86.7412797 C125.146096,84.7109259 127.32889,76.0619573 129.744691,69.4717477 C133.205744,60.0301297 136.967823,54.3047754 140.850248,54.3047754 Z" id="Line" fill="#FFFFFF" fill-rule="nonzero"></path>
                            <g id="Hair">
                                <use fill="#464D89" xlink:href="#path-59"></use>
                                <use fill="url(#linearGradient-58)" xlink:href="#path-59"></use>
                            </g>
                            <g id="Face">
                                <use fill="#FFC62C" xlink:href="#path-61"></use>
                                <use fill="url(#linearGradient-60)" xlink:href="#path-61"></use>
                            </g>
                            <ellipse id="Sh" fill="url(#linearGradient-62)" cx="132.844253" cy="34.9101942" rx="2.19303639" ry="2.18859833"></ellipse>
                            <g id="Leg-R">
                                <use fill="#A7A7EE" xlink:href="#path-64"></use>
                                <use fill="url(#linearGradient-63)" xlink:href="#path-64"></use>
                            </g>
                            <g id="Leg-R">
                                <use fill="#464D89" xlink:href="#path-66"></use>
                                <use fill="url(#linearGradient-65)" xlink:href="#path-66"></use>
                            </g>
                        </g>
                    </g>
                </g>
            </g>
        </g>
    </g>
</svg>