<?xml version="1.0" encoding="UTF-8"?>
<svg width="401px" height="210px" viewBox="0 0 401 210" version="1.1" xmlns="http://www.w3.org/2000/svg" xmlns:xlink="http://www.w3.org/1999/xlink">
    <!-- Generator: Sketch 53.2 (72643) - https://sketchapp.com -->
    <title>Group</title>
    <desc>Created with Sketch.</desc>
    <defs>
        <path d="M11.2657555,184.895288 C-13.8885271,85.0478529 3.11596256,25.1910552 62.2792244,5.32489483 C151.024117,-24.4743457 192.494767,82.3408409 230.491268,73.4723476 C268.48777,64.6038543 314.893829,13.738892 368.420653,54.0416441 C404.180848,80.7616269 410.473432,124.379508 387.298405,184.895288 L11.2657555,184.895288 Z" id="path-1"></path>
        <linearGradient x1="50%" y1="0%" x2="50%" y2="100%" id="linearGradient-3">
            <stop stop-color="#A7A7EE" stop-opacity="0" offset="0%"></stop>
            <stop stop-color="#4C55A0" stop-opacity="0.2" offset="100%"></stop>
        </linearGradient>
        <path d="M58.9708468,93 C47.1277446,93 21.8852583,95.3047396 6.877478,105.846673 C-8.30557849,116.641958 16.421811,184.532544 58.9708468,184.532544 C101.701607,184.532544 104.599254,109.641258 96.6383596,101.29681 C88.5119024,93 70.9956733,93 58.9708468,93 Z" id="path-4"></path>
        <linearGradient x1="24.5601816%" y1="97.4989531%" x2="86.750976%" y2="0%" id="linearGradient-5">
            <stop stop-color="#464D89" stop-opacity="0.3" offset="0%"></stop>
            <stop stop-color="#A7A7EE" stop-opacity="0" offset="100%"></stop>
        </linearGradient>
        <linearGradient x1="50%" y1="0%" x2="50%" y2="100%" id="linearGradient-6">
            <stop stop-color="#A7A7EE" stop-opacity="0" offset="0%"></stop>
            <stop stop-color="#4C55A0" stop-opacity="0.2" offset="100%"></stop>
        </linearGradient>
        <path d="M96.393902,101.183055 C104.421625,107.508997 105.968994,125.073196 106,147.958145 C105.968994,171.202349 102.709059,182.135004 88.6556563,185.110931 C79.2867211,187.094883 59.8076889,185.758452 30.2185599,181.101638 C29.3812366,169.722833 31.249089,164.020726 35.822117,163.995319 C43.960585,164.020726 58.2807868,162.5952 78.7827222,159.71874 C83.5054155,147.524556 85.90694,138.347729 85.9872957,132.188258 C85.9895401,103.633068 88.3661786,94.857113 96.393902,101.183055 Z" id="path-7"></path>
        <linearGradient x1="50%" y1="0%" x2="50%" y2="100%" id="linearGradient-8">
            <stop stop-color="#403F9F" stop-opacity="0" offset="0%"></stop>
            <stop stop-color="#000000" stop-opacity="0.2" offset="100%"></stop>
        </linearGradient>
        <path d="M97.2124352,42.0484014 C97.2124352,52.2083286 88.9891619,60.444577 78.8452403,60.444577 C76.6237475,60.444577 74.4943689,60.0495676 72.4047953,59.2500202 C74.8848424,76.6901199 79.7563371,87.6804734 59.7624403,87.6804734 C35.7075568,87.6804734 16.1105354,68.0525308 16.1105354,43.720781 C16.1105354,19.6279425 35.7075568,0 59.7624403,0 C61.303222,0 66.7158243,0 68.3497003,0 C84.2367508,0 97.2124352,8.93151609 97.2124352,20.0685552 C97.2124352,23.746765 95.6707668,27.2965804 92.9188052,30.3417442 C95.6290156,33.5022749 97.2124352,37.5901327 97.2124352,42.0484014 Z" id="path-9"></path>
        <linearGradient x1="50%" y1="0%" x2="50%" y2="100%" id="linearGradient-10">
            <stop stop-color="#FFC62C" stop-opacity="0" offset="0%"></stop>
            <stop stop-color="#FF6663" stop-opacity="0.3" offset="100%"></stop>
        </linearGradient>
        <path d="M0,0 L23.433506,0 L23.433506,16.1649038 C23.433506,22.6358878 18.187737,27.8816568 11.716753,27.8816568 L11.716753,27.8816568 C5.24576901,27.8816568 2.56882383e-15,22.6358878 1.77635684e-15,16.1649038 L0,0 Z" id="path-11"></path>
        <linearGradient x1="100%" y1="9.26366231%" x2="0%" y2="90.7363377%" id="linearGradient-13">
            <stop stop-color="#000000" stop-opacity="0.25" offset="0%"></stop>
            <stop stop-color="#FFC42C" stop-opacity="0" offset="100%"></stop>
        </linearGradient>
        <linearGradient x1="50%" y1="0%" x2="50%" y2="100%" id="linearGradient-14">
            <stop stop-color="#FFC62C" stop-opacity="0" offset="0%"></stop>
            <stop stop-color="#FF6663" stop-opacity="0.3" offset="100%"></stop>
        </linearGradient>
        <path d="M33.7353122,50.2204785 C35.5452293,51.1739563 37.631486,51.6916861 39.8729545,51.8261727 C47.4829979,51.6916861 53.6801935,45.4793204 53.7493633,37.9101564 C53.6801935,37.533722 53.6717864,37.2534334 53.7493633,36.8396936 C57.9659412,38.7257395 62.9914082,39.7298696 68.4263341,39.7834663 C74.8561563,39.7298696 80.8556556,38.2569465 85.5049911,35.7692308 C87.4686031,39.9798479 88.3289266,44.7356535 88.1735312,49.6852471 C88.3374736,63.4519436 89.8090643,68.8505043 88.1735312,74.5735071 C86.9207972,80.6333285 82.1684635,91.1656805 67.092064,91.1656805 C51.7292633,91.1656805 38.4489827,81.8637769 34.5358742,70.2916559 C28.7632269,70.4225488 26.099676,64.0606432 25.9965458,57.7137181 C26.2483733,51.8306117 30.9197232,50.0313203 33.7353122,50.2204785 L33.7353122,50.2204785 Z" id="path-15"></path>
        <linearGradient x1="50%" y1="0%" x2="50%" y2="100%" id="linearGradient-16">
            <stop stop-color="#A7A7EE" stop-opacity="0" offset="0%"></stop>
            <stop stop-color="#4C55A0" stop-opacity="0.2" offset="100%"></stop>
        </linearGradient>
        <path d="M8.5252494,104.860472 C-0.615418487,110.475827 -2.98269175,121.253727 4.2626247,140.681665 C6.97072015,148.023848 10.1442028,155.641062 13.5871162,162.334774 C19.0242165,172.969975 25.0804229,181.047337 30.637615,181.047337 C39.7193821,181.047337 35.2901236,132.799897 27.4406465,119.028556 C19.4171318,105.172885 17.4561368,99.1678842 8.5252494,104.860472 Z" id="path-17"></path>
        <linearGradient x1="50%" y1="0%" x2="50%" y2="100%" id="linearGradient-18">
            <stop stop-color="#FFC62C" stop-opacity="0" offset="0%"></stop>
            <stop stop-color="#FF6663" stop-opacity="0.3" offset="100%"></stop>
        </linearGradient>
        <path d="M37.6966557,177.303215 C31.8464727,183.948896 27.5355344,180.982133 25.1810331,175.163717 C22.623731,169.148614 21.9189607,160.455345 23.0507144,155.10592 C25.2485978,144.386764 41.2951753,107.707104 41.9572931,99.4789627 C41.7206978,99.0274483 33.0937418,83.8802906 32.9034385,79.4211656 C33.0937418,75.0245917 32.5793317,68.9106539 35.0337573,66.8516128 C37.3482706,64.876455 44.5448341,55.705261 49.6796985,62.8400534 C55.0597459,69.9778203 56.2301154,72.5788799 50.7448579,75.6770435 C44.9349572,78.9885875 52.6108008,85.8871277 53.6740462,87.7117217 C58.0251708,96.7953865 49.7223249,163.680556 37.6966557,177.303215 Z" id="path-19"></path>
        <linearGradient x1="100%" y1="43.3736272%" x2="0%" y2="56.6263728%" id="linearGradient-20">
            <stop stop-color="#000000" stop-opacity="0.15" offset="0%"></stop>
            <stop stop-color="#FFC42C" stop-opacity="0" offset="100%"></stop>
        </linearGradient>
        <linearGradient x1="50%" y1="0%" x2="50%" y2="100%" id="linearGradient-21">
            <stop stop-color="#393E41" stop-opacity="0" offset="0%"></stop>
            <stop stop-color="#000000" stop-opacity="0.3" offset="100%"></stop>
        </linearGradient>
        <path d="M17.3127318,0 L131.687268,0 C133.518205,-3.33813303e-16 135.002472,1.4731276 135.002472,3.29032258 L135.002472,80.2473118 L13.9975278,80.2473118 L13.9975278,3.29032258 C13.9975278,1.4731276 15.4817952,3.33813303e-16 17.3127318,0 Z" id="path-22"></path>
        <linearGradient x1="50%" y1="0%" x2="50%" y2="100%" id="linearGradient-23">
            <stop stop-color="#393E41" stop-opacity="0" offset="0%"></stop>
            <stop stop-color="#000000" stop-opacity="0.3" offset="100%"></stop>
        </linearGradient>
        <path d="M0,83.172043 L149,83.172043 C147.820728,84.3424642 146.221292,85 144.55355,85 L4.4464502,85 C2.77870786,85 1.17927191,84.3424642 0,83.172043 Z" id="path-24"></path>
        <linearGradient x1="50%" y1="0%" x2="50%" y2="100%" id="linearGradient-25">
            <stop stop-color="#4E565C" stop-opacity="0" offset="0%"></stop>
            <stop stop-color="#000000" stop-opacity="0.1" offset="100%"></stop>
        </linearGradient>
        <path d="M0.552533993,80.2473118 L148.447466,80.2473118 C148.752622,80.2473118 149,80.4928331 149,80.7956989 L149,83.172043 L0,83.172043 L0,80.7956989 C-3.73708438e-17,80.4928331 0.247377895,80.2473118 0.552533993,80.2473118 Z" id="path-26"></path>
        <linearGradient x1="0%" y1="49.5646484%" x2="100%" y2="50.4353516%" id="linearGradient-27">
            <stop stop-color="#000000" stop-opacity="0.3" offset="0%"></stop>
            <stop stop-color="#000000" stop-opacity="0.1" offset="100%"></stop>
        </linearGradient>
        <linearGradient x1="50%" y1="0%" x2="50%" y2="100%" id="linearGradient-28">
            <stop stop-color="#151B4A" offset="0%"></stop>
            <stop stop-color="#464D89" offset="100%"></stop>
        </linearGradient>
        <path d="M0.75,0 L114.729604,0 C115.143818,-7.80189629e-15 115.479604,0.335786438 115.479604,0.75 L115.479604,70.905914 C115.479604,71.3201275 115.143818,71.655914 114.729604,71.655914 L0.75,71.655914 C0.335786438,71.655914 5.07265313e-17,71.3201275 0,70.905914 L0,0.75 C-5.07265313e-17,0.335786438 0.335786438,7.6089797e-17 0.75,0 Z" id="path-29"></path>
        <linearGradient x1="65.1620448%" y1="0%" x2="65.1620448%" y2="100%" id="linearGradient-31">
            <stop stop-color="#A7A7EE" stop-opacity="0" offset="0%"></stop>
            <stop stop-color="#464D89" stop-opacity="0.3" offset="100%"></stop>
        </linearGradient>
        <path d="M0,20.1075269 C6.93658796,20.2527175 16.2682732,16.3530759 27.9950556,8.40860215 C39.588381,0.472793866 51.5599508,-1.84261832 63.9097651,1.46236559 L83.6168109,49.9032258 L0,49.9032258 L0,20.1075269 Z" id="path-32"></path>
        <linearGradient x1="50%" y1="0%" x2="50%" y2="100%" id="linearGradient-34">
            <stop stop-color="#464D89" offset="0%"></stop>
            <stop stop-color="#5D66B2" stop-opacity="0" offset="100%"></stop>
        </linearGradient>
        <linearGradient x1="50%" y1="0%" x2="50%" y2="100%" id="linearGradient-35">
            <stop stop-color="#464D89" stop-opacity="0" offset="0%"></stop>
            <stop stop-color="#000000" stop-opacity="0.2" offset="100%"></stop>
        </linearGradient>
        <path d="M7.96641166e-13,29.286515 C12.1884798,35.4513699 24.0387136,33.6880591 35.5507014,23.9965825 C46.506081,14.7736918 66.1667693,19.3834134 68.4082079,15.8107957 C70.6496465,12.238178 48.3935775,6.10435734 48.3935775,3.64818267 C48.3935775,2.01073289 53.56564,0.794672001 63.9097651,0 L115.479604,16.6847545 L115.479604,48.4408602 L0,48.4408602 L7.96641166e-13,29.286515 Z" id="path-36"></path>
        <linearGradient x1="62.4776711%" y1="43.931353%" x2="50%" y2="56.068647%" id="linearGradient-38">
            <stop stop-color="#191E4E" stop-opacity="0.41" offset="0%"></stop>
            <stop stop-color="#464D89" stop-opacity="0" offset="100%"></stop>
        </linearGradient>
        <linearGradient x1="62.4776711%" y1="45.3873994%" x2="50%" y2="54.6126006%" id="linearGradient-39">
            <stop stop-color="#181E4E" stop-opacity="0.8" offset="0%"></stop>
            <stop stop-color="#464D89" stop-opacity="0" offset="100%"></stop>
        </linearGradient>
    </defs>
    <g id="Page-1" stroke="none" stroke-width="1" fill="none" fill-rule="evenodd">
        <g id="Home" transform="translate(-185.000000, -754.000000)">
            <g id="Body" transform="translate(181.000000, 721.000000)">
                <g id="Group-2" transform="translate(4.000000, 33.000000)">
                    <g id="Group">
                        <g id="Detail" opacity="0.697405134">
                            <g id="Diagram" transform="translate(0.000000, 25.104712)">
                                <mask id="mask-2" fill="white">
                                    <use xlink:href="#path-1"></use>
                                </mask>
                                <use id="Detail" fill="#F2F5F9" xlink:href="#path-1"></use>
                                <path d="M400.688709,73.6391786 C401.529498,73.6354275 402.214142,74.3120222 402.217904,75.1503952 C402.221666,75.9887681 401.543121,76.6714445 400.702332,76.6751956 C395.609219,76.697918 391.921664,80.4395621 389.049513,88.0469512 C386.770578,94.083106 385.498302,100.23821 383.098287,114.894646 C380.607943,130.101994 379.277109,136.497068 376.843595,142.860994 C373.504889,151.592102 368.80581,156.270901 362.030628,156.253011 C358.331728,156.26283 355.227915,154.125179 352.680411,150.146136 C350.466938,146.688828 348.622325,141.786634 347.026845,135.40314 C344.514655,125.3519 343.003144,114.480981 340.540492,91.8003306 C340.495664,91.3874773 340.449413,90.9611215 340.390435,90.4171518 C340.372564,90.2523253 340.270074,89.3068943 340.240572,89.0348116 C337.819608,66.7076282 336.499464,56.9230803 334.278443,47.5800439 C331.499907,35.8917373 327.972912,30.0568695 323.662111,30.0568695 C318.945848,30.0568695 315.309053,34.1917204 312.328867,42.5926024 C309.965838,49.253774 308.562635,56.0086124 305.805255,72.1458994 C303.006441,88.5256851 301.591857,95.3404013 299.154919,102.219651 C295.801017,111.687404 291.348963,116.758672 284.992599,116.761046 C278.947038,116.758798 274.357504,114.403395 270.750173,109.928057 C268.071812,106.60522 266.379254,103.086806 263.503556,95.7527474 C263.450624,95.6177521 263.396904,95.4806488 263.323929,95.2943277 C263.234268,95.0653884 263.234268,95.0653884 263.144719,94.8367731 C260.438641,87.9293191 259.000218,84.8722376 256.811056,82.0381191 C254.065661,78.4838923 250.779547,76.6981756 246.332104,76.6751905 C242.541363,76.6947617 239.638358,80.1116338 237.297687,87.1897478 C235.377137,92.9974304 234.169167,99.5430024 232.178068,113.298833 C232.102269,113.822504 231.79877,115.924104 231.722561,116.450621 C231.54431,117.682125 231.400498,118.668964 231.260235,119.620719 C229.07574,134.443623 227.271292,143.114712 224.397221,150.374428 C220.594383,159.980148 215.231744,165.16098 207.655277,165.16098 C203.557497,165.16098 200.18673,162.888191 197.514423,158.645003 C195.182224,154.94185 193.33599,149.694309 191.839088,142.856688 C189.496083,132.154204 188.352196,121.050448 186.545691,96.2006515 C186.523488,95.8952374 186.503206,95.6161196 186.460744,95.0316958 C184.659666,70.2439693 183.607249,59.798565 181.425044,49.5267892 C178.663777,36.5293321 174.705314,30.0568695 169.290812,30.0568695 C163.461044,30.0568695 159.015937,34.2798628 155.465299,42.6761806 C152.555648,49.5567331 150.525292,58.1732644 148.125228,72.1471795 C147.90062,73.4549195 147.67371,74.7983515 147.380124,76.5531405 C147.360581,76.6699499 146.808715,79.975281 146.649163,80.9255911 C144.558583,93.3773561 143.218772,99.8141572 141.29868,105.347089 C138.719252,112.779957 135.385436,116.758854 130.622571,116.761046 C125.567818,116.763372 121.533448,113.767628 118.032381,108.157443 C115.482008,104.070668 113.738416,99.9319773 110.227317,90.4238847 C110.136942,90.1791356 110.136942,90.1791356 110.046594,89.9344614 C106.563194,80.5014579 104.823173,76.3824736 102.355135,72.4558266 C99.2585608,67.5291791 95.9458095,65.0948585 91.9529233,65.0948585 C88.943843,65.0948585 86.4873584,68.4701222 84.4879687,75.5336427 C82.8096064,81.4630253 81.7031626,88.4637561 80.000738,102.355095 C79.8961968,103.208124 79.4327018,107.011993 79.3065138,108.040714 C79.0333789,110.267389 78.8082685,112.068615 78.5848784,113.803241 C76.5162625,129.866058 74.4936666,140.248698 71.3433084,148.545156 C67.2486344,159.328467 61.445856,165.16098 53.2839787,165.16098 C45.1207694,165.16098 40.0727579,158.60057 37.1047147,146.340448 C35.8927915,141.334346 35.0078254,135.361782 34.3116086,127.996278 C33.7858998,122.434634 33.4741125,117.740414 32.8621838,107.114637 C32.8465166,106.842581 32.8465166,106.842581 32.830847,106.570541 C32.2320519,96.1760301 31.9004121,91.2432086 31.362465,85.6592377 C30.6606688,78.3744884 29.7682537,72.4752253 28.5592559,67.5794545 C25.7974213,56.3955559 21.4761135,50.8639822 14.9245774,50.8421088 C8.04631831,50.8649196 3.72367197,53.8073236 0.936901221,59.6558987 C-1.28035979,64.309248 -2.26810092,69.4018039 -3.56256279,80.382271 C-3.58872653,80.6042089 -3.59737707,80.6777173 -3.66019896,81.2117489 C-4.32603368,86.8718255 -4.66784303,89.4255112 -5.22163472,92.4215248 C-5.95969191,96.4144148 -6.87641225,99.6632154 -8.11696486,102.402863 C-11.1495178,109.099982 -16.153597,112.633657 -23.75539,112.603985 C-24.5961816,112.600703 -25.2751096,111.918405 -25.2718183,111.08003 C-25.2685269,110.241655 -24.5842625,109.564678 -23.743471,109.56796 C-17.3998038,109.592722 -13.450629,106.803977 -10.8920088,101.153496 C-8.85702743,96.659424 -7.99357903,91.9881674 -6.6842647,80.8580487 C-6.62140548,80.3236999 -6.61274719,80.2501255 -6.58654099,80.0278275 C-5.9461469,74.5955885 -5.54669332,71.7019024 -4.94437396,68.5964885 C-4.15394961,64.5212505 -3.15899643,61.1772613 -1.81327166,58.3529987 C1.46019287,51.483003 6.8224897,47.832914 14.9246036,47.8060783 C23.270809,47.8339004 28.4588959,54.4750115 31.5157433,66.8535485 C32.7656467,71.9149645 33.6785688,77.949788 34.3933121,85.3689288 C34.9362326,91.0045248 35.2696012,95.9630611 35.870635,106.396433 C35.8863075,106.668523 35.8863075,106.668523 35.9019749,106.940583 C36.5117249,117.528529 36.8219704,122.199534 37.3429726,127.711387 C38.0267299,134.945078 38.8920223,140.784865 40.0644999,145.628029 C42.7410428,156.684048 46.9276175,162.124932 53.2839787,162.124932 C59.9041743,162.124932 64.799338,157.204685 68.4957889,147.470093 C71.5367283,139.461789 73.5253287,129.253659 75.5648774,113.416549 C75.7873779,111.688832 76.0117822,109.893256 76.2842382,107.672115 C76.4102347,106.644954 76.8737027,102.841307 76.9784217,101.986827 C78.7008237,87.9324788 79.8212139,80.8435056 81.5576514,74.7089526 C83.8936605,66.4562101 87.0940455,62.0588111 91.9529233,62.0588111 C97.1730491,62.0588111 101.336636,65.1183545 104.935112,70.8435269 C107.557267,75.0153737 109.342727,79.2419219 112.90385,88.8853965 C112.994236,89.1301755 112.994236,89.1301755 113.084575,89.3748276 C116.518873,98.6749413 118.218328,102.708866 120.617542,106.55342 C123.617986,111.361397 126.803416,113.726755 130.621165,113.724998 C133.680886,113.72359 136.222551,110.690122 138.421279,104.354276 C140.265667,99.0394961 141.584768,92.7021935 143.646156,80.4242976 C143.805437,79.4755966 144.357088,76.1715605 144.37683,76.0535572 C144.671074,74.2948327 144.898648,72.9474676 145.124122,71.6346889 C147.562323,57.4387274 149.63147,48.6575714 152.659719,41.4965662 C156.634068,32.0982872 161.978588,27.020822 169.290812,27.020822 C173.230665,27.020822 176.458399,29.2590561 179.007158,33.4265174 C181.224875,37.052695 182.978968,42.1911012 184.403743,48.897607 C185.643081,54.7312479 186.629108,61.7060926 187.496478,70.314886 C188.153776,76.8386779 188.597097,82.4191834 189.497583,94.8123055 C189.540045,95.3967301 189.560323,95.6757934 189.582521,95.9811503 C191.377434,120.671484 192.513946,131.703649 194.813835,142.20919 C197.721267,155.489892 201.899933,162.124932 207.655277,162.124932 C213.72818,162.124932 218.171125,157.832615 221.565103,149.259648 C224.325251,142.287694 226.096879,133.774319 228.247788,119.179315 C228.387616,118.230516 228.531077,117.246078 228.708987,116.016932 C228.785103,115.491062 229.088603,113.389455 229.164496,112.865135 C231.182862,98.9209196 232.408556,92.279309 234.406036,86.2389928 C237.111349,78.0582126 240.841782,73.6674483 246.332084,73.6391836 C251.781707,73.6672487 255.929335,75.9211233 259.223294,80.1855273 C261.652406,83.3302891 263.166117,86.5473793 265.980809,93.7320787 C266.070489,93.9610302 266.070489,93.9610302 266.160111,94.1898702 C266.232959,94.3758656 266.286553,94.5126494 266.339319,94.6472216 C269.101586,101.691989 270.705731,105.026613 273.123438,108.026076 C276.171647,111.807755 279.903733,113.723106 284.992596,113.724998 C289.689173,113.723244 293.31289,109.595523 296.28396,101.208467 C298.639869,94.5579549 300.037534,87.8247469 302.794109,71.6921608 C305.593777,55.3073905 307.014018,48.4705291 309.45836,41.5801444 C312.821778,32.098967 317.288244,27.020822 323.662111,27.020822 C327.047674,27.020822 329.862079,29.07874 332.159201,32.8789724 C334.141901,36.1590446 335.797685,40.8076627 337.241148,46.8797944 C339.503163,56.3952793 340.83153,66.240774 343.267728,88.7084574 C343.297236,88.9805868 343.399728,89.9260368 343.417595,90.0908251 C343.476557,90.6346519 343.522793,91.0608633 343.567601,91.4735355 C346.01419,114.006253 347.51538,124.802936 349.981275,134.668954 C353.070729,147.029819 357.0404,153.230199 362.030602,153.216974 C367.275679,153.230808 371.060785,149.462036 373.99859,141.779332 C376.32981,135.682917 377.639525,129.389324 380.044809,114.701415 C382.529382,99.5285977 383.821718,93.2764442 386.199952,86.9772818 C389.467387,78.3229135 394.054242,73.6687775 400.688709,73.6391786 Z" id="Detail" fill="#FFFFFF" fill-rule="nonzero" mask="url(#mask-2)"></path>
                            </g>
                            <path d="M9.71210566,200.837696 L389.633907,200.837696 C392.155842,200.837696 394.200275,202.888748 394.200275,205.418848 C394.200275,207.948948 392.155842,210 389.633907,210 L9.71210566,210 C7.19017036,210 5.14573786,207.948948 5.14573786,205.418848 C5.14573786,202.888748 7.19017036,200.837696 9.71210566,200.837696 Z" fill="#D3E0F1"></path>
                            <path d="M288.199388,46.9675382 L266.654295,46.9675382 C266.149678,46.9675382 265.740605,46.559905 265.740605,46.0570639 C265.740605,45.8150847 265.837272,45.5830591 266.009257,45.4122288 L311.460997,0.265639198 C311.818388,-0.0893519531 312.396904,-0.0884266245 312.753149,0.267705977 L312.753152,0.267709311 L312.753149,0.267712633 L357.913536,45.4142989 C358.269779,45.7704333 358.268847,46.346913 357.911455,46.7019024 C357.74019,46.8720156 357.508235,46.9675382 357.266419,46.9675382 L335.711296,46.9675382 L335.711296,200.837696 L288.199388,200.837696 L288.199388,46.9675382 Z" fill="#D3E0F1"></path>
                            <path d="M56.8249611,92.4363603 L35.2798684,92.4363603 C34.775251,92.4363603 34.3661778,92.0285206 34.3661778,91.5254247 C34.3661778,91.2833229 34.4628445,91.0511798 34.6348295,90.8802629 L80.0865701,45.7108 C80.4439607,45.355629 81.0224768,45.3565548 81.378722,45.7128678 L81.3787253,45.7128711 L81.378722,45.7128744 L126.539109,90.8823341 C126.895352,91.2386489 126.89442,91.8154207 126.537028,92.1705899 C126.365763,92.3407893 126.133808,92.4363603 125.891992,92.4363603 L104.336869,92.4363603 L104.336869,200.837696 L56.8249611,200.837696 L56.8249611,92.4363603 Z" fill="#D3E0F1"></path>
                        </g>
                        <g id="Man-&amp;-Phone" transform="translate(130.000000, 12.000000)">
                            <g id="Body">
                                <use fill="#A7A7EE" xlink:href="#path-4"></use>
                                <use fill="url(#linearGradient-3)" xlink:href="#path-4"></use>
                            </g>
                            <path d="M53.0927398,108.775148 C51.9934012,119.563578 65.7845951,142.981724 94.4663212,179.029586 L36.5433072,165.916219 C30.6057837,148.284724 36.1222613,129.2377 53.0927398,108.775148 Z" id="Sh" fill="url(#linearGradient-5)"></path>
                            <g id="Hand-R">
                                <use fill="#A7A7EE" xlink:href="#path-7"></use>
                                <use fill="url(#linearGradient-6)" xlink:href="#path-7"></use>
                            </g>
                            <path d="M85.6088192,132.100334 C85.611714,131.878646 85.7936392,131.70128 86.0151604,131.704177 C86.2366817,131.707074 86.4139134,131.889137 86.4110186,132.110825 C86.3297152,138.337144 83.9124709,147.565456 79.1634862,159.816128 C79.1109078,159.951762 78.9891173,160.048312 78.8451502,160.068492 C58.2812729,162.950962 43.9144457,164.379884 35.7332335,164.354703 C35.5116944,164.354021 35.3326539,164.173739 35.3333353,163.952032 C35.3340167,163.730326 35.514162,163.55115 35.7357011,163.551832 C43.8371765,163.576768 58.0971233,162.161627 78.5005671,159.306056 C83.1614961,147.246991 85.5295385,138.171749 85.6088192,132.100334 Z" id="Line" fill="#FFFFFF" fill-rule="nonzero"></path>
                            <g id="Face">
                                <use fill="#464D89" xlink:href="#path-9"></use>
                                <use fill="url(#linearGradient-8)" xlink:href="#path-9"></use>
                            </g>
                            <g id="Neck" transform="translate(46.500864, 79.609467)">
                                <mask id="mask-12" fill="white">
                                    <use xlink:href="#path-11"></use>
                                </mask>
                                <g>
                                    <use fill="#FFC62C" xlink:href="#path-11"></use>
                                    <use fill="url(#linearGradient-10)" xlink:href="#path-11"></use>
                                </g>
                                <path d="M24.7278346,18.6656527 C24.0075244,18.7198639 23.2607943,18.7480106 22.4866977,18.7480106 C14.9993755,18.7480106 7.99917951,16.4698963 2.36702081,12.7752289 L2.36702081,-2.4035911 L25.8005269,-2.4035911 L25.8005269,13.7613127 C25.8005269,15.5123638 25.4164075,17.173699 24.7278346,18.6656527 Z" id="Sh" fill="url(#linearGradient-13)" mask="url(#mask-12)"></path>
                            </g>
                            <g id="Face">
                                <use fill="#FFC62C" xlink:href="#path-15"></use>
                                <use fill="url(#linearGradient-14)" xlink:href="#path-15"></use>
                            </g>
                            <g id="Phone" transform="translate(28.010363, 53.011834)">
                                <path d="M3.73719152,0 C3.95633524,0 4.17025903,0.0667176607 4.35037306,0.191236499 L29.3778368,17.4935575 C29.6679966,17.6941546 29.8411054,18.0239233 29.8411054,18.3760748 L29.8411054,32.1379608 C29.8411054,32.4652026 29.6943487,32.7582534 29.4629046,32.9551996 L26.8808677,35.5307692 L26.8808677,21.6861567 L2.66074147,4.74087713 L0.238728843,3.04971479 L2.91790071,0.377253457 C3.11534141,0.146389026 3.40912805,0 3.73719152,0 Z" id="Detail" fill="#F0F0F6"></path>
                                <path d="M1.69179018,2.81393592 L26.7512277,20.0821016 C27.0417582,20.2823028 27.2150881,20.6114205 27.2150881,20.9628769 L27.2150881,34.6975965 C27.2150881,35.2894438 26.7325293,35.7692308 26.1372628,35.7692308 C25.9178391,35.7692308 25.703642,35.7026448 25.5232979,35.5783718 L0.463860364,18.3102061 C0.17332988,18.1100049 0,17.7808872 0,17.4294308 L0,3.69471117 C0,3.10286392 0.482558811,2.62307692 1.07782527,2.62307692 C1.29724895,2.62307692 1.51144604,2.68966288 1.69179018,2.81393592 Z" id="Detail" fill="#D6DFEA"></path>
                            </g>
                            <g id="Hand">
                                <use fill="#A7A7EE" xlink:href="#path-17"></use>
                                <use fill="url(#linearGradient-16)" xlink:href="#path-17"></use>
                            </g>
                            <path d="M36.0805231,169.117102 C36.0657181,169.337954 35.8744792,169.505002 35.6533792,169.490213 C35.4322792,169.475425 35.265044,169.284401 35.279849,169.063549 C36.1466279,156.13348 33.5412484,135.97895 29.4979349,124.534266 C29.4241921,124.325535 29.5338114,124.096612 29.7427766,124.022952 C29.9517417,123.949292 30.1809217,124.058789 30.2546645,124.267519 C34.3349858,135.816955 36.9544484,156.080428 36.0805231,169.117102 Z" id="Line" fill="#FFFFFF" fill-rule="nonzero"></path>
                            <g id="Hand">
                                <use fill="#FFC62C" xlink:href="#path-19"></use>
                                <use fill="url(#linearGradient-18)" xlink:href="#path-19"></use>
                            </g>
                            <path d="M87.3264249,41.2194771 C83.399967,43.1157702 78.040348,44.2835306 72.1317085,44.2835306 C66.3630945,44.2835306 61.1177875,43.1704626 57.2185477,41.3530613 C57.2332467,41.6139401 57.2406953,41.8767547 57.2406953,42.1413074 C57.2406953,49.7658404 51.0537808,55.9467456 43.4218351,55.9467456 C38.9236987,55.9467456 34.9275256,53.7996728 32.4041451,50.4754136 C32.8477305,50.4285626 33.2701496,50.4293718 33.6533304,50.4721753 C35.5660028,51.3088082 37.6496786,51.8249053 39.8479919,51.900324 C47.4890035,51.8249053 53.6785327,45.6321308 53.6668521,38.0948859 C53.6785327,37.7115894 53.670136,37.4321848 53.6668521,37.1427867 C57.9589786,38.8998478 62.9782287,39.9008113 68.4387372,39.9990842 C74.8282992,39.9008113 80.8203767,38.4325333 85.5931844,35.9526627 C86.3254102,37.6303201 86.902241,39.3948003 87.3264249,41.2194771 Z" id="Sh" fill="url(#linearGradient-20)"></path>
                        </g>
                        <g id="Macbook" transform="translate(219.000000, 113.000000)">
                            <g id="Detail">
                                <use fill="#393E41" xlink:href="#path-22"></use>
                                <use fill="url(#linearGradient-21)" xlink:href="#path-22"></use>
                            </g>
                            <g id="Detail">
                                <use fill="#393E41" xlink:href="#path-24"></use>
                                <use fill="url(#linearGradient-23)" xlink:href="#path-24"></use>
                            </g>
                            <g id="Detail">
                                <use fill="#4E565C" xlink:href="#path-26"></use>
                                <use fill="url(#linearGradient-25)" xlink:href="#path-26"></use>
                            </g>
                            <path d="M63.7255871,80.2473118 L85.2744129,80.2473118 C85.2744129,81.3578199 84.3673606,82.2580645 83.2484549,82.2580645 L65.7515451,82.2580645 C64.6326394,82.2580645 63.7255871,81.3578199 63.7255871,80.2473118 Z" id="Sh" fill="url(#linearGradient-27)"></path>
                            <g id="Screen" transform="translate(16.760198, 4.752688)">
                                <mask id="mask-30" fill="white">
                                    <use xlink:href="#path-29"></use>
                                </mask>
                                <use id="Bg" fill="url(#linearGradient-28)" xlink:href="#path-29"></use>
                                <g id="Stars" mask="url(#mask-30)" fill="#F7F7F8">
                                    <g transform="translate(-7.735476, -5.301075)" id="Star">
                                        <ellipse cx="24.4035847" cy="16.7258065" rx="1" ry="1"></ellipse>
                                        <ellipse cx="13.1687268" cy="11.9731183" rx="1" ry="1"></ellipse>
                                        <ellipse cx="33.6124845" cy="20.3817204" rx="1" ry="1"></ellipse>
                                        <ellipse cx="22.3776267" cy="15.6290323" rx="1" ry="1"></ellipse>
                                        <ellipse cx="37.2960445" cy="14.8978495" rx="1" ry="1"></ellipse>
                                        <ellipse cx="26.0611867" cy="10.1451613" rx="1" ry="1"></ellipse>
                                        <ellipse cx="44.6631644" cy="16.7258065" rx="1" ry="1"></ellipse>
                                        <ellipse cx="33.4283066" cy="11.9731183" rx="1" ry="1"></ellipse>
                                        <ellipse cx="20.7200247" cy="25.8655914" rx="1" ry="1"></ellipse>
                                        <ellipse cx="9.48516687" cy="21.1129032" rx="1" ry="1"></ellipse>
                                        <ellipse cx="28.0871446" cy="31.3494624" rx="1" ry="1"></ellipse>
                                        <ellipse cx="16.8522868" cy="26.5967742" rx="1" ry="1"></ellipse>
                                        <ellipse cx="35.4542645" cy="27.6935484" rx="1" ry="1"></ellipse>
                                        <ellipse cx="24.2194067" cy="22.9408602" rx="1" ry="1"></ellipse>
                                        <ellipse cx="42.6372064" cy="13.8010753" rx="1" ry="1"></ellipse>
                                        <ellipse cx="48.3467244" cy="24.0376344" rx="1" ry="1"></ellipse>
                                        <ellipse cx="37.1118665" cy="19.2849462" rx="1" ry="1"></ellipse>
                                        <ellipse cx="92.5494438" cy="24.0376344" rx="1" ry="1"></ellipse>
                                        <ellipse cx="81.3145859" cy="19.2849462" rx="1" ry="1"></ellipse>
                                        <ellipse cx="87.0241038" cy="20.3817204" rx="1" ry="1"></ellipse>
                                        <ellipse cx="75.789246" cy="15.6290323" rx="1" ry="1"></ellipse>
                                        <ellipse cx="103.600124" cy="35.0053763" rx="1" ry="1"></ellipse>
                                        <ellipse cx="92.3652658" cy="30.2526882" rx="1" ry="1"></ellipse>
                                        <ellipse cx="109.125464" cy="18.5537634" rx="1" ry="1"></ellipse>
                                        <ellipse cx="97.8906057" cy="13.8010753" rx="1" ry="1"></ellipse>
                                        <ellipse cx="105.441904" cy="25.8655914" rx="1" ry="1"></ellipse>
                                        <ellipse cx="94.2070457" cy="21.1129032" rx="1" ry="1"></ellipse>
                                        <ellipse cx="74.131644" cy="18.5537634" rx="1" ry="1"></ellipse>
                                        <ellipse cx="62.8967862" cy="13.8010753" rx="1" ry="1"></ellipse>
                                        <ellipse cx="81.6829419" cy="11.2419355" rx="1" ry="1"></ellipse>
                                        <ellipse cx="62.8967862" cy="24.7688172" rx="1" ry="1"></ellipse>
                                        <ellipse cx="68.6063041" cy="25.8655914" rx="1" ry="1"></ellipse>
                                        <ellipse cx="57.3714462" cy="21.1129032" rx="1" ry="1"></ellipse>
                                        <ellipse cx="85.1823239" cy="40.4892473" rx="1" ry="1"></ellipse>
                                        <ellipse cx="73.947466" cy="35.7365591" rx="1" ry="1"></ellipse>
                                        <ellipse cx="90.7076638" cy="24.0376344" rx="1" ry="1"></ellipse>
                                        <ellipse cx="79.4728059" cy="19.2849462" rx="1" ry="1"></ellipse>
                                        <ellipse cx="87.0241038" cy="31.3494624" rx="1" ry="1"></ellipse>
                                        <ellipse cx="75.789246" cy="26.5967742" rx="1" ry="1"></ellipse>
                                        <ellipse cx="55.7138443" cy="24.0376344" rx="1" ry="1"></ellipse>
                                        <ellipse cx="44.4789864" cy="19.2849462" rx="1" ry="1"></ellipse>
                                        <ellipse cx="63.2651422" cy="16.7258065" rx="1" ry="1"></ellipse>
                                        <ellipse cx="18.6940667" cy="37.5645161" rx="1" ry="1"></ellipse>
                                        <ellipse cx="24.4035847" cy="38.6612903" rx="1" ry="1"></ellipse>
                                        <ellipse cx="13.1687268" cy="33.9086022" rx="1" ry="1"></ellipse>
                                        <ellipse cx="40.9796044" cy="53.2849462" rx="1" ry="1"></ellipse>
                                        <ellipse cx="29.7447466" cy="48.5322581" rx="1" ry="1"></ellipse>
                                        <ellipse cx="46.5049444" cy="36.8333333" rx="1" ry="1"></ellipse>
                                        <ellipse cx="35.2700865" cy="32.0806452" rx="1" ry="1"></ellipse>
                                        <ellipse cx="42.8213844" cy="44.1451613" rx="1" ry="1"></ellipse>
                                        <ellipse cx="31.5865266" cy="39.3924731" rx="1" ry="1"></ellipse>
                                        <ellipse cx="11.5111248" cy="36.8333333" rx="1" ry="1"></ellipse>
                                        <ellipse cx="0.276266996" cy="32.0806452" rx="1" ry="1"></ellipse>
                                        <ellipse cx="19.0624227" cy="29.5215054" rx="1" ry="1"></ellipse>
                                        <ellipse cx="101.574166" cy="11.9731183" rx="1" ry="1"></ellipse>
                                        <ellipse cx="107.283684" cy="13.0698925" rx="1" ry="1"></ellipse>
                                        <ellipse cx="96.0488257" cy="8.3172043" rx="1" ry="1"></ellipse>
                                        <ellipse cx="123.859703" cy="27.6935484" rx="1" ry="1"></ellipse>
                                        <ellipse cx="112.624845" cy="22.9408602" rx="1" ry="1"></ellipse>
                                        <ellipse cx="129.385043" cy="11.2419355" rx="1" ry="1"></ellipse>
                                        <ellipse cx="118.150185" cy="6.48924731" rx="1" ry="1"></ellipse>
                                        <ellipse cx="125.701483" cy="18.5537634" rx="1" ry="1"></ellipse>
                                        <ellipse cx="114.466625" cy="13.8010753" rx="1" ry="1"></ellipse>
                                        <ellipse cx="94.3912237" cy="11.2419355" rx="1" ry="1"></ellipse>
                                        <ellipse cx="83.1563659" cy="6.48924731" rx="1" ry="1"></ellipse>
                                        <ellipse cx="101.942522" cy="3.93010753" rx="1" ry="1"></ellipse>
                                        <ellipse cx="112.624845" cy="32.0806452" rx="1" ry="1"></ellipse>
                                        <ellipse cx="118.334363" cy="33.1774194" rx="1" ry="1"></ellipse>
                                        <ellipse cx="107.099506" cy="28.4247312" rx="1" ry="1"></ellipse>
                                        <ellipse cx="134.910383" cy="47.8010753" rx="1" ry="1"></ellipse>
                                        <ellipse cx="123.675525" cy="43.0483871" rx="1" ry="1"></ellipse>
                                        <ellipse cx="140.435723" cy="31.3494624" rx="1" ry="1"></ellipse>
                                        <ellipse cx="129.200865" cy="26.5967742" rx="1" ry="1"></ellipse>
                                        <ellipse cx="136.752163" cy="38.6612903" rx="1" ry="1"></ellipse>
                                        <ellipse cx="125.517305" cy="33.9086022" rx="1" ry="1"></ellipse>
                                        <ellipse cx="105.441904" cy="31.3494624" rx="1" ry="1"></ellipse>
                                        <ellipse cx="94.2070457" cy="26.5967742" rx="1" ry="1"></ellipse>
                                        <ellipse cx="112.993201" cy="24.0376344" rx="1" ry="1"></ellipse>
                                        <ellipse cx="42.6372064" cy="8.3172043" rx="1" ry="1"></ellipse>
                                        <ellipse cx="48.3467244" cy="9.41397849" rx="1" ry="1"></ellipse>
                                        <ellipse cx="37.1118665" cy="4.66129032" rx="1" ry="1"></ellipse>
                                        <ellipse cx="64.9227441" cy="24.0376344" rx="1" ry="1"></ellipse>
                                        <ellipse cx="53.6878863" cy="19.2849462" rx="1" ry="1"></ellipse>
                                        <ellipse cx="70.4480841" cy="7.58602151" rx="1" ry="1"></ellipse>
                                        <ellipse cx="59.2132262" cy="2.83333333" rx="1" ry="1"></ellipse>
                                        <ellipse cx="66.7645241" cy="14.8978495" rx="1" ry="1"></ellipse>
                                        <ellipse cx="55.5296663" cy="10.1451613" rx="1" ry="1"></ellipse>
                                        <ellipse cx="35.4542645" cy="7.58602151" rx="1" ry="1"></ellipse>
                                        <ellipse cx="24.2194067" cy="2.83333333" rx="1" ry="1"></ellipse>
                                        <ellipse cx="43.0055624" cy="0.274193548" rx="1" ry="1"></ellipse>
                                        <ellipse cx="70.4480841" cy="6.48924731" rx="1" ry="1"></ellipse>
                                    </g>
                                </g>
                                <g id="Menu" mask="url(#mask-30)">
                                    <rect id="Bg" fill="#1C2321" x="0" y="0" width="115.479604" height="3.65591398"></rect>
                                    <path d="M6.07787392,1.46236559 L12.8924598,1.46236559 C13.0958972,1.46236559 13.2608158,1.62604644 13.2608158,1.82795699 C13.2608158,2.02986754 13.0958972,2.19354839 12.8924598,2.19354839 L6.07787392,2.19354839 C5.87443652,2.19354839 5.70951792,2.02986754 5.70951792,1.82795699 C5.70951792,1.62604644 5.87443652,1.46236559 6.07787392,1.46236559 Z" id="Button" fill="#F7F7F8"></path>
                                    <path d="M15.4709518,1.46236559 L18.6019778,1.46236559 C18.8054151,1.46236559 18.9703337,1.62604644 18.9703337,1.82795699 C18.9703337,2.02986754 18.8054151,2.19354839 18.6019778,2.19354839 L15.4709518,2.19354839 C15.2675144,2.19354839 15.1025958,2.02986754 15.1025958,1.82795699 C15.1025958,1.62604644 15.2675144,1.46236559 15.4709518,1.46236559 Z" id="Button" fill="#F7F7F8"></path>
                                    <path d="M21.1804697,1.46236559 L24.3114957,1.46236559 C24.5149331,1.46236559 24.6798517,1.62604644 24.6798517,1.82795699 C24.6798517,2.02986754 24.5149331,2.19354839 24.3114957,2.19354839 L21.1804697,2.19354839 C20.9770323,2.19354839 20.8121137,2.02986754 20.8121137,1.82795699 C20.8121137,1.62604644 20.9770323,1.46236559 21.1804697,1.46236559 Z" id="Button" fill="#F7F7F8"></path>
                                    <path d="M26.8899876,1.46236559 L30.0210136,1.46236559 C30.224451,1.46236559 30.3893696,1.62604644 30.3893696,1.82795699 C30.3893696,2.02986754 30.224451,2.19354839 30.0210136,2.19354839 L26.8899876,2.19354839 C26.6865502,2.19354839 26.5216316,2.02986754 26.5216316,1.82795699 C26.5216316,1.62604644 26.6865502,1.46236559 26.8899876,1.46236559 Z" id="Button" fill="#F7F7F8"></path>
                                    <path d="M99.6402967,1.46236559 L106.454883,1.46236559 C106.65832,1.46236559 106.823239,1.62604644 106.823239,1.82795699 C106.823239,2.02986754 106.65832,2.19354839 106.454883,2.19354839 L99.6402967,2.19354839 C99.4368593,2.19354839 99.2719407,2.02986754 99.2719407,1.82795699 C99.2719407,1.62604644 99.4368593,1.46236559 99.6402967,1.46236559 Z" id="Button" fill="#F7F7F8"></path>
                                    <path d="M32.5995056,1.46236559 L35.7305315,1.46236559 C35.9339689,1.46236559 36.0988875,1.62604644 36.0988875,1.82795699 C36.0988875,2.02986754 35.9339689,2.19354839 35.7305315,2.19354839 L32.5995056,2.19354839 C32.3960682,2.19354839 32.2311496,2.02986754 32.2311496,1.82795699 C32.2311496,1.62604644 32.3960682,1.46236559 32.5995056,1.46236559 Z" id="Button" fill="#F7F7F8"></path>
                                    <path d="M38.3090235,1.46236559 L41.4400494,1.46236559 C41.6434868,1.46236559 41.8084054,1.62604644 41.8084054,1.82795699 C41.8084054,2.02986754 41.6434868,2.19354839 41.4400494,2.19354839 L38.3090235,2.19354839 C38.1055861,2.19354839 37.9406675,2.02986754 37.9406675,1.82795699 C37.9406675,1.62604644 38.1055861,1.46236559 38.3090235,1.46236559 Z" id="Button" fill="#F7F7F8"></path>
                                    <path d="M44.0185414,1.46236559 L47.1495674,1.46236559 C47.3530048,1.46236559 47.5179234,1.62604644 47.5179234,1.82795699 C47.5179234,2.02986754 47.3530048,2.19354839 47.1495674,2.19354839 L44.0185414,2.19354839 C43.815104,2.19354839 43.6501854,2.02986754 43.6501854,1.82795699 C43.6501854,1.62604644 43.815104,1.46236559 44.0185414,1.46236559 Z" id="Button" fill="#F7F7F8"></path>
                                    <ellipse id="Button" fill="#F7F7F8" cx="3.31520396" cy="1.82795699" rx="1" ry="1"></ellipse>
                                    <ellipse id="Button" fill="#F7F7F8" cx="88.0370828" cy="1.82795699" rx="1" ry="1"></ellipse>
                                    <ellipse id="Button" fill="#F7F7F8" cx="90.9839308" cy="1.82795699" rx="1" ry="1"></ellipse>
                                    <ellipse id="Button" fill="#F7F7F8" cx="93.9307787" cy="1.82795699" rx="1" ry="1"></ellipse>
                                    <ellipse id="Button" fill="#F7F7F8" cx="96.8776267" cy="1.82795699" rx="1" ry="1"></ellipse>
                                    <ellipse id="Button" fill="#F7F7F8" cx="112.1644" cy="1.82795699" rx="1" ry="1"></ellipse>
                                    <ellipse id="Button" fill="#F7F7F8" cx="109.217553" cy="1.82795699" rx="1" ry="1"></ellipse>
                                </g>
                                <g id="Detail" mask="url(#mask-30)">
                                    <g transform="translate(0.000000, 21.752688)">
                                        <mask id="mask-33" fill="white">
                                            <use xlink:href="#path-32"></use>
                                        </mask>
                                        <g id="Detail" stroke="none" fill="none" fill-rule="evenodd">
                                            <use fill="#5B64B0" xlink:href="#path-32"></use>
                                            <use fill="url(#linearGradient-31)" xlink:href="#path-32"></use>
                                        </g>
                                        <path d="M-1.69109171e-12,24.6411309 C11.8042615,26.7406369 24.6057236,21.967943 38.4043865,10.323049 C52.2030494,-1.32184496 64.146641,0.209545772 74.2351612,14.9172212 L74.2351612,36.039576 L-1.69109171e-12,36.039576 L-1.69109171e-12,24.6411309 Z" id="Detail" stroke="none" fill="url(#linearGradient-34)" fill-rule="evenodd" mask="url(#mask-33)"></path>
                                    </g>
                                </g>
                                <g id="Detail" mask="url(#mask-30)">
                                    <g transform="translate(0.000000, 23.215054)">
                                        <mask id="mask-37" fill="white">
                                            <use xlink:href="#path-36"></use>
                                        </mask>
                                        <g id="Detail" stroke="none" fill="none" fill-rule="evenodd">
                                            <use fill="#464D89" xlink:href="#path-36"></use>
                                            <use fill="url(#linearGradient-35)" xlink:href="#path-36"></use>
                                        </g>
                                        <path d="M67.0407911,13.344086 C79.0579284,21.0022061 95.2041995,26.4251452 115.479604,29.6129032 L115.479604,48.4408602 L-5.68434189e-14,48.4408602 L-5.68434189e-14,15.9032258 C32.6767234,6.58373503 55.0236538,5.73068843 67.0407911,13.344086 Z" id="Detail" stroke="none" fill="url(#linearGradient-38)" fill-rule="evenodd" mask="url(#mask-37)"></path>
                                        <path d="M42.794648,20.5779958 C50.0248453,32.2499919 74.27152,39.0394055 115.534672,40.9462366 L115.534672,48.4408602 L7.24142274e-12,48.4408602 L7.24142274e-12,27.9677419 C21.299568,11.3692484 35.5644506,8.90599967 42.794648,20.5779958 Z" id="Detail" stroke="none" fill="url(#linearGradient-39)" fill-rule="evenodd" mask="url(#mask-37)"></path>
                                    </g>
                                </g>
                            </g>
                            <g id="Manu" transform="translate(62.067985, 68.731183)">
                                <path d="M1.84177998,0 L23.0222497,0 C24.0394367,-1.85451835e-16 24.8640297,0.818404221 24.8640297,1.82795699 L24.8640297,7.67741935 L0,7.67741935 L0,1.82795699 C-1.24569479e-16,0.818404221 0.824592982,1.85451835e-16 1.84177998,0 Z" id="Bg" fill="#FFFFFF" opacity="0.200000003"></path>
                                <ellipse id="Logo" fill="#F2F5F9" cx="20.9962917" cy="3.83870968" rx="2.02595797" ry="2.01075269"></ellipse>
                                <ellipse id="Logo" fill="#FFC42D" cx="15.2867738" cy="3.83870968" rx="2.02595797" ry="2.01075269"></ellipse>
                                <ellipse id="Logo" fill="#7BC1EB" cx="9.57725587" cy="3.83870968" rx="2.02595797" ry="2.01075269"></ellipse>
                                <ellipse id="Logo" fill="#FFC62C" cx="3.86773795" cy="3.83870968" rx="2.02595797" ry="2.01075269"></ellipse>
                            </g>
                        </g>
                    </g>
                </g>
            </g>
        </g>
    </g>
</svg>