<svg height="231" viewBox="0 0 399 231" width="399" xmlns="http://www.w3.org/2000/svg" xmlns:xlink="http://www.w3.org/1999/xlink"><defs><path id="a" d="m396.316143 112.661061c21.685456 57.928478-96.188825 111.11675-149.103139 115.649418-52.764401 4.759268-150.7797096 11.433783-217.6905825-62.755498-66.7202835-74.4628262-19.4318201-208.521798 131.2107625-152.1073743 150.76347 56.5706733 214.030754 41.4737104 235.582959 99.2134543z"/><linearGradient id="b" x1="50%" x2="50%" y1="0%" y2="100%"><stop offset="0" stop-color="#f7f7f8" stop-opacity="0"/><stop offset="1" stop-opacity=".05"/></linearGradient><path id="c" d="m87.8510998 8.35942029h66.7072762v17.61449271h-66.7072762z"/><linearGradient id="d" x1="50%" x2="50%" y1="0%" y2="100%"><stop offset="0" stop-color="#757dc0" stop-opacity="0"/><stop offset="1" stop-color="#5b64b0" stop-opacity=".2"/></linearGradient><path id="e" d="m156.930273 8.35942029h-59.6984625c-4.8518823 0-8.78511 3.94313851-8.78511 8.80724641 0 4.8641078 3.9332277 8.8072463 8.78511 8.8072463h59.6984625c2.30839 0 4.17971 1.87132 4.17971 4.1797102s-1.87132 4.1797101-4.17971 4.1797101h-139.8067535c-9.4570587 0-17.1235195-7.6857784-17.1235195-17.1666666 0-9.48088824 7.6664608-17.1666667 17.1235195-17.1666667h139.8067535c2.30839 0 4.17971 1.87131997 4.17971 4.17971014 0 2.30839018-1.87132 4.17971015-4.17971 4.17971015z"/><path id="f" d="m87.8510998 8.35942029h66.7072762v17.61449271h-66.7072762z"/><linearGradient id="g" x1="50%" x2="50%" y1="0%" y2="100%"><stop offset="0" stop-color="#e8799d" stop-opacity="0"/><stop offset="1" stop-color="#d4527d" stop-opacity=".2"/></linearGradient><path id="h" d="m156.940778 8.35942029h-59.7089675c-4.8518823 0-8.78511 3.94313851-8.78511 8.80724641 0 4.8641078 3.9332277 8.8072463 8.78511 8.8072463h59.7089675c2.302589 0 4.169205 1.87132 4.169205 4.1797102s-1.866616 4.1797101-4.169205 4.1797101h-139.8172585c-9.4570587 0-17.1235195-7.6857784-17.1235195-17.1666666 0-9.48088824 7.6664608-17.1666667 17.1235195-17.1666667h139.8172585c2.302589 0 4.169205 1.87131997 4.169205 4.17971014 0 2.30839018-1.866616 4.17971015-4.169205 4.17971015z"/><path id="i" d="m87.8510998 8.35942029h66.7072762v17.61449271h-66.7072762z"/><linearGradient id="j" x1="50%" x2="50%" y1="0%" y2="100%"><stop offset="0" stop-color="#8964a8" stop-opacity="0"/><stop offset="1" stop-opacity=".1"/></linearGradient><path id="k" d="m156.930273 8.35942029h-59.6984625c-4.8518823 0-8.78511 3.94313851-8.78511 8.80724641 0 4.8641078 3.9332277 8.8072463 8.78511 8.8072463h59.6984625c2.30839 0 4.17971 1.87132 4.17971 4.1797102s-1.87132 4.1797101-4.17971 4.1797101h-139.8067535c-9.4570587 0-17.1235195-7.6857784-17.1235195-17.1666666 0-9.48088824 7.6664608-17.1666667 17.1235195-17.1666667h139.8067535c2.30839 0 4.17971 1.87131997 4.17971 4.17971014 0 2.30839018-1.87132 4.17971015-4.17971 4.17971015z"/><linearGradient id="l" x1="64.867204%" x2="35.132796%" y1="0%" y2="100%"><stop offset="0" stop-opacity=".5"/><stop offset="1" stop-color="#8964a8" stop-opacity="0"/></linearGradient><path id="m" d="m117.333333 20.3014493h12.209814v19.7043478l-6.104907-5.9710145-6.104907 5.9710145z"/><mask id="n" fill="#fff"><use fill="#fff" fill-rule="evenodd" xlink:href="#a"/></mask></defs><g fill="none" fill-rule="evenodd"><g opacity=".697684"><use fill="#f2f5f9" xlink:href="#a"/><g mask="url(#n)"><g transform="translate(-54.571749 146.837209)"><path d="m40.8542601 0h121.0717489c1.646948 0 2.982063 1.33620443 2.982063 2.98449612v83.86434108c0 1.6482917-1.335115 2.9844961-2.982063 2.9844961h-121.0717489c-1.6469478 0-2.9820628-1.3362044-2.9820628-2.9844961v-83.86434108c0-1.64829169 1.335115-2.98449612 2.9820628-2.98449612z" fill="#d3e0f1"/><path d="m2.98206278 13.4302326h145.52466322c1.646948 0 2.982063 1.3362044 2.982063 2.9844961v38.7984496c0 1.6482917-1.335115 2.9844961-2.982063 2.9844961h-145.52466322c-1.6469478 0-2.98206278-1.3362044-2.98206278-2.9844961v-38.7984496c0-1.6482917 1.33511498-2.9844961 2.98206278-2.9844961z" fill="#e2eaf5"/></g></g><g mask="url(#n)"><g transform="translate(288.663677 146.837209)"><path d="m2.98206278 0h121.07174922c1.646947 0 2.982062 1.33620443 2.982062 2.98449612v83.86434108c0 1.6482917-1.335115 2.9844961-2.982062 2.9844961h-121.07174922c-1.6469478 0-2.98206278-1.3362044-2.98206278-2.9844961v-83.86434108c0-1.64829169 1.33511498-2.98449612 2.98206278-2.98449612z" fill="#d3e0f1"/><path d="m16.4013453 13.4302326h145.5246637c1.646948 0 2.982063 1.3362044 2.982063 2.9844961v38.7984496c0 1.6482917-1.335115 2.9844961-2.982063 2.9844961h-145.5246637c-1.6469478 0-2.9820628-1.3362044-2.9820628-2.9844961v-38.7984496c0-1.6482917 1.335115-2.9844961 2.9820628-2.9844961z" fill="#e2eaf5"/></g></g><g mask="url(#n)"><g transform="translate(110.336323 121.170543)"><path d="m2.98206278 0h172.36322822c1.646948 0 2.982063 1.33620443 2.982063 2.98449612v155.19379888c0 1.648291-1.335115 2.984496-2.982063 2.984496h-172.36322822c-1.6469478 0-2.98206278-1.336205-2.98206278-2.984496v-155.19379888c0-1.64829169 1.33511498-2.98449612 2.98206278-2.98449612z" fill="#e2eaf5"/><path d="m16.4013453 13.4302326h145.5246637c1.646948 0 2.982063 1.3362044 2.982063 2.9844961v38.7984496c0 1.6482917-1.335115 2.9844961-2.982063 2.9844961h-145.5246637c-1.6469478 0-2.9820628-1.3362044-2.9820628-2.9844961v-38.7984496c0-1.6482917 1.335115-2.9844961 2.9820628-2.9844961z" fill="#d3e0f1"/><ellipse cx="89.163677" cy="35.813954" fill="#e2eaf5" rx="6.560538" ry="6.565891"/><path d="m16.4013453 67.1511628h145.5246637c1.646948 0 2.982063 1.3362044 2.982063 2.9844961v38.7984501c0 1.648291-1.335115 2.984496-2.982063 2.984496h-145.5246637c-1.6469478 0-2.9820628-1.336205-2.9820628-2.984496v-38.7984501c0-1.6482917 1.335115-2.9844961 2.9820628-2.9844961z" fill="#d3e0f1"/><ellipse cx="89.163677" cy="89.534884" fill="#e2eaf5" rx="6.560538" ry="6.565891"/></g></g></g><g transform="translate(105 17)"><g transform="translate(0 34.333333)"><use fill="#f7f7f8" xlink:href="#c"/><use fill="url(#b)" xlink:href="#c"/><path d="m87.8511 8.35942h5.956007v17.614493h-5.956007z" fill="#d6dfea"/><use fill="#757dc0" xlink:href="#e"/><use fill="url(#d)" xlink:href="#e"/><g fill="#5b64b0"><path d="m51.6683587 34.3333333h-17.4175839c-6.7453573 0-12.2135498-7.6857784-12.2135498-17.1666666 0-9.48088824 5.4681925-17.1666667 12.2135498-17.1666667h17.4175839c-6.7453572 0-12.2135497 7.68577846-12.2135497 17.1666667 0 9.4808882 5.4681925 17.1666666 12.2135497 17.1666666z"/><ellipse cx="67.749577" cy="17.166667" rx="11.167513" ry="9.702899"/><path d="m144.436916 11.6434783h9.823659v2.9855072h-9.823659c-.824425 0-1.492754-.6683286-1.492754-1.4927536 0-.8244251.668329-1.4927536 1.492754-1.4927536z"/><path d="m120.370135 17.6144928h26.684434c.690355 0 1.25.559644 1.25 1.25v.4855072c0 .6903559-.559645 1.25-1.25 1.25h-26.684434c-.690356 0-1.25-.5596441-1.25-1.25v-.4855072c0-.690356.559644-1.25 1.25-1.25z"/></g></g><g transform="translate(14.890017 68.666667)"><use fill="#f7f7f8" xlink:href="#f"/><use fill="url(#b)" xlink:href="#f"/><path d="m87.8511 8.35942h5.956007v17.614493h-5.956007z" fill="#d6dfea"/><use fill="#5ecc62" xlink:href="#h"/><use fill="url(#g)" xlink:href="#h"/><g fill="#00ad45"><path d="m51.6683587 34.3333333h-17.4175839c-6.7453573 0-12.2135498-7.6857784-12.2135498-17.1666666 0-9.48088824 5.4681925-17.1666667 12.2135498-17.1666667h17.4175839c-6.7453572 0-12.2135497 7.68577846-12.2135497 17.1666667 0 9.4808882 5.4681925 17.1666666 12.2135497 17.1666666z"/><ellipse cx="67.749577" cy="17.166667" rx="11.167513" ry="9.702899"/><path d="m147.411168 20.6h6.849407v2.9855072h-6.849407c-.822353 0-1.489002-.6683285-1.489002-1.4927536 0-.824425.666649-1.4927536 1.489002-1.4927536z"/><path d="m108.697124 15.5246377h23.228426c.822353 0 1.489002.6683285 1.489002 1.4927536s-.666649 1.4927536-1.489002 1.4927536h-23.228426c-.822353 0-1.489002-.6683285-1.489002-1.4927536s.666649-1.4927536 1.489002-1.4927536z"/></g></g><g transform="translate(14.890017)"><use fill="#f7f7f8" xlink:href="#i"/><use fill="url(#b)" xlink:href="#i"/><path d="m87.8511 8.35942h5.956007v17.614493h-5.956007z" fill="#d6dfea"/><use fill="#8964a8" xlink:href="#k"/><use fill="url(#j)" xlink:href="#k"/><g fill="#6f4b8d"><path d="m51.6683587 34.3333333h-17.4175839c-6.7453573 0-12.2135498-7.6857784-12.2135498-17.1666666 0-9.48088824 5.4681925-17.1666667 12.2135498-17.1666667h17.4175839c-6.7453572 0-12.2135497 7.68577846-12.2135497 17.1666667 0 9.4808882 5.4681925 17.1666666 12.2135497 17.1666666z"/><ellipse cx="67.749577" cy="17.166667" rx="11.167513" ry="9.702899"/><path d="m147.411168 14.6289855h6.849407v2.9855073h-6.849407c-.822353 0-1.489002-.6683286-1.489002-1.4927537 0-.824425.666649-1.4927536 1.489002-1.4927536z"/><path d="m99.7631134 17.6144928h41.0964466c.822353 0 1.489002.6683285 1.489002 1.4927536 0 .824425-.666649 1.4927536-1.489002 1.4927536h-41.0964466c-.822353 0-1.4890017-.6683286-1.4890017-1.4927536 0-.8244251.6666487-1.4927536 1.4890017-1.4927536z"/></g></g><path d="m114.35533 20.6h12.209814v22.3913043l-6.104907-5.9710144-6.104907 5.9710144z" fill="url(#l)"/><use fill="#6f4b8d" xlink:href="#m"/><use fill="url(#j)" xlink:href="#m"/></g></g></svg>