<svg height="210" viewBox="0 0 401 210" width="401" xmlns="http://www.w3.org/2000/svg" xmlns:xlink="http://www.w3.org/1999/xlink"><defs><path id="a" d="m11.2657555 184.895288c-25.1542826-99.8474351-8.14979294-159.7042328 51.0134689-179.57039317 88.7448926-29.79924053 130.2155426 77.01594607 168.2120436 68.14745277 37.996502-8.8684933 84.402561-59.7334556 137.929385-19.4307035 35.760195 26.7199828 42.052779 70.3378639 18.877752 130.8536439z"/><linearGradient id="b" x1="50%" x2="50%" y1="0%" y2="100%"><stop offset="0" stop-color="#a7a7ee" stop-opacity="0"/><stop offset="1" stop-color="#4c55a0" stop-opacity=".2"/></linearGradient><path id="c" d="m58.9708468 93c-11.8431022 0-37.0855885 2.3047396-52.0933688 12.846673-15.18305649 10.795285 9.544333 78.685871 52.0933688 78.685871 42.7307602 0 45.6284072-74.891286 37.6675128-83.235734-8.1264572-8.29681-25.6426863-8.29681-37.6675128-8.29681z"/><linearGradient id="d" x1="24.560182%" x2="86.750976%" y1="97.498953%" y2="0%"><stop offset="0" stop-color="#464d89" stop-opacity=".3"/><stop offset="1" stop-color="#a7a7ee" stop-opacity="0"/></linearGradient><path id="e" d="m96.393902 101.183055c8.027723 6.325942 9.575092 23.890141 9.606098 46.77509-.031006 23.244204-3.290941 34.176859-17.3443437 37.152786-9.3689352 1.983952-28.8479674.647521-58.4370964-4.009293-.8373233-11.378805 1.0305291-17.080912 5.6035571-17.106319 8.138468.025407 22.4586698-1.400119 42.9606052-4.276579 4.7226933-12.194184 7.1242178-21.371011 7.2045735-27.530482.0022444-28.55519 2.3788829-37.331145 10.4066063-31.005203z"/><linearGradient id="f" x1="50%" x2="50%" y1="0%" y2="100%"><stop offset="0" stop-color="#403f9f" stop-opacity="0"/><stop offset="1" stop-opacity=".2"/></linearGradient><path id="g" d="m97.2124352 42.0484014c0 10.1599272-8.2232733 18.3961756-18.3671949 18.3961756-2.2214928 0-4.3508714-.3950094-6.440445-1.1945568 2.4800471 17.4400997 7.3515418 28.4304532-12.642355 28.4304532-24.0548835 0-43.6519049-19.6279426-43.6519049-43.9596924 0-24.0928385 19.5970214-43.720781 43.6519049-43.720781h8.58726c15.8870505 0 28.8627349 8.93151609 28.8627349 20.0685552 0 3.6782098-1.5416684 7.2280252-4.29363 10.273189 2.7102104 3.1605307 4.29363 7.2483885 4.29363 11.7066572z"/><linearGradient id="h" x1="50%" x2="50%" y1="0%" y2="100%"><stop offset="0" stop-color="#ffc62c" stop-opacity="0"/><stop offset="1" stop-color="#ff6663" stop-opacity=".3"/></linearGradient><path id="i" d="m0 0h23.433506v16.1649038c0 6.470984-5.245769 11.716753-11.716753 11.716753-6.47098399 0-11.716753-5.245769-11.716753-11.716753z"/><linearGradient id="j" x1="100%" x2="0%" y1="9.263662%" y2="90.736338%"><stop offset="0" stop-opacity=".25"/><stop offset="1" stop-color="#ffc42c" stop-opacity="0"/></linearGradient><path id="k" d="m33.7353122 50.2204785c1.8099171.9534778 3.8961738 1.4712076 6.1376423 1.6056942 7.6100434-.1344866 13.807239-6.3468523 13.8764088-13.9160163-.0691698-.3764344-.0775769-.656723 0-1.0704628 4.2165779 1.8860459 9.2420449 2.890176 14.6769708 2.9437727 6.4298222-.0535967 12.4293215-1.5265198 17.078657-4.0142355 1.963612 4.2106171 2.8239355 8.9664227 2.6685401 13.9160163.1639424 13.7666965 1.6355331 19.1652572 0 24.88826-1.252734 6.0598214-6.0050677 16.5921734-21.0814672 16.5921734-15.3628007 0-28.6430813-9.3019036-32.5561898-20.8740246-5.7726473.1308929-8.4361982-6.2310127-8.5393284-12.5779378.2518275-5.8831064 4.9231774-7.6823978 7.7387664-7.4932396z"/><path id="l" d="m8.5252494 104.860472c-9.14066789 5.615355-11.50794115 16.393255-4.2626247 35.821193 2.70809545 7.342183 5.8815781 14.959397 9.3244915 21.653109 5.4371003 10.635201 11.4933067 18.712563 17.0504988 18.712563 9.0817671 0 4.6525086-48.24744-3.1969685-62.018781-8.0235147-13.855671-9.9845097-19.8606718-18.9153971-14.168084z"/><path id="m" d="m37.6966557 177.303215c-5.850183 6.645681-10.1611213 3.678918-12.5156226-2.139498-2.5573021-6.015103-3.2620724-14.708372-2.1303187-20.057797 2.1978834-10.719156 18.2444609-47.398816 18.9065787-55.6269573-.2365953-.4515144-8.8635513-15.5986721-9.0538546-20.0577971.1903033-4.3965739-.3241068-10.5105117 2.1303188-12.5695528 2.3145133-1.9751578 9.5110768-11.1463518 14.6459412-4.0115594 5.3800474 7.1377669 6.5504169 9.7388265 1.0651594 12.8369901-5.8099007 3.311544 1.8659429 10.2100842 2.9291883 12.0346782 4.3511246 9.0836648-3.9517213 75.9688343-15.9773905 89.5914933z"/><linearGradient id="n" x1="100%" x2="0%" y1="43.373627%" y2="56.626373%"><stop offset="0" stop-opacity=".15"/><stop offset="1" stop-color="#ffc42c" stop-opacity="0"/></linearGradient><linearGradient id="o" x1="50%" x2="50%" y1="0%" y2="100%"><stop offset="0" stop-color="#393e41" stop-opacity="0"/><stop offset="1" stop-opacity=".3"/></linearGradient><path id="p" d="m17.3127318 0h114.3745362c1.830937 0 3.315204 1.4731276 3.315204 3.29032258v76.95698922h-121.0049442v-76.95698922c0-1.81719498 1.4842674-3.29032258 3.315204-3.29032258z"/><path id="q" d="m0 83.172043h149c-1.179272 1.1704212-2.778708 1.827957-4.44645 1.827957h-140.1070998c-1.66774234 0-3.26717829-.6575358-4.4464502-1.827957z"/><linearGradient id="r" x1="50%" x2="50%" y1="0%" y2="100%"><stop offset="0" stop-color="#4e565c" stop-opacity="0"/><stop offset="1" stop-opacity=".1"/></linearGradient><path id="s" d="m.55253399 80.2473118h147.89493201c.305156 0 .552534.2455213.552534.5483871v2.3763441h-149v-2.3763441c0-.3028658.2473779-.5483871.55253399-.5483871z"/><linearGradient id="t" x1="0%" x2="100%" y1="49.564648%" y2="50.435352%"><stop offset="0" stop-opacity=".3"/><stop offset="1" stop-opacity=".1"/></linearGradient><linearGradient id="u" x1="50%" x2="50%" y1="0%" y2="100%"><stop offset="0" stop-color="#151b4a"/><stop offset="1" stop-color="#464d89"/></linearGradient><path id="v" d="m.75 0h113.979604c.414214 0 .75.33578644.75.75v70.155914c0 .4142135-.335786.75-.75.75h-113.979604c-.41421356 0-.75-.3357865-.75-.75v-70.155914c0-.41421356.33578644-.75.75-.75z"/><linearGradient id="w" x1="65.162045%" x2="65.162045%" y1="0%" y2="100%"><stop offset="0" stop-color="#a7a7ee" stop-opacity="0"/><stop offset="1" stop-color="#464d89" stop-opacity=".3"/></linearGradient><path id="x" d="m0 20.1075269c6.93658796.1451906 16.2682732-3.754451 27.9950556-11.69892475 11.5933254-7.93580828 23.5648952-10.25122047 35.9147095-6.94623656l19.7070458 48.44086021h-83.6168109z"/><linearGradient id="y" x1="50%" x2="50%" y1="0%" y2="100%"><stop offset="0" stop-color="#464d89"/><stop offset="1" stop-color="#5d66b2" stop-opacity="0"/></linearGradient><linearGradient id="z" x1="50%" x2="50%" y1="0%" y2="100%"><stop offset="0" stop-color="#464d89" stop-opacity="0"/><stop offset="1" stop-opacity=".2"/></linearGradient><path id="A" d="m0 29.286515c12.1884798 6.1648549 24.0387136 4.4015441 35.5507014-5.2899325 10.9553796-9.2228907 30.6160679-4.6131691 32.8575065-8.1857868s-20.0146304-9.70643836-20.0146304-12.16261303c0-1.63744978 5.1720625-2.85351067 15.5161876-3.64818267l51.5698389 16.6847545v31.7561057h-115.479604z"/><linearGradient id="B" x1="62.477671%" x2="50%" y1="43.931353%" y2="56.068647%"><stop offset="0" stop-color="#191e4e" stop-opacity=".41"/><stop offset="1" stop-color="#464d89" stop-opacity="0"/></linearGradient><linearGradient id="C" x1="62.477671%" x2="50%" y1="45.387399%" y2="54.612601%"><stop offset="0" stop-color="#181e4e" stop-opacity=".8"/><stop offset="1" stop-color="#464d89" stop-opacity="0"/></linearGradient><mask id="D" fill="#fff"><use fill="#fff" fill-rule="evenodd" xlink:href="#a"/></mask><mask id="E" fill="#fff"><use fill="#fff" fill-rule="evenodd" xlink:href="#i"/></mask><mask id="F" fill="#fff"><use fill="#fff" fill-rule="evenodd" xlink:href="#v"/></mask><mask id="G" fill="#fff"><use fill="#fff" fill-rule="evenodd" xlink:href="#x"/></mask><mask id="H" fill="#fff"><use fill="#fff" fill-rule="evenodd" xlink:href="#A"/></mask></defs><g fill="none" fill-rule="evenodd"><g opacity=".697405"><g transform="translate(0 25.104712)"><use fill="#f2f5f9" xlink:href="#a"/><path d="m400.688709 73.6391786c.840789-.0037511 1.525433.6728436 1.529195 1.5112166.003762.8383729-.674783 1.5210493-1.515572 1.5248004-5.093113.0227224-8.780668 3.7643665-11.652819 11.3717556-2.278935 6.0361548-3.551211 12.1912588-5.951226 26.8476948-2.490344 15.207348-3.821178 21.602422-6.254692 27.966348-3.338706 8.731108-8.037785 13.409907-14.812967 13.392017-3.6989.009819-6.802713-2.127832-9.350217-6.106875-2.213473-3.457308-4.058086-8.359502-5.653566-14.742996-2.51219-10.05124-4.023701-20.922159-6.486353-43.6028094-.044828-.4128533-.091079-.8392091-.150057-1.3831788-.017871-.1648265-.120361-1.1102575-.149863-1.3823402-2.420964-22.3271834-3.741108-32.1117313-5.962129-41.4547677-2.778536-11.6883066-6.305531-17.5231744-10.616332-17.5231744-4.716263 0-8.353058 4.1348509-11.333244 12.5357329-2.363029 6.6611716-3.766232 13.41601-6.523612 29.553297-2.798814 16.3797857-4.213398 23.1945019-6.650336 30.0737516-3.353902 9.467753-7.805956 14.539021-14.16232 14.541395-6.045561-.002248-10.635095-2.357651-14.242426-6.832989-2.678361-3.322837-4.370919-6.841251-7.246617-14.1753096-.052932-.1349953-.106652-.2720986-.179627-.4584197-.089661-.2289393-.089661-.2289393-.17921-.4575546-2.706078-6.907454-4.144501-9.9645355-6.333663-12.798654-2.745395-3.5542268-6.031509-5.3399435-10.478952-5.3629286-3.790741.0195712-6.693746 3.4364433-9.034417 10.5145573-1.92055 5.8076826-3.12852 12.3532546-5.119619 26.1090852-.075799.523671-.379298 2.625271-.455507 3.151788-.178251 1.231504-.322063 2.218343-.462326 3.170098-2.184495 14.822904-3.988943 23.493993-6.863014 30.753709-3.802838 9.60572-9.165477 14.786552-16.741944 14.786552-4.09778 0-7.468547-2.272789-10.140854-6.515977-2.332199-3.703153-4.178433-8.950694-5.675335-15.788315-2.343005-10.702484-3.486892-21.80624-5.293397-46.6560365-.022203-.3054141-.042485-.5845319-.084947-1.1689557-1.801078-24.7877265-2.853495-35.2331308-5.0357-45.5049066-2.761267-12.9974571-6.71973-19.4699197-12.134232-19.4699197-5.829768 0-10.274875 4.2229933-13.825513 12.6193111-2.909651 6.8805525-4.940007 15.4970838-7.340071 29.4709989-.224608 1.30774-.451518 2.651172-.745104 4.405961-.019543.1168094-.571409 3.4221405-.730961 4.3724506-2.09058 12.451765-3.430391 18.8885661-5.350483 24.4214979-2.579428 7.432868-5.913244 11.411765-10.676109 11.413957-5.054753.002326-9.089123-2.993418-12.59019-8.603603-2.550373-4.086775-4.293965-8.2254657-7.805064-17.7335583-.090375-.2447491-.090375-.2447491-.180723-.4894233-3.4834-9.4330035-5.223421-13.5519878-7.691459-17.4786348-3.0965742-4.9266475-6.4093255-7.3609681-10.4022117-7.3609681-3.0090803 0-5.4655649 3.3752637-7.4649546 10.4387842-1.6783623 5.9293826-2.7848061 12.9301134-4.4872307 26.8214523-.1045412.853029-.5680362 4.656898-.6942242 5.685619-.2731349 2.226675-.4982453 4.027901-.7216354 5.762527-2.0686159 16.062817-4.0912118 26.445457-7.24157 34.741915-4.094674 10.783311-9.8974524 16.615824-18.0593297 16.615824-8.1632093 0-13.2112208-6.56041-16.179264-18.820532-1.2119232-5.006102-2.0968893-10.978666-2.7931061-18.34417-.5257088-5.561644-.8374961-10.255864-1.4494248-20.881641-.0156672-.272056-.0156672-.272056-.0313368-.544096-.5987951-10.3945109-.9304349-15.3273324-1.468382-20.9113033-.7017962-7.2847493-1.5942113-13.1840124-2.8032091-18.0797832-2.7618346-11.1838986-7.0831424-16.7154723-13.6346785-16.7373457-6.87825909.0228108-11.20090543 2.9652148-13.98767618 8.8137899-2.21726101 4.6533493-3.20500214 9.7459052-4.49946401 20.7263723-.02616374.2219379-.03481428.2954463-.09763617.8294779-.66583472 5.6600766-1.00764407 8.2137623-1.56143576 11.2097759-.73805719 3.99289-1.65477753 7.2416906-2.89533014 9.9813382-3.03255294 6.697119-8.03663214 10.230794-15.63842514 10.201122-.8407916-.003282-1.5197196-.68558-1.5164283-1.523955.0032914-.838375.6875558-1.515352 1.5283473-1.51207 6.3436672.024762 10.292842-2.763983 12.8514622-8.414464 2.03498137-4.494072 2.89842977-9.1653286 4.2077441-20.2954473.06285922-.5343488.07151751-.6079232.09772371-.8302212.64039409-5.432239 1.03984767-8.3259251 1.64216703-11.431339.79042435-4.075238 1.78537753-7.4192272 3.1311023-10.2434898 3.27346453-6.8699957 8.63576136-10.5200847 16.73787526-10.5469204 8.3462054.0278221 13.5342923 6.6689332 16.5911397 19.0474702 1.2499034 5.061416 2.1628255 11.0962395 2.8775688 18.5153803.5429205 5.635596.8762891 10.5941323 1.4773229 21.0275042.0156725.27209.0156725.27209.0313399.54415.60975 10.587946.9199955 15.258951 1.4409977 20.770804.6837573 7.233691 1.5490497 13.073478 2.7215273 17.916642 2.6765429 11.056019 6.8631176 16.496903 13.2194788 16.496903 6.6201956 0 11.5153593-4.920247 15.2118102-14.654839 3.0409394-8.008304 5.0295398-18.216434 7.0690885-34.053544.2225005-1.727717.4469048-3.523293.7193608-5.744434.1259965-1.027161.5894645-4.830808.6941835-5.685288 1.722402-14.0543482 2.8427922-21.1433214 4.5792297-27.2778744 2.3360091-8.2527425 5.5363941-12.6501415 10.3952719-12.6501415 5.2201258 0 9.3837127 3.0595434 12.9821887 8.7847158 2.622155 4.1718468 4.407615 8.398395 7.968738 18.0418696.090386.244779.090386.244779.180725.4894311 3.434298 9.3001137 5.133753 13.3340384 7.532967 17.1785924 3.000444 4.807977 6.185874 7.173335 10.003623 7.171578 3.059721-.001408 5.601386-3.034876 7.800114-9.370722 1.844388-5.3147799 3.163489-11.6520825 5.224877-23.9299784.159281-.948701.710932-4.2527371.730674-4.3707404.294244-1.7587245.521818-3.1060896.747292-4.4188683 2.438201-14.1959615 4.507348-22.9771175 7.535597-30.1381227 3.974349-9.398279 9.318869-14.4757442 16.631093-14.4757442 3.939853 0 7.167587 2.2382341 9.716346 6.4056954 2.217717 3.6261776 3.97181 8.7645838 5.396585 15.4710896 1.239338 5.8336409 2.225365 12.8084856 3.092735 21.417279.657298 6.5237919 1.100619 12.1042974 2.001105 24.4974195.042462.5844246.06274.8634879.084938 1.1688448 1.794913 24.6903337 2.931425 35.7224987 5.231314 46.2280397 2.907432 13.280702 7.086098 19.915742 12.841442 19.915742 6.072903 0 10.515848-4.292317 13.909826-12.865284 2.760148-6.971954 4.531776-15.485329 6.682685-30.080333.139828-.948799.283289-1.933237.461199-3.162383.076116-.52587.379616-2.627477.455509-3.151797 2.018366-13.9442154 3.24406-20.585826 5.24154-26.6261422 2.705313-8.1807802 6.435746-12.5715445 11.926048-12.5998092 5.449623.0280651 9.597251 2.2819397 12.89121 6.5463437 2.429112 3.1447618 3.942823 6.361852 6.757515 13.5465514.08968.2289515.08968.2289515.179302.4577915.072848.1859954.126442.3227792.179208.4573514 2.762267 7.0447674 4.366412 10.3793914 6.784119 13.3788544 3.048209 3.781679 6.780295 5.69703 11.869158 5.698922 4.696577-.001754 8.320294-4.129475 11.291364-12.516531 2.355909-6.6505121 3.753574-13.3837201 6.510149-29.5163062 2.799668-16.3847703 4.219909-23.2216317 6.664251-30.1120164 3.363418-9.4811774 7.829884-14.5593224 14.203751-14.5593224 3.385563 0 6.199968 2.057918 8.49709 5.8581504 1.9827 3.2800722 3.638484 7.9286903 5.081947 14.000822 2.262015 9.5154849 3.590382 19.3609796 6.02658 41.828663.029508.2721294.132 1.2175794.149867 1.3823677.058962.5438268.105198.9700382.150006 1.3827104 2.446589 22.5327175 3.947779 33.3294005 6.413674 43.1954185 3.089454 12.360865 7.059125 18.561245 12.049327 18.54802 5.245077.013834 9.030183-3.754938 11.967988-11.437642 2.33122-6.096415 3.640935-12.390008 6.046219-27.077917 2.484573-15.1728173 3.776909-21.4249708 6.155143-27.7241332 3.267435-8.6543683 7.85429-13.3085043 14.488757-13.3381032z" fill="#fff" fill-rule="nonzero" mask="url(#D)"/></g><g fill="#d3e0f1"><path d="m9.71210566 200.837696h379.92180134c2.521935 0 4.566368 2.051052 4.566368 4.581152s-2.044433 4.581152-4.566368 4.581152h-379.92180134c-2.5219353 0-4.5663678-2.051052-4.5663678-4.581152s2.0444325-4.581152 4.5663678-4.581152z"/><path d="m288.199388 46.9675382h-21.545093c-.504617 0-.91369-.4076332-.91369-.9104743 0-.2419792.096667-.4740048.268652-.6448351l45.45174-45.1465896c.357391-.35499115.935907-.35406582 1.292152.00206678l.000003.00000333-.000003.00000332 45.160387 45.14658627c.356243.3561344.355311.9326141-.002081 1.2876035-.171265.1701132-.40322.2656358-.645036.2656358h-21.555123v153.8701578h-47.511908z"/><path d="m56.8249611 92.4363603h-21.5450927c-.5046174 0-.9136906-.4078397-.9136906-.9109356 0-.2421018.0966667-.4742449.2686517-.6451618l45.4517406-45.1694629c.3573906-.355171.9359067-.3542452 1.2921519.0020678l.0000033.0000033-.0000033.0000033 45.160387 45.1694597c.356243.3563148.355311.9330866-.002081 1.2882558-.171265.1701994-.40322.2657704-.645036.2657704h-21.555123v108.4013357h-47.5119079z"/></g></g><g transform="translate(130 12)"><use fill="#a7a7ee" xlink:href="#c"/><use fill="url(#b)" xlink:href="#c"/><path d="m53.0927398 108.775148c-1.0993386 10.78843 12.6918553 34.206576 41.3735814 70.254438l-57.923014-13.113367c-5.9375235-17.631495-.4210459-36.678519 16.5494326-57.141071z" fill="url(#d)"/><use fill="#a7a7ee" xlink:href="#e"/><use fill="url(#b)" xlink:href="#e"/><path d="m85.6088192 132.100334c.0028948-.221688.18482-.399054.4063412-.396157.2215213.002897.398753.18496.3958582.406648-.0813034 6.226319-2.4985477 15.454631-7.2475324 27.705303-.0525784.135634-.1743689.232184-.318336.252364-20.5638773 2.88247-34.9307045 4.311392-43.1119167 4.286211-.2215391-.000682-.4005796-.180964-.3998982-.402671.0006814-.221706.1808267-.400882.4023658-.4002 8.1014754.024936 22.3614222-1.390205 42.764866-4.245776 4.660929-12.059065 7.0289714-21.134307 7.1082521-27.205722z" fill="#fff" fill-rule="nonzero"/><use fill="#464d89" xlink:href="#g"/><use fill="url(#f)" xlink:href="#g"/><g transform="translate(46.500864 79.609467)"><use fill="#ffc62c" xlink:href="#i"/><use fill="url(#h)" xlink:href="#i"/><path d="m24.7278346 18.6656527c-.7203102.0542112-1.4670403.0823579-2.2411369.0823579-7.4873222 0-14.48751819-2.2781143-20.11967689-5.9727817v-15.17882h23.43350609v16.1649038c0 1.7510511-.3841194 3.4123863-1.0726923 4.90434z" fill="url(#j)" mask="url(#E)"/></g><use fill="#ffc62c" xlink:href="#k"/><use fill="url(#h)" xlink:href="#k"/><g transform="translate(28.010363 53.011834)"><path d="m3.73719152 0c.21914372 0 .43306751.06671766.61318154.1912365l25.02746374 17.302321c.2901598.2005971.4632686.5303658.4632686.8825173v13.761886c0 .3272418-.1467567.6202926-.3782008.8172388l-2.5820369 2.5755696v-13.8446125l-24.22012623-16.94527957-2.42201263-1.69116234 2.67917187-2.67246133c.1974407-.23086443.49122734-.37725346.81929081-.37725346z" fill="#f0f0f6"/><path d="m1.69179018 2.81393592 25.05943752 17.26816568c.2905305.2002012.4638604.5293189.4638604.8807753v13.7347196c0 .5918473-.4825588 1.0716343-1.0778253 1.0716343-.2194237 0-.4336208-.066586-.6139649-.190859l-25.05943754-17.2681657c-.29053048-.2002012-.46386036-.5293189-.46386036-.8807753v-13.73471963c0-.59184725.48255881-1.07163425 1.07782527-1.07163425.21942368 0 .43362077.06658596.61396491.190859z" fill="#d6dfea"/></g><use fill="#a7a7ee" xlink:href="#l"/><use fill="url(#b)" xlink:href="#l"/><path d="m36.0805231 169.117102c-.014805.220852-.2060439.3879-.4271439.373111-.2211-.014788-.3883352-.205812-.3735302-.426664.8667789-12.930069-1.7386006-33.084599-5.7819141-44.529283-.0737428-.208731.0358765-.437654.2448417-.511314.2089651-.07366.4381451.035837.5118879.244567 4.0803213 11.549436 6.6997839 31.812909 5.8258586 44.849583z" fill="#fff" fill-rule="nonzero"/><use fill="#ffc62c" xlink:href="#m"/><use fill="url(#h)" xlink:href="#m"/><path d="m87.3264249 41.2194771c-3.9264579 1.8962931-9.2860769 3.0640535-15.1947164 3.0640535-5.768614 0-11.013921-1.113068-14.9131608-2.9304693.014699.2608788.0221476.5236934.0221476.7882461 0 7.624533-6.1869145 13.8054382-13.8188602 13.8054382-4.4981364 0-8.4943095-2.1470728-11.01769-5.471332.4435854-.046851.8660045-.0460418 1.2491853-.0032383 1.9126724.8366329 3.9963482 1.35273 6.1946615 1.4281487 7.6410116-.0754187 13.8305408-6.2681932 13.8188602-13.8054381.0116806-.3832965.0032839-.6627011 0-.9520992 4.2921265 1.7570611 9.3113766 2.7580246 14.7718851 2.8562975 6.389562-.0982729 12.3816395-1.5665509 17.1544472-4.0464215.7322258 1.6776574 1.3090566 3.4421376 1.7332405 5.2668144z" fill="url(#n)"/></g><g transform="translate(219 113)"><use fill="#393e41" xlink:href="#p"/><use fill="url(#o)" xlink:href="#p"/><use fill="#393e41" xlink:href="#q"/><use fill="url(#o)" xlink:href="#q"/><use fill="#4e565c" xlink:href="#s"/><use fill="url(#r)" xlink:href="#s"/><path d="m63.7255871 80.2473118h21.5488258c0 1.1105081-.9070523 2.0107527-2.025958 2.0107527h-17.4969098c-1.1189057 0-2.025958-.9002446-2.025958-2.0107527z" fill="url(#t)"/><g transform="translate(16.760198 4.752688)"><use fill="url(#u)" xlink:href="#v"/><g fill="#f7f7f8" mask="url(#F)"><g transform="translate(-7.735476 -5.301075)"><ellipse cx="24.403585" cy="16.725807" rx="1" ry="1"/><ellipse cx="13.168727" cy="11.973118" rx="1" ry="1"/><ellipse cx="33.612485" cy="20.38172" rx="1" ry="1"/><ellipse cx="22.377627" cy="15.629032" rx="1" ry="1"/><ellipse cx="37.296045" cy="14.89785" rx="1" ry="1"/><ellipse cx="26.061187" cy="10.145161" rx="1" ry="1"/><ellipse cx="44.663164" cy="16.725807" rx="1" ry="1"/><ellipse cx="33.428307" cy="11.973118" rx="1" ry="1"/><ellipse cx="20.720025" cy="25.865591" rx="1" ry="1"/><ellipse cx="9.485167" cy="21.112903" rx="1" ry="1"/><ellipse cx="28.087145" cy="31.349462" rx="1" ry="1"/><ellipse cx="16.852287" cy="26.596774" rx="1" ry="1"/><ellipse cx="35.454265" cy="27.693548" rx="1" ry="1"/><ellipse cx="24.219407" cy="22.94086" rx="1" ry="1"/><ellipse cx="42.637206" cy="13.801075" rx="1" ry="1"/><ellipse cx="48.346724" cy="24.037634" rx="1" ry="1"/><ellipse cx="37.111867" cy="19.284946" rx="1" ry="1"/><ellipse cx="92.549444" cy="24.037634" rx="1" ry="1"/><ellipse cx="81.314586" cy="19.284946" rx="1" ry="1"/><ellipse cx="87.024104" cy="20.38172" rx="1" ry="1"/><ellipse cx="75.789246" cy="15.629032" rx="1" ry="1"/><ellipse cx="103.600124" cy="35.005376" rx="1" ry="1"/><ellipse cx="92.365266" cy="30.252688" rx="1" ry="1"/><ellipse cx="109.125464" cy="18.553763" rx="1" ry="1"/><ellipse cx="97.890606" cy="13.801075" rx="1" ry="1"/><ellipse cx="105.441904" cy="25.865591" rx="1" ry="1"/><ellipse cx="94.207046" cy="21.112903" rx="1" ry="1"/><ellipse cx="74.131644" cy="18.553763" rx="1" ry="1"/><ellipse cx="62.896786" cy="13.801075" rx="1" ry="1"/><ellipse cx="81.682942" cy="11.241936" rx="1" ry="1"/><ellipse cx="62.896786" cy="24.768817" rx="1" ry="1"/><ellipse cx="68.606304" cy="25.865591" rx="1" ry="1"/><ellipse cx="57.371446" cy="21.112903" rx="1" ry="1"/><ellipse cx="85.182324" cy="40.489247" rx="1" ry="1"/><ellipse cx="73.947466" cy="35.736559" rx="1" ry="1"/><ellipse cx="90.707664" cy="24.037634" rx="1" ry="1"/><ellipse cx="79.472806" cy="19.284946" rx="1" ry="1"/><ellipse cx="87.024104" cy="31.349462" rx="1" ry="1"/><ellipse cx="75.789246" cy="26.596774" rx="1" ry="1"/><ellipse cx="55.713844" cy="24.037634" rx="1" ry="1"/><ellipse cx="44.478986" cy="19.284946" rx="1" ry="1"/><ellipse cx="63.265142" cy="16.725807" rx="1" ry="1"/><ellipse cx="18.694067" cy="37.564516" rx="1" ry="1"/><ellipse cx="24.403585" cy="38.66129" rx="1" ry="1"/><ellipse cx="13.168727" cy="33.908602" rx="1" ry="1"/><ellipse cx="40.979604" cy="53.284946" rx="1" ry="1"/><ellipse cx="29.744747" cy="48.532258" rx="1" ry="1"/><ellipse cx="46.504944" cy="36.833333" rx="1" ry="1"/><ellipse cx="35.270087" cy="32.080645" rx="1" ry="1"/><ellipse cx="42.821384" cy="44.145161" rx="1" ry="1"/><ellipse cx="31.586527" cy="39.392473" rx="1" ry="1"/><ellipse cx="11.511125" cy="36.833333" rx="1" ry="1"/><ellipse cx=".276267" cy="32.080645" rx="1" ry="1"/><ellipse cx="19.062423" cy="29.521505" rx="1" ry="1"/><ellipse cx="101.574166" cy="11.973118" rx="1" ry="1"/><ellipse cx="107.283684" cy="13.069893" rx="1" ry="1"/><ellipse cx="96.048826" cy="8.317204" rx="1" ry="1"/><ellipse cx="123.859703" cy="27.693548" rx="1" ry="1"/><ellipse cx="112.624845" cy="22.94086" rx="1" ry="1"/><ellipse cx="129.385043" cy="11.241936" rx="1" ry="1"/><ellipse cx="118.150185" cy="6.489247" rx="1" ry="1"/><ellipse cx="125.701483" cy="18.553763" rx="1" ry="1"/><ellipse cx="114.466625" cy="13.801075" rx="1" ry="1"/><ellipse cx="94.391224" cy="11.241936" rx="1" ry="1"/><ellipse cx="83.156366" cy="6.489247" rx="1" ry="1"/><ellipse cx="101.942522" cy="3.930108" rx="1" ry="1"/><ellipse cx="112.624845" cy="32.080645" rx="1" ry="1"/><ellipse cx="118.334363" cy="33.177419" rx="1" ry="1"/><ellipse cx="107.099506" cy="28.424731" rx="1" ry="1"/><ellipse cx="134.910383" cy="47.801075" rx="1" ry="1"/><ellipse cx="123.675525" cy="43.048387" rx="1" ry="1"/><ellipse cx="140.435723" cy="31.349462" rx="1" ry="1"/><ellipse cx="129.200865" cy="26.596774" rx="1" ry="1"/><ellipse cx="136.752163" cy="38.66129" rx="1" ry="1"/><ellipse cx="125.517305" cy="33.908602" rx="1" ry="1"/><ellipse cx="105.441904" cy="31.349462" rx="1" ry="1"/><ellipse cx="94.207046" cy="26.596774" rx="1" ry="1"/><ellipse cx="112.993201" cy="24.037634" rx="1" ry="1"/><ellipse cx="42.637206" cy="8.317204" rx="1" ry="1"/><ellipse cx="48.346724" cy="9.413978" rx="1" ry="1"/><ellipse cx="37.111867" cy="4.66129" rx="1" ry="1"/><ellipse cx="64.922744" cy="24.037634" rx="1" ry="1"/><ellipse cx="53.687886" cy="19.284946" rx="1" ry="1"/><ellipse cx="70.448084" cy="7.586022" rx="1" ry="1"/><ellipse cx="59.213226" cy="2.833333" rx="1" ry="1"/><ellipse cx="66.764524" cy="14.89785" rx="1" ry="1"/><ellipse cx="55.529666" cy="10.145161" rx="1" ry="1"/><ellipse cx="35.454265" cy="7.586022" rx="1" ry="1"/><ellipse cx="24.219407" cy="2.833333" rx="1" ry="1"/><ellipse cx="43.005562" cy=".274194" rx="1" ry="1"/><ellipse cx="70.448084" cy="6.489247" rx="1" ry="1"/></g></g><g mask="url(#F)"><path d="m0 0h115.479604v3.655914h-115.479604z" fill="#1c2321"/><g fill="#f7f7f8"><path d="m6.07787392 1.46236559h6.81458588c.2034374 0 .368356.16368085.368356.3655914s-.1649186.3655914-.368356.3655914h-6.81458588c-.2034374 0-.368356-.16368085-.368356-.3655914s.1649186-.3655914.368356-.3655914z"/><path d="m15.4709518 1.46236559h3.131026c.2034373 0 .3683559.16368085.3683559.3655914s-.1649186.3655914-.3683559.3655914h-3.131026c-.2034374 0-.368356-.16368085-.368356-.3655914s.1649186-.3655914.368356-.3655914z"/><path d="m21.1804697 1.46236559h3.131026c.2034374 0 .368356.16368085.368356.3655914s-.1649186.3655914-.368356.3655914h-3.131026c-.2034374 0-.368356-.16368085-.368356-.3655914s.1649186-.3655914.368356-.3655914z"/><path d="m26.8899876 1.46236559h3.131026c.2034374 0 .368356.16368085.368356.3655914s-.1649186.3655914-.368356.3655914h-3.131026c-.2034374 0-.368356-.16368085-.368356-.3655914s.1649186-.3655914.368356-.3655914z"/><path d="m99.6402967 1.46236559h6.8145863c.203437 0 .368356.16368085.368356.3655914s-.164919.3655914-.368356.3655914h-6.8145863c-.2034374 0-.368356-.16368085-.368356-.3655914s.1649186-.3655914.368356-.3655914z"/><path d="m32.5995056 1.46236559h3.1310259c.2034374 0 .368356.16368085.368356.3655914s-.1649186.3655914-.368356.3655914h-3.1310259c-.2034374 0-.368356-.16368085-.368356-.3655914s.1649186-.3655914.368356-.3655914z"/><path d="m38.3090235 1.46236559h3.1310259c.2034374 0 .368356.16368085.368356.3655914s-.1649186.3655914-.368356.3655914h-3.1310259c-.2034374 0-.368356-.16368085-.368356-.3655914s.1649186-.3655914.368356-.3655914z"/><path d="m44.0185414 1.46236559h3.131026c.2034374 0 .368356.16368085.368356.3655914s-.1649186.3655914-.368356.3655914h-3.131026c-.2034374 0-.368356-.16368085-.368356-.3655914s.1649186-.3655914.368356-.3655914z"/><ellipse cx="3.315204" cy="1.827957" rx="1" ry="1"/><ellipse cx="88.037083" cy="1.827957" rx="1" ry="1"/><ellipse cx="90.983931" cy="1.827957" rx="1" ry="1"/><ellipse cx="93.930779" cy="1.827957" rx="1" ry="1"/><ellipse cx="96.877627" cy="1.827957" rx="1" ry="1"/><ellipse cx="112.1644" cy="1.827957" rx="1" ry="1"/><ellipse cx="109.217553" cy="1.827957" rx="1" ry="1"/></g></g><g mask="url(#F)"><g fill-rule="evenodd" transform="translate(0 21.752688)"><g fill="none"><use fill="#5b64b0" xlink:href="#x"/><use fill="url(#w)" xlink:href="#x"/></g><path d="m0 24.6411309c11.8042615 2.099506 24.6057236-2.6731879 38.4043865-14.3180819 13.7986629-11.64489396 25.7422545-10.11350323 35.8307747 4.5941722v21.1223548h-74.2351612z" fill="url(#y)" mask="url(#G)"/></g></g><g mask="url(#F)"><g fill-rule="evenodd" transform="translate(0 23.215054)"><g fill="none"><use fill="#464d89" xlink:href="#A"/><use fill="url(#z)" xlink:href="#A"/></g><path d="m67.0407911 13.344086c12.0171373 7.6581201 28.1634084 13.0810592 48.4388129 16.2688172v18.827957h-115.479604v-32.5376344c32.6767234-9.31949077 55.0236538-10.17253737 67.0407911-2.5591398z" fill="url(#B)" mask="url(#H)"/><path d="m42.794648 20.5779958c7.2301973 11.6719961 31.476872 18.4614097 72.740024 20.3682408v7.4946236h-115.534672v-20.4731183c21.299568-16.5984935 35.5644506-19.06174223 42.794648-7.3897461z" fill="url(#C)" mask="url(#H)"/></g></g></g><g transform="translate(62.067985 68.731183)"><path d="m1.84177998 0h21.18046972c1.017187 0 1.84178.81840422 1.84178 1.82795699v5.84946236h-24.8640297v-5.84946236c0-1.00955277.82459298-1.82795699 1.84177998-1.82795699z" fill="#fff" opacity=".2"/><ellipse cx="20.996292" cy="3.83871" fill="#f2f5f9" rx="2.025958" ry="2.010753"/><ellipse cx="15.286774" cy="3.83871" fill="#ffc42d" rx="2.025958" ry="2.010753"/><ellipse cx="9.577256" cy="3.83871" fill="#7bc1eb" rx="2.025958" ry="2.010753"/><ellipse cx="3.867738" cy="3.83871" fill="#ffc62c" rx="2.025958" ry="2.010753"/></g></g></g></svg>