<?xml version="1.0" encoding="UTF-8"?>
<svg width="676px" height="394px" viewBox="0 0 676 394" version="1.1" xmlns="http://www.w3.org/2000/svg" xmlns:xlink="http://www.w3.org/1999/xlink">
    <!-- Generator: Sketch 53.2 (72643) - https://sketchapp.com -->
    <title>2</title>
    <desc>Created with Sketch.</desc>
    <defs>
        <polygon id="path-1" points="0.271388808 0.214678982 177.410026 0.214678982 177.410026 351.468747 0.271388808 351.468747"></polygon>
        <path d="M94.7739028,0.0130049696 C90.954207,0.0130049696 87.9728965,3.32276973 88.363739,7.12845733 L88.363739,7.12845733 L88.8056551,11.4244323 C89.2142435,15.4026525 86.0978912,18.8619744 82.1050647,18.8619744 L82.1050647,18.8619744 L52.1149341,18.8619744 C47.6871167,18.8619744 43.9734635,15.5066922 43.5189954,11.0936726 L43.5189954,11.0936726 L43.0571693,6.59828807 C42.6728192,2.85762532 39.5261689,0.0130049696 35.7709643,0.0130049696 L35.7709643,0.0130049696 L9.07421219,0.0130049696 C3.74221982,0.0130049696 -0.417244958,4.63020267 0.128116709,9.94056525 L0.128116709,9.94056525 L25.418182,256.120305 C25.8899631,260.715394 29.7507774,264.205061 34.360382,264.205061 L34.360382,264.205061 L144.79612,264.205061 C150.128545,264.205061 154.28801,259.588296 153.743081,254.277934 L153.743081,254.277934 L128.448254,8.09819456 C127.976473,3.50310531 124.115659,0.0130049696 119.506487,0.0130049696 L119.506487,0.0130049696 L94.7739028,0.0130049696 Z" id="path-3"></path>
    </defs>
    <g id="Page-1" stroke="none" stroke-width="1" fill="none" fill-rule="evenodd">
        <g id="Post-Copy" transform="translate(0.000000, -260.000000)">
            <g id="2" transform="translate(-86.000000, 260.000000)">
                <g id="BG" opacity="0.502766927">
                    <path d="M699.255265,235.986673 C699.255265,285.662088 666.829466,313.375193 624.595676,313.375193 C582.361452,313.375193 549.935653,285.662088 549.935653,235.986673 C549.935653,131.396808 597.587913,10.8209483 624.595676,10.8209483 C651.603005,10.8209483 699.255265,131.396808 699.255265,235.986673" id="Fill-1" fill="#80D6A2"></path>
                    <path d="M624.595546,162.098027 L624.595546,391.37995" id="Stroke-3" stroke="#EDFAF2" stroke-width="2.625" stroke-linecap="square"></path>
                    <path d="M645.074726,280.013472 L661.581735,263.51008" id="Stroke-5" stroke="#EDFAF2" stroke-width="1.75" stroke-linecap="square"></path>
                    <path d="M645.074726,186.978714 L661.581735,170.475755" id="Stroke-7" stroke="#EDFAF2" stroke-width="1.75" stroke-linecap="square"></path>
                    <path d="M601.43563,210.11469 C601.43563,267.113044 555.219215,313.3189 498.208804,313.3189 C441.197959,313.3189 394.981543,267.113044 394.981543,210.11469 C394.981543,153.11677 441.197959,106.91048 498.208804,106.91048 C555.219215,106.91048 601.43563,153.11677 601.43563,210.11469" id="Fill-9" fill="#EDFAF2"></path>
                    <path d="M498.20889,190.105438 L498.20889,391.379343" id="Stroke-11" stroke-opacity="0.995246941" stroke="#4DC67D" stroke-width="2.625" stroke-linecap="square"></path>
                    <path d="M522.684534,280.412255 L539.191543,263.908862" id="Stroke-13" stroke-opacity="0.995246941" stroke="#4DC67D" stroke-width="2.1" stroke-linecap="square"></path>
                    <path d="M522.684534,206.41666 L539.191543,189.913701" id="Stroke-15" stroke-opacity="0.995246941" stroke="#4DC67D" stroke-width="2.1" stroke-linecap="square"></path>
                    <path d="M473.732769,245.102723 L457.22576,228.599331" id="Stroke-17" stroke-opacity="0.995246941" stroke="#4DC67D" stroke-width="2.1" stroke-linecap="square"></path>
                    <path d="M473.732769,208.105034 L457.22576,191.601642" id="Stroke-19" stroke-opacity="0.995246941" stroke="#4DC67D" stroke-width="2.1" stroke-linecap="square"></path>
                    <path d="M354.779452,293.538075 C354.779452,342.680045 322.683333,364.733431 283.247489,364.733431 C243.815982,364.733431 211.719863,342.680045 211.719863,293.538075 C211.719863,201.998089 250.756621,116.512485 283.247489,116.512485 C315.742694,116.512485 354.779452,201.998089 354.779452,293.538075" id="Fill-21" fill="#EDFAF2"></path>
                    <path d="M283.249658,213.975615 L283.249658,391.379387" id="Stroke-23" stroke="#80D6A2" stroke-width="2.625" stroke-linecap="square"></path>
                    <path d="M299.260064,312.905675 L315.766639,296.402283" id="Stroke-25" stroke="#80D6A2" stroke-width="1.75" stroke-linecap="square"></path>
                    <path d="M299.260064,233.705741 L315.766639,217.202349" id="Stroke-27" stroke="#80D6A2" stroke-width="1.75" stroke-linecap="square"></path>
                    <path d="M269.805553,312.917558 L253.079046,296.194282" id="Stroke-29" stroke="#80D6A2" stroke-width="1.75" stroke-linecap="square"></path>
                    <path d="M268.632107,273.828029 L251.9056,257.105187" id="Stroke-31" stroke="#80D6A2" stroke-width="1.75" stroke-linecap="square"></path>
                    <path d="M591.39747,390.402402 L405.270781,391.37995 C394.646397,377.8851 369.907356,344.092026 379.866306,334.107935 C386.417836,327.540493 406.053772,348.677482 411.355119,342.334694 C416.656466,335.996676 381.841785,296.483167 390.681557,290.91409 C406.261123,281.100875 456.389457,351.532062 462.859434,345.863669 C469.662128,339.902967 437.694411,298.48597 448.957767,294.098278 C462.072973,288.991521 496.796991,352.327892 506.82795,345.863669 C512.084183,342.47391 501.880575,321.824828 509.465393,318.296286 C522.666489,312.146926 544.69521,371.787783 554.060735,366.474153 C558.489731,363.956554 553.507653,355.33947 560.148543,353.195282 C568.26432,350.579234 584.612562,378.166134 591.39747,390.402402" id="Fill-33" fill="#80D6A2"></path>
                    <path d="M680.08292,366.572038 C679.809632,366.936775 671.5455,377.9613 670.509176,388.114098 L655.981116,388.114098 C662.839769,374.48697 679.705523,366.741612 680.08292,366.572038" id="Fill-35" fill="#80D6A2"></path>
                    <path d="M350.779171,368.687601 C351.052459,369.051905 359.316158,380.07643 360.352916,390.229228 L374.880541,390.229228 C368.022322,376.602534 351.156568,368.856742 350.779171,368.687601" id="Fill-39" fill="#CCEFDA"></path>
                    <path d="M727.868874,375.445869 C727.678441,375.706086 723.491934,381.283403 720.685313,388.114098 L710.165906,388.114098 C717.852664,380.043035 727.583007,375.571207 727.868874,375.445869" id="Fill-41" fill="#CCEFDA"></path>
                    <path d="M127.990333,389.911937 L112.599466,389.911937 C112.509237,378.857921 106.834397,364.467056 106.834397,364.467056 C106.834397,364.467056 123.72184,378.254217 127.990333,389.911937" id="Fill-43" fill="#CCEFDA"></path>
                    <path d="M132.614404,389.911937 C136.334153,382.040808 136.557555,375.699754 136.557555,375.699754 C136.557555,375.699754 143.85824,383.632468 146.968514,389.911937 L132.614404,389.911937 Z" id="Fill-45" fill="#CCEFDA"></path>
                    <path d="M629.971288,325.60526 C629.754393,326.27315 617.742315,359.402237 616.582361,388.114141 L597.184142,388.114141 C598.340626,375.148398 592.556904,359.491144 592.556904,359.491144 C592.556904,359.491144 602.878936,367.408679 605.548046,378.706865 C605.548046,378.706865 613.556676,342.690237 629.971288,325.60526" id="Fill-47" fill="#CCEFDA"></path>
                    <path d="M647.357632,361.090307 C647.357632,361.090307 636.009687,376.148195 632.977495,388.114271 L622.423386,388.114271 C626.023842,380.728013 634.664938,365.752528 647.357632,361.090307" id="Fill-49" fill="#CCEFDA"></path>
                    <path d="M738.97034,318.35696 C738.97034,343.584559 726.948285,366.497529 699.729267,366.497529 C672.509815,366.497529 660.48776,343.584559 660.48776,318.35696 C660.48776,288.76292 681.056345,259.334552 699.729267,259.334552 C718.401756,259.334552 738.97034,288.76292 738.97034,318.35696" id="Fill-51" fill="#EDFAF2"></path>
                    <path d="M699.729311,316.001259 L699.729311,391.380037" id="Stroke-53" stroke="#CCEFDA" stroke-width="2.625" stroke-linecap="square"></path>
                    <path d="M713.283989,324.439705 L724.53997,313.37528" id="Stroke-55" stroke="#CCEFDA" stroke-width="1.575" stroke-linecap="square"></path>
                    <path d="M687.433231,336.004613 L673.686861,323.594433" id="Stroke-57" stroke="#CCEFDA" stroke-width="1.575" stroke-linecap="square"></path>
                    <g id="Group-61" transform="translate(58.127854, 0.000000)">
                        <mask id="mask-2" fill="white">
                            <use xlink:href="#path-1"></use>
                        </mask>
                        <g id="Clip-60"></g>
                        <path d="M19.5309589,201.007097 C16.7855023,192.788578 1.73732877,194.179871 1.73515982,171.262998 C1.73125571,136.757364 49.2629224,140.695747 52.0656393,114.697038 C54.86879,88.6983294 24.3256393,89.3198142 23.3799772,67.391332 C22.4343151,45.4624162 45.6589954,0.214592243 80.8961872,0.214592243 C108.680868,0.214592243 85.6678767,35.1279001 108.091781,50.7409169 C130.515251,66.3539338 156.12621,46.3519244 168.801119,70.9033934 C186.260731,104.722055 141.615502,145.337584 146.020205,171.262998 C150.424909,197.188847 176.596758,191.059003 177.397534,219.544952 C178.198744,248.031335 140.180525,253.044414 143.762329,277.470979 C146.020205,292.868883 170.079932,287.727864 171.34226,318.089544 C172.410685,343.796376 89.7446347,375.605296 27.6463014,323.293883 C-34.4524658,270.983337 30.0100228,232.374948 19.5309589,201.007097" id="Fill-59" fill="#80D6A2" mask="url(#mask-2)"></path>
                    </g>
                    <path d="M145.667274,138.740347 L145.667274,391.379343" id="Stroke-62" stroke="#EDFAF2" stroke-width="2.625" stroke-linecap="square"></path>
                    <path d="M170.189941,300.283635 L186.69695,283.780676" id="Stroke-64" stroke="#EDFAF2" stroke-width="2.1" stroke-linecap="square"></path>
                    <path d="M165.158801,211.555988 L181.665377,195.053029" id="Stroke-66" stroke="#EDFAF2" stroke-width="2.1" stroke-linecap="square"></path>
                    <path d="M165.158801,167.192251 L181.665377,150.688859" id="Stroke-68" stroke="#EDFAF2" stroke-width="2.1" stroke-linecap="square"></path>
                    <path d="M121.849473,167.192251 L105.342897,150.688859" id="Stroke-70" stroke="#EDFAF2" stroke-width="2.1" stroke-linecap="square"></path>
                    <path d="M212.080993,388.897177 C212.080993,388.897177 197.398938,355.906439 175.242249,340.188034" id="Stroke-72" stroke-opacity="0.995246941" stroke="#4DC67D" stroke-width="1.575" stroke-linecap="square"></path>
                    <path d="M219.457331,389.911937 C219.457331,389.911937 217.054568,339.994086 235.207377,321.685655" id="Stroke-74" stroke-opacity="0.995246941" stroke="#4DC67D" stroke-width="1.575" stroke-linecap="square"></path>
                    <path d="M221.490071,321.685482 C221.490071,327.872573 226.506852,332.888255 232.695733,332.888255 C238.88418,332.888255 243.900961,327.872573 243.900961,321.685482 C243.900961,315.497956 238.88418,310.482275 232.695733,310.482275 C226.506852,310.482275 221.490071,315.497956 221.490071,321.685482" id="Fill-76" fill-opacity="0.995246941" fill="#4DC67D"></path>
                    <path d="M168.247863,344.951696 C168.247863,351.139221 173.264644,356.154469 179.453525,356.154469 C185.641973,356.154469 190.658753,351.139221 190.658753,344.951696 C190.658753,338.76417 185.641973,333.748489 179.453525,333.748489 C173.264644,333.748489 168.247863,338.76417 168.247863,344.951696" id="Fill-78" fill-opacity="0.995246941" fill="#4DC67D"></path>
                    <path d="M421.222582,387.155198 C421.222582,387.155198 419.525596,364.542779 432.172742,338.111243" id="Stroke-80" stroke-opacity="0.995246941" stroke="#4DC67D" stroke-width="1.575" stroke-linecap="square"></path>
                    <path d="M414.143868,389.465144 C414.143868,389.465144 403.312566,342.047978 375.238982,318.907752" id="Stroke-82" stroke-opacity="0.995246941" stroke="#4DC67D" stroke-width="1.575" stroke-linecap="square"></path>
                    <path d="M385.907699,314.009819 C387.007356,320.098896 382.962265,325.926454 376.872288,327.025871 C370.782311,328.125721 364.953475,324.081516 363.853384,317.992873 C362.753292,311.90423 366.798817,306.076672 372.888795,304.976821 C378.978772,303.876971 384.807607,307.921176 385.907699,314.009819" id="Fill-84" fill-opacity="0.995246941" fill="#4DC67D"></path>
                    <path d="M446.260852,327.80843 C447.360509,333.897073 443.315418,339.724631 437.225441,340.824481 C431.135463,341.923898 425.306628,337.879693 424.206537,331.79105 C423.106879,325.702407 427.15197,319.874849 433.241947,318.774998 C439.331925,317.675148 445.16076,321.719787 446.260852,327.80843" id="Fill-86" fill-opacity="0.995246941" fill="#4DC67D"></path>
                    <path d="M258.08624,334.087291 C257.730532,334.557417 234.869801,364.573441 234.284185,388.09315 L215.822084,388.09315 C218.294687,380.435833 229.013637,352.420876 258.08624,334.087291" id="Fill-88" fill="#80D6A2"></path>
                    <path d="M205.879966,388.114054 L191.170148,388.114054 C188.261153,377.059605 179.453482,370.167325 179.453482,370.167325 C179.453482,370.167325 196.943893,373.589612 205.879966,388.114054" id="Fill-90" fill="#80D6A2"></path>
                    <path d="M476.175397,358.974744 C476.497269,359.380682 483.382817,375.217486 482.563822,390.228968 L506.812247,390.228968 C507.274667,382.02346 512.480146,370.279869 512.480146,370.279869 C512.480146,370.279869 501.802406,374.602072 494.585009,386.947198 C494.585009,386.947198 489.122726,364.675663 476.175397,358.974744" id="Fill-92" fill="#CCEFDA"></path>
                    <path d="M438.165811,366.072725 C437.87734,366.630023 432.041564,376.741186 430.504646,388.561541 L407.387979,390.932984 C405.813322,380.424557 402.414144,374.574446 402.414144,374.574446 C402.414144,374.574446 412.121062,377.396065 417.302683,385.648412 C417.302683,385.648412 423.307637,372.952427 438.165811,366.072725" id="Fill-94" fill="#CCEFDA"></path>
                    <path d="M129.972059,285.510469 C129.972059,325.730901 113.331877,362.261457 75.6572192,362.261457 C37.9825616,362.261457 21.342379,325.730901 21.342379,285.510469 C21.342379,238.328365 49.8120137,191.411683 75.6572192,191.411683 C101.502425,191.411683 129.972059,238.328365 129.972059,285.510469" id="Fill-96" fill="#EDFAF2"></path>
                    <path d="M91.4549817,290.805883 L106.156123,274.302925" id="Stroke-100" stroke="#CCEFDA" stroke-width="1.75" stroke-linecap="square"></path>
                    <g id="Group-109" transform="translate(0.000000, 390.759116)">
                        <path d="M759.732959,1.23817086 L0.000173515982,1.23817086" id="Fill-106" fill="#EDFAF2"></path>
                        <path d="M759.732959,1.23817086 L0.000173515982,1.23817086" id="Stroke-108" stroke="#CCEFDA" stroke-width="3.5" stroke-linecap="round"></path>
                    </g>
                </g>
                <g id="Girl" transform="translate(377.000000, 77.000000)">
                    <path d="M99.3248164,292.010038 L220.508437,292.010038 C227.293409,292.010038 232.979502,286.892242 233.673256,280.159714 L261.043525,14.7792321 C261.846385,6.99522125 255.723436,0.22670471 247.878707,0.22670471 L126.698998,0.22670471 C119.914026,0.22670471 114.228368,5.34493465 113.533744,12.0770287 L86.1599977,277.457511 C85.3571376,285.241955 91.4800867,292.010038 99.3248164,292.010038" id="Fill-113" fill="#1F2430"></path>
                    <path d="M245.812266,14.7768039 L218.440258,280.158587 C217.745199,286.891982 212.059541,292.008911 205.2737,292.008911 L84.093122,292.008911 C76.2466536,292.008911 70.1219658,285.239961 70.9265646,277.456817 L98.3024847,12.0754677 C98.9936312,5.34163928 104.679289,0.225143745 111.46513,0.225143745 L232.646143,0.225143745 C240.492177,0.225143745 246.612518,6.99366029 245.812266,14.7768039" id="Fill-115" fill="#5B6A76"></path>
                    <path d="M90.0530214,281.11793 L200.36869,281.11793 C204.979376,281.11793 208.842841,277.640014 209.314473,273.06552 L235.399818,20.1411026 C235.94578,14.8516001 231.784992,10.252391 226.454036,10.252391 L116.142714,10.252391 C111.532028,10.252391 107.668128,13.7303071 107.196062,18.304801 L81.1072389,271.228785 C80.5617114,276.518721 84.7220653,281.11793 90.0530214,281.11793" id="Fill-117" fill="#FFFFFF"></path>
                    <path d="M209.181721,1.7006023 L207.734225,15.7492849 C207.251727,20.4235071 203.304802,23.9790379 198.597182,23.9790379 L146.000502,23.9790379 C140.558267,23.9790379 136.307064,19.2787997 136.863458,13.8761273 L138.119693,1.7006023 L209.181721,1.7006023 Z" id="Fill-123" fill="#5B6A76"></path>
                    <path d="M181.908733,14.7018776 L158.402364,14.7018776 C157.427804,14.7018776 156.630595,13.9066528 156.630595,12.934085 C156.630595,11.9619509 157.427804,11.1662925 158.402364,11.1662925 L181.908733,11.1662925 C182.883293,11.1662925 183.680937,11.9619509 183.680937,12.934085 C183.680937,13.9066528 182.883293,14.7018776 181.908733,14.7018776" id="Fill-125" fill="#000000"></path>
                    <path d="M193.184158,12.9339983 C193.184158,14.5613041 191.861416,15.8807529 190.23005,15.8807529 C188.598683,15.8807529 187.275942,14.5613041 187.275942,12.9339983 C187.275942,11.3066926 188.598683,9.98767738 190.23005,9.98767738 C191.861416,9.98767738 193.184158,11.3066926 193.184158,12.9339983" id="Fill-127" fill="#000000"></path>
                    <path d="M221.250963,57.2934509 L213.288435,134.490528 C212.923735,138.026981 209.936592,140.715742 206.372188,140.715742 L112.93223,140.715742 C108.810563,140.715742 105.594341,137.159778 106.015984,133.070918 L113.978512,55.8998563 C114.343646,52.3642711 117.329051,49.675943 120.89215,49.6750758 L214.332979,49.6486261 C218.454646,49.6473253 221.673041,53.2032897 221.250963,57.2934509" id="Fill-129" fill="#EDFAF2"></path>
                    <path d="M207.412386,188.314327 L199.449857,265.511838 C199.085157,269.04829 196.098448,271.736619 192.534045,271.736619 L99.0936518,271.736619 C94.9724194,271.736619 91.7557629,268.181088 92.1774057,264.09136 L100.140369,186.921166 C100.505069,183.385147 103.490908,180.696819 107.054007,180.695952 L200.494835,180.669502 C204.616503,180.668201 207.834463,184.224166 207.412386,188.314327" id="Fill-131" fill="#EDFAF2"></path>
                    <path d="M148.006826,154.517533 L147.253954,161.816777 C147.071387,163.587171 145.576511,164.932636 143.793006,164.932636 L133.989593,164.932636 C131.927021,164.932636 130.317389,163.153136 130.528645,161.106538 L131.281081,153.809895 C131.463648,152.040368 132.95809,150.694903 134.741161,150.69447 L144.544573,150.691435 C146.60758,150.691001 148.217647,152.470501 148.006826,154.517533" id="Fill-133" fill="#DCE0E3"></path>
                    <path d="M139.50416,159.377163 C139.471993,159.409249 139.454171,159.427027 139.422004,159.459113 L139.422004,162.564132 C139.422004,165.299723 140.641291,167.12822 143.049002,167.518027 C143.451084,167.583068 144.830769,167.61949 145.984418,167.639436 C146.282176,167.644639 146.299998,167.238355 146.014411,167.155103 C143.687986,166.477384 143.049002,164.369215 143.049002,162.564132 L143.049002,159.459113 C143.016835,159.427027 142.999013,159.409249 142.966847,159.377163 L139.50416,159.377163 Z" id="Fill-135" fill="#DCE0E3"></path>
                    <polyline id="Stroke-137" stroke="#EF3C86" stroke-width="3.85" stroke-linecap="round" points="110.283617 154.827948 113.516357 159.89588 118.636926 154.827948"></polyline>
                    <path d="M105.318273,148.761735 L102.31635,145.767285" id="Stroke-139" stroke="#1A1A30" stroke-width="0.7"></path>
                    <path d="M102.47627,156.632423 L98.2302838,156.632423" id="Stroke-141" stroke="#1A1A30" stroke-width="0.7"></path>
                    <path d="M105.818768,164.502851 L102.816845,167.497735" id="Stroke-143" stroke="#1A1A30" stroke-width="0.7"></path>
                    <path d="M120.724493,17.6384425 C120.724493,19.5909492 119.137464,21.1740276 117.180085,21.1740276 C115.222706,21.1740276 113.635678,19.5909492 113.635678,17.6384425 C113.635678,15.6859358 115.222706,14.1028574 117.180085,14.1028574 C119.137464,14.1028574 120.724493,15.6859358 120.724493,17.6384425" id="Fill-145" fill="#D6E1E6"></path>
                    <path d="M130.487871,17.6384425 C130.487871,19.5909492 128.901277,21.1740276 126.943898,21.1740276 C124.986085,21.1740276 123.399056,19.5909492 123.399056,17.6384425 C123.399056,15.6859358 124.986085,14.1028574 126.943898,14.1028574 C128.901277,14.1028574 130.487871,15.6859358 130.487871,17.6384425" id="Fill-147" fill="#D6E1E6"></path>
                    <path d="M229.361806,17.6384425 C229.361806,19.5909492 227.775212,21.1740276 225.817399,21.1740276 C223.86002,21.1740276 222.272991,19.5909492 222.272991,17.6384425 C222.272991,15.6859358 223.86002,14.1028574 225.817399,14.1028574 C227.775212,14.1028574 229.361806,15.6859358 229.361806,17.6384425" id="Fill-149" fill="#D6E1E6"></path>
                    <path d="M91.4733491,53.5083282 L91.2112351,53.7697898 L91.2112351,63.6619702 C91.2112351,72.3769231 95.0968692,78.2014895 102.766856,79.4433237 C104.047433,79.6505851 108.442516,79.7672239 112.118633,79.8300961 C113.067112,79.8465729 113.123621,78.552273 112.213394,78.286909 C104.802043,76.1275744 102.766856,69.4119573 102.766856,63.6619702 L102.766856,53.7697898 L102.505177,53.5083282 L91.4733491,53.5083282 Z" id="Fill-151" fill="#5ECC62"></path>
                    <path d="M203.096154,230.176539 L199.449161,265.510277 C199.084462,269.048464 196.097753,271.737226 192.53335,271.737226 L159.936448,271.737226 C155.659165,266.555256 153.090186,259.912918 153.090186,252.676112 C153.090186,236.0991 166.561022,222.662229 183.178965,222.662229 C190.820698,222.662229 197.788671,225.502317 203.096154,230.176539" id="Fill-153" fill="#D0E1E9"></path>
                    <path d="M149.099446,224.701889 C150.67952,237.704292 141.39338,249.522963 128.358532,251.099104 C115.323249,252.675678 103.47552,243.412653 101.895012,230.409817 C100.315373,217.407414 109.601078,205.588743 122.635926,204.012602 C135.670774,202.436462 147.518937,211.699487 149.099446,224.701889" id="Fill-155" fill="#D0E1E9"></path>
                    <path d="M171.112939,200.075112 C162.562718,205.375021 159.93897,216.584916 165.252104,225.11342 C170.564803,233.641925 181.802671,236.259576 190.352891,230.9601 L171.112939,200.075112 Z" id="Fill-157" fill="#BCCED4"></path>
                    <path d="M125.721221,209.790904 C131.28908,214.143827 139.339849,213.170392 143.703635,207.616393 C148.066986,202.062827 147.091122,194.031664 141.523698,189.67874 L125.721221,209.790904 Z" id="Fill-159" fill="#BCCED4"></path>
                    <path d="M9.32159426,72.0767842 L108.275511,72.0767842 C113.193518,72.0767842 117.179998,68.1002266 117.179998,63.1948949 L117.179998,36.5999582 C117.179998,31.6941929 113.193518,27.7176352 108.275511,27.7176352 L9.32159426,27.7176352 C4.40402199,27.7176352 0.417541362,31.6941929 0.417541362,36.5999582 L0.417541362,63.1948949 C0.417541362,68.1002266 4.40402199,72.0767842 9.32159426,72.0767842" id="Fill-161" fill="#5ECC62"></path>
                    <path d="M183.758659,34.0837264 C183.758659,42.6308755 176.812854,49.5598245 168.243942,49.5598245 C159.675465,49.5598245 152.728791,42.6308755 152.728791,34.0837264 C152.728791,25.5365772 159.675465,18.6076282 168.243942,18.6076282 C176.812854,18.6076282 183.758659,25.5365772 183.758659,34.0837264" id="Fill-163" fill="#25003F"></path>
                    <path d="M181.651053,69.8740462 C181.651053,70.0561587 181.651053,70.2339353 181.646272,70.4160478 C181.355034,87.0012982 167.793349,100.351883 151.10151,100.351883 C137.582859,100.351883 126.12026,91.6018081 122.090311,79.4653073 C121.738653,78.4029841 121.442633,77.3146448 121.207904,76.2002894 C120.812777,74.3314677 120.586742,72.3976058 120.551533,70.4160478 C120.54762,70.2339353 120.54762,70.0561587 120.54762,69.8740462 C120.54762,62.6762643 123.047049,56.0595083 127.23305,50.8432844 C128.011133,49.8720175 128.849637,48.9527827 129.741172,48.0855801 C135.24861,42.7089237 142.781672,39.4005457 151.10151,39.4005457 C167.971135,39.4005457 181.651053,53.0459791 181.651053,69.8740462" id="Fill-165" fill="#25003F"></path>
                    <path d="M46.4938417,117.734482 L114.899085,114.557919 L138.257662,93.3561157 L43.8879153,107.796774 C43.8879153,107.796774 43.07158,105.605786 41.8948923,103.345423 C40.7182046,101.085059 37.9379701,98.8992749 38.2487687,94.0763275 C38.5591326,89.2538136 35.1955531,93.6839183 34.947349,96.010623 C34.6987101,98.3373276 37.2220467,102.67204 35.3037893,103.651545 C33.3859665,104.631051 28.0258866,104.542162 26.8361584,105.834728 C25.6472996,107.127293 26.1358836,109.95394 27.0513267,110.445644 C27.0513267,110.445644 25.8629025,113.931365 28.208019,116.090266 C28.208019,116.090266 28.4044958,118.567431 30.689626,119.536963 C30.689626,119.536963 31.5181323,121.99158 34.0036515,121.698032 C36.4891707,121.404484 42.1065831,119.362655 46.4938417,117.734482" id="Fill-167" fill="#FF77CA"></path>
                    <polygon id="Fill-169" fill="#25003F" points="120.547707 110.571909 181.65114 110.571909 181.65114 70.4160912 120.547707 70.4160912"></polygon>
                    <path d="M197.25375,127.686326 C197.25375,127.686326 195.884932,136.370927 187.026086,140.715612 L160.975515,140.715612 C140.323277,133.851704 131.851734,115.011726 131.851734,115.011726 L102.466273,129.062577 L102.466273,97.165997 C102.466273,97.165997 150.191023,90.3966133 149.882397,90.2184031 C149.456408,89.9755864 179.19744,88.3279014 185.082617,88.987409 C190.968664,89.6460494 208.286447,101.535397 208.286447,101.535397 L197.25375,127.686326 Z" id="Fill-171" fill="#56B75A"></path>
                    <path d="M132.360487,96.9986269 C130.472657,101.147324 130.423973,107.024357 130.889084,110.918096 C131.182061,113.368811 131.851908,115.011726 131.851908,115.011726 C131.851908,115.011726 104.643775,128.104318 102.466012,129.062577 L102.466012,97.165997 C105.6392,96.7063796 136.194394,92.3495536 136.194394,92.3495536 C136.194394,92.3495536 133.80407,93.8259661 132.360487,96.9986269 Z" id="Fill-172" fill="#5ECC62"></path>
                    <path d="M214.73706,120.427537 L213.289565,134.489228 C212.924431,138.027414 209.938156,140.715742 206.373753,140.715742 L174.911375,140.715742 L170.166807,143.805152 C170.166807,143.805152 170.255917,148.006315 170.65713,151.009438 C170.864039,152.558262 168.942739,153.524325 168.942739,153.524325 C168.942739,153.524325 168.451981,154.994234 167.204006,155.302091 C166.173806,155.557916 165.315741,153.674785 165.065364,153.00357 C166.42201,156.635415 164.248594,157.569826 163.592222,157.483105 C162.92281,157.392049 162.653306,156.416446 162.653306,156.416446 C162.653306,156.416446 161.318394,156.993136 159.245389,154.859817 C157.17195,152.722163 156.324317,146.140095 156.40256,143.863688 C156.428206,143.070198 157.015464,141.916818 157.767031,140.715742 C157.832668,140.611678 157.897871,140.503278 157.966985,140.399214 C159.345366,138.252887 161.140173,136.04152 161.140173,135.529871 L197.249751,127.686023 L204.895395,109.57016 L214.73706,120.427537 Z" id="Fill-173" fill="#FF77CA"></path>
                    <path d="M158.286825,82.7260326 C156.626335,85.2365842 157.313135,88.5406262 158.264656,90.4701521 C158.586322,91.1335621 158.943197,91.6365396 159.247475,91.8880284 C160.429814,92.8636313 152.848502,100.070085 152.848502,100.070085 L146.176548,92.750895 C141.986201,92.9850397 137.63024,92.6901908 134.926944,90.9991457 C126.871828,85.9606984 126.367595,68.4518772 126.498435,67.5760026 L133.236026,60.4432609 C133.236026,60.4432609 143.405877,55.994945 144.957696,57.8763411 C147.796178,61.3239052 154.45031,76.7549088 159.247475,74.9862491 C159.247475,74.9862491 158.634572,70.1862825 162.880993,70.1862825 C166.045922,70.1862825 166.906595,72.5797618 166.906595,73.96295 C166.906595,78.6328361 160.516751,79.3439423 158.286825,82.7260326" id="Fill-174" fill="#FF77CA"></path>
                    <polygon id="Fill-175" fill="#285FD7" points="136.122628 77.5592393 133.101144 84.5003291 136.619471 84.4287849"></polygon>
                    <path d="M139.35176,77.5031313 C139.429568,78.8889211 140.295022,79.9672875 141.284796,79.9122202 C142.275439,79.8567192 143.014836,78.6885973 142.936593,77.3032411 C142.858784,75.9174512 141.99333,74.8386512 141.003556,74.8941521 C140.013348,74.9492195 139.273951,76.1173415 139.35176,77.5031313" id="Fill-176" fill="#0B096F"></path>
                    <path d="M130.054492,77.2947858 C130.1323,78.6805756 130.997755,79.7589421 131.987529,79.7038747 C132.977737,79.6483738 133.717134,78.4802518 133.639325,77.0948956 C133.561517,75.7091058 132.696063,74.6303057 131.706289,74.6858067 C130.71608,74.7408741 129.976249,75.908996 130.054492,77.2947858" id="Fill-177" fill="#0B096F"></path>
                    <path d="M135.539804,60.3608333 C135.539804,62.2773511 135.200751,64.1201567 134.579154,65.8285459 C134.496564,66.0410106 134.413974,66.2621472 134.317909,66.4746119 C133.718481,67.9054962 132.918664,69.2323162 131.953667,70.4160478 C129.349914,73.6030175 125.53296,75.7623521 121.207861,76.2002894 C120.986607,76.2219695 120.769265,76.2393135 120.547577,76.2479855 L120.547577,70.4160478 L120.551924,70.4160478 C120.547577,70.2339353 120.547577,70.0561587 120.547577,69.8740462 C120.547577,62.6762643 123.047006,56.0595083 127.233006,50.8432844 C128.011089,49.8720175 128.849593,48.9527827 129.741129,48.0855801 C131.766318,49.7549451 133.370735,51.9142797 134.374418,54.3858072 C135.126855,56.2286128 135.539804,58.2448589 135.539804,60.3608333" id="Fill-178" fill="#25003F"></path>
                    <path d="M159.246606,59.9901475 C159.246606,64.1557554 155.251432,67.6670588 149.793113,68.7432573 C149.361038,68.8312784 148.921139,68.9015218 148.469937,68.9544212 C147.74619,69.0463446 146.999404,69.090572 146.241316,69.090572 C139.058174,69.090572 133.236026,65.0173212 133.236026,59.9901475 C133.236026,59.5066821 133.289058,59.0323222 133.39512,58.5709704 C134.369246,54.2163124 139.748452,50.8853871 146.241316,50.8853871 C153.356213,50.8853871 159.132719,54.884492 159.242694,59.8453247 C159.246606,59.8934545 159.246606,59.9420178 159.246606,59.9901475" id="Fill-179" fill="#25003F"></path>
                    <path d="M136.619297,87.1281266 C136.619297,87.1281266 140.700104,87.5062269 140.700104,84.6821815" id="Fill-180" fill="#FFFFFF"></path>
                    <path d="M160.554046,91.4444542 C162.846566,93.4416219 162.996967,97.0123287 160.889622,99.4196832 C158.782277,101.827038 154.721031,102.271479 152.848415,100.070085 C150.8793,97.7546542 150.478957,94.5941342 152.586736,92.1867797 C154.694081,89.7794252 158.261527,89.4472866 160.554046,91.4444542" id="Fill-181" fill="#FF77CA"></path>
                    <path d="M168.631766,112.254759 L157.299573,112.254759 L157.299573,85.7656211 L181.650966,85.7656211 L181.650966,99.2679661 C181.650966,106.440165 175.822298,112.254759 168.631766,112.254759" id="Fill-182" fill="#25003F"></path>
                    <path d="M146.176374,92.7507649 C146.176374,92.7507649 150.634052,92.0843197 152.890928,90.9170649 L148.650157,95.4646755 L146.176374,92.7507649 Z" id="Fill-183" fill="#EF3C86"></path>
                    <polygon id="Fill-184" fill="#EF3C86" points="102.466099 98.8330206 102.466099 115.135563 100.392659 115.231389 101.253332 99.018602"></polygon>
                    <polygon id="Fill-185" fill="#EF3C86" points="197.249577 127.686153 201.196501 126.66112 204.895656 109.57029"></polygon>
                    <polygon id="Fill-186" fill="#377439" points="181.223151 112.254759 193.076965 128.592423 186.869252 129.940923"></polygon>
                    <path d="M35.8831352,105.904017 C36.3399874,107.138047 34.5899524,108.361236 34.5899524,108.361236 C34.5899524,108.361236 36.4038858,108.206007 36.930722,109.895318 C37.3988759,111.396445 35.494963,112.552426 35.494963,112.552426 C35.494963,112.552426 37.6553391,112.241101 38.2239048,113.942552 C38.8954905,115.951861 36.4430073,117.033262 36.4430073,117.033262 C36.4430073,117.033262 38.8198556,116.182537 39.3545161,118.044421 C39.8678771,119.830858 37.566229,120.385434 37.566229,120.385434" id="Stroke-187" stroke="#DE479D" stroke-width="0.5" stroke-linecap="round"></path>
                    <path d="M27.0515005,110.445601 L34.5902132,108.360846" id="Stroke-188" stroke="#DE479D" stroke-width="0.5"></path>
                    <path d="M28.2078451,116.090483 L35.4953108,112.55273" id="Stroke-189" stroke="#DE479D" stroke-width="0.5"></path>
                    <path d="M30.6894521,119.536833 L36.4429204,117.033219" id="Stroke-190" stroke="#DE479D" stroke-width="0.5"></path>
                    <path d="M162.653176,155.982845 C162.653176,155.982845 160.470631,151.142553 160.07985,148.919479 C159.511285,145.683513 159.576053,143.082772 159.576053,143.082772" id="Stroke-191" stroke="#DE479D" stroke-width="0.5" stroke-linecap="round"></path>
                    <path d="M165.701479,154.339929 C165.701479,154.339929 164.205734,150.19817 163.633256,148.511027 C162.993837,146.625295 162.989055,142.41546 162.989055,142.41546" id="Stroke-192" stroke="#DE479D" stroke-width="0.5" stroke-linecap="round"></path>
                    <path d="M166.910029,141.948384 C166.910029,141.948384 166.554458,145.095029 166.872212,147.32981 C167.291681,150.281334 168.943043,153.090637 168.943043,153.090637" id="Stroke-193" stroke="#DE479D" stroke-width="0.5" stroke-linecap="round"></path>
                </g>
                <g id="Phone" transform="translate(132.000000, 80.000000)">
                    <g id="Group" transform="translate(0.512411, 0.261146)">
                        <path d="M161.287597,291.879332 L40.6211339,291.879332 C33.8655745,291.879332 28.204201,286.76231 27.5125439,280.031805 L0.259609467,14.7135191 C-0.539821485,6.93134534 5.55697569,0.164859664 13.3681995,0.164859664 L134.030334,0.164859664 C140.785894,0.164859664 146.4477,5.2814482 147.138924,12.0119535 L174.396187,277.329806 C175.195618,285.112413 169.098821,291.879332 161.287597,291.879332" id="Fill-197" fill="#1F2430"></path>
                        <path d="M176.453023,291.879332 L55.7895896,291.879332 C49.0331645,291.879332 43.371791,286.764044 42.6792683,280.031805 L15.4241697,14.7130856 C14.6277685,6.93221234 20.7219688,0.164859664 28.5344911,0.164859664 L149.197924,0.164859664 C155.954349,0.164859664 161.615723,5.2805812 162.303917,12.012387 L189.563344,277.331106 C190.364073,285.112847 184.265545,291.879332 176.453023,291.879332" id="Fill-199" fill="#5B6A76"></path>
                    </g>
                    <g id="Group" transform="translate(26.914841, 8.931125)">
                        <mask id="mask-4" fill="white">
                            <use xlink:href="#path-3"></use>
                        </mask>
                        <g id="Clip-203"></g>
                        <polygon id="Fill-202" fill="#FFFFFF" mask="url(#mask-4)" points="-26.2137175 289.201913 174.373334 289.201913 174.373334 -14.6474972 -26.2137175 -14.6474972"></polygon>
                        <path d="M32.2141674,211.987247 L40.1426873,289.166106 C40.5062617,292.701723 43.4802141,295.389851 47.0293932,295.389851 L140.070691,295.389851 C144.174321,295.389851 147.376806,291.834725 146.956964,287.74683 L139.028444,210.593981 C138.665302,207.05923 135.692216,204.371536 132.143902,204.370669 L39.1026047,204.344226 C34.9981089,204.342925 31.7943255,207.898051 32.2141674,211.987247" id="Fill-204" fill="#EDFAF2" mask="url(#mask-4)"></path>
                        <path d="M18.7963227,80.5327106 L26.7248425,157.71157 C27.0879842,161.247187 30.0623694,163.935315 33.6111157,163.935315 L126.652413,163.935315 C130.756043,163.935315 133.958961,160.380189 133.539119,156.29186 L125.610599,79.1394449 C125.247025,75.6046941 122.274371,72.9170004 118.726057,72.9161334 L25.6843271,72.88969 C21.5802642,72.8883895 18.3760479,76.4435147 18.7963227,80.5327106" id="Fill-205" fill="#EDFAF2" mask="url(#mask-4)"></path>
                        <path d="M4.96361354,-51.0473667 L12.8921334,26.1314923 C13.255275,29.66711 16.2296602,32.3552372 19.7784065,32.3552372 L112.819704,32.3552372 C116.923334,32.3552372 120.126252,28.8005455 119.70641,24.7122166 L111.77789,-52.440199 C111.414316,-55.9753832 108.441662,-58.6626434 104.893348,-58.6639439 L11.8520508,-58.6903873 C7.74755501,-58.6912543 4.5433388,-55.1365627 4.96361354,-51.0473667" id="Fill-206" fill="#EDFAF2" mask="url(#mask-4)"></path>
                        <path d="M58.3035771,177.196005 L59.0532329,184.493527 C59.2350202,186.26307 60.7235113,187.608651 62.4993993,187.608651 L72.2609403,187.608651 C74.3147031,187.608651 75.9174604,185.829571 75.7071067,183.783022 L74.9574508,176.488101 C74.7756636,174.719425 73.2880381,173.374278 71.5121501,173.373845 L61.7510419,173.37081 C59.6968463,173.370377 58.0932233,175.149456 58.3035771,177.196005" id="Fill-207" fill="#DCE0E3" mask="url(#mask-4)"></path>
                        <path d="M69.0399304,181.887635 L68.9581262,181.969566 L68.9581262,185.073852 C68.9581262,187.808797 70.172638,189.636863 72.5700652,190.026578 C72.969997,190.091603 74.3437891,190.128017 75.492944,190.147958 C75.7894303,190.15316 75.8067434,189.746971 75.5223762,189.663739 C73.2058876,188.986181 72.5700652,186.878508 72.5700652,185.073852 L72.5700652,181.969566 C72.538036,181.937487 72.5202901,181.919714 72.4878281,181.887635 L69.0399304,181.887635 Z" id="Fill-208" fill="#DCE0E3" mask="url(#mask-4)"></path>
                        <polyline id="Stroke-209" stroke="#EF3C86" stroke-width="3.85" stroke-linecap="round" mask="url(#mask-4)" points="45.7850164 177.934514 42.5656513 183.00125 37.4673853 177.934514"></polyline>
                        <path d="M43.2045468,45.7647481 L43.9542027,53.06227 C44.1359899,54.8322464 45.624481,56.1773937 47.4008018,56.1773937 L57.16191,56.1773937 C59.2156728,56.1773937 60.8184302,54.3983139 60.6080764,52.3521987 L59.8588533,45.0572777 C59.6766333,43.2881684 58.1890078,41.943021 56.4135526,41.9425875 L46.6520116,41.9399865 C44.597816,41.9391195 42.9946258,43.7186329 43.2045468,45.7647481" id="Fill-210" fill="#DCE0E3" mask="url(#mask-4)"></path>
                        <path d="M53.9410733,50.4565943 C53.9090441,50.4886732 53.8912982,50.5064467 53.859269,50.5385256 L53.859269,53.6428118 C53.859269,56.3777569 55.0737808,58.2053887 57.4707752,58.5955378 C57.8711399,58.6605626 59.2449319,58.6969765 60.393654,58.7169175 C60.6901403,58.721686 60.7078862,58.3159309 60.4235191,58.2326991 C58.1070305,57.5547067 57.4707752,55.4474681 57.4707752,53.6428118 L57.4707752,50.5385256 L57.3889709,50.4565943 L53.9410733,50.4565943 Z" id="Fill-211" fill="#DCE0E3" mask="url(#mask-4)"></path>
                        <polyline id="Stroke-212" stroke="#CED2E1" stroke-width="3.85" stroke-linecap="round" mask="url(#mask-4)" points="30.6859428 46.5034737 27.4670105 51.5702098 22.3683118 46.5034737"></polyline>
                        <path d="M84.2932634,243.036178 C75.9557223,251.894296 62.0273585,252.305253 53.1834101,243.954762 C44.3390289,235.604271 43.9282763,221.654708 52.2658175,212.796589" id="Fill-213" fill="#D8E9F0" mask="url(#mask-4)"></path>
                        <path d="M101.575472,270.645078 C90.1293691,260.301792 89.2221643,242.62327 99.5494098,231.15939 C109.876655,219.695509 127.527762,218.786895 138.973864,229.130181" id="Fill-214" fill="#D8E9F0" mask="url(#mask-4)"></path>
                        <path d="M118.078462,86.0507192 C118.078462,100.798355 111.062341,114.197808 95.173272,114.197808 C79.2885314,114.197808 72.2724102,100.798355 72.2724102,86.0507192 C72.2724102,81.5553347 73.0817962,77.0686202 74.4754982,72.88969 L115.871046,72.88969 C117.264748,77.0686202 118.078462,81.5553347 118.078462,86.0507192" id="Fill-215" fill="#D8E9F0" mask="url(#mask-4)"></path>
                        <path d="M95.1623215,89.758306 L95.1623215,131.263233" id="Stroke-216" stroke="#CDD9E3" stroke-width="0.875" mask="url(#mask-4)"></path>
                        <path d="M60.6864613,115.063809 C46.7277996,117.872883 38.1967849,107.338857 35.5998246,94.3772377 C34.81208,90.4584068 34.7298429,86.4008563 35.201624,82.5080354 C35.6128094,79.1137384 36.448165,75.845156 37.6081406,72.8930279 L52.2290272,72.8973629 L55.0813553,87.1161297 L60.6864613,115.063809 Z" id="Fill-217" fill="#CEDDE1" mask="url(#mask-4)"></path>
                        <path d="M65.7007588,154.394739 C65.7007588,154.394739 54.3364605,139.720365 58.0652627,136.343408 C61.7940649,132.966017 65.6193874,141.703189 71.567725,141.258419 C77.5164955,140.813649 72.1542052,134.865609 73.6158611,132.108989 C75.0770841,129.352369 93.0489152,138.324064 93.0489152,138.324064 L65.7007588,154.394739 Z" id="Fill-218" fill="#D8E9F0" mask="url(#mask-4)"></path>
                        <path d="M66.9842199,109.866287 C66.9842199,125.147126 54.6140323,137.536527 39.3525621,137.536527 C33.7517844,137.536527 28.5405506,135.867556 24.1863138,132.997792 L19.8017792,90.3198172 C23.8790069,86.2275868 29.2244169,83.4098434 35.2017539,82.5081655 C36.5565015,82.300086 37.941547,82.1960462 39.3525621,82.1960462 C45.1957228,82.1960462 50.6190416,84.012407 55.0814851,87.1162597 C62.2750652,92.110168 66.9842199,100.437684 66.9842199,109.866287" id="Fill-219" fill="#D8E9F0" mask="url(#mask-4)"></path>
                        <path d="M40.3968431,109.866287 L40.3968431,151.371213" id="Stroke-220" stroke="#CDD9E3" stroke-width="0.875" mask="url(#mask-4)"></path>
                        <path d="M82.4281698,231.37744 C82.4281698,235.317078 79.2395354,238.510232 75.306439,238.510232 C71.3729097,238.510232 68.1847081,235.317078 68.1847081,231.37744 C68.1847081,227.438234 71.3729097,224.244647 75.306439,224.244647 C79.2395354,224.244647 82.4281698,227.438234 82.4281698,231.37744" id="Fill-221" fill="#CEDDE1" mask="url(#mask-4)"></path>
                    </g>
                </g>
                <g id="Man" transform="translate(208.000000, 91.000000)">
                    <path d="M21.7829905,6.93755608 L12.0460837,6.93755608 C10.949102,6.93755608 10.0514531,6.04249377 10.0514531,4.94814362 C10.0514531,3.85379347 10.949102,2.95873116 12.0460837,2.95873116 L21.7829905,2.95873116 C22.8795379,2.95873116 23.7771869,3.85379347 23.7771869,4.94814362 C23.7771869,6.04249377 22.8795379,6.93755608 21.7829905,6.93755608" id="Fill-223" fill="#000000"></path>
                    <path d="M33.4838681,3.48415786 C33.4838681,5.315873 31.9956035,6.80013412 30.159918,6.80013412 C28.3237982,6.80013412 26.8355336,5.315873 26.8355336,3.48415786 C26.8355336,1.65244273 28.3237982,0.168181602 30.159918,0.168181602 C31.9956035,0.168181602 33.4838681,1.65244273 33.4838681,3.48415786" id="Fill-225" fill="#000000"></path>
                    <path d="M6.99319318,3.61365163 C6.99319318,5.44536677 5.50492862,6.93006113 3.66924309,6.93006113 C1.83312329,6.93006113 0.344858735,5.44536677 0.344858735,3.61365163 C0.344858735,1.78236973 1.83312329,0.297675371 3.66924309,0.297675371 C5.50492862,0.297675371 6.99319318,1.78236973 6.99319318,3.61365163" id="Fill-227" fill="#000000"></path>
                    <path d="M85.1302962,263.625138 L81.8953727,272.444491 C81.8953727,272.444491 103.390308,282.524557 110.21713,291.957803 L68.2260948,282.543619 L75.3916522,257.01658 L85.1302962,263.625138 Z" id="Fill-229" fill="#0B096F"></path>
                    <polygon id="Fill-231" fill="#EF3C86" points="74.7070158 258.939535 71.793891 269.833647 81.8955899 272.444751 84.5989592 265.126989"></polygon>
                    <path d="M2.63601314,161.235858 C2.63601314,161.235858 31.3790181,127.706547 64.7848468,128.683923 C98.1906754,129.661734 87.3476671,153.097983 87.3476671,153.097983 C87.3476671,153.097983 103.78893,183.663971 105.406175,206.177431 C106.497945,221.371828 87.0666903,269.696529 87.0666903,269.696529 L71.566504,265.303532 C71.566504,265.303532 87.3672095,220.174369 83.7592428,201.511929 C81.1449,187.98765 60.9254341,162.683294 54.3031562,161.235858 L2.63601314,161.235858 Z" id="Fill-233" fill="#25003F"></path>
                    <path d="M170.958778,124.556066 L168.386126,144.114434 L145.518878,142.251526 C145.518878,142.251526 135.606958,149.392529 120.224895,153.096683 C104.847174,156.80517 81.6220827,162.185941 68.2594038,153.096683 C54.896725,144.007425 59.03972,132.557039 59.03972,132.557039 L74.2480727,132.738998 L78.0136817,112.865668 C90.1603872,111.29736 100.365444,111.95241 109.050968,112.558938 C120.298722,113.343093 128.767108,115.318642 134.773148,116.826297 C135.528788,117.01692 136.353913,117.220541 137.244179,117.437158 C148.891467,120.270511 170.958778,124.556066 170.958778,124.556066" id="Fill-235" fill="#FFC100"></path>
                    <path d="M116.319058,134.105202 C110.172312,132.150015 107.945344,126.26236 108.747018,118.41995 C108.960682,116.329161 110.354708,113.168282 113.460652,112.938235 C124.708406,113.722389 134.938216,115.038555 135.338184,116.953452 C138.455853,131.883576 121.414421,135.725932 116.319058,134.105202" id="Fill-237" fill="#FF77CA"></path>
                    <path d="M120.22585,128.684053 L134.774537,119.337021 C134.774537,119.337021 149.465233,124.429691 153.00719,123.421988 C153.00719,123.421988 161.530294,109.519929 161.382206,98.4585875 L151.103757,84.5430979 L130.463043,81.8969021 L124.398376,99.7890504 C123.974957,96.4405816 115.091402,90.5429614 111.328833,97.0943323 C106.4771,105.542837 120.900715,112.84457 120.900715,112.84457 L111.803497,117.841496 L120.22585,128.684053 Z" id="Fill-239" fill="#FF77CA"></path>
                    <path d="M115.006067,94.2577733 C115.006067,94.2577733 106.797813,87.2528059 120.728525,77.7220819 C134.659237,68.1909246 143.649623,76.4388415 143.649623,76.4388415 C143.649623,76.4388415 149.014671,64.9304024 157.009696,66.5940226 C168.399893,68.9646813 166.564641,86.8945211 166.564641,86.8945211 C166.564641,86.8945211 171.365999,77.9174706 174.353819,79.9489068 C177.34164,81.980343 173.837899,114.329091 131.643623,89.6269306 C131.643623,89.6269306 135.154312,100.1268 124.398593,99.7888772 C124.398593,99.7888772 121.937115,93.7976783 115.006067,94.2577733" id="Fill-241" fill="#0B096F"></path>
                    <polyline id="Stroke-243" stroke="#001F68" stroke-width="1.575" points="128.04369 67.5362208 127.850437 75.7555442 124.582943 76.5704582 120.22585 69.859657"></polyline>
                    <polygon id="Fill-245" fill="#285FD7" points="151.076224 106.313258 152.551894 114.386581 148.890512 113.664379"></polygon>
                    <path d="M148.423274,105.115494 C148.264329,106.142693 147.301104,106.847132 146.271001,106.688569 C145.241332,106.530005 144.535633,105.568658 144.694578,104.541459 C144.853089,103.51426 145.816748,102.810254 146.846417,102.968385 C147.876086,103.126948 148.582219,104.088296 148.423274,105.115494" id="Fill-247" fill="#0B096F"></path>
                    <path d="M158.134906,105.604399 C157.975961,106.631598 157.012302,107.336037 155.982633,107.177474 C154.953398,107.01891 154.247265,106.057563 154.40621,105.030364 C154.564721,104.003165 155.52838,103.299159 156.558049,103.45729 C157.587718,103.616287 158.293851,104.577201 158.134906,105.604399" id="Fill-249" fill="#0B096F"></path>
                    <polygon id="Fill-251" fill="#EF3C86" points="134.774537 119.278144 124.13477 114.152115 130.289767 122.218506"></polygon>
                    <path d="M143.760754,100.515801 C144.362661,99.5717834 145.465723,98.9877834 146.661719,99.1038902 C147.857282,99.2204303 148.82702,100.005884 149.234372,101.048246" id="Stroke-253" stroke="#0D1A88" stroke-width="0.525"></path>
                    <path d="M153.472386,101.460296 C154.074293,100.516278 155.177789,99.9322777 156.373351,100.048385 C157.568914,100.164925 158.538218,100.950379 158.946003,101.992741" id="Stroke-255" stroke="#0D1A88" stroke-width="0.525"></path>
                    <polygon id="Fill-257" fill="#EF3C86" points="250.016547 142.52533 244.793507 147.25755 236.241305 143.858392 239.181355 138.39314"></polygon>
                    <path d="M168.652945,142.10037 L229.313949,145.723943 C229.313949,145.723943 234.591707,148.319017 237.398,148.887854 C240.203859,149.456258 245.081215,148.589789 247.953952,149.923284 C250.827123,151.255913 250.292529,147.72332 247.686872,147.123723 C245.081215,146.523694 239.335306,143.858002 239.335306,143.858002 L242.675759,141.591753 C242.675759,141.591753 254.033819,144.057723 256.038438,143.724566 C258.042622,143.390976 260.782037,141.858192 260.782037,140.791569 C260.782037,140.791569 247.820629,139.858815 243.34411,136.726097 C238.868025,133.593379 229.113313,137.192691 229.113313,137.192691 L170.882085,125.129278 L168.652945,142.10037 Z" id="Fill-259" fill="#FF77CA"></path>
                    <path d="M77.8798812,113.620926 C77.8798812,113.620926 53.2933338,114.920629 47.5921557,116.825561 C41.8905434,118.730926 15.8787015,161.121181 15.8787015,161.121181 L24.0296316,161.654493 C24.0296316,161.654493 20.689179,166.986742 18.1504003,167.786493 C15.6116216,168.586243 18.6845601,169.919306 18.6845601,169.919306 C18.6845601,169.919306 18.2876316,171.502777 21.3570958,171.652243 C26.8389644,171.918682 34.9868546,168.319371 38.4610642,162.720682 C38.4610642,162.720682 40.3319261,159.464493 37.6593903,158.093306 C34.9868546,156.722119 29.641783,156.45568 29.641783,156.45568 L51.2396416,132.460991 L74.2458579,132.740427 L77.8798812,113.620926 Z" id="Fill-261" fill="#FF77CA"></path>
                    <path d="M149.950232,117.67444 C149.305767,118.887497 147.136557,119.000571 145.105013,117.92615 C143.073903,116.852161 142.182334,114.539989 142.827234,113.3265 C143.4717,112.113443 145.42768,114.032672 147.459224,115.10666 C149.490334,116.180648 150.594698,116.461384 149.950232,117.67444" id="Fill-263" fill="#FFFFFF"></path>
                    <path d="M59.0397634,132.556953 L74.2481161,132.738911 L73.843805,134.66897 L89.4829597,133.682929 L58.6866968,139.703154 C58.6866968,139.703154 58.2150729,137.437772 58.5268832,135.067546 C58.7049364,133.717154 59.0397634,132.556953 59.0397634,132.556953" id="Fill-265" fill="#E0660C"></path>
                    <path d="M18.9076043,169.65265 C18.9076043,169.65265 21.4906792,169.132335 23.8796326,167.203142 C28.0886376,163.803985 28.8064962,160.488009 28.8064962,160.488009" id="Stroke-267" stroke="#DE479D" stroke-width="0.5" stroke-linecap="round"></path>
                    <path d="M21.5075291,171.302233 C21.5075291,171.302233 23.7358003,170.978174 26.7188436,168.786008 C31.4125008,165.336595 32.7066439,161.428388 32.7066439,161.428388" id="Stroke-269" stroke="#DE479D" stroke-width="0.5" stroke-linecap="round"></path>
                </g>
            </g>
        </g>
    </g>
</svg>