<svg height="394" viewBox="0 0 676 394" width="676" xmlns="http://www.w3.org/2000/svg" xmlns:xlink="http://www.w3.org/1999/xlink"><mask id="a" fill="#fff"><path d="m.27138881.21467898h177.13863719v351.25406802h-177.13863719z" fill="#fff" fill-rule="evenodd"/></mask><mask id="b" fill="#fff"><path d="m94.7739028.01300497c-3.8196958 0-6.8010063 3.30976476-6.4101638 7.11545236l.4419161 4.29597497c.4085884 3.9782202-2.7077639 7.4375421-6.7005904 7.4375421h-29.9901306c-4.4278174 0-8.1414706-3.3552822-8.5959387-7.7683018l-.4618261-4.49538453c-.3843501-3.74066275-3.5310004-6.5852831-7.286205-6.5852831h-26.69675211c-5.33199237 0-9.49145715 4.6171977-8.94609548 9.92756028l25.29006529 246.17973975c.4717811 4.595089 4.3325954 8.084756 8.9422 8.084756h110.435738c5.332425 0 9.49189-4.616765 8.946961-9.927127l-25.294827-246.17973944c-.471781-4.59508925-4.332595-8.08518959-8.941767-8.08518959z" fill="#fff" fill-rule="evenodd"/></mask><g fill="none" fill-rule="evenodd"><g opacity=".30406" transform="translate(-86)"><path d="m699.255265 235.986673c0 49.675415-32.425799 77.38852-74.659589 77.38852-42.234224 0-74.660023-27.713105-74.660023-77.38852 0-104.589865 47.65226-225.1657247 74.660023-225.1657247 27.007329 0 74.659589 120.5758597 74.659589 225.1657247" fill="#80d6a2"/><path d="m624.595546 162.098027v229.281923" stroke="#edfaf2" stroke-linecap="square" stroke-width="2.625"/><path d="m645.074726 280.013472 16.507009-16.503392" stroke="#edfaf2" stroke-linecap="square" stroke-width="1.75"/><path d="m645.074726 186.978714 16.507009-16.502959" stroke="#edfaf2" stroke-linecap="square" stroke-width="1.75"/><path d="m601.43563 210.11469c0 56.998354-46.216415 103.20421-103.226826 103.20421-57.010845 0-103.227261-46.205856-103.227261-103.20421 0-56.99792 46.216416-103.20421 103.227261-103.20421 57.010411 0 103.226826 46.20629 103.226826 103.20421" fill="#edfaf2"/><path d="m498.20889 190.105438v201.273905" stroke="#4dc67d" stroke-linecap="square" stroke-opacity=".995247" stroke-width="2.625"/><path d="m522.684534 280.412255 16.507009-16.503393" stroke="#4dc67d" stroke-linecap="square" stroke-opacity=".995247" stroke-width="2.1"/><path d="m522.684534 206.41666 16.507009-16.502959" stroke="#4dc67d" stroke-linecap="square" stroke-opacity=".995247" stroke-width="2.1"/><path d="m473.732769 245.102723-16.507009-16.503392" stroke="#4dc67d" stroke-linecap="square" stroke-opacity=".995247" stroke-width="2.1"/><path d="m473.732769 208.105034-16.507009-16.503392" stroke="#4dc67d" stroke-linecap="square" stroke-opacity=".995247" stroke-width="2.1"/><path d="m354.779452 293.538075c0 49.14197-32.096119 71.195356-71.531963 71.195356-39.431507 0-71.527626-22.053386-71.527626-71.195356 0-91.539986 39.036758-177.02559 71.527626-177.02559 32.495205 0 71.531963 85.485604 71.531963 177.02559" fill="#edfaf2"/><path d="m283.249658 213.975615v177.403772" stroke="#80d6a2" stroke-linecap="square" stroke-width="2.625"/><path d="m299.260064 312.905675 16.506575-16.503392" stroke="#80d6a2" stroke-linecap="square" stroke-width="1.75"/><path d="m299.260064 233.705741 16.506575-16.503392" stroke="#80d6a2" stroke-linecap="square" stroke-width="1.75"/><path d="m269.805553 312.917558-16.726507-16.723276" stroke="#80d6a2" stroke-linecap="square" stroke-width="1.75"/><path d="m268.632107 273.828029-16.726507-16.722842" stroke="#80d6a2" stroke-linecap="square" stroke-width="1.75"/><path d="m591.39747 390.402402-186.126689.977548c-10.624384-13.49485-35.363425-47.287924-25.404475-57.272015 6.55153-6.567442 26.187466 14.569547 31.488813 8.226759 5.301347-6.338018-29.513334-45.851527-20.673562-51.420604 15.579566-9.813215 65.7079 60.617972 72.177877 54.949579 6.802694-5.960702-25.165023-47.377699-13.901667-51.765391 13.115206-5.106757 47.839224 58.229614 57.870183 51.765391 5.256233-3.389759-4.947375-24.038841 2.637443-27.567383 13.201096-6.14936 35.229817 53.491497 44.595342 48.177867 4.428996-2.517599-.553082-11.134683 6.087808-13.278871 8.115777-2.616048 24.464019 24.970852 31.248927 37.20712" fill="#80d6a2"/><path d="m680.08292 366.572038c-.273288.364737-8.53742 11.389262-9.573744 21.54206h-14.52806c6.858653-13.627128 23.724407-21.372486 24.101804-21.54206" fill="#80d6a2"/><path d="m350.779171 368.687601c.273288.364304 8.536987 11.388829 9.573745 21.541627h14.527625c-6.858219-13.626694-23.723973-21.372486-24.10137-21.541627" fill="#ccefda"/><path d="m727.868874 375.445869c-.190433.260217-4.37694 5.837534-7.183561 12.668229h-10.519407c7.686758-8.071063 17.417101-12.542891 17.702968-12.668229" fill="#ccefda"/><path d="m127.990333 389.911937h-15.390867c-.090229-11.054016-5.765069-25.444881-5.765069-25.444881s16.887443 13.787161 21.155936 25.444881" fill="#ccefda"/><path d="m132.614404 389.911937c3.719749-7.871129 3.943151-14.212183 3.943151-14.212183s7.300685 7.932714 10.410959 14.212183z" fill="#ccefda"/><path d="m629.971288 325.60526c-.216895.66789-12.228973 33.796977-13.388927 62.508881h-19.398219c1.156484-12.965743-4.627238-28.622997-4.627238-28.622997s10.322032 7.917535 12.991142 19.215721c0 0 8.00863-36.016628 24.423242-53.101605" fill="#ccefda"/><path d="m647.357632 361.090307s-11.347945 15.057888-14.380137 27.023964h-10.554109c3.600456-7.386258 12.241552-22.361743 24.934246-27.023964" fill="#ccefda"/><path d="m738.97034 318.35696c0 25.227599-12.022055 48.140569-39.241073 48.140569-27.219452 0-39.241507-22.91297-39.241507-48.140569 0-29.59404 20.568585-59.022408 39.241507-59.022408 18.672489 0 39.241073 29.428368 39.241073 59.022408" fill="#edfaf2"/><path d="m699.729311 316.001259v75.378778" stroke="#ccefda" stroke-linecap="square" stroke-width="2.625"/><path d="m713.283989 324.439705 11.255981-11.064425" stroke="#ccefda" stroke-linecap="square" stroke-width="1.575"/><path d="m687.433231 336.004613-13.74637-12.41018" stroke="#ccefda" stroke-linecap="square" stroke-width="1.575"/><path d="m19.5309589 201.007097c-2.7454566-8.218519-17.79363013-6.827226-17.79579908-29.744099-.00390411-34.505634 47.52776258-30.567251 50.33047948-56.56596 2.8031507-25.9987086-27.74-25.3772238-28.6856621-47.305706-.9456621-21.9289158 22.2790182-67.17673976 57.51621-67.17673976 27.7846808 0 4.7716895 34.91330786 27.1955938 50.52632466 22.42347 15.6130169 48.034429-4.3889925 60.709338 20.1624765 17.459612 33.8186616-27.185617 74.4341906-22.780914 100.3596046 4.404704 25.925849 30.576553 19.796005 31.377329 48.281954.80121 28.486383-37.217009 33.499462-33.635205 57.926027 2.257876 15.397904 26.317603 10.256885 27.579931 40.618565 1.068425 25.706832-81.5976253 57.515752-143.6959586 5.204339-62.0987672-52.310546 2.3637214-90.918935-8.1153425-122.286786" fill="#80d6a2" mask="url(#a)" transform="translate(58.127854)"/><g stroke-linecap="square"><path d="m145.667274 138.740347v252.638996" stroke="#edfaf2" stroke-width="2.625"/><path d="m170.189941 300.283635 16.507009-16.502959" stroke="#edfaf2" stroke-width="2.1"/><path d="m165.158801 211.555988 16.506576-16.502959" stroke="#edfaf2" stroke-width="2.1"/><path d="m165.158801 167.192251 16.506576-16.503392" stroke="#edfaf2" stroke-width="2.1"/><path d="m121.849473 167.192251-16.506576-16.503392" stroke="#edfaf2" stroke-width="2.1"/><path d="m212.080993 388.897177s-14.682055-32.990738-36.838744-48.709143" stroke="#4dc67d" stroke-opacity=".995247" stroke-width="1.575"/><path d="m219.457331 389.911937s-2.402763-49.917851 15.750046-68.226282" stroke="#4dc67d" stroke-opacity=".995247" stroke-width="1.575"/></g><path d="m221.490071 321.685482c0 6.187091 5.016781 11.202773 11.205662 11.202773 6.188447 0 11.205228-5.015682 11.205228-11.202773 0-6.187526-5.016781-11.203207-11.205228-11.203207-6.188881 0-11.205662 5.015681-11.205662 11.203207" fill="#4dc67d" fill-opacity=".995247"/><path d="m168.247863 344.951696c0 6.187525 5.016781 11.202773 11.205662 11.202773 6.188448 0 11.205228-5.015248 11.205228-11.202773 0-6.187526-5.01678-11.203207-11.205228-11.203207-6.188881 0-11.205662 5.015681-11.205662 11.203207" fill="#4dc67d" fill-opacity=".995247"/><path d="m421.222582 387.155198s-1.696986-22.612419 10.95016-49.043955" stroke="#4dc67d" stroke-linecap="square" stroke-opacity=".995247" stroke-width="1.575"/><path d="m414.143868 389.465144s-10.831302-47.417166-38.904886-70.557392" stroke="#4dc67d" stroke-linecap="square" stroke-opacity=".995247" stroke-width="1.575"/><path d="m385.907699 314.009819c1.099657 6.089077-2.945434 11.916635-9.035411 13.016052-6.089977 1.09985-11.918813-2.944355-13.018904-9.032998-1.100092-6.088643 2.945433-11.916201 9.035411-13.016052 6.089977-1.09985 11.918812 2.944355 13.018904 9.032998" fill="#4dc67d" fill-opacity=".995247"/><path d="m446.260852 327.80843c1.099657 6.088643-2.945434 11.916201-9.035411 13.016051-6.089978 1.099417-11.918813-2.944788-13.018904-9.033431-1.099658-6.088643 2.945433-11.916201 9.03541-13.016052 6.089978-1.09985 11.918813 2.944789 13.018905 9.033432" fill="#4dc67d" fill-opacity=".995247"/><path d="m258.08624 334.087291c-.355708.470126-23.216439 30.48615-23.802055 54.005859h-18.462101c2.472603-7.657317 13.191553-35.672274 42.264156-54.005859" fill="#80d6a2"/><path d="m205.879966 388.114054h-14.709818c-2.908995-11.054449-11.716666-17.946729-11.716666-17.946729s17.490411 3.422287 26.426484 17.946729" fill="#80d6a2"/><path d="m476.175397 358.974744c.321872.405938 7.20742 16.242742 6.388425 31.254224h24.248425c.46242-8.205508 5.667899-19.949099 5.667899-19.949099s-10.67774 4.322203-17.895137 16.667329c0 0-5.462283-22.271535-18.409612-27.972454" fill="#ccefda"/><path d="m438.165811 366.072725c-.288471.557298-6.124247 10.668461-7.661165 22.488816l-23.116667 2.371443c-1.574657-10.508427-4.973835-16.358538-4.973835-16.358538s9.706918 2.821619 14.888539 11.073966c0 0 6.004954-12.695985 20.863128-19.575687" fill="#ccefda"/><path d="m129.972059 285.510469c0 40.220432-16.640182 76.750988-54.3148398 76.750988-37.6746576 0-54.3148402-36.530556-54.3148402-76.750988 0-47.182104 28.4696347-94.098786 54.3148402-94.098786 25.8452058 0 54.3148398 46.916682 54.3148398 94.098786" fill="#edfaf2"/><path d="m91.4549817 290.805883 14.7011413-16.502958" stroke="#ccefda" stroke-linecap="square" stroke-width="1.75"/><g transform="translate(0 390.759116)"><path d="m759.732959 1.23817086h-759.73278548" fill="#edfaf2"/><path d="m759.732959 1.23817086h-759.73278548" stroke="#ccefda" stroke-linecap="round" stroke-width="3.5"/></g></g><g transform="translate(291 77)"><path d="m99.3248164 292.010038h121.1836206c6.784972 0 12.471065-5.117796 13.164819-11.850324l27.370269-265.3804819c.80286-7.78401085-5.320089-14.55252739-13.164818-14.55252739h-121.179709c-6.784972 0-12.47063 5.11822994-13.165254 11.85032399l-27.3737463 265.3804823c-.8028601 7.784444 5.320089 14.552527 13.1648187 14.552527" fill="#1f2430"/><path d="m245.812266 14.7768039-27.372008 265.3817831c-.695059 6.733395-6.380717 11.850324-13.166558 11.850324h-121.180578c-7.8464684 0-13.9711562-6.76895-13.1665574-14.552094l27.3759201-265.3813493c.6911465-6.73382842 6.3768043-11.85032395 13.1626453-11.85032395h121.181013c7.846034 0 13.966375 6.76851654 13.166123 14.55166015" fill="#5b6a76"/><path d="m90.0530214 281.11793h110.3156686c4.610686 0 8.474151-3.477916 8.945783-8.05241l26.085345-252.9244174c.545962-5.2895025-3.614826-9.8887116-8.945782-9.8887116h-110.311322c-4.610686 0-8.474586 3.4779161-8.946652 8.05241l-26.0888231 252.923984c-.5455275 5.289936 3.6148264 9.889145 8.9457825 9.889145" fill="#fff"/><path d="m209.181721 1.7006023-1.447496 14.0486826c-.482498 4.6742222-4.429423 8.229753-9.137043 8.229753h-52.59668c-5.442235 0-9.693438-4.7002382-9.137044-10.1029106l1.256235-12.175525z" fill="#5b6a76"/><path d="m181.908733 14.7018776h-23.506369c-.97456 0-1.771769-.7952248-1.771769-1.7677926 0-.9721341.797209-1.7677925 1.771769-1.7677925h23.506369c.97456 0 1.772204.7956584 1.772204 1.7677925 0 .9725678-.797644 1.7677926-1.772204 1.7677926" fill="#000"/><path d="m193.184158 12.9339983c0 1.6273058-1.322742 2.9467546-2.954108 2.9467546-1.631367 0-2.954108-1.3194488-2.954108-2.9467546 0-1.6273057 1.322741-2.94632092 2.954108-2.94632092 1.631366 0 2.954108 1.31901522 2.954108 2.94632092" fill="#000"/><path d="m221.250963 57.2934509-7.962528 77.1970771c-.3647 3.536453-3.351843 6.225214-6.916247 6.225214h-93.439958c-4.121667 0-7.337889-3.555964-6.916246-7.644824l7.962528-77.1710617c.365134-3.5355852 3.350539-6.2239133 6.913638-6.2247805l93.440829-.0264497c4.121667-.0013008 7.340062 3.5546636 6.917984 7.6448248" fill="#edfaf2"/><path d="m207.412386 188.314327-7.962529 77.197511c-.3647 3.536452-3.351409 6.224781-6.915812 6.224781h-93.4403932c-4.1212324 0-7.3378889-3.555531-6.9162461-7.645259l7.9629633-77.170194c.3647-3.536019 3.350539-6.224347 6.913638-6.225214l93.440828-.02645c4.121668-.001301 7.339628 3.554664 6.917551 7.644825" fill="#edfaf2"/><path d="m148.006826 154.517533-.752872 7.299244c-.182567 1.770394-1.677443 3.115859-3.460948 3.115859h-9.803413c-2.062572 0-3.672204-1.7795-3.460948-3.826098l.752436-7.296643c.182567-1.769527 1.677009-3.114992 3.46008-3.115425l9.803412-.003035c2.063007-.000434 3.673074 1.779066 3.462253 3.826098" fill="#dce0e3"/><path d="m139.50416 159.377163c-.032167.032086-.049989.049864-.082156.08195v3.105019c0 2.735591 1.219287 4.564088 3.626998 4.953895.402082.065041 1.781767.101463 2.935416.121409.297758.005203.31558-.401081.029993-.484333-2.326425-.677719-2.965409-2.785888-2.965409-4.590971v-3.105019c-.032167-.032086-.049989-.049864-.082155-.08195z" fill="#dce0e3"/><path d="m110.283617 154.827948 3.23274 5.067932 5.120569-5.067932" stroke="#ef3c86" stroke-linecap="round" stroke-width="3.85"/><path d="m105.318273 148.761735-3.001923-2.99445" stroke="#1a1a30" stroke-width=".7"/><path d="m102.47627 156.632423h-4.2459862" stroke="#1a1a30" stroke-width=".7"/><path d="m105.818768 164.502851-3.001923 2.994884" stroke="#1a1a30" stroke-width=".7"/><path d="m120.724493 17.6384425c0 1.9525067-1.587029 3.5355851-3.544408 3.5355851s-3.544407-1.5830784-3.544407-3.5355851 1.587028-3.5355851 3.544407-3.5355851 3.544408 1.5830784 3.544408 3.5355851" fill="#d6e1e6"/><path d="m130.487871 17.6384425c0 1.9525067-1.586594 3.5355851-3.543973 3.5355851-1.957813 0-3.544842-1.5830784-3.544842-3.5355851s1.587029-3.5355851 3.544842-3.5355851c1.957379 0 3.543973 1.5830784 3.543973 3.5355851" fill="#d6e1e6"/><path d="m229.361806 17.6384425c0 1.9525067-1.586594 3.5355851-3.544407 3.5355851-1.957379 0-3.544408-1.5830784-3.544408-3.5355851s1.587029-3.5355851 3.544408-3.5355851c1.957813 0 3.544407 1.5830784 3.544407 3.5355851" fill="#d6e1e6"/><path d="m91.4733491 53.5083282-.262114.2614616v9.8921804c0 8.7149529 3.8856341 14.5395193 11.5556209 15.7813535 1.280577.2072614 5.67566.3239002 9.351777.3867724.948479.0164768 1.004988-1.2778231.094761-1.5431871-7.411351-2.1593346-9.446538-8.8749517-9.446538-14.6249388v-9.8921804l-.261679-.2614616z" fill="#5ecc62"/><path d="m203.096154 230.176539-3.646993 35.333738c-.364699 3.538187-3.351408 6.226949-6.915811 6.226949h-32.596902c-4.277283-5.18197-6.846262-11.824308-6.846262-19.061114 0-16.577012 13.470836-30.013883 30.088779-30.013883 7.641733 0 14.609706 2.840088 19.917189 7.51431" fill="#d0e1e9"/><path d="m149.099446 224.701889c1.580074 13.002403-7.706066 24.821074-20.740914 26.397215-13.035283 1.576574-24.883012-7.686451-26.46352-20.689287-1.579639-13.002403 7.706066-24.821074 20.740914-26.397215 13.034848-1.57614 24.883011 7.686885 26.46352 20.689287" fill="#d0e1e9"/><path d="m171.112939 200.075112c-8.550221 5.299909-11.173969 16.509804-5.860835 25.038308 5.312699 8.528505 16.550567 11.146156 25.100787 5.84668z" fill="#bcced4"/><path d="m125.721221 209.790904c5.567859 4.352923 13.618628 3.379488 17.982414-2.174511 4.363351-5.553566 3.387487-13.584729-2.179937-17.937653z" fill="#bcced4"/><path d="m9.32159426 72.0767842h98.95391674c4.918007 0 8.904487-3.9765576 8.904487-8.8818893v-26.5949367c0-4.9057653-3.98648-8.882323-8.904487-8.882323h-98.95391674c-4.91757227 0-8.9040529 3.9765577-8.9040529 8.882323v26.5949367c0 4.9053317 3.98648063 8.8818893 8.9040529 8.8818893" fill="#5ecc62"/><path d="m183.758659 34.0837264c0 8.5471491-6.945805 15.4760981-15.514717 15.4760981-8.568477 0-15.515151-6.928949-15.515151-15.4760981 0-8.5471492 6.946674-15.4760982 15.515151-15.4760982 8.568912 0 15.514717 6.928949 15.514717 15.4760982" fill="#25003f"/><path d="m181.651053 69.8740462c0 .1821125 0 .3598891-.004781.5420016-.291238 16.5852504-13.852923 29.9358352-30.544762 29.9358352-13.518651 0-24.98125-8.7500749-29.011199-20.8865757-.351658-1.0623232-.647678-2.1506625-.882407-3.2650179-.395127-1.8688217-.621162-3.8026836-.656371-5.7842416-.003913-.1821125-.003913-.3598891-.003913-.5420016 0-7.1977819 2.499429-13.8145379 6.68543-19.0307618.778083-.9712669 1.616587-1.8905017 2.508122-2.7577043 5.507438-5.3766564 13.0405-8.6850344 21.360338-8.6850344 16.869625 0 30.549543 13.6454334 30.549543 30.4735005" fill="#25003f"/><path d="m46.4938417 117.734482 68.4052433-3.176563 23.358577-21.2018033-94.3697467 14.4406583s-.8163353-2.190988-1.993023-4.451351c-1.1766877-2.260364-3.9569222-4.4461481-3.6461236-9.2690955.3103639-4.8225139-3.0532156-.3924092-3.3014197 1.9342955-.2486389 2.3267046 2.2746977 6.661417.3564403 7.640922-1.9178228.979506-7.2779027.890617-8.4676309 2.183183-1.1888588 1.292565-.7002748 4.119212.2151683 4.610916 0 0-1.1884242 3.485721 1.1566923 5.644622 0 0 .1964768 2.477165 2.481607 3.446697 0 0 .8285063 2.454617 3.3140255 2.161069s8.1029316-2.335377 12.4901902-3.96355" fill="#ff77ca"/><path d="m120.547707 110.571909h61.103433v-40.1558178h-61.103433z" fill="#25003f"/><path d="m197.25375 127.686326s-1.368818 8.684601-10.227664 13.029286h-26.050571c-20.652238-6.863908-29.123781-25.703886-29.123781-25.703886l-29.385461 14.050851v-31.89658s47.72475-6.7693837 47.416124-6.9475939c-.425989-.2428167 29.315043-1.8905017 35.20022-1.2309941 5.886047.6586404 23.20383 12.547988 23.20383 12.547988z" fill="#56b75a"/><path d="m132.360487 96.9986269c-1.88783 4.1486971-1.936514 10.0257301-1.471403 13.9194691.292977 2.450715.962824 4.09363.962824 4.09363s-27.208133 13.092592-29.385896 14.050851v-31.89658c3.173188-.4596174 33.728382-4.8164434 33.728382-4.8164434s-2.390324 1.4764125-3.833907 4.6490733z" fill="#5ecc62"/><path d="m214.73706 120.427537-1.447495 14.061691c-.365134 3.538186-3.351409 6.226514-6.915812 6.226514h-31.462378l-4.744568 3.08941s.08911 4.201163.490323 7.204286c.206909 1.548824-1.714391 2.514887-1.714391 2.514887s-.490758 1.469909-1.738733 1.777766c-1.0302.255825-1.888265-1.627306-2.138642-2.298521 1.356646 3.631845-.81677 4.566256-1.473142 4.479535-.669412-.091056-.938916-1.066659-.938916-1.066659s-1.334912.57669-3.407917-1.556629c-2.073439-2.137654-2.921072-8.719722-2.842829-10.996129.025646-.79349.612904-1.94687 1.364471-3.147946.065637-.104064.13084-.212464.199954-.316528 1.378381-2.146327 3.173188-4.357694 3.173188-4.869343l36.109578-7.843848 7.645644-18.115863z" fill="#ff77ca"/><path d="m158.286825 82.7260326c-1.66049 2.5105516-.97369 5.8145936-.022169 7.7441195.321666.66341.678541 1.1663875.982819 1.4178763 1.182339.9756029-6.398973 8.1820566-6.398973 8.1820566l-6.671954-7.31919c-4.190347.2341447-8.546308-.0607042-11.249604-1.7517493-8.055116-5.0384473-8.559349-22.5472685-8.428509-23.4231431l6.737591-7.1327417s10.169851-4.4483159 11.72167-2.5669198c2.838482 3.4475641 9.492614 18.8785677 14.289779 17.109908 0 0-.612903-4.7999666 3.633518-4.7999666 3.164929 0 4.025602 2.3934793 4.025602 3.7766675 0 4.6698861-6.389844 5.3809923-8.61977 8.7630826" fill="#ff77ca"/><path d="m136.122628 77.5592393-3.021484 6.9410898 3.518327-.0715442z" fill="#285fd7"/><path d="m139.35176 77.5031313c.077808 1.3857898.943262 2.4641562 1.933036 2.4090889.990643-.055501 1.73004-1.2236229 1.651797-2.6089791-.077809-1.3857899-.943263-2.4645899-1.933037-2.409089-.990208.0550674-1.729605 1.2231894-1.651796 2.6089792" fill="#0b096f"/><path d="m130.054492 77.2947858c.077808 1.3857898.943263 2.4641563 1.933037 2.4090889.990208-.0555009 1.729605-1.2236229 1.651796-2.6089791-.077808-1.3857898-.943262-2.4645899-1.933036-2.4090889-.990209.0550674-1.73004 1.2231893-1.651797 2.6089791" fill="#0b096f"/><path d="m135.539804 60.3608333c0 1.9165178-.339053 3.7593234-.96065 5.4677126-.08259.2124647-.16518.4336013-.261245.646066-.599428 1.4308843-1.399245 2.7577043-2.364242 3.9414359-2.603753 3.1869697-6.420707 5.3463043-10.745806 5.7842416-.221254.0216801-.438596.0390241-.660284.0476961v-5.8319377h.004347c-.004347-.1821125-.004347-.3598891-.004347-.5420016 0-7.1977819 2.499429-13.8145379 6.685429-19.0307618.778083-.9712669 1.616587-1.8905017 2.508123-2.7577043 2.025189 1.669365 3.629606 3.8286996 4.633289 6.3002271.752437 1.8428056 1.165386 3.8590517 1.165386 5.9750261" fill="#25003f"/><path d="m159.246606 59.9901475c0 4.1656079-3.995174 7.6769113-9.453493 8.7531098-.432075.0880211-.871974.1582645-1.323176.2111639-.723747.0919234-1.470533.1361508-2.228621.1361508-7.183142 0-13.00529-4.0732508-13.00529-9.1004245 0-.4834654.053032-.9578253.159094-1.4191771.974126-4.354658 6.353332-7.6855833 12.846196-7.6855833 7.114897 0 12.891403 3.9991049 13.001378 8.9599376.003912.0481298.003912.0966931.003912.1448228" fill="#25003f"/><path d="m136.619297 87.1281266s4.080807.3781003 4.080807-2.4459451" fill="#fff"/><path d="m160.554046 91.4444542c2.29252 1.9971677 2.442921 5.5678745.335576 7.975229-2.107345 2.4073548-6.168591 2.8517958-8.041207.6504018-1.969115-2.3154308-2.369458-5.4759508-.261679-7.8833053 2.107345-2.4073545 5.674791-2.7394931 7.96731-.7423255" fill="#ff77ca"/><path d="m168.631766 112.254759h-11.332193v-26.4891379h24.351393v13.502345c0 7.1721989-5.828668 12.9867929-13.0192 12.9867929" fill="#25003f"/><path d="m146.176374 92.7507649s4.457678-.6664452 6.714554-1.8337l-4.240771 4.5476106z" fill="#ef3c86"/><path d="m102.466099 98.8330206v16.3025424l-2.07344.095826.860673-16.212787z" fill="#ef3c86"/><path d="m197.249577 127.686153 3.946924-1.025033 3.699155-17.09083z" fill="#ef3c86"/><path d="m181.223151 112.254759 11.853814 16.337664-6.207713 1.3485z" fill="#377439"/><g stroke="#de479d" stroke-width=".5"><path d="m35.8831352 105.904017c.4568522 1.23403-1.2931828 2.457219-1.2931828 2.457219s1.8139334-.155229 2.3407696 1.534082c.4681539 1.501127-1.435759 2.657108-1.435759 2.657108s2.1603761-.311325 2.7289418 1.390126c.6715857 2.009309-1.7808975 3.09071-1.7808975 3.09071s2.3768483-.850725 2.9115088 1.011159c.513361 1.786437-1.7882871 2.341013-1.7882871 2.341013" stroke-linecap="round"/><path d="m27.0515005 110.445601 7.5387127-2.084755"/><path d="m28.2078451 116.090483 7.2874657-3.537753"/><path d="m30.6894521 119.536833 5.7534683-2.503614"/><path d="m162.653176 155.982845s-2.182545-4.840292-2.573326-7.063366c-.568565-3.235966-.503797-5.836707-.503797-5.836707" stroke-linecap="round"/><path d="m165.701479 154.339929s-1.495745-4.141759-2.068223-5.828902c-.639419-1.885732-.644201-6.095567-.644201-6.095567" stroke-linecap="round"/><path d="m166.910029 141.948384s-.355571 3.146645-.037817 5.381426c.419469 2.951524 2.070831 5.760827 2.070831 5.760827" stroke-linecap="round"/></g></g><g transform="translate(46.512411 80.261146)"><path d="m161.287597 291.879332h-120.6664631c-6.7555594 0-12.4169329-5.117022-13.10859-11.847527l-27.25293443-265.3182859c-.79943096-7.78217376 5.29736622-14.54865944 13.10859003-14.54865944h120.6621345c6.75556 0 12.417366 5.11658854 13.10859 11.84709384l27.257263 265.3178525c.799431 7.782607-5.297366 14.549526-13.10859 14.549526" fill="#1f2430"/><path d="m176.453023 291.879332h-120.6634334c-6.7564251 0-12.4177986-5.115288-13.1103213-11.847527l-27.2550986-265.3187194c-.7964012-7.78087326 5.2977991-14.54822594 13.1103214-14.54822594h120.6634329c6.756425 0 12.417799 5.11572154 13.105993 11.84752734l27.259427 265.318719c.800729 7.781741-5.297799 14.548226-13.110321 14.548226" fill="#5b6a76"/></g><g transform="translate(72.914841 88.931125)"><path d="m-26.2137175 289.201913h200.5870515v-303.8494102h-200.5870515z" fill="#fff" mask="url(#b)"/><g fill="#edfaf2"><path d="m32.2141674 211.987247 7.9285199 77.178859c.3635744 3.535617 3.3375268 6.223745 6.8867059 6.223745h93.0412978c4.10363 0 7.306115-3.555126 6.886273-7.643021l-7.92852-77.152849c-.363142-3.534751-3.336228-6.222445-6.884542-6.223312l-93.0412973-.026443c-4.1044958-.001301-7.3082792 3.553825-6.8884373 7.643021" mask="url(#b)"/><path d="m18.7963227 80.5327106 7.9285198 77.1788594c.3631417 3.535617 3.3375269 6.223745 6.8862732 6.223745h93.0412973c4.10363 0 7.306548-3.555126 6.886706-7.643455l-7.92852-77.1524151c-.363574-3.5347508-3.336228-6.2224445-6.884542-6.2233115l-93.0417299-.0264434c-4.1040629-.0013005-7.3082792 3.5538247-6.8880044 7.6430206" mask="url(#b)"/><path d="m4.96361354-51.0473667 7.92851986 77.178859c.3631416 3.5356177 3.3375268 6.2237449 6.8862731 6.2237449h93.0412975c4.10363 0 7.306548-3.5546917 6.886706-7.6430206l-7.92852-77.1524156c-.363574-3.5351842-3.336228-6.2224444-6.884542-6.2237449l-93.0412972-.0264434c-4.10449579-.000867-7.308712 3.5538246-6.88843726 7.6430206" mask="url(#b)"/></g><path d="m58.3035771 177.196005.7496558 7.297522c.1817873 1.769543 1.6702784 3.115124 3.4461664 3.115124h9.761541c2.0537628 0 3.6565201-1.77908 3.4461664-3.825629l-.7496559-7.294921c-.1817872-1.768676-1.6694127-3.113823-3.4453007-3.114256l-9.7611082-.003035c-2.0541956-.000433-3.6578186 1.778646-3.4474648 3.825195" fill="#dce0e3" mask="url(#b)"/><path d="m69.0399304 181.887635-.0818042.081931v3.104286c0 2.734945 1.2145118 4.563011 3.611939 4.952726.3999318.065025 1.7737239.101439 2.9228788.12138.2964863.005202.3137994-.400987.0294322-.484219-2.3164886-.677558-2.952311-2.785231-2.952311-4.589887v-3.104286c-.0320292-.032079-.0497751-.049852-.0822371-.081931z" fill="#dce0e3" mask="url(#b)"/><path d="m45.7850164 177.934514-3.2193651 5.066736-5.098266-5.066736" mask="url(#b)" stroke="#ef3c86" stroke-linecap="round" stroke-width="3.85"/><path d="m43.2045468 45.7647481.7496559 7.2975219c.1817872 1.7699764 1.6702783 3.1151237 3.4465991 3.1151237h9.7611082c2.0537628 0 3.6565202-1.7790798 3.4461664-3.825195l-.7492231-7.294921c-.18222-1.7691093-1.6698455-3.1142567-3.4453007-3.1146902l-9.761541-.002601c-2.0541956-.000867-3.6573858 1.7786464-3.4474648 3.8247616" fill="#dce0e3" mask="url(#b)"/><path d="m53.9410733 50.4565943c-.0320292.0320789-.0497751.0498524-.0818043.0819313v3.1042862c0 2.7349451 1.2145118 4.5625769 3.6115062 4.952726.4003647.0650248 1.7741567.1014387 2.9228788.1213797.2964863.0047685.3142322-.4009866.0298651-.4842184-2.3164886-.6779924-2.9527439-2.785231-2.9527439-4.5898873v-3.1042862l-.0818043-.0819313z" fill="#dce0e3" mask="url(#b)"/><path d="m30.6859428 46.5034737-3.2189323 5.0667361-5.0986987-5.0667361" mask="url(#b)" stroke="#ced2e1" stroke-linecap="round" stroke-width="3.85"/><path d="m84.2932634 243.036178c-8.3375411 8.858118-22.2659049 9.269075-31.1098533.918584-8.8443812-8.350491-9.2551338-22.300054-.9175926-31.158173" fill="#d8e9f0" mask="url(#b)"/><path d="m101.575472 270.645078c-11.4461029-10.343286-12.3533077-28.021808-2.0260622-39.485688 10.3272452-11.463881 27.9783522-12.372495 39.4244542-2.029209" fill="#d8e9f0" mask="url(#b)"/><path d="m118.078462 86.0507192c0 14.7476358-7.016121 28.1470888-22.90519 28.1470888-15.8847406 0-22.9008618-13.399453-22.9008618-28.1470888 0-4.4953845.809386-8.982099 2.203088-13.1610292h41.3955478c1.393702 4.1789302 2.207416 8.6656447 2.207416 13.1610292" fill="#d8e9f0" mask="url(#b)"/><path d="m95.1623215 89.758306v41.504927" mask="url(#b)" stroke="#cdd9e3" stroke-width=".875"/><path d="m60.6864613 115.063809c-13.9586617 2.809074-22.4896764-7.724952-25.0866367-20.6865713-.7877446-3.9188309-.8699817-7.9763814-.3982006-11.8692023.4111854-3.394297 1.246541-6.6628794 2.4065166-9.6150075l14.6208866.004335 2.8523281 14.2187668z" fill="#cedde1" mask="url(#b)"/><path d="m65.7007588 154.394739s-11.3642983-14.674374-7.6354961-18.051331c3.7288022-3.377391 7.5541247 5.359781 13.5024623 4.915011 5.9487705-.44477.5864802-6.39281 2.0481361-9.14943 1.461223-2.75662 19.4330541 6.215075 19.4330541 6.215075z" fill="#d8e9f0" mask="url(#b)"/><path d="m66.9842199 109.866287c0 15.280839-12.3701876 27.67024-27.6316578 27.67024-5.6007777 0-10.8120115-1.668971-15.1662483-4.538735l-4.3845346-42.6779748c4.0772277-4.0922304 9.4226377-6.9099738 15.3999747-7.8116517 1.3547476-.2080795 2.7397931-.3121193 4.1508082-.3121193 5.8431607 0 11.2664795 1.8163608 15.728923 4.9202135 7.1935801 4.9939083 11.9027348 13.3214243 11.9027348 22.7500273" fill="#d8e9f0" mask="url(#b)"/><path d="m40.3968431 109.866287v41.504926" mask="url(#b)" stroke="#cdd9e3" stroke-width=".875"/><path d="m82.4281698 231.37744c0 3.939638-3.1886344 7.132792-7.1217308 7.132792-3.9335293 0-7.1217309-3.193154-7.1217309-7.132792 0-3.939206 3.1882016-7.132793 7.1217309-7.132793 3.9330964 0 7.1217308 3.193587 7.1217308 7.132793" fill="#cedde1" mask="url(#b)"/></g><g transform="translate(122 91)"><g fill="#000"><path d="m21.7829905 6.93755608h-9.7369068c-1.0969817 0-1.9946306-.89506231-1.9946306-1.98941246s.8976489-1.98941246 1.9946306-1.98941246h9.7369068c1.0965474 0 1.9941964.89506231 1.9941964 1.98941246s-.897649 1.98941246-1.9941964 1.98941246"/><path d="m33.4838681 3.48415786c0 1.83171514-1.4882646 3.31597626-3.3239501 3.31597626-1.8361198 0-3.3243844-1.48426112-3.3243844-3.31597626 0-1.83171513 1.4882646-3.31597626 3.3243844-3.31597626 1.8356855 0 3.3239501 1.48426113 3.3239501 3.31597626"/><path d="m6.99319318 3.61365163c0 1.83171514-1.48826456 3.3164095-3.32395009 3.3164095-1.8361198 0-3.32438435-1.48469436-3.32438435-3.3164095 0-1.8312819 1.48826455-3.31597626 3.32438435-3.31597626 1.83568553 0 3.32395009 1.48469436 3.32395009 3.31597626"/></g><path d="m85.1302962 263.625138-3.2349235 8.819353s21.4949353 10.080066 28.3217573 19.513312l-41.9910352-9.414184 7.1655574-25.527039z" fill="#0b096f"/><path d="m74.7070158 258.939535-2.9131248 10.894112 10.1016989 2.611104 2.7033693-7.317762z" fill="#ef3c86"/><path d="m2.63601314 161.235858s28.74300496-33.529311 62.14883366-32.551935c33.4058286.977811 22.5628203 24.41406 22.5628203 24.41406s16.4412629 30.565988 18.0585079 53.079448c1.09177 15.194397-18.3394847 63.519098-18.3394847 63.519098l-15.5001863-4.392997s15.8007055-45.129163 12.1927388-63.791603c-2.6143428-13.524279-22.8338087-38.828635-29.4560866-40.276071z" fill="#25003f"/><path d="m170.958778 124.556066-2.572652 19.558368-22.867248-1.862908s-9.91192 7.141003-25.293983 10.845157c-15.377721 3.708487-38.6028123 9.089258-51.9654912 0-13.3626788-9.089258-9.2196838-20.539644-9.2196838-20.539644l15.2083527.181959 3.765609-19.87333c12.1467055-1.568308 22.3517623-.913258 31.0372863-.30673 11.247754.784155 19.71614 2.759704 25.72218 4.267359.75564.190623 1.580765.394244 2.471031.610861 11.647288 2.833353 33.714599 7.118908 33.714599 7.118908" fill="#ffc100"/><path d="m116.319058 134.105202c-6.146746-1.955187-8.373714-7.842842-7.57204-15.685252.213664-2.090789 1.60769-5.251668 4.713634-5.481715 11.247754.784154 21.477564 2.10032 21.877532 4.015217 3.117669 14.930124-13.923763 18.77248-19.019126 17.15175" fill="#ff77ca"/><path d="m120.22585 128.684053 14.548687-9.347032s14.690696 5.09267 18.232653 4.084967c0 0 8.523104-13.902059 8.375016-24.9634005l-10.278449-13.9154896-20.640714-2.6461958-6.064667 17.8921483c-.423419-3.3484688-9.306974-9.246089-13.069543-2.6947181-4.851733 8.4485047 9.571882 15.7502377 9.571882 15.7502377l-9.097218 4.996926z" fill="#ff77ca"/><path d="m115.006067 94.2577733s-8.208254-7.0049674 5.722458-16.5356914c13.930712-9.5311573 22.921098-1.2832404 22.921098-1.2832404s5.365048-11.5084391 13.360073-9.8448189c11.390197 2.3706587 9.554945 20.3004985 9.554945 20.3004985s4.801358-8.9770505 7.789178-6.9456143c2.987821 2.0314362-.51592 34.3801842-42.710196 9.6780238 0 0 3.510689 10.4998694-7.24503 10.1619466 0 0-2.461478-5.9911989-9.392526-5.5311039" fill="#0b096f"/><path d="m128.04369 67.5362208-.193253 8.2193234-3.267494.814914-4.357093-6.7108012" stroke="#001f68" stroke-width="1.575"/><path d="m151.076224 106.313258 1.47567 8.073323-3.661382-.722202z" fill="#285fd7"/><path d="m148.423274 105.115494c-.158945 1.027199-1.12217 1.731638-2.152273 1.573075-1.029669-.158564-1.735368-1.119911-1.576423-2.14711.158511-1.027199 1.12217-1.731205 2.151839-1.573074 1.029669.158563 1.735802 1.119911 1.576857 2.147109" fill="#0b096f"/><path d="m158.134906 105.604399c-.158945 1.027199-1.122604 1.731638-2.152273 1.573075-1.029235-.158564-1.735368-1.119911-1.576423-2.14711.158511-1.027199 1.12217-1.731205 2.151839-1.573074 1.029669.158997 1.735802 1.119911 1.576857 2.147109" fill="#0b096f"/><path d="m134.774537 119.278144-10.639767-5.126029 6.154997 8.066391z" fill="#ef3c86"/><path d="m143.760754 100.515801c.601907-.9440176 1.704969-1.5280176 2.900965-1.4119108 1.195563.1165401 2.165301.9019938 2.572653 1.9443558" stroke="#0d1a88" stroke-width=".525"/><path d="m153.472386 101.460296c.601907-.944018 1.705403-1.5280183 2.900965-1.411911 1.195563.11654 2.164867.901994 2.572652 1.944356" stroke="#0d1a88" stroke-width=".525"/><path d="m250.016547 142.52533-5.22304 4.73222-8.552202-3.399158 2.94005-5.465252z" fill="#ef3c86"/><path d="m168.652945 142.10037 60.661004 3.623573s5.277758 2.595074 8.084051 3.163911c2.805859.568404 7.683215-.298065 10.555952 1.03543 2.873171 1.332629 2.338577-2.199964-.26708-2.799561-2.605657-.600029-8.351566-3.265721-8.351566-3.265721l3.340453-2.266249s11.35806 2.46597 13.362679 2.132813c2.004184-.33359 4.743599-1.866374 4.743599-2.932997 0 0-12.961408-.932754-17.437927-4.065472-4.476085-3.132718-14.230797.466594-14.230797.466594l-58.231228-12.063413z" fill="#ff77ca"/><path d="m77.8798812 113.620926s-24.5865474 1.299703-30.2877255 3.204635c-5.7016123 1.905365-31.7134542 44.29562-31.7134542 44.29562l8.1509301.533312s-3.3404526 5.332249-5.8792313 6.132c-2.5387787.79975.5341598 2.132813.5341598 2.132813s-.3969285 1.583471 2.6725357 1.732937c5.4818686.266439 13.6297588-3.332872 17.1039684-8.931561 0 0 1.8708619-3.256189-.8016739-4.627376-2.6725357-1.371187-8.0176073-1.637626-8.0176073-1.637626l21.5978586-23.994689 23.0062163.279436z" fill="#ff77ca"/><path d="m149.950232 117.67444c-.644465 1.213057-2.813675 1.326131-4.845219.25171-2.03111-1.073989-2.922679-3.386161-2.277779-4.59965.644466-1.213057 2.600446.706172 4.63199 1.78016 2.03111 1.073988 3.135474 1.354724 2.491008 2.56778" fill="#fff"/><path d="m59.0397634 132.556953 15.2083527.181958-.4043111 1.930059 15.6391547-.986041-30.7962629 6.020225s-.4716239-2.265382-.1598136-4.635608c.1780532-1.350392.5128802-2.510593.5128802-2.510593" fill="#e0660c"/><path d="m18.9076043 169.65265s2.5830749-.520315 4.9720283-2.449508c4.209005-3.399157 4.9268636-6.715133 4.9268636-6.715133" stroke="#de479d" stroke-linecap="round" stroke-width=".5"/><path d="m21.5075291 171.302233s2.2282712-.324059 5.2113145-2.516225c4.6936572-3.449413 5.9878003-7.35762 5.9878003-7.35762" stroke="#de479d" stroke-linecap="round" stroke-width=".5"/></g></g></svg>