<?xml version="1.0" encoding="UTF-8"?>
<svg width="644px" height="379px" viewBox="0 0 644 379" version="1.1" xmlns="http://www.w3.org/2000/svg" xmlns:xlink="http://www.w3.org/1999/xlink">
    <!-- Generator: Sketch 53.2 (72643) - https://sketchapp.com -->
    <title>2</title>
    <desc>Created with Sketch.</desc>
    <defs>
        <polygon id="path-1" points="0.228537943 0.18089701 149.397917 0.18089701 149.397917 296.161483 0.228537943 296.161483"></polygon>
        <path d="M79.8320712,0.0109718477 C76.6145797,0.0109718477 74.1032957,2.80330708 74.4325189,6.01403543 L74.4325189,6.01403543 L74.8047635,9.63840244 C75.1489349,12.9946906 72.5238993,15.9132021 69.1605725,15.9132021 L69.1605725,15.9132021 L43.8986156,15.9132021 C40.1688776,15.9132021 37.0407102,13.0824654 36.6578925,9.35935178 L36.6578925,9.35935178 L36.2688768,5.56674977 C35.9451224,2.41088066 33.2945657,0.0109718477 30.1313978,0.0109718477 L30.1313978,0.0109718477 L7.64359315,0.0109718477 C3.15223021,0.0109718477 -0.351463095,3.90634349 0.107918129,8.38651462 L0.107918129,8.38651462 L21.4108109,216.079933 C21.8082122,219.956653 25.0603395,222.900765 28.9432047,222.900765 L28.9432047,222.900765 L121.967903,222.900765 C126.45963,222.900765 129.963323,219.005759 129.504307,214.525588 L129.504307,214.525588 L108.197403,6.83216953 C107.800002,2.95545003 104.547875,0.0109718477 100.665374,0.0109718477 L100.665374,0.0109718477 L79.8320712,0.0109718477 Z" id="path-3"></path>
    </defs>
    <g id="Page-1" stroke="none" stroke-width="1" fill="none" fill-rule="evenodd">
        <g id="Post-Copy" transform="translate(-107.000000, -306.000000)">
            <g id="2" transform="translate(109.000000, 306.000000)">
                <g id="BG">
                    <path d="M588.846539,198.851714 C588.846539,240.710186 561.540603,264.062346 525.975306,264.062346 C490.409644,264.062346 463.103708,240.710186 463.103708,198.851714 C463.103708,110.720153 503.231927,9.11815947 525.975306,9.11815947 C548.71832,9.11815947 588.846539,110.720153 588.846539,198.851714" id="Fill-1" fill="#C3E4FF"></path>
                    <path d="M525.975196,136.590216 L525.975196,329.792243" id="Stroke-3" stroke="#E8F6FF" stroke-width="2.625" stroke-linecap="square"></path>
                    <path d="M543.220822,235.950439 L557.121461,222.044027" id="Stroke-5" stroke="#E8F6FF" stroke-width="1.75" stroke-linecap="square"></path>
                    <path d="M543.220822,157.555668 L557.121461,143.649621" id="Stroke-7" stroke="#E8F6FF" stroke-width="1.75" stroke-linecap="square"></path>
                    <path d="M506.47211,177.050957 C506.47211,225.080027 467.553023,264.01491 419.544256,264.01491 C371.535123,264.01491 332.616037,225.080027 332.616037,177.050957 C332.616037,129.022252 371.535123,90.0870033 419.544256,90.0870033 C467.553023,90.0870033 506.47211,129.022252 506.47211,177.050957" id="Fill-9" fill="#E8F6FF"></path>
                    <path d="M419.544329,160.190369 L419.544329,329.791731" id="Stroke-11" stroke="#AAD5FF" stroke-width="2.625" stroke-linecap="square"></path>
                    <path d="M440.155397,236.286468 L454.056037,222.380056" id="Stroke-13" stroke="#AAD5FF" stroke-width="2.1" stroke-linecap="square"></path>
                    <path d="M440.155397,173.93485 L454.056037,160.028804" id="Stroke-15" stroke="#AAD5FF" stroke-width="2.1" stroke-linecap="square"></path>
                    <path d="M398.932858,206.533259 L385.032219,192.626847" id="Stroke-17" stroke="#AAD5FF" stroke-width="2.1" stroke-linecap="square"></path>
                    <path d="M398.932858,175.357542 L385.032219,161.45113" id="Stroke-19" stroke="#AAD5FF" stroke-width="2.1" stroke-linecap="square"></path>
                    <path d="M298.761644,247.346804 C298.761644,288.755774 271.733333,307.338831 238.524201,307.338831 C205.318721,307.338831 178.290411,288.755774 178.290411,247.346804 C178.290411,170.211588 211.16347,98.1780332 238.524201,98.1780332 C265.888584,98.1780332 298.761644,170.211588 298.761644,247.346804" id="Fill-21" fill="#E8F6FF"></path>
                    <path d="M238.526027,180.304326 L238.526027,329.791767" id="Stroke-23" stroke="#C3E4FF" stroke-width="2.625" stroke-linecap="square"></path>
                    <path d="M252.008475,263.666711 L265.908749,249.760299" id="Stroke-25" stroke="#C3E4FF" stroke-width="1.75" stroke-linecap="square"></path>
                    <path d="M252.008475,196.929711 L265.908749,183.023299" id="Stroke-27" stroke="#C3E4FF" stroke-width="1.75" stroke-linecap="square"></path>
                    <path d="M227.204676,263.676724 L213.119196,249.58503" id="Stroke-29" stroke="#C3E4FF" stroke-width="1.75" stroke-linecap="square"></path>
                    <path d="M226.216511,230.738339 L212.131032,216.64701" id="Stroke-31" stroke="#C3E4FF" stroke-width="1.75" stroke-linecap="square"></path>
                    <path d="M498.018922,328.968522 L341.280658,329.792243 C332.333808,318.420947 311.500932,289.945565 319.887416,281.532575 C325.404493,275.998588 341.940018,293.809452 346.404311,288.464767 C350.868603,283.124103 321.550977,249.828455 328.994995,245.135731 C342.11463,236.866728 384.327963,296.214834 389.776365,291.438422 C395.50495,286.415698 368.584767,251.516096 378.069699,247.818854 C389.114082,243.515698 418.355361,296.885432 426.802484,291.438422 C431.228785,288.582076 422.636274,271.182342 429.023489,268.209053 C440.140201,263.027359 458.690703,313.283106 466.577461,308.805631 C470.307142,306.684203 466.111708,299.423106 471.704037,297.616329 C478.538374,295.411944 492.305315,318.657757 498.018922,328.968522" id="Fill-33" fill="#C3E4FF"></path>
                    <path d="M572.701406,308.888113 C572.471269,309.195455 565.512,318.485156 564.639306,327.040306 L552.405151,327.040306 C558.180858,315.557548 572.383598,309.031003 572.701406,308.888113" id="Fill-35" fill="#C3E4FF"></path>
                    <path d="M29.4201644,310.40308 C29.6503014,310.710056 36.6092055,319.999757 37.4822648,328.554907 L49.7160548,328.554907 C43.9407123,317.072515 29.7379726,310.545605 29.4201644,310.40308" id="Fill-37" fill="#D6EEFF"></path>
                    <path d="M295.392986,310.670771 C295.623123,310.977748 302.582027,320.267449 303.455087,328.822598 L315.688877,328.822598 C309.913534,317.340206 295.710795,310.813296 295.392986,310.670771" id="Fill-39" fill="#D6EEFF"></path>
                    <path d="M612.94221,316.365555 C612.781845,316.584824 609.256365,321.284492 606.892895,327.040306 L598.034447,327.040306 C604.507507,320.239309 612.701479,316.471169 612.94221,316.365555" id="Fill-41" fill="#D6EEFF"></path>
                    <path d="M107.781333,328.555236 L94.8206027,328.555236 C94.744621,319.240684 89.9658082,307.114372 89.9658082,307.114372 C89.9658082,307.114372 104.186813,318.73198 107.781333,328.555236" id="Fill-43" fill="#D6EEFF"></path>
                    <path d="M111.675288,328.555236 C114.807708,321.922711 114.995836,316.579488 114.995836,316.579488 C114.995836,316.579488 121.143781,323.263907 123.762959,328.555236 L111.675288,328.555236 Z" id="Fill-45" fill="#D6EEFF"></path>
                    <path d="M530.502137,274.367884 C530.319489,274.930674 520.204055,302.846555 519.227251,327.040342 L502.891909,327.040342 C503.86579,316.114894 498.995288,302.921472 498.995288,302.921472 C498.995288,302.921472 507.687525,309.5931 509.935196,319.113399 C509.935196,319.113399 516.679306,288.764362 530.502137,274.367884" id="Fill-47" fill="#D6EEFF"></path>
                    <path d="M545.143269,304.26899 C545.143269,304.26899 535.587105,316.957362 533.03368,327.040452 L524.146009,327.040452 C527.177973,320.816498 534.454685,308.197561 545.143269,304.26899" id="Fill-49" fill="#D6EEFF"></path>
                    <path d="M622.290813,268.260179 C622.290813,289.517953 612.166977,308.825329 589.245699,308.825329 C566.324055,308.825329 556.200219,289.517953 556.200219,268.260179 C556.200219,243.32307 573.521132,218.525561 589.245699,218.525561 C604.9699,218.525561 622.290813,243.32307 622.290813,268.260179" id="Fill-51" fill="#E8F6FF"></path>
                    <path d="M589.245735,266.275173 L589.245735,329.792316" id="Stroke-53" stroke="#D6EEFF" stroke-width="2.625" stroke-linecap="square"></path>
                    <path d="M600.660201,273.385741 L610.138922,264.062419" id="Stroke-55" stroke="#D6EEFF" stroke-width="1.575" stroke-linecap="square"></path>
                    <path d="M578.891142,283.130791 L567.315251,272.673482" id="Stroke-57" stroke="#D6EEFF" stroke-width="1.575" stroke-linecap="square"></path>
                    <g id="Group-61" transform="translate(48.949772, 0.000000)">
                        <mask id="mask-2" fill="white">
                            <use xlink:href="#path-1"></use>
                        </mask>
                        <g id="Clip-60"></g>
                        <path d="M16.4471233,169.376538 C14.1351598,162.451289 1.4630137,163.623648 1.46118721,144.312983 C1.45789954,115.237169 41.4845662,118.555807 43.8447489,96.6482658 C46.2052968,74.7407243 20.4847489,75.264412 19.6884018,56.7866047 C18.8920548,38.3084319 38.4496804,0.18082392 68.123105,0.18082392 C91.5207306,0.18082392 72.1413699,29.6001595 91.0246575,42.7563056 C109.90758,55.9124518 131.474703,39.0579668 142.148311,59.7460066 C156.851142,88.2429502 119.25516,122.467203 122.964384,144.312983 C126.673607,166.15913 148.713059,160.99388 149.387397,184.997269 C150.0621,209.001023 118.046758,213.225243 121.063014,233.808033 C122.964384,246.782917 143.225205,242.45089 144.288219,268.034844 C145.187945,289.696439 75.5744292,316.499894 23.2810959,272.420226 C-29.0126027,228.341289 25.2715982,195.808332 16.4471233,169.376538" id="Fill-59" fill="#C3E4FF" mask="url(#mask-2)"></path>
                    </g>
                    <path d="M122.667178,116.90811 L122.667178,329.791731" id="Stroke-62" stroke="#E8F6FF" stroke-width="2.625" stroke-linecap="square"></path>
                    <path d="M143.317845,253.03088 L157.218484,239.124834" id="Stroke-64" stroke="#E8F6FF" stroke-width="2.1" stroke-linecap="square"></path>
                    <path d="M139.081096,178.265452 L152.98137,164.359405" id="Stroke-66" stroke="#E8F6FF" stroke-width="2.1" stroke-linecap="square"></path>
                    <path d="M139.081096,140.882811 L152.98137,126.976399" id="Stroke-68" stroke="#E8F6FF" stroke-width="2.1" stroke-linecap="square"></path>
                    <path d="M102.610082,140.882811 L88.7098082,126.976399" id="Stroke-70" stroke="#E8F6FF" stroke-width="2.1" stroke-linecap="square"></path>
                    <path d="M178.594521,327.700159 C178.594521,327.700159 166.230685,299.900857 147.57242,286.655907" id="Stroke-72" stroke="#AAD5FF" stroke-width="1.575" stroke-linecap="square"></path>
                    <path d="M184.806174,328.555236 C184.806174,328.555236 182.782795,286.492478 198.06937,271.06507" id="Stroke-74" stroke="#AAD5FF" stroke-width="1.575" stroke-linecap="square"></path>
                    <path d="M186.517954,271.064924 C186.517954,276.278412 190.742612,280.504824 195.954301,280.504824 C201.165626,280.504824 205.390283,276.278412 205.390283,271.064924 C205.390283,265.85107 201.165626,261.624658 195.954301,261.624658 C190.742612,261.624658 186.517954,265.85107 186.517954,271.064924" id="Fill-76" fill="#AAD5FF"></path>
                    <path d="M141.682411,290.669957 C141.682411,295.883811 145.907068,300.109857 151.118758,300.109857 C156.330082,300.109857 160.55474,295.883811 160.55474,290.669957 C160.55474,285.456103 156.330082,281.229691 151.118758,281.229691 C145.907068,281.229691 141.682411,285.456103 141.682411,290.669957" id="Fill-78" fill="#AAD5FF"></path>
                    <path d="M354.713753,326.232299 C354.713753,326.232299 353.284712,307.178179 363.934941,284.90592" id="Stroke-80" stroke="#AAD5FF" stroke-width="1.575" stroke-linecap="square"></path>
                    <path d="M348.752731,328.178751 C348.752731,328.178751 339.631635,288.223169 315.990721,268.724299" id="Stroke-82" stroke="#AAD5FF" stroke-width="1.575" stroke-linecap="square"></path>
                    <path d="M324.974904,264.597106 C325.900932,269.728003 322.494539,274.638535 317.366137,275.564947 C312.237735,276.491724 307.329242,273.083917 306.402849,267.953385 C305.476457,262.822854 308.883215,257.912322 314.011616,256.985545 C319.140018,256.058767 324.048511,259.466575 324.974904,264.597106" id="Fill-84" fill="#AAD5FF"></path>
                    <path d="M375.798612,276.224362 C376.724639,281.354894 373.318247,286.265425 368.189845,287.192203 C363.061443,288.118615 358.15295,284.710807 357.226557,279.580276 C356.30053,274.449744 359.706922,269.539213 364.835324,268.612435 C369.963726,267.685658 374.872219,271.093831 375.798612,276.224362" id="Fill-86" fill="#AAD5FF"></path>
                    <path d="M217.335781,281.515179 C217.036237,281.911326 197.785096,307.204017 197.291945,327.022654 L181.744913,327.022654 C183.827105,320.570296 192.853589,296.963784 217.335781,281.515179" id="Fill-88" fill="#C3E4FF"></path>
                    <path d="M173.372603,327.040269 L160.985388,327.040269 C158.535708,317.725352 151.118721,311.917645 151.118721,311.917645 C151.118721,311.917645 165.847489,314.801399 173.372603,327.040269" id="Fill-90" fill="#C3E4FF"></path>
                    <path d="M400.989808,302.486332 C401.260858,302.828392 407.059215,316.17311 406.369534,328.822379 L426.78926,328.822379 C427.178667,321.908093 431.562228,312.012478 431.562228,312.012478 C431.562228,312.012478 422.570447,315.654538 416.492639,326.05703 C416.492639,326.05703 411.892822,307.290153 400.989808,302.486332" id="Fill-92" fill="#D6EEFF"></path>
                    <path d="M368.981735,308.467372 C368.738813,308.936973 363.824475,317.45704 362.530228,327.417339 L343.063562,329.415611 C341.737534,320.560794 338.875068,315.631259 338.875068,315.631259 C338.875068,315.631259 347.049315,318.008867 351.412785,324.962621 C351.412785,324.962621 356.469589,314.264482 368.981735,308.467372" id="Fill-94" fill="#D6EEFF"></path>
                    <path d="M109.450155,240.582425 C109.450155,274.473754 95.4373699,305.255847 63.7113425,305.255847 C31.9853151,305.255847 17.9725297,274.473754 17.9725297,240.582425 C17.9725297,200.824917 41.9469589,161.291063 63.7113425,161.291063 C85.475726,161.291063 109.450155,200.824917 109.450155,240.582425" id="Fill-96" fill="#E8F6FF"></path>
                    <path d="M63.7113425,233.273309 L63.7113425,329.792279" id="Stroke-98" stroke="#D6EEFF" stroke-width="2.625" stroke-linecap="square"></path>
                    <path d="M77.0147215,245.044551 L89.3946301,231.138505" id="Stroke-100" stroke="#D6EEFF" stroke-width="1.75" stroke-linecap="square"></path>
                    <path d="M50.4079635,273.618787 L38.0280548,259.712375" id="Stroke-102" stroke="#D6EEFF" stroke-width="1.75" stroke-linecap="square"></path>
                    <path d="M50.4079635,245.61593 L38.0280548,231.709518" id="Stroke-104" stroke="#D6EEFF" stroke-width="1.75" stroke-linecap="square"></path>
                    <g id="Group-109" transform="translate(0.000000, 329.269103)">
                        <path d="M639.775123,1.04333179 L0.000146118722,1.04333179" id="Fill-106" fill="#E8F6FF"></path>
                        <path d="M639.775123,1.04333179 L0.000146118722,1.04333179" id="Stroke-108" stroke="#D6EEFF" stroke-width="3.5" stroke-linecap="round"></path>
                    </g>
                </g>
                <g id="Girl" transform="translate(318.000000, 65.000000)">
                    <path d="M217.494946,312.315271 C217.494946,313.044207 181.088243,313.634802 136.178967,313.634802 C91.2693251,313.634802 54.8626221,313.044207 54.8626221,312.315271 C54.8626221,311.586334 91.2693251,310.995739 136.178967,310.995739 C181.088243,310.995739 217.494946,311.586334 217.494946,312.315271" id="Fill-111" fill="#AFB4C8"></path>
                    <path d="M83.5231411,245.820783 L185.42755,245.820783 C191.133094,245.820783 195.914581,241.512504 196.497965,235.844907 L219.513874,12.4414983 C220.189006,5.88873854 215.040162,0.190845252 208.443458,0.190845252 L106.542339,0.190845252 C100.836795,0.190845252 96.0556734,4.49948922 95.4715578,10.1667212 L72.4527253,233.57013 C71.777593,240.123255 76.9264366,245.820783 83.5231411,245.820783" id="Fill-113" fill="#1F2430"></path>
                    <path d="M206.705769,12.4394542 L183.688398,235.843958 C183.103917,241.512285 178.322796,245.819834 172.616521,245.819834 L70.7146708,245.819834 C64.1165042,245.819834 58.9661985,240.121576 59.642793,233.569546 L82.6634531,10.1654071 C83.2446444,4.4967151 88.0257656,0.189531196 93.7320411,0.189531196 L195.634257,0.189531196 C202.232058,0.189531196 207.378708,5.88742448 206.705769,12.4394542" id="Fill-115" fill="#5B6A76"></path>
                    <path d="M75.7264044,236.651555 L168.491853,236.651555 C172.369021,236.651555 175.617844,233.723765 176.014443,229.872851 L197.949847,16.9552445 C198.408952,12.5024194 194.910107,8.63069911 190.427257,8.63069911 L97.6654637,8.63069911 C93.7882961,8.63069911 90.5391075,11.5584891 90.1421428,15.4094035 L68.2038145,228.326644 C67.7450755,232.779835 71.2435549,236.651555 75.7264044,236.651555" id="Fill-117" fill="#FFFFFF"></path>
                    <polygon id="Stroke-119" stroke="#5B6A76" stroke-width="0.875" points="221.744917 37.4007895 220.266352 51.7429819 209.804177 51.7429819 211.280183 37.4007895"></polygon>
                    <polygon id="Stroke-121" stroke="#5B6A76" stroke-width="0.875" points="219.586395 61.6798742 218.108195 76.0220665 207.645654 76.0220665 209.122026 61.6798742"></polygon>
                    <path d="M175.90281,1.43160623 L174.685598,13.2581112 C174.279861,17.1929792 170.960856,20.186107 167.002176,20.186107 L122.773149,20.186107 C118.196724,20.186107 114.621849,16.229338 115.089726,11.6812439 L116.146106,1.43160623 L175.90281,1.43160623 Z" id="Fill-123" fill="#5B6A76"></path>
                    <path d="M152.968708,12.3763795 L133.201988,12.3763795 C132.382472,12.3763795 131.712091,11.706941 131.712091,10.888211 C131.712091,10.0698461 132.382472,9.40004246 133.201988,9.40004246 L152.968708,9.40004246 C153.788224,9.40004246 154.45897,10.0698461 154.45897,10.888211 C154.45897,11.706941 153.788224,12.3763795 152.968708,12.3763795" id="Fill-125" fill="#000000"></path>
                    <path d="M162.450314,10.888138 C162.450314,12.2580415 161.338009,13.3687839 159.966178,13.3687839 C158.594347,13.3687839 157.482042,12.2580415 157.482042,10.888138 C157.482042,9.5182345 158.594347,8.40785709 159.966178,8.40785709 C161.338009,8.40785709 162.450314,9.5182345 162.450314,10.888138" id="Fill-127" fill="#000000"></path>
                    <path d="M186.051947,48.2309479 L179.356184,113.217228 C179.049505,116.194295 176.537588,118.457756 173.540249,118.457756 L94.9657386,118.457756 C91.4997912,118.457756 88.795241,115.464264 89.1498043,112.022167 L95.8455672,47.0577878 C96.1526117,44.0814508 98.6630659,41.8183541 101.659308,41.8176241 L180.23455,41.7953581 C183.700498,41.7942631 186.406875,44.7877559 186.051947,48.2309479" id="Fill-129" fill="#E8F6FF"></path>
                    <path d="M174.414961,158.527342 L167.719198,223.513987 C167.412519,226.491054 164.900968,228.754151 161.903629,228.754151 L83.3287527,228.754151 C79.8631708,228.754151 77.1582551,225.761023 77.5128184,222.318196 L84.2089468,157.354547 C84.5156258,154.377845 87.0264455,152.114748 90.0226879,152.114018 L168.59793,152.091752 C172.063877,152.090657 174.769889,155.08415 174.414961,158.527342" id="Fill-131" fill="#E8F6FF"></path>
                    <path d="M124.460285,130.076421 L123.827189,136.221094 C123.673667,137.711452 122.416612,138.844096 120.916846,138.844096 L112.673067,138.844096 C110.938631,138.844096 109.585077,137.346072 109.762724,135.623198 L110.395455,129.480716 C110.548977,127.991087 111.805666,126.858444 113.305067,126.858079 L121.548846,126.855524 C123.283647,126.855159 124.637567,128.353183 124.460285,130.076421" id="Fill-133" fill="#DCE0E3"></path>
                    <path d="M117.310316,134.16737 C117.283267,134.194381 117.26828,134.209347 117.241231,134.236358 L117.241231,136.850235 C117.241231,139.153118 118.26654,140.692389 120.291206,141.020538 C120.629321,141.07529 121.78951,141.105951 122.759624,141.122742 C123.010012,141.127122 123.024999,140.785103 122.784846,140.71502 C120.828534,140.1445 120.291206,138.369795 120.291206,136.850235 L120.291206,134.236358 C120.264157,134.209347 120.24917,134.194381 120.222121,134.16737 L117.310316,134.16737 Z" id="Fill-135" fill="#DCE0E3"></path>
                    <polyline id="Stroke-137" stroke="#EF3C86" stroke-width="3.85" stroke-linecap="round" points="92.7384964 130.337736 95.4569366 134.604038 99.76287 130.337736"></polyline>
                    <path d="M88.5630935,125.231059 L86.0387492,122.710261" id="Stroke-139" stroke="#1A1A30" stroke-width="0.7"></path>
                    <path d="M86.1732274,131.856785 L82.6027387,131.856785" id="Stroke-141" stroke="#1A1A30" stroke-width="0.7"></path>
                    <path d="M88.9839637,138.482292 L86.4596195,141.003455" id="Stroke-143" stroke="#1A1A30" stroke-width="0.7"></path>
                    <path d="M101.518324,14.8484476 C101.518324,16.4921128 100.183777,17.8247847 98.537799,17.8247847 C96.8918213,17.8247847 95.5572744,16.4921128 95.5572744,14.8484476 C95.5572744,13.2047824 96.8918213,11.8721105 98.537799,11.8721105 C100.183777,11.8721105 101.518324,13.2047824 101.518324,14.8484476" id="Fill-145" fill="#D6E1E6"></path>
                    <path d="M109.728437,14.8484476 C109.728437,16.4921128 108.394256,17.8247847 106.748278,17.8247847 C105.101935,17.8247847 103.767388,16.4921128 103.767388,14.8484476 C103.767388,13.2047824 105.101935,11.8721105 106.748278,11.8721105 C108.394256,11.8721105 109.728437,13.2047824 109.728437,14.8484476" id="Fill-147" fill="#D6E1E6"></path>
                    <path d="M192.872428,14.8484476 C192.872428,16.4921128 191.538247,17.8247847 189.891903,17.8247847 C188.245926,17.8247847 186.911379,16.4921128 186.911379,14.8484476 C186.911379,13.2047824 188.245926,11.8721105 189.891903,11.8721105 C191.538247,11.8721105 192.872428,13.2047824 192.872428,14.8484476" id="Fill-149" fill="#D6E1E6"></path>
                    <path d="M76.9207709,45.0445444 L76.7003568,45.2646488 L76.7003568,53.5921143 C76.7003568,60.9285626 79.9678218,65.8318169 86.4175836,66.8772216 C87.4944325,67.051699 91.1902977,67.1498882 94.2815777,67.2028155 C95.0791623,67.2166861 95.126681,66.1271145 94.361263,65.903725 C88.1289911,64.0859474 86.4175836,58.432586 86.4175836,53.5921143 L86.4175836,45.2646488 L86.1975351,45.0445444 L76.9207709,45.0445444 Z" id="Fill-151" fill="#49ADFF"></path>
                    <path d="M170.785402,193.767918 L167.718613,223.512673 C167.411934,226.4912 164.900383,228.754662 161.903044,228.754662 L134.492013,228.754662 C130.895207,224.392361 128.734929,218.800687 128.734929,212.708577 C128.734929,198.753666 140.062678,187.442198 154.036857,187.442198 C160.462859,187.442198 166.322292,189.83305 170.785402,193.767918" id="Fill-153" fill="#D0E1E9"></path>
                    <path d="M125.379079,189.159231 C126.707778,200.104954 118.898979,210.054183 107.937856,211.381015 C96.9763682,212.708212 87.0135058,204.910384 85.6844418,193.964296 C84.3561089,183.018574 92.1645425,173.069344 103.125665,171.742513 C114.086788,170.415681 124.050015,178.213509 125.379079,189.159231" id="Fill-155" fill="#D0E1E9"></path>
                    <path d="M143.890426,168.427842 C136.700467,172.889428 134.494134,182.326176 138.961996,189.505667 C143.429494,196.685159 152.879519,198.888758 160.069477,194.427538 L143.890426,168.427842 Z" id="Fill-157" fill="#BCCED4"></path>
                    <path d="M105.720118,176.60682 C110.402181,180.271211 117.172146,179.451751 120.841693,174.776267 C124.510875,170.101147 123.690262,163.340328 119.008564,159.675937 L105.720118,176.60682 Z" id="Fill-159" fill="#BCCED4"></path>
                    <path d="M7.83861336,60.6758988 L91.0498614,60.6758988 C95.1854581,60.6758988 98.5377259,57.3283409 98.5377259,53.1989195 L98.5377259,30.8106886 C98.5377259,26.6809023 95.1854581,23.3333444 91.0498614,23.3333444 L7.83861336,23.3333444 C3.70338213,23.3333444 0.351114327,26.6809023 0.351114327,30.8106886 L0.351114327,53.1989195 C0.351114327,57.3283409 3.70338213,60.6758988 7.83861336,60.6758988" id="Fill-161" fill="#49ADFF"></path>
                    <path d="M154.524327,28.6924667 C154.524327,35.8876539 148.683536,41.720603 141.47786,41.720603 C134.27255,41.720603 128.431028,35.8876539 128.431028,28.6924667 C128.431028,21.4972795 134.27255,15.6643304 141.47786,15.6643304 C148.683536,15.6643304 154.524327,21.4972795 154.524327,28.6924667" id="Fill-163" fill="#25003F"></path>
                    <path d="M152.752022,58.8215831 C152.752022,58.9748897 152.752022,59.1245461 152.748001,59.2778526 C152.503097,73.2396987 141.098953,84.4785286 127.062634,84.4785286 C115.694677,84.4785286 106.055674,77.1125141 102.666853,66.8957279 C102.37114,66.0014397 102.122214,65.0852506 101.924829,64.1471605 C101.592563,62.5739433 101.402488,60.9459738 101.37288,59.2778526 C101.36959,59.1245461 101.36959,58.9748897 101.36959,58.8215831 C101.36959,52.7623244 103.471382,47.1921866 106.991428,42.8010491 C107.645725,41.9834142 108.350831,41.2095811 109.100531,40.47955 C113.731786,35.9533567 120.066406,33.1682878 127.062634,33.1682878 C141.248454,33.1682878 152.752022,44.6553283 152.752022,58.8215831" id="Fill-165" fill="#25003F"></path>
                    <path d="M39.0970942,99.1116019 L96.6196848,96.4374977 L116.262125,78.5893306 L36.9057469,90.7458097 C36.9057469,90.7458097 36.2192832,88.9013859 35.2297958,86.9985597 C34.2403084,85.0957334 31.902384,83.2556899 32.1637373,79.1956215 C32.4247251,75.1359182 29.5962606,78.8652824 29.3875435,80.8239561 C29.1784608,82.7826297 31.3003575,86.4316905 29.6872774,87.2562607 C28.0745628,88.0808309 23.5672229,88.0060027 22.5667696,89.0941142 C21.5670474,90.1822256 21.9779021,92.5617622 22.7477065,92.9756899 C22.7477065,92.9756899 21.7483498,95.9100502 23.7203796,97.7274628 C23.7203796,97.7274628 23.8855987,99.8127968 25.8071855,100.628972 C25.8071855,100.628972 26.503884,102.695325 28.5939797,102.448209 C30.6840753,102.201094 35.4078085,100.482235 39.0970942,99.1116019" id="Fill-167" fill="#FF77CA"></path>
                    <polygon id="Fill-169" fill="#25003F" points="101.369663 93.0819824 152.752095 93.0819824 152.752095 59.2778891 101.369663 59.2778891"></polygon>
                    <path d="M175.149967,85.4748386 L165.872471,107.489294 C165.872471,107.489294 164.72142,114.800191 157.271936,118.457647 L135.365774,118.457647 C117.999119,112.67945 110.875322,96.819523 110.875322,96.819523 L86.1648202,108.647853 L86.1648202,81.7965766 C86.1648202,81.7965766 126.296996,76.0979533 126.037471,75.9479319 C125.679252,75.7435231 150.688756,74.3564639 155.637655,74.9116526 C160.587285,75.4661113 175.149967,85.4748386 175.149967,85.4748386" id="Fill-171" fill="#49A2FF"></path>
                    <path d="M114.527104,77.7419835 C114.527104,77.7419835 112.517059,78.9848615 111.303137,81.6556806 C109.715644,85.1481497 109.674705,90.0955709 110.065821,93.3734109 C110.312187,95.436479 110.875468,96.819523 110.875468,96.819523 C110.875468,96.819523 87.9959019,107.841169 86.1646009,108.647853 L86.1646009,81.7965766 C88.8329637,81.4096601 114.527104,77.7419835 114.527104,77.7419835" id="Fill-172" fill="#285FD7"></path>
                    <path d="M180.574346,101.378677 L179.357134,113.216133 C179.050089,116.19466 176.538904,118.457756 173.541565,118.457756 L147.084566,118.457756 L143.094815,121.058492 C143.094815,121.058492 143.169749,124.595128 143.507132,127.123226 C143.681124,128.427062 142.065485,129.240317 142.065485,129.240317 C142.065485,129.240317 141.652803,130.47772 140.603368,130.736881 C139.737064,130.95224 139.01551,129.366977 138.804965,128.801933 C139.945781,131.859304 138.118136,132.645912 137.566187,132.572909 C137.003272,132.496256 136.776644,131.674971 136.776644,131.674971 C136.776644,131.674971 135.654104,132.160441 133.910895,130.364565 C132.167321,128.565038 131.454539,123.024101 131.520335,121.10777 C131.541901,120.439791 132.035731,119.46885 132.667731,118.457756 C132.722926,118.370153 132.777755,118.278899 132.835874,118.191295 C133.994967,116.384468 135.504237,114.522888 135.504237,114.09217 L165.869108,107.489038 L172.298401,92.2386869 L180.574346,101.378677 Z" id="Fill-173" fill="#FF77CA"></path>
                    <path d="M133.10483,69.6406816 C131.708509,71.7541218 132.286045,74.5355406 133.086188,76.1598599 C133.35668,76.7183338 133.656779,77.1417518 133.91265,77.3534609 C134.906889,78.1747459 128.531695,84.241305 128.531695,84.241305 L122.921188,78.0798419 C119.397487,78.2769503 115.73452,78.0287397 113.461294,76.6051789 C106.687673,72.3636978 106.26366,57.6243685 106.373684,56.887037 L112.039386,50.8825306 C112.039386,50.8825306 120.591306,47.1378358 121.896245,48.7216384 C124.28315,51.6238773 129.87867,64.6140519 133.91265,63.1251534 C133.91265,63.1251534 133.397254,59.0844308 136.968108,59.0844308 C139.629526,59.0844308 140.353273,61.0993169 140.353273,62.2637166 C140.353273,66.1949344 134.979995,66.79356 133.10483,69.6406816" id="Fill-174" fill="#FF77CA"></path>
                    <polygon id="Fill-175" fill="#285FD7" points="114.466755 65.2911558 111.925962 71.1343253 114.884555 71.0740978"></polygon>
                    <path d="M117.182161,65.2439228 C117.247591,66.4105126 117.97536,67.3183064 118.80767,67.2719494 C119.64071,67.2252274 120.262476,66.2418754 120.19668,65.0756506 C120.131251,63.9090608 119.403482,63.0009021 118.571172,63.0476241 C117.738497,63.093981 117.116732,64.077333 117.182161,65.2439228" id="Fill-176" fill="#0B096F"></path>
                    <path d="M109.364005,65.0685328 C109.429434,66.2351227 110.157203,67.1429164 110.989513,67.0965594 C111.822188,67.0498374 112.443953,66.0664855 112.378524,64.9002607 C112.313094,63.7336708 111.585325,62.8255121 110.753015,62.8722341 C109.92034,62.918591 109.298209,63.901943 109.364005,65.0685328" id="Fill-177" fill="#0B096F"></path>
                    <path d="M113.976654,50.8131412 C113.976654,52.4265101 113.691541,53.9778263 113.168834,55.4159877 C113.099384,55.5948453 113.029933,55.7810033 112.949151,55.9598609 C112.445086,57.1644124 111.772513,58.28136 110.961038,59.2778526 C108.771519,61.9607171 105.561807,63.7784948 101.924792,64.1471605 C101.738738,64.1654113 101.555973,64.1800119 101.369553,64.1873122 L101.369553,59.2778526 L101.373209,59.2778526 C101.369553,59.1245461 101.369553,58.9748897 101.369553,58.8215831 C101.369553,52.7623244 103.471346,47.1921866 106.991392,42.8010491 C107.645689,41.9834142 108.350794,41.2095811 109.100495,40.47955 C110.803495,41.88486 112.152663,43.7026376 112.99667,45.7832264 C113.629401,47.3345427 113.976654,49.0318651 113.976654,50.8131412" id="Fill-178" fill="#25003F"></path>
                    <path d="M133.911919,50.5010894 C133.911919,54.0077941 130.55234,56.9636903 125.962391,57.869659 C125.599055,57.9437571 125.229139,58.0028897 124.84972,58.0474216 C124.241114,58.1248049 123.613135,58.1620365 122.975652,58.1620365 C116.935283,58.1620365 112.039386,54.73308 112.039386,50.5010894 C112.039386,50.094097 112.08398,49.6947699 112.173169,49.3063933 C112.99232,45.6405418 117.515743,42.8364921 122.975652,42.8364921 C128.958633,42.8364921 133.81615,46.2030308 133.908629,50.3791741 C133.911919,50.4196909 133.911919,50.4605726 133.911919,50.5010894" id="Fill-179" fill="#25003F"></path>
                    <path d="M114.884409,73.3464658 C114.884409,73.3464658 118.315996,73.6647594 118.315996,71.2874129" id="Fill-180" fill="#FFFFFF"></path>
                    <path d="M135.011357,76.9800499 C136.939158,78.6613117 137.065631,81.6672151 135.293546,83.6937816 C133.52146,85.7203481 130.106322,86.0944891 128.531622,84.241305 C126.875775,82.2921217 126.539123,79.6315231 128.311574,77.6049566 C130.083659,75.5783901 133.083557,75.2987881 135.011357,76.9800499" id="Fill-181" fill="#FF77CA"></path>
                    <path d="M141.803985,94.4986444 L132.274641,94.4986444 L132.274641,72.1994773 L152.751949,72.1994773 L152.751949,83.5660626 C152.751949,89.6037854 147.850569,94.4986444 141.803985,94.4986444" id="Fill-182" fill="#25003F"></path>
                    <path d="M122.921042,78.0797324 C122.921042,78.0797324 126.669544,77.5187034 128.567371,76.5360815 L125.001269,80.3643649 L122.921042,78.0797324 Z" id="Fill-183" fill="#EF3C86"></path>
                    <polygon id="Fill-184" fill="#EF3C86" points="86.164674 83.1999155 86.164674 96.9237715 84.4211 97.0044399 85.1448477 83.3561422"></polygon>
                    <polygon id="Fill-185" fill="#EF3C86" points="165.868962 107.489148 169.187967 106.626251 172.29862 92.2387964"></polygon>
                    <polygon id="Fill-186" fill="#285FD7" points="152.392195 94.4986444 162.360175 108.252067 157.140053 109.387265"></polygon>
                    <path d="M30.1744546,89.1524437 C30.5586257,90.191278 29.0870054,91.220987 29.0870054,91.220987 C29.0870054,91.220987 30.6123585,91.0903114 31.0553798,92.5124121 C31.4490547,93.7760961 29.8480371,94.7492276 29.8480371,94.7492276 C29.8480371,94.7492276 31.6647169,94.4871464 32.1428291,95.9194676 C32.7075716,97.6109498 30.6452561,98.5212987 30.6452561,98.5212987 C30.6452561,98.5212987 32.6439695,97.8051381 33.0935704,99.372515 C33.5252603,100.876379 31.5897835,101.343234 31.5897835,101.343234" id="Stroke-187" stroke="#DE479D" stroke-width="0.5" stroke-linecap="round"></path>
                    <path d="M22.7478527,92.9756534 L29.0872247,91.2206585" id="Stroke-188" stroke="#DE479D" stroke-width="0.5"></path>
                    <path d="M23.7202334,97.7276453 L29.8483295,94.7494831" id="Stroke-189" stroke="#DE479D" stroke-width="0.5"></path>
                    <path d="M25.8070393,100.628862 L30.645183,98.5212622" id="Stroke-190" stroke="#DE479D" stroke-width="0.5"></path>
                    <path d="M136.776534,131.309955 C136.776534,131.309955 134.941212,127.235286 134.612602,125.363851 C134.134489,122.63974 134.188953,120.450376 134.188953,120.450376" id="Stroke-191" stroke="#DE479D" stroke-width="0.5" stroke-linecap="round"></path>
                    <path d="M139.33988,129.926911 C139.33988,129.926911 138.082095,126.440282 137.600693,125.020007 C137.062999,123.432554 137.058978,119.888618 137.058978,119.888618" id="Stroke-192" stroke="#DE479D" stroke-width="0.5" stroke-linecap="round"></path>
                    <path d="M140.356161,119.495423 C140.356161,119.495423 140.057158,122.144341 140.32436,124.025631 C140.677096,126.510292 142.065741,128.875228 142.065741,128.875228" id="Stroke-193" stroke="#DE479D" stroke-width="0.5" stroke-linecap="round"></path>
                </g>
                <g id="Phone" transform="translate(111.000000, 67.000000)">
                    <g id="Group" transform="translate(0.431625, 0.220320)">
                        <path d="M185.052283,310.278183 C185.052283,311.008542 148.739656,311.600291 103.945612,311.600291 C59.1512025,311.600291 22.8385751,311.008542 22.8385751,310.278183 C22.8385751,309.547824 59.1512025,308.956075 103.945612,308.956075 C148.739656,308.956075 185.052283,309.547824 185.052283,310.278183" id="Fill-195" fill="#AFB4C8"></path>
                        <path d="M135.859372,246.248601 L34.2169011,246.248601 C28.5264073,246.248601 23.7575927,241.931545 23.1749807,236.253248 L0.218680046,12.4132924 C-0.454714494,5.84773879 4.68087592,0.139086455 11.2606005,0.139086455 L112.899426,0.139086455 C118.589919,0.139086455 123.359099,4.45577705 123.941346,10.1340739 L146.901292,233.973664 C147.574687,240.539583 142.439097,246.248601 135.859372,246.248601" id="Fill-197" fill="#1F2430"></path>
                        <path d="M148.633852,246.248601 L46.9939336,246.248601 C41.3027107,246.248601 36.533896,241.933008 35.9505548,236.253248 L12.9924312,12.4129267 C12.3215888,5.84847025 17.4549917,0.139086455 24.03581,0.139086455 L125.675729,0.139086455 C131.366952,0.139086455 136.135766,4.45504559 136.715462,10.1344397 L159.677231,233.974761 C160.35172,240.539949 155.214671,246.248601 148.633852,246.248601" id="Fill-199" fill="#5B6A76"></path>
                    </g>
                    <g id="Group" transform="translate(22.671510, 7.534885)">
                        <mask id="mask-4" fill="white">
                            <use xlink:href="#path-3"></use>
                        </mask>
                        <g id="Clip-203"></g>
                        <polygon id="Fill-202" fill="#FFFFFF" mask="url(#mask-4)" points="-22.0809242 243.989754 146.882042 243.989754 146.882042 -12.357592 -22.0809242 -12.357592"></polygon>
                        <path d="M27.1353572,178.846383 L33.8138852,243.959545 C34.1201394,246.942424 36.6252254,249.210305 39.6148493,249.210305 L117.987474,249.210305 C121.444135,249.210305 124.141724,246.210968 123.788073,242.76215 L117.109545,177.670933 C116.803656,174.688784 114.299299,172.421269 111.310404,172.420538 L32.9377796,172.398228 C29.480389,172.397131 26.7817066,175.396469 27.1353572,178.846383" id="Fill-204" fill="#E8F6FF" mask="url(#mask-4)"></path>
                        <path d="M15.8329385,67.9426912 L22.5114665,133.055853 C22.817356,136.038732 25.3228066,138.306613 28.3120659,138.306613 L106.68469,138.306613 C110.141352,138.306613 112.839305,135.307276 112.485654,131.858092 L105.807126,66.7672405 C105.500872,63.7850924 102.99688,61.5175772 100.007985,61.5168457 L21.6349963,61.4945363 C18.1779703,61.4934391 15.4789233,64.4927765 15.8329385,67.9426912" id="Fill-205" fill="#E8F6FF" mask="url(#mask-4)"></path>
                        <path d="M4.18106186,-43.0669159 L10.8595898,22.0462455 C11.1654794,25.0291252 13.67093,27.2970061 16.6601893,27.2970061 L95.0328137,27.2970061 C98.4894751,27.2970061 101.187428,24.2980344 100.833778,20.8488512 L94.1552497,-44.2420007 C93.8489955,-47.2245147 91.3450033,-49.4916641 88.3561086,-49.4927613 L9.98348423,-49.5150707 C6.52609363,-49.5158022 3.82704665,-46.5168305 4.18106186,-43.0669159" id="Fill-206" fill="#E8F6FF" mask="url(#mask-4)"></path>
                        <path d="M49.1115717,149.494204 L49.7430386,155.650873 C49.8961656,157.143776 51.1499847,158.278997 52.6458904,158.278997 L60.8684497,158.278997 C62.5984211,158.278997 63.9484915,156.778048 63.7713016,155.051445 L63.1398347,148.89697 C62.9867076,147.404798 61.7336177,146.269944 60.237712,146.269578 L52.0155173,146.267018 C50.2851813,146.266652 48.9343818,147.767601 49.1115717,149.494204" id="Fill-207" fill="#DCE0E3" mask="url(#mask-4)"></path>
                        <path d="M58.1552567,153.452371 L58.0863495,153.521494 L58.0863495,156.140474 C58.0863495,158.447853 59.1093842,159.990129 61.1288387,160.318919 C61.4657182,160.373778 62.6229214,160.404499 63.5909033,160.421323 C63.8406462,160.425712 63.8552298,160.083024 63.6156953,160.012804 C61.6644188,159.441171 61.1288387,157.663 61.1288387,156.140474 L61.1288387,153.521494 C61.1018591,153.49443 61.086911,153.479435 61.0595669,153.452371 L58.1552567,153.452371 Z" id="Fill-208" fill="#DCE0E3" mask="url(#mask-4)"></path>
                        <polyline id="Stroke-209" stroke="#EF3C86" stroke-width="3.85" stroke-linecap="round" mask="url(#mask-4)" points="38.566658 150.117258 35.8548504 154.39189 31.5603651 150.117258"></polyline>
                        <path d="M36.3930191,38.6101513 L37.024486,44.7668208 C37.1776131,46.2600892 38.4314322,47.394944 39.9277024,47.394944 L48.1498972,47.394944 C49.8798685,47.394944 51.2299389,45.8939953 51.052749,44.1677579 L50.4216467,38.0132828 C50.2681551,36.5207458 49.0150652,35.385891 47.5195241,35.3855253 L39.2969647,35.3833309 C37.5666288,35.3825995 36.2161938,36.883914 36.3930191,38.6101513" id="Fill-210" fill="#DCE0E3" mask="url(#mask-4)"></path>
                        <path d="M45.43685,42.5685014 C45.4098705,42.5955653 45.3949224,42.6105601 45.3679428,42.637624 L45.3679428,45.2566041 C45.3679428,47.5639836 46.3909775,49.1058939 48.4100674,49.4350494 C48.7473115,49.4899086 49.9045147,49.5206298 50.872132,49.5374533 C51.121875,49.5414763 51.1368231,49.1991547 50.8972886,49.1289348 C48.9460121,48.5569358 48.4100674,46.7791308 48.4100674,45.2566041 L48.4100674,42.637624 L48.3411602,42.5685014 L45.43685,42.5685014 Z" id="Fill-211" fill="#DCE0E3" mask="url(#mask-4)"></path>
                        <polyline id="Stroke-212" stroke="#CED2E1" stroke-width="3.85" stroke-linecap="round" mask="url(#mask-4)" points="25.848069 39.2333889 23.136626 43.5080207 18.8417761 39.2333889"></polyline>
                        <path d="M71.003785,205.041304 C63.9807211,212.514595 52.2482704,212.861305 44.7986382,205.816282 C37.3486415,198.771259 37.0026472,187.002489 44.0257111,179.529198" id="Fill-213" fill="#D8E9F0" mask="url(#mask-4)"></path>
                        <path d="M85.5613208,228.333988 C75.9197839,219.607712 75.1556068,204.692948 83.854683,195.021264 C92.5537592,185.34958 107.422034,184.583014 117.06357,193.30929" id="Fill-214" fill="#D8E9F0" mask="url(#mask-4)"></path>
                        <path d="M99.4624883,72.5980461 C99.4624883,85.0401214 93.5525124,96.3447817 80.1684768,96.3447817 C66.7880872,96.3447817 60.8781113,85.0401214 60.8781113,72.5980461 C60.8781113,68.8054441 61.5598914,65.0201567 62.7338656,61.4945363 L97.6030881,61.4945363 C98.7770623,65.0201567 99.4624883,68.8054441 99.4624883,72.5980461" id="Fill-215" fill="#D8E9F0" mask="url(#mask-4)"></path>
                        <path d="M80.1592528,75.7260102 L80.1592528,110.742296" id="Stroke-216" stroke="#CDD9E3" stroke-width="0.875" mask="url(#mask-4)"></path>
                        <path d="M51.118776,97.0753971 C39.3608041,99.4453162 32.1747693,90.5581196 29.9872396,79.6228447 C29.323689,76.3166613 29.2544172,72.8934448 29.6518184,69.6092051 C29.9981773,66.7455529 30.7018327,63.9879618 31.6789292,61.4973524 L43.9947211,61.5010097 L46.3973578,73.4968965 L51.118776,97.0753971 Z" id="Fill-217" fill="#CEDDE1" mask="url(#mask-4)"></path>
                        <path d="M55.3425311,130.257556 C55.3425311,130.257556 45.7699014,117.877289 48.9108294,115.028266 C52.0517573,112.178877 55.2739885,119.55013 60.2845251,119.174893 C65.2954264,118.799655 60.7785423,113.781498 62.0097569,111.455832 C63.2406069,109.130166 78.3790411,116.699278 78.3790411,116.699278 L55.3425311,130.257556 Z" id="Fill-218" fill="#D8E9F0" mask="url(#mask-4)"></path>
                        <path d="M56.4236447,92.690425 C56.4236447,105.582346 46.0037119,116.03486 33.1483293,116.03486 C28.4305571,116.03486 24.0409143,114.626806 20.3731562,112.205685 L16.679877,76.199738 C20.1142986,72.7472632 24.6169637,70.3700296 29.6519278,69.6093148 C30.7930891,69.4337653 31.9597716,69.3459905 33.1483293,69.3459905 C38.070271,69.3459905 42.6385621,70.8783919 46.3974672,73.4970062 C52.4569243,77.7101957 56.4236447,84.7358355 56.4236447,92.690425" id="Fill-219" fill="#D8E9F0" mask="url(#mask-4)"></path>
                        <path d="M34.0279715,92.690425 L34.0279715,127.706711" id="Stroke-220" stroke="#CDD9E3" stroke-width="0.875" mask="url(#mask-4)"></path>
                        <path d="M69.4327376,195.205225 C69.4327376,198.528964 66.7468158,201.222918 63.4338022,201.222918 C60.120424,201.222918 57.4348667,198.528964 57.4348667,195.205225 C57.4348667,191.881853 60.120424,189.187533 63.4338022,189.187533 C66.7468158,189.187533 69.4327376,191.881853 69.4327376,195.205225" id="Fill-221" fill="#CEDDE1" mask="url(#mask-4)"></path>
                    </g>
                </g>
                <g id="Man" transform="translate(175.000000, 77.000000)">
                    <path d="M18.3611414,5.84465341 L10.153787,5.84465341 C9.22912812,5.84465341 8.47248918,5.09059407 8.47248918,4.16864154 C8.47248918,3.24668902 9.22912812,2.49262967 10.153787,2.49262967 L18.3611414,2.49262967 C19.2854343,2.49262967 20.0420732,3.24668902 20.0420732,4.16864154 C20.0420732,5.09059407 19.2854343,5.84465341 18.3611414,5.84465341" id="Fill-223" fill="#000000"></path>
                    <path d="M28.2239501,2.93528368 C28.2239501,4.47844095 26.9694742,5.72888012 25.4221531,5.72888012 C23.8744659,5.72888012 22.61999,4.47844095 22.61999,2.93528368 C22.61999,1.39212641 23.8744659,0.14168724 25.4221531,0.14168724 C26.9694742,0.14168724 28.2239501,1.39212641 28.2239501,2.93528368" id="Fill-225" fill="#000000"></path>
                    <path d="M5.89464559,3.04437774 C5.89464559,4.58753501 4.64016972,5.83833917 3.09284859,5.83833917 C1.5451614,5.83833917 0.290685524,4.58753501 0.290685524,3.04437774 C0.290685524,1.50158546 1.5451614,0.250781306 3.09284859,0.250781306 C4.64016972,0.250781306 5.89464559,1.50158546 5.89464559,3.04437774" id="Fill-227" fill="#000000"></path>
                    <path d="M71.7573378,222.095151 L69.0305824,229.525154 C69.0305824,229.525154 87.1489185,238.017264 92.9033278,245.96445 L57.5085857,238.033323 L63.5485191,216.527667 L71.7573378,222.095151 Z" id="Fill-229" fill="#0B096F"></path>
                    <polygon id="Fill-231" fill="#EF3C86" points="62.9714309 218.14769 60.5159235 227.325607 69.0307654 229.525373 71.3094676 223.360408"></polygon>
                    <path d="M2.22192679,135.835689 C2.22192679,135.835689 26.4497471,107.588392 54.6079168,108.411799 C82.7660865,109.23557 73.626386,128.979807 73.626386,128.979807 C73.626386,128.979807 87.4849218,154.730606 88.8481165,173.697425 C89.7683827,186.498184 73.3895474,227.210089 73.3895474,227.210089 L60.3242562,223.50914 C60.3242562,223.50914 73.6428586,185.489365 70.6016606,169.766899 C68.398,158.373158 51.354772,137.055104 45.7727754,135.835689 L2.22192679,135.835689 Z" id="Fill-233" fill="#25003F"></path>
                    <path d="M144.103185,104.93422 L141.934666,121.411475 L122.659591,119.842039 C122.659591,119.842039 114.304715,125.858089 101.338992,128.978712 C88.3769285,132.102985 68.800223,136.636101 57.5366622,128.978712 C46.2731015,121.321324 49.7652812,111.674766 49.7652812,111.674766 L62.5845824,111.82806 L65.7586589,95.0854602 C75.9972612,93.7642139 84.5992246,94.3160715 91.9203561,94.8270507 C101.401221,95.4876739 108.539324,97.1520062 113.601887,98.4221546 C114.238825,98.5827481 114.934333,98.7542911 115.684749,98.9367837 C125.502386,101.323787 144.103185,104.93422 144.103185,104.93422" id="Fill-235" fill="#FFC100"></path>
                    <path d="M98.0467155,112.97904 C92.8655507,111.331862 90.9884126,106.371714 91.6641531,99.7647525 C91.8442529,98.0033341 93.0192945,95.3404024 95.6373311,95.1465953 C105.118196,95.8072184 113.741025,96.9160433 114.078163,98.5292777 C116.706083,111.107396 102.341657,114.34445 98.0467155,112.97904" id="Fill-237" fill="#FF77CA"></path>
                    <path d="M101.339797,108.411908 L113.603058,100.537353 C113.603058,100.537353 125.98602,104.827754 128.971577,103.978798 C128.971577,103.978798 136.155804,92.2667893 136.030978,82.9479881 L127.367151,71.2246647 L109.968849,68.9953353 L104.856869,84.0688576 C104.499963,81.2478872 97.0119101,76.2793442 93.840396,81.7986499 C89.750812,88.9162255 101.908649,95.0676855 101.908649,95.0676855 L94.2404958,99.2774243 L101.339797,108.411908 Z" id="Fill-239" fill="#FF77CA"></path>
                    <path d="M96.93998,79.408946 C96.93998,79.408946 90.0211448,73.5075009 101.763507,65.4781923 C113.50587,57.4485187 121.083973,64.3971062 121.083973,64.3971062 C121.083973,64.3971062 125.606236,54.7016404 132.345338,56.1031834 C141.94627,58.1003822 140.399314,73.2056582 140.399314,73.2056582 C140.399314,73.2056582 144.446436,65.6428006 146.964905,67.354216 C149.483374,69.0656315 146.53003,96.3183436 110.963973,75.5076196 C110.963973,75.5076196 113.923175,84.3534 104.857052,84.0687116 C104.857052,84.0687116 102.782243,79.0213318 96.93998,79.408946" id="Fill-241" fill="#0B096F"></path>
                    <polyline id="Stroke-243" stroke="#001F68" stroke-width="1.575" points="107.929547 56.8969531 107.766652 63.8214516 105.012443 64.5079887 101.339797 58.8543685"></polyline>
                    <polygon id="Fill-245" fill="#285FD7" points="127.343943 89.5652786 128.587804 96.3667772 125.501581 95.7583469"></polygon>
                    <path d="M125.10774,88.5562042 C124.973764,89.421584 124.16185,90.0150499 123.293564,89.8814653 C122.425644,89.7478807 121.830802,88.9379786 121.964779,88.0725988 C122.098389,87.207219 122.910669,86.6141181 123.778589,86.7473377 C124.646509,86.8809223 125.241717,87.6908243 125.10774,88.5562042" id="Fill-247" fill="#0B096F"></path>
                    <path d="M133.29379,88.9680899 C133.159814,89.8334697 132.347534,90.4269356 131.479614,90.293351 C130.61206,90.1597665 130.016852,89.3498644 130.150829,88.4844846 C130.284439,87.6191047 131.096719,87.0260039 131.964639,87.1592234 C132.832559,87.293173 133.427767,88.1027101 133.29379,88.9680899" id="Fill-249" fill="#0B096F"></path>
                    <polygon id="Fill-251" fill="#EF3C86" points="113.603058 100.487752 104.634672 96.1692472 109.822792 102.964906"></polygon>
                    <path d="M121.177647,84.6811202 C121.685002,83.8858175 122.614785,83.3938175 123.622905,83.4916335 C124.630659,83.5898145 125.448063,84.2515326 125.791424,85.1296869" id="Stroke-253" stroke="#0D1A88" stroke-width="0.525"></path>
                    <path d="M129.363697,85.4768243 C129.871052,84.6815217 130.801201,84.1895217 131.808955,84.2873377 C132.816709,84.3855187 133.633747,85.0472368 133.977474,85.9253911" id="Stroke-255" stroke="#0D1A88" stroke-width="0.525"></path>
                    <polygon id="Fill-257" fill="#EF3C86" points="210.741917 120.072709 206.339354 124.059442 199.130602 121.195769 201.608805 116.591481"></polygon>
                    <path d="M142.159571,119.714696 L193.291451,122.767431 C193.291451,122.767431 197.740136,124.953693 200.105594,125.432918 C202.470686,125.911779 206.581867,125.181808 209.003331,126.305233 C211.425161,127.427927 210.974546,124.451838 208.778206,123.946699 C206.581867,123.441194 201.738572,121.19544 201.738572,121.19544 L204.55428,119.286203 C204.55428,119.286203 214.128123,121.363699 215.81784,121.083025 C217.507191,120.801986 219.816276,119.510669 219.816276,118.612075 C219.816276,118.612075 208.890952,117.826262 205.117641,115.187055 C201.344696,112.547847 193.122333,115.580144 193.122333,115.580144 L144.038539,105.417132 L142.159571,119.714696 Z" id="Fill-259" fill="#FF77CA"></path>
                    <path d="M65.6458769,95.7217389 C65.6458769,95.7217389 44.921584,96.8166944 40.1159933,98.4215341 C35.3100366,100.026739 13.3843461,135.739077 13.3843461,135.739077 L20.2548619,136.188374 C20.2548619,136.188374 17.4391547,140.680611 15.299188,141.354374 C13.1592213,142.028136 15.7494376,143.151196 15.7494376,143.151196 C15.7494376,143.151196 15.4148619,144.485217 18.0021498,144.611136 C22.6228819,144.835602 29.4908353,141.803306 32.4192879,137.086602 C32.4192879,137.086602 33.9962596,134.343374 31.7435474,133.188196 C29.4908353,132.033018 24.985411,131.808552 24.985411,131.808552 L43.1905025,111.593849 L62.5827155,111.829264 L65.6458769,95.7217389 Z" id="Fill-261" fill="#FF77CA"></path>
                    <path d="M126.394832,99.1366861 C125.851604,100.158645 124.023151,100.253906 122.310739,99.3487424 C120.598692,98.4439442 119.847178,96.4960184 120.390772,95.473695 C120.934,94.4517365 122.582719,96.0686208 124.295131,96.973419 C126.007178,97.8782172 126.93806,98.1147276 126.394832,99.1366861" id="Fill-263" fill="#FFFFFF"></path>
                    <path d="M49.7653178,111.674693 L62.584619,111.827987 L62.2438203,113.453996 L75.4262496,112.623289 L49.4677138,117.695123 C49.4677138,117.695123 49.0701764,115.786616 49.333005,113.789782 C49.4830882,112.652123 49.7653178,111.674693 49.7653178,111.674693" id="Fill-265" fill="#E0660C"></path>
                    <path d="M15.9374443,142.926547 C15.9374443,142.926547 18.1147488,142.4882 20.128426,140.862921 C23.6762463,137.999248 24.2813378,135.205651 24.2813378,135.205651" id="Stroke-267" stroke="#DE479D" stroke-width="0.5" stroke-linecap="round"></path>
                    <path d="M18.1289517,144.316265 C18.1289517,144.316265 20.007188,144.043256 22.5216306,142.196431 C26.47797,139.290419 27.5688186,135.997888 27.5688186,135.997888" id="Stroke-269" stroke="#DE479D" stroke-width="0.5" stroke-linecap="round"></path>
                </g>
            </g>
        </g>
    </g>
</svg>